<?xml version="1.0" encoding="utf-8"?>
<!-- Generator: Adobe Illustrator 23.0.3, SVG Export Plug-In . SVG Version: 6.00 Build 0)  -->
<svg version="1.1" id="BLEU_NEGATIF" xmlns="http://www.w3.org/2000/svg" xmlns:xlink="http://www.w3.org/1999/xlink" x="0px"
	 y="0px" viewBox="0 0 114.2 114.2" style="enable-background:new 0 0 114.2 114.2;" xml:space="preserve">
<style type="text/css">
	.st0{fill:#005CA9;}
	.st1{fill:#BCFC32;}
</style>
<title>Call center</title>
<g>
	<circle class="st0" cx="57.1" cy="57.1" r="56.6"/>
	<path class="st1" d="M90.4,62.8c0-3.2-1.2-6.3-3.4-8.6c0-0.1-0.1-0.1-0.1-0.3c-0.7-16.4-14.5-29.2-31-28.6C40.4,26,28,38.5,27.3,54
		c0,0.1-0.1,0.1-0.1,0.3c-2.2,2.3-3.4,5.4-3.4,8.6c0.1,6.5,4.9,11.9,11.3,12.7c0.7,0.1,1.4-0.5,1.4-1.2c0,0,0,0,0-0.1V51.5
		c0-0.7-0.7-1.3-1.4-1.2c0,0,0,0,0,0c-0.5,0-1,0.1-1.4,0.3c-0.3,0.1-0.6-0.3-0.6-0.6c2.7-11.1,12.7-18.8,24-18.8
		c11.3,0,21.2,7.7,23.9,18.7c0.1,0.3-0.3,0.6-0.6,0.6s-1-0.1-1.4-0.3c-0.7-0.1-1.4,0.5-1.4,1.2c0,0,0,0,0,0.1v22.7
		c0,0.7,0.6,1.3,1.3,1.3c0,0,0,0,0.1,0c0.4,0,0.8,0.3,0.9,0.7c0,0.1,0,0.2,0,0.3c-1.6,5-6.1,7-15.3,7.5c-0.8-1.2-2.2-1.8-3.6-1.8h-5
		c-2.2,0-4.1,1.5-4.1,3.4s1.8,3.4,4.1,3.4h5c1.5,0,3-0.7,3.7-2c10.2-0.4,17.8-3.6,19-13C87.9,71.6,90.4,67.4,90.4,62.8z"/>
</g>
</svg>
