<?xml version="1.0" standalone="no"?>
<!DOCTYPE svg PUBLIC "-//W3C//DTD SVG 1.1//EN" "http://www.w3.org/Graphics/SVG/1.1/DTD/svg11.dtd" >
<svg xmlns="http://www.w3.org/2000/svg" xmlns:xlink="http://www.w3.org/1999/xlink" version="1.1">
<metadata>
Created by FontForge 20170731 at Wed Sep 21 16:25:17 2016
 By Aleksey,,,
Copyright (c) 2015 by Typetype. Designer Ivan Gladkikh, technical designer Olexa Volochay. All rights reserved.
</metadata>
<defs>
<font id="TTRoundsCondensed-Regular" horiz-adv-x="530" >
  <font-face 
    font-family="TT Rounds Condensed"
    font-weight="400"
    font-stretch="normal"
    units-per-em="1000"
    panose-1="2 0 5 6 3 0 0 2 0 3"
    ascent="800"
    descent="-200"
    x-height="510"
    cap-height="700"
    bbox="-50 -275 1130 1010"
    underline-thickness="50"
    underline-position="-200"
    unicode-range="U+0020-F6D4"
  />
<missing-glyph horiz-adv-x="0" 
 />
    <glyph glyph-name=".notdef" horiz-adv-x="0" 
 />
    <glyph glyph-name=".null" horiz-adv-x="0" 
 />
    <glyph glyph-name="nonmarkingreturn" horiz-adv-x="333" 
 />
    <glyph glyph-name="space" unicode=" " horiz-adv-x="180" 
 />
    <glyph glyph-name="exclam" unicode="!" horiz-adv-x="270" 
d="M175 670l-5 -440q0 -18 -10 -29t-25 -11t-25 11t-10 29l-5 440q0 45 40 45t40 -45zM90 40q0 22 13 36t32 14t32 -14t13 -36t-13 -36t-32 -14t-32 14t-13 36z" />
    <glyph glyph-name="quotedbl" unicode="&#x22;" horiz-adv-x="310" 
d="M60 470l-5 100q-5 82 -5 100q0 15 8.5 25t23.5 10t24 -10t9 -25q0 -18 -5 -100l-5 -100q-2 -25 -23 -25q-20 0 -22 25zM205 470l-5 100q-5 83 -5 100q0 15 8.5 25t23.5 10t24 -10t9 -25q0 -18 -5 -100l-5 -100q-2 -25 -23 -25q-20 0 -22 25z" />
    <glyph glyph-name="numbersign" unicode="#" horiz-adv-x="625" 
d="M535 640l-35 -135h80q15 0 25 -9.5t10 -22.5q0 -14 -10 -23.5t-25 -9.5h-95l-45 -180h80q15 0 25 -9.5t10 -22.5q0 -14 -10 -23.5t-25 -9.5h-95l-40 -165q-9 -35 -35 -35q-15 0 -25 10t-10 25q0 5 5 30l35 135h-160l-40 -165q-9 -35 -35 -35q-15 0 -25 10t-10 25
q0 5 5 30l35 135h-80q-15 0 -25 9.5t-10 22.5q0 14 10 23.5t25 9.5h95l45 180h-80q-15 0 -25 9.5t-10 22.5q0 14 10 23.5t25 9.5h95l40 165q9 35 35 35q15 0 25 -10t10 -25q0 -5 -5 -30l-35 -135h160l40 165q9 35 35 35q15 0 25 -10t10 -25q0 -5 -5 -30zM255 440l-45 -180
h160l45 180h-160z" />
    <glyph glyph-name="dollar" unicode="$" horiz-adv-x="535" 
d="M275 650q-66 0 -103 -34t-37 -91q0 -34 20 -58.5t52.5 -39.5t71 -27.5t77.5 -28t71.5 -36t52.5 -56t20 -84.5q0 -86 -53.5 -145t-146.5 -70v-50q0 -40 -40 -40q-15 0 -25 11t-10 29v50q-56 7 -99.5 34.5t-66.5 65.5q-24 37 -24 65q0 15 10 25t25 10q28 0 40 -30
q19 -46 58.5 -73t91.5 -27q77 0 121 40t44 105q0 34 -20 58.5t-52.5 39.5t-71 27.5t-77.5 28t-71.5 36t-52.5 56t-20 84.5q0 76 43.5 126.5t121.5 63.5v55q0 18 10 29t25 11q40 0 40 -40v-51q78 -8 134 -54t56 -85q0 -18 -10 -29t-25 -11q-7 0 -12.5 2t-10.5 7t-7.5 8
t-7.5 11.5t-7 11.5q-23 35 -60.5 52.5t-74.5 17.5z" />
    <glyph glyph-name="percent" unicode="%" horiz-adv-x="680" 
d="M590 140v45q0 50 -19 75t-51 25t-51 -25t-19 -75v-45q0 -50 19 -75t51 -25t51 25t19 75zM390 140v45q0 73 36 114t94 41t94 -41t36 -114v-45q0 -73 -36 -114t-94 -41t-94 41t-36 114zM540 625l-355 -630q-9 -15 -30 -15q-15 0 -25 10t-10 25q0 12 20 45l355 630
q9 15 30 15q15 0 25 -10t10 -25q0 -12 -20 -45zM230 500v45q0 50 -19 75t-51 25t-51 -25t-19 -75v-45q0 -50 19 -75t51 -25t51 25t19 75zM30 500v45q0 73 36 114t94 41t94 -41t36 -114v-45q0 -73 -36 -114t-94 -41t-94 41t-36 114z" />
    <glyph glyph-name="ampersand" unicode="&#x26;" horiz-adv-x="590" 
d="M380 150l-165 175q-4 -2 -11.5 -6t-26.5 -18t-33.5 -30t-26.5 -42t-12 -54q0 -52 35.5 -88.5t84.5 -36.5q38 0 76.5 25t58.5 50zM150 540q0 -33 20 -67t40 -51l20 -17q4 2 11.5 6t26.5 17t33.5 27.5t26.5 37.5t12 47q0 51 -28 83t-67 32t-67 -32t-28 -83zM505 20l-75 75
q-3 -5 -9.5 -12.5t-27 -27.5t-42.5 -35t-56.5 -27.5t-69.5 -12.5q-86 0 -140.5 54.5t-54.5 140.5q0 36 14 69.5t33.5 55.5t39.5 38.5t34 23.5l14 8v5q-3 3 -9 8t-20.5 21.5t-26 34.5t-20.5 45.5t-9 55.5q0 81 46.5 130.5t118.5 49.5t118.5 -49.5t46.5 -130.5
q0 -31 -13.5 -61t-32.5 -50.5t-38 -36.5t-32 -24l-14 -8v-5l145 -150l44 55q1 2 4.5 6t4.5 5t4 4.5t4.5 4.5t4 3.5t4.5 3t4.5 1.5t5 1.5t5.5 0.5q15 0 25 -10t10 -25q0 -16 -15 -35l-55 -70l80 -80q25 -25 25 -40t-10 -25t-25 -10q-18 0 -40 25z" />
    <glyph glyph-name="quotesingle" unicode="'" horiz-adv-x="165" 
d="M60 470l-5 100q-5 82 -5 100q0 15 8.5 25t23.5 10t24 -10t9 -25q0 -18 -5 -100l-5 -100q-2 -25 -23 -25q-20 0 -22 25z" />
    <glyph glyph-name="parenleft" unicode="(" horiz-adv-x="315" 
d="M135 285q0 -93 20 -176t51.5 -139t50 -82t35.5 -45q3 -2 3 -3q10 -12 10 -25q0 -15 -10 -25t-25 -10t-25 10t-22.5 24.5t-43.5 62.5t-54 100.5t-41.5 136t-18.5 171.5t18.5 171.5t41.5 136t54 100.5t43.5 62.5t22.5 24.5t25 10t25 -10t10 -25q0 -13 -10 -25q0 -1 -3 -3
q-117 -129 -148 -322q-9 -59 -9 -120z" />
    <glyph glyph-name="parenright" unicode=")" horiz-adv-x="315" 
d="M180 285q0 93 -20 176t-51.5 139t-50 82t-35.5 45q-3 2 -3 3q-10 12 -10 25q0 15 10 25t25 10t25 -10t22.5 -24.5t43.5 -62.5t54 -100.5t41.5 -136t18.5 -171.5t-18.5 -171.5t-41.5 -136t-54 -100.5t-43.5 -62.5t-22.5 -24.5t-25 -10t-25 10t-10 25q0 13 10 25q0 1 3 3
q117 129 148 322q9 59 9 120z" />
    <glyph glyph-name="asterisk" unicode="*" horiz-adv-x="460" 
d="M230 460l-85 -120q-14 -20 -30 -20q-14 0 -22 8.5t-8 21.5t10 25l95 115l-145 40q-25 7 -25 30q0 18 9 26.5t21 8.5q10 0 20 -5l135 -55l-5 95v11q-1 11 -1.5 25.5t-0.5 23.5q0 13 9.5 21.5t22.5 8.5t23 -9t10 -21q0 -9 -0.5 -23.5t-1.5 -25.5l-1 -11l-5 -95l135 55
q10 5 20 5q12 0 21 -8.5t9 -26.5q0 -23 -25 -30l-145 -40l95 -115q10 -12 10 -25t-8 -21.5t-22 -8.5q-16 0 -30 20z" />
    <glyph glyph-name="plus" unicode="+" horiz-adv-x="445" 
d="M190 185v125h-125q-35 0 -35 32q0 14 10 23.5t25 9.5h125v125q0 35 32 35q14 0 23.5 -10t9.5 -25v-125h125q35 0 35 -32q0 -14 -10 -23.5t-25 -9.5h-125v-125q0 -35 -32 -35q-14 0 -23.5 10t-9.5 25z" />
    <glyph glyph-name="comma" unicode="," horiz-adv-x="190" 
d="M50 40q0 22 13 36t32 14q20 0 32.5 -15.5t12.5 -44.5q0 -63 -31 -104t-64 -41q-15 0 -15 15q0 11 10 15q50 23 50 75q-4 1 -11 3t-18 14.5t-11 32.5z" />
    <glyph glyph-name="hyphen" unicode="-" horiz-adv-x="440" 
d="M65 375h310q15 0 25 -9.5t10 -22.5q0 -14 -10 -23.5t-25 -9.5h-310q-15 0 -25 9.5t-10 22.5q0 14 10 23.5t25 9.5z" />
    <glyph glyph-name="period" unicode="." horiz-adv-x="190" 
d="M50 40q0 22 13 36t32 14t32 -14t13 -36t-13 -36t-32 -14t-32 14t-13 36z" />
    <glyph glyph-name="slash" unicode="/" horiz-adv-x="418" 
d="M35 30l288 680q6 14 9 20t11 13t20 7q15 0 25 -10t10 -25q0 -7 -15 -45l-288 -680q-6 -14 -9 -20t-11 -13t-20 -7q-15 0 -25 10t-10 25q0 7 15 45z" />
    <glyph glyph-name="zero" unicode="0" horiz-adv-x="570" 
d="M430 245v210q0 98 -39 146.5t-106 48.5t-106 -48.5t-39 -146.5v-210q0 -98 39 -146.5t106 -48.5t106 48.5t39 146.5zM65 245v210q0 128 60 196.5t160 68.5t160 -68.5t60 -196.5v-210q0 -128 -60 -196.5t-160 -68.5t-160 68.5t-60 196.5z" />
    <glyph glyph-name="one" unicode="1" horiz-adv-x="385" 
d="M285 665v-630q0 -40 -40 -40q-15 0 -25 11t-10 29v540h-5l-95 -125q-1 -1 -7 -9.5t-9 -11.5t-8.5 -9t-10.5 -8t-10 -2q-15 0 -25 10t-10 25q0 13 10 25l160 210q19 25 45 25q40 0 40 -40z" />
    <glyph glyph-name="two" unicode="2" horiz-adv-x="505" 
d="M135 75v-5h295q15 0 25 -10t10 -25t-10 -25t-25 -10h-360q-40 0 -40 40q0 26 25 50l205 190q26 23 37.5 34t33 35.5t32 44t19 48t8.5 58.5q0 67 -39.5 108.5t-100.5 41.5q-37 0 -74.5 -17.5t-60.5 -52.5q-2 -3 -7 -11.5t-7.5 -11.5t-7.5 -8t-10.5 -7t-12.5 -2
q-15 0 -25 11t-10 29q0 43 64.5 91.5t150.5 48.5q94 0 154.5 -61.5t60.5 -158.5q0 -56 -24.5 -107.5t-43 -72t-58.5 -56.5l-9 -9z" />
    <glyph glyph-name="three" unicode="3" horiz-adv-x="500" 
d="M165 430l180 195v5h-255q-15 0 -25 10t-10 25t10 25t25 10h315q40 0 40 -40q0 -18 -20 -40l-180 -195v-5q94 0 154.5 -61.5t60.5 -158.5t-60.5 -158.5t-154.5 -61.5q-67 0 -121 28.5t-80 71.5q-24 37 -24 65q0 15 10 25t25 10q28 0 40 -30q19 -46 58.5 -73t91.5 -27
q61 0 100.5 41.5t39.5 108.5t-39.5 108.5t-100.5 41.5h-60q-40 0 -40 40q0 18 20 40z" />
    <glyph glyph-name="four" unicode="4" horiz-adv-x="515" 
d="M105 260v-5h235v320h-5zM415 185v-150q0 -40 -40 -40q-15 0 -25 11t-10 29v150h-285q-40 0 -40 40q0 23 20 50l295 405q19 25 45 25q40 0 40 -40v-410h50q15 0 25 -10t10 -25t-10 -25t-25 -10h-50z" />
    <glyph glyph-name="five" unicode="5" horiz-adv-x="525" 
d="M115 320q-15 0 -25 11t-10 29v300q0 18 10 29t25 11h320q15 0 25 -10t10 -25t-10 -25t-25 -10h-280v-225h5q45 35 110 35q91 0 153 -65t62 -165t-62 -165t-153 -65q-67 0 -121 28.5t-80 71.5q-24 37 -24 65q0 15 10 25t25 10q28 0 40 -30q19 -46 58.5 -73t91.5 -27
q58 0 99 45t41 115t-41 115t-99 45q-61 0 -105 -30q-29 -20 -50 -20z" />
    <glyph glyph-name="six" unicode="6" horiz-adv-x="535" 
d="M280 370q-38 0 -73 -15t-51 -30l-16 -15v-65q0 -97 38.5 -146t101.5 -49q61 0 100.5 43t39.5 117q0 73 -39.5 116.5t-100.5 43.5zM275 650q-60 0 -97.5 -49t-37.5 -146v-65h5q6 6 17.5 14t46.5 22t71 14q95 0 155 -63t60 -167t-60 -167t-155 -63q-97 0 -156 68.5
t-59 196.5v210q0 127 58.5 196t151.5 69q80 0 140 -46.5t60 -88.5q0 -18 -10 -29t-25 -11q-7 0 -12.5 2t-10 6.5t-7.5 8.5t-7.5 11.5t-7.5 11.5q-25 35 -52.5 50t-67.5 15z" />
    <glyph glyph-name="seven" unicode="7" horiz-adv-x="445" 
d="M150 70l200 555v5h-305q-15 0 -25 10t-10 25t10 25t25 10h350q40 0 40 -40q0 -22 -10 -50l-205 -570q-15 -45 -45 -45q-15 0 -25 11t-10 29q0 10 10 35z" />
    <glyph glyph-name="eight" unicode="8" horiz-adv-x="550" 
d="M275 405q60 11 95 47t35 88q0 46 -36 78t-94 32t-94 -32t-36 -78q0 -52 35 -88t95 -47zM275 50q73 0 116.5 38.5t43.5 96.5q0 56 -44.5 100.5t-115.5 59.5q-71 -15 -115.5 -59.5t-44.5 -100.5q0 -58 43.5 -96.5t116.5 -38.5zM275 -20q-106 0 -170.5 58.5t-64.5 146.5
q0 42 14.5 77.5t35 55t41 33.5t35.5 19l14 5v5q-4 1 -11.5 4.5t-26.5 16t-33.5 29t-26.5 46t-12 64.5q0 77 56.5 128.5t148.5 51.5t148.5 -51.5t56.5 -128.5q0 -35 -11.5 -64.5t-27.5 -46.5t-32 -28.5t-27 -16.5l-12 -4v-5q6 -2 15.5 -5.5t33.5 -18t42.5 -34t33.5 -55
t15 -77.5q0 -88 -64.5 -146.5t-170.5 -58.5z" />
    <glyph glyph-name="nine" unicode="9" horiz-adv-x="535" 
d="M255 330q38 0 73 15t51 30l16 15v65q0 97 -38.5 146t-101.5 49q-61 0 -100.5 -43t-39.5 -117t39.5 -117t100.5 -43zM260 50q60 0 97.5 49t37.5 146v65h-5q-6 -6 -17.5 -14t-46.5 -22t-71 -14q-95 0 -155 63t-60 167t60 167t155 63q97 0 156 -68.5t59 -196.5v-210
q0 -127 -58.5 -196t-151.5 -69q-80 0 -140 46.5t-60 88.5q0 18 10 29t25 11q7 0 12.5 -2t10 -6.5t7.5 -8.5t7.5 -11.5t7.5 -11.5q25 -35 52.5 -50t67.5 -15z" />
    <glyph glyph-name="colon" unicode=":" horiz-adv-x="210" 
d="M60 470q0 22 13 36t32 14t32 -14t13 -36t-13 -36t-32 -14t-32 14t-13 36zM60 40q0 22 13 36t32 14t32 -14t13 -36t-13 -36t-32 -14t-32 14t-13 36z" />
    <glyph glyph-name="semicolon" unicode=";" horiz-adv-x="210" 
d="M60 40q0 22 13 36t32 14q20 0 32.5 -15.5t12.5 -44.5q0 -63 -31 -104t-64 -41q-15 0 -15 15q0 11 10 15q50 23 50 75q-4 1 -11 3t-18 14.5t-11 32.5zM60 470q0 22 13 36t32 14t32 -14t13 -36t-13 -36t-32 -14t-32 14t-13 36z" />
    <glyph glyph-name="less" unicode="&#x3c;" horiz-adv-x="480" 
d="M360 15l-280 190q-35 23 -35 47q0 25 35 48l280 190q22 15 40 15q15 0 25 -10t10 -25q0 -25 -25 -40l-265 -175v-5l265 -175q25 -15 25 -40q0 -15 -10 -25t-25 -10q-18 0 -40 15z" />
    <glyph glyph-name="equal" unicode="=" horiz-adv-x="450" 
d="M75 480h300q15 0 25 -9.5t10 -22.5q0 -14 -10 -23.5t-25 -9.5h-300q-15 0 -25 9.5t-10 22.5q0 14 10 23.5t25 9.5zM75 265h300q15 0 25 -9.5t10 -22.5q0 -14 -10 -23.5t-25 -9.5h-300q-15 0 -25 9.5t-10 22.5q0 14 10 23.5t25 9.5z" />
    <glyph glyph-name="greater" unicode="&#x3e;" horiz-adv-x="480" 
d="M120 490l280 -190q35 -23 35 -47q0 -25 -35 -48l-280 -190q-22 -15 -40 -15q-15 0 -25 10t-10 25q0 25 25 40l265 175v5l-265 175q-25 15 -25 40q0 15 10 25t25 10q18 0 40 -15z" />
    <glyph glyph-name="question" unicode="?" horiz-adv-x="480" 
d="M175 230q0 36 19.5 69t47.5 59t56 51.5t47.5 56.5t19.5 64q0 53 -35.5 86.5t-94.5 33.5q-37 0 -74.5 -17.5t-60.5 -52.5q-2 -3 -7 -11.5t-7.5 -11.5t-7.5 -8t-10.5 -7t-12.5 -2q-15 0 -25 11t-10 29q0 43 64.5 91.5t150.5 48.5q93 0 149 -53t56 -137q0 -42 -20 -78.5
t-49 -63.5t-57.5 -51.5t-48.5 -52t-20 -54.5q0 -18 -10 -29t-25 -11t-25 11t-10 29zM165 40q0 22 13 36t32 14t32 -14t13 -36t-13 -36t-32 -14t-32 14t-13 36z" />
    <glyph glyph-name="at" unicode="@" horiz-adv-x="870" 
d="M590 -105q-8 -5 -24.5 -11.5t-54.5 -15t-76 -8.5q-102 0 -190 55t-141.5 157t-53.5 228t53.5 228t141.5 157t190 55q155 0 270 -118t115 -282q0 -111 -51.5 -175.5t-123.5 -64.5q-36 0 -64.5 15t-39.5 30l-11 15h-5q-1 -2 -4 -6.5t-12.5 -14.5t-20 -18t-28 -14.5
t-35.5 -6.5q-61 0 -100.5 45.5t-39.5 119.5v60q0 77 39 121t101 44q22 0 41 -10t26 -20l8 -10h5v5q0 13 8.5 21.5t21.5 8.5t21.5 -8.5t8.5 -21.5v-245q3 -6 9.5 -14t27.5 -22t43 -14q45 0 75 44.5t30 135.5q0 138 -93 234t-222 96q-131 0 -223 -103t-92 -267t92 -267
t223 -103q50 0 92.5 15t47.5 15q16 0 25.5 -8.5t9.5 -21.5q0 -23 -20 -35zM505 265v60q0 45 -23 75t-57 30q-35 0 -57.5 -27t-22.5 -78v-60q0 -45 23 -75t57 -30t57 30t23 75z" />
    <glyph glyph-name="A" unicode="A" horiz-adv-x="560" 
d="M395 270l-113 350h-4l-113 -350h230zM475 35l-55 165h-280l-55 -165q0 -1 -2 -6t-2.5 -6.5t-2.5 -6.5t-3.5 -7t-5 -5.5t-6.5 -4.5t-8 -2.5t-10 -1.5q-15 0 -25 11t-10 29q0 2 10 35l205 610q14 40 55 40t55 -40l205 -610q10 -33 10 -35q0 -18 -10 -29t-25 -11
q-5 0 -10 1.5t-8 2.5t-6.5 4.5t-5 5.5t-3.5 7t-2.5 6.5t-2.5 6.5t-2 6z" />
    <glyph glyph-name="B" unicode="B" horiz-adv-x="615" 
d="M175 630v-225h155q125 0 125 110q0 115 -120 115h-160zM175 335v-265h180q67 0 103.5 35.5t36.5 99.5q0 61 -37.5 95.5t-107.5 34.5h-175zM355 0h-220q-15 0 -25 11t-10 29v620q0 18 10 29t25 11h200q92 0 143.5 -47.5t51.5 -127.5q0 -34 -9 -61t-21 -42t-24.5 -25
t-21.5 -13l-9 -4v-5q5 -1 13.5 -3.5t30 -15.5t38 -30.5t30 -52.5t13.5 -78q0 -91 -55.5 -143t-159.5 -52z" />
    <glyph glyph-name="C" unicode="C" horiz-adv-x="565" 
d="M65 265v170q0 135 66 210t174 75q86 0 150.5 -48.5t64.5 -91.5q0 -18 -10 -29t-25 -11q-7 0 -12.5 2t-10.5 7t-7.5 8t-7.5 11.5t-7 11.5q-23 35 -60.5 52.5t-74.5 17.5q-74 0 -119.5 -55t-45.5 -160v-170q0 -105 45.5 -160t119.5 -55q52 0 91.5 27t58.5 73q12 30 40 30
q15 0 25 -10t10 -25q0 -28 -24 -65q-26 -43 -80 -71.5t-121 -28.5q-108 0 -174 75t-66 210z" />
    <glyph glyph-name="D" unicode="D" horiz-adv-x="625" 
d="M175 70h145q74 0 119.5 55t45.5 160v130q0 105 -45.5 160t-119.5 55h-145v-560zM320 0h-185q-15 0 -25 11t-10 29v620q0 18 10 29t25 11h185q108 0 174 -75t66 -210v-130q0 -135 -66 -210t-174 -75z" />
    <glyph glyph-name="E" unicode="E" horiz-adv-x="555" 
d="M490 630h-315v-240h220q15 0 25 -10t10 -25t-10 -25t-25 -10h-220v-250h325q15 0 25 -10t10 -25t-10 -25t-25 -10h-365q-15 0 -25 11t-10 29v620q0 18 10 29t25 11h355q15 0 25 -10t10 -25t-10 -25t-25 -10z" />
    <glyph glyph-name="F" unicode="F" horiz-adv-x="525" 
d="M175 290v-255q0 -40 -40 -40q-15 0 -25 11t-10 29v625q0 18 10 29t25 11h355q15 0 25 -10t10 -25t-10 -25t-25 -10h-315v-270h220q15 0 25 -10t10 -25t-10 -25t-25 -10h-220z" />
    <glyph glyph-name="G" unicode="G" horiz-adv-x="595" 
d="M530 345v-200q0 -28 -24 -65q-26 -43 -80 -71.5t-121 -28.5q-108 0 -174 75t-66 210v170q0 135 66 210t174 75q86 0 150.5 -48.5t64.5 -91.5q0 -18 -10 -29t-25 -11q-7 0 -12.5 2t-10.5 7t-7.5 8t-7.5 11.5t-7 11.5q-23 35 -60.5 52.5t-74.5 17.5q-74 0 -119.5 -55
t-45.5 -160v-170q0 -105 45.5 -160t119.5 -55q51 0 91 26t59 69v170h-125q-15 0 -25 10t-10 25t10 25t25 10h165q15 0 25 -11t10 -29z" />
    <glyph glyph-name="H" unicode="H" horiz-adv-x="655" 
d="M135 705q40 0 40 -40v-270h305v270q0 40 40 40q15 0 25 -11t10 -29v-630q0 -18 -10 -29t-25 -11q-40 0 -40 40v290h-305v-290q0 -40 -40 -40q-15 0 -25 11t-10 29v630q0 18 10 29t25 11z" />
    <glyph glyph-name="I" unicode="I" horiz-adv-x="275" 
d="M135 705q40 0 40 -40v-630q0 -40 -40 -40q-15 0 -25 11t-10 29v630q0 18 10 29t25 11z" />
    <glyph glyph-name="J" unicode="J" horiz-adv-x="360" 
d="M35 50q150 0 150 220v395q0 18 10 29t25 11q40 0 40 -40v-395q0 -145 -60 -217.5t-165 -72.5q-15 0 -25 10t-10 25t10 25t25 10z" />
    <glyph glyph-name="K" unicode="K" horiz-adv-x="585" 
d="M135 705q40 0 40 -40v-330l285 345q20 25 40 25q40 0 40 -40q0 -16 -15 -35l-180 -215l205 -325q2 -3 8 -11.5t8.5 -13t5.5 -13t3 -17.5q0 -17 -11.5 -28.5t-28.5 -11.5q-19 0 -40 35l-205 330l-115 -145v-180q0 -40 -40 -40q-15 0 -25 11t-10 29v630q0 18 10 29t25 11z
" />
    <glyph glyph-name="L" unicode="L" horiz-adv-x="510" 
d="M175 70h300q15 0 25 -10t10 -25t-10 -25t-25 -10h-340q-15 0 -25 11t-10 29v625q0 18 10 29t25 11q40 0 40 -40v-595z" />
    <glyph glyph-name="M" unicode="M" horiz-adv-x="800" 
d="M402 205l168 470q9 24 21 34.5t34 10.5q18 0 30.5 -13t14.5 -32l80 -595q0 -3 1.5 -12t2.5 -17.5t1 -15.5q0 -18 -10 -29t-25 -11q-35 0 -40 35l-70 540h-5l-155 -440q-14 -40 -50 -40t-50 40l-155 440h-5l-70 -540q-5 -35 -40 -35q-15 0 -25 11t-10 29q0 7 1 15.5
t2.5 17.5t1.5 12l80 595q2 19 14.5 32t30.5 13q22 0 34 -10.5t21 -34.5l168 -470h4z" />
    <glyph glyph-name="N" unicode="N" horiz-adv-x="665" 
d="M480 30l-300 505h-5v-500q0 -40 -40 -40q-15 0 -25 11t-10 29v630q0 18 10 29t25 11q29 0 50 -35l300 -505h5v500q0 18 10 29t25 11q40 0 40 -40v-630q0 -18 -10 -29t-25 -11q-29 0 -50 35z" />
    <glyph glyph-name="O" unicode="O" horiz-adv-x="610" 
d="M305 720q108 0 174 -75t66 -210v-170q0 -135 -66 -210t-174 -75t-174 75t-66 210v170q0 135 66 210t174 75zM305 650q-74 0 -119.5 -55t-45.5 -160v-170q0 -105 45.5 -160t119.5 -55t119.5 55t45.5 160v170q0 105 -45.5 160t-119.5 55z" />
    <glyph glyph-name="P" unicode="P" horiz-adv-x="575" 
d="M135 700h170q112 0 176 -62t64 -168t-64 -168t-176 -62h-130v-205q0 -40 -40 -40q-15 0 -25 11t-10 29v625q0 18 10 29t25 11zM305 630h-130v-320h130q78 0 121.5 42.5t43.5 117.5t-43.5 117.5t-121.5 42.5z" />
    <glyph glyph-name="Q" unicode="Q" horiz-adv-x="610" 
d="M305 720q108 0 174 -75t66 -210v-170q0 -53 -11.5 -99.5t-22.5 -65.5l-11 -20l50 -65q15 -20 15 -30q0 -18 -10 -29t-25 -11q-6 0 -12 2.5t-10 5t-9 8t-7.5 8.5t-6.5 9t-5 7l-30 40q-6 -5 -16.5 -12.5t-48.5 -20t-80 -12.5q-108 0 -174 75t-66 210v170q0 135 66 210
t174 75zM305 650q-74 0 -119.5 -55t-45.5 -160v-170q0 -105 45.5 -160t119.5 -55q29 0 54 9t35 17l11 9l-80 100q-15 20 -15 30q0 18 10 29t25 11q9 0 17.5 -5t13 -10t11.5 -14.5t8 -10.5l55 -70q20 45 20 120v170q0 105 -45.5 160t-119.5 55z" />
    <glyph glyph-name="R" unicode="R" horiz-adv-x="590" 
d="M485 35l-150 255h-160v-255q0 -40 -40 -40q-15 0 -25 11t-10 29v625q0 18 10 29t25 11h195q101 0 158 -55.5t57 -149.5q0 -43 -13 -78.5t-31.5 -55.5t-36.5 -33.5t-31 -17.5l-13 -5v-5l125 -210q3 -5 9 -14.5t8.5 -14t5 -12t2.5 -14.5q0 -18 -10 -29t-25 -11
q-6 0 -11.5 1t-10 4.5t-7.5 5.5t-7 7t-5.5 7t-5 8t-3.5 7zM330 630h-155v-270h155q67 0 103.5 35.5t36.5 99.5t-36.5 99.5t-103.5 35.5z" />
    <glyph glyph-name="S" unicode="S" horiz-adv-x="535" 
d="M275 650q-66 0 -103 -34t-37 -91q0 -34 20 -58.5t52.5 -39.5t71 -27.5t77.5 -28t71.5 -36t52.5 -56t20 -84.5q0 -95 -64.5 -155t-175.5 -60q-67 0 -121 28.5t-80 71.5q-24 37 -24 65q0 15 10 25t25 10q28 0 40 -30q19 -46 58.5 -73t91.5 -27q77 0 121 40t44 105
q0 34 -20 58.5t-52.5 39.5t-71 27.5t-77.5 28t-71.5 36t-52.5 56t-20 84.5q0 88 57.5 141.5t157.5 53.5q86 0 150.5 -48.5t64.5 -91.5q0 -18 -10 -29t-25 -11q-7 0 -12.5 2t-10.5 7t-7.5 8t-7.5 11.5t-7 11.5q-23 35 -60.5 52.5t-74.5 17.5z" />
    <glyph glyph-name="T" unicode="T" horiz-adv-x="500" 
d="M455 630h-165v-595q0 -40 -40 -40q-15 0 -25 11t-10 29v595h-170q-15 0 -25 10t-10 25t10 25t25 10h410q15 0 25 -10t10 -25t-10 -25t-25 -10z" />
    <glyph glyph-name="U" unicode="U" horiz-adv-x="640" 
d="M165 665v-410q0 -101 42 -153t113 -52t113 52t42 153v410q0 40 40 40q15 0 25 -11t10 -29v-410q0 -132 -63 -203.5t-167 -71.5t-167 71.5t-63 203.5v410q0 18 10 29t25 11q40 0 40 -40z" />
    <glyph glyph-name="V" unicode="V" 
d="M210 20l-190 610q-10 33 -10 35q0 18 10 29t25 11q5 0 10 -1.5t8 -2.5t6.5 -4.5t5 -5.5t3.5 -7t2.5 -6.5t2.5 -6.5t2 -6l178 -575h4l178 575q0 1 2 6t2.5 6.5t2.5 6.5t3.5 7t5 5.5t6.5 4.5t8 2.5t10 1.5q15 0 25 -11t10 -29q0 -2 -10 -35l-190 -610q-5 -17 -19.5 -28.5
t-35.5 -11.5t-35.5 11.5t-19.5 28.5z" />
    <glyph glyph-name="W" unicode="W" horiz-adv-x="850" 
d="M427 575h-4l-133 -555q-4 -16 -19 -28t-36 -12t-36 12t-19 28l-150 595l-10 50q0 18 10 29t25 11q24 0 34 -13.5t16 -41.5l130 -540h5l130 555q4 16 19 28t36 12t36 -12t19 -28l130 -555h5l130 540q6 28 16 41.5t34 13.5q15 0 25 -11t10 -29l-10 -50l-150 -595
q-4 -16 -19 -28t-36 -12t-36 12t-19 28z" />
    <glyph glyph-name="X" unicode="X" horiz-adv-x="535" 
d="M270 300h-5l-165 -265q-2 -2 -5 -8t-5 -8.5t-5.5 -7t-6.5 -7t-7 -5t-9.5 -3.5t-11.5 -1q-15 0 -25 11t-10 29q0 17 25 55l177 270l-157 250q-1 2 -8.5 13.5t-9.5 15t-4.5 11.5t-2.5 15q0 18 10 29t25 11q12 0 20.5 -5.5t12 -10t12.5 -19.5l150 -250h5l150 250
q9 15 12.5 19.5t12 10t20.5 5.5q15 0 25 -11t10 -29q0 -7 -2.5 -15t-4.5 -11.5t-9.5 -15t-8.5 -13.5l-157 -250l177 -270q25 -38 25 -55q0 -18 -10 -29t-25 -11q-7 0 -13.5 2t-10 4t-8 7t-6.5 7.5t-6.5 10t-5.5 9.5z" />
    <glyph glyph-name="Y" unicode="Y" horiz-adv-x="505" 
d="M255 360l175 320q13 25 40 25q15 0 25 -11t10 -29q0 -10 -20 -45l-195 -350v-235q0 -40 -40 -40q-15 0 -25 11t-10 29v235l-195 350q-20 35 -20 45q0 18 10 29t25 11q27 0 40 -25l175 -320h5z" />
    <glyph glyph-name="Z" unicode="Z" horiz-adv-x="480" 
d="M110 70h325q15 0 25 -10t10 -25t-10 -25t-25 -10h-385q-40 0 -40 40q0 18 20 50l330 535v5h-310q-15 0 -25 10t-10 25t10 25t25 10h370q40 0 40 -40q0 -18 -20 -50l-330 -535v-5z" />
    <glyph glyph-name="bracketleft" unicode="[" horiz-adv-x="330" 
d="M175 -140h110q15 0 25 -10t10 -25t-10 -25t-25 -10h-150q-15 0 -25 11t-10 29v910q0 18 10 29t25 11h150q15 0 25 -10t10 -25t-10 -25t-25 -10h-110v-850z" />
    <glyph glyph-name="backslash" unicode="\" horiz-adv-x="418" 
d="M95 710l288 -680q15 -38 15 -45q0 -15 -10 -25t-25 -10q-12 0 -20 7t-11 13t-9 20l-288 680q-15 38 -15 45q0 15 10 25t25 10q12 0 20 -7t11 -13t9 -20z" />
    <glyph glyph-name="bracketright" unicode="]" horiz-adv-x="330" 
d="M155 710h-110q-15 0 -25 10t-10 25t10 25t25 10h150q15 0 25 -11t10 -29v-910q0 -18 -10 -29t-25 -11h-150q-15 0 -25 10t-10 25t10 25t25 10h110v850z" />
    <glyph glyph-name="asciicircum" unicode="^" horiz-adv-x="430" 
d="M213 625l-118 -205q-9 -15 -30 -15q-15 0 -25 10t-10 25q0 12 20 45l110 185q22 36 55 36t55 -36l110 -185q20 -33 20 -45q0 -15 -10 -25t-25 -10q-21 0 -30 15l-118 205h-4z" />
    <glyph glyph-name="underscore" unicode="_" horiz-adv-x="350" 
d="M35 -95h280q15 0 25 -9.5t10 -22.5q0 -14 -10 -23.5t-25 -9.5h-280q-15 0 -25 9.5t-10 22.5q0 14 10 23.5t25 9.5z" />
    <glyph glyph-name="grave" unicode="`" horiz-adv-x="210" 
d="M105 665l50 -115q15 -34 15 -45q0 -25 -25 -25q-15 0 -25 20l-70 140q-10 20 -10 30q0 13 8.5 21.5t21.5 8.5q9 0 15.5 -4.5t9.5 -10t10 -20.5z" />
    <glyph glyph-name="a" unicode="a" horiz-adv-x="475" 
d="M205 50q54 0 89.5 38.5t35.5 101.5v50h-115q-105 0 -105 -95q0 -45 25 -70t70 -25zM230 525q76 0 123 -50.5t47 -139.5v-305q0 -15 -10 -25t-25 -10t-25 10t-10 25v20h-5q-1 -3 -3.5 -7t-12.5 -15.5t-22.5 -20t-34.5 -15.5t-47 -7q-78 0 -124 44t-46 116q0 73 47.5 116.5
t132.5 43.5h115v30q0 62 -26.5 93.5t-73.5 31.5q-14 0 -27 -4t-20.5 -7t-17.5 -13.5t-12.5 -13.5t-12.5 -17t-10 -15q-13 -20 -35 -20q-13 0 -21.5 8t-8.5 22q0 41 50.5 83t114.5 42z" />
    <glyph glyph-name="b" unicode="b" horiz-adv-x="515" 
d="M270 50q51 0 85.5 40.5t34.5 109.5v110q0 69 -34.5 109.5t-85.5 40.5t-85.5 -40.5t-34.5 -109.5v-110q0 -69 34.5 -109.5t85.5 -40.5zM150 465h5q2 2 5 6.5t14 14.5t23 18t32 14.5t41 6.5q81 0 135.5 -59.5t54.5 -155.5v-110q0 -96 -54.5 -155.5t-135.5 -59.5
t-135.5 59.5t-54.5 155.5v485q0 15 10 25t25 10t25 -10t10 -25v-220z" />
    <glyph glyph-name="c" unicode="c" horiz-adv-x="465" 
d="M250 -15q-84 0 -139.5 59.5t-55.5 155.5v110q0 96 55.5 155.5t139.5 59.5q67 0 118.5 -42t51.5 -83q0 -14 -8 -22t-22 -8q-22 0 -35 20q-1 2 -8.5 13t-10.5 14.5t-10.5 12.5t-14 12.5t-16 8.5t-21 7t-24.5 2q-54 0 -89.5 -40.5t-35.5 -109.5v-110q0 -69 35.5 -109.5
t89.5 -40.5q77 0 116 80q12 25 34 25q15 0 25 -10t10 -25q0 -41 -57.5 -88t-127.5 -47z" />
    <glyph glyph-name="d" unicode="d" horiz-adv-x="515" 
d="M245 50q50 0 85 39t35 101v120q0 69 -34.5 109.5t-85.5 40.5t-85.5 -40.5t-34.5 -109.5v-110q0 -69 34.5 -109.5t85.5 -40.5zM435 685v-655q0 -15 -10 -25t-25 -10t-25 10t-10 25v20h-5q-1 -3 -3.5 -7t-12.5 -15.5t-22 -20t-32.5 -15.5t-44.5 -7q-81 0 -135.5 59.5
t-54.5 155.5v110q0 96 54.5 155.5t135.5 59.5q33 0 62 -15t41 -30l12 -15h5v220q0 15 10 25t25 10t25 -10t10 -25z" />
    <glyph glyph-name="e" unicode="e" horiz-adv-x="485" 
d="M245 -15q-81 0 -135.5 59.5t-54.5 155.5v110q0 96 54.5 155.5t135.5 59.5t135.5 -59.5t54.5 -155.5v-55q0 -15 -10 -25t-25 -10h-275v-20q0 -69 34.5 -109.5t85.5 -40.5q77 0 116 80q13 25 34 25q15 0 25 -10t10 -25q0 -41 -57.5 -88t-127.5 -47zM125 310v-25h240v25
q0 69 -34.5 109.5t-85.5 40.5t-85.5 -40.5t-34.5 -109.5z" />
    <glyph glyph-name="f" unicode="f" horiz-adv-x="325" 
d="M65 500h40v45q0 84 39 129.5t101 45.5q53 0 86.5 -25.5t33.5 -54.5q0 -35 -30 -35q-18 0 -35 20q-25 30 -55 30q-70 0 -70 -110v-45h110q15 0 25 -9.5t10 -22.5q0 -14 -10 -23.5t-25 -9.5h-110v-405q0 -15 -10 -25t-25 -10t-25 10t-10 25v405h-40q-15 0 -25 9.5t-10 22.5
q0 14 10 23.5t25 9.5z" />
    <glyph glyph-name="g" unicode="g" horiz-adv-x="515" 
d="M245 460q-51 0 -85.5 -40.5t-34.5 -109.5v-90q0 -69 34.5 -109.5t85.5 -40.5t85.5 40.5t34.5 109.5v100q0 62 -35 101t-85 39zM435 480v-485q0 -96 -55.5 -155.5t-139.5 -59.5q-71 0 -125.5 45t-54.5 90q0 15 10 25t25 10q9 0 16 -4.5t8 -6t6 -9.5q1 -2 9.5 -15.5
t11.5 -17.5t11.5 -15t15.5 -15.5t17.5 -10.5t22.5 -8.5t27 -2.5q54 0 89.5 40.5t35.5 109.5v70h-5q-2 -2 -5 -6.5t-14 -14.5t-23 -18t-32 -14.5t-41 -6.5q-81 0 -135.5 59.5t-54.5 155.5v90q0 96 54.5 155.5t135.5 59.5q38 0 66.5 -16.5t38.5 -32.5l10 -16h5v20q0 15 10 25
t25 10t25 -10t10 -25z" />
    <glyph glyph-name="h" unicode="h" horiz-adv-x="525" 
d="M380 30v290q0 65 -31.5 102.5t-78.5 37.5q-50 0 -85 -39t-35 -101v-290q0 -15 -10 -25t-25 -10t-25 10t-10 25v655q0 15 10 25t25 10t25 -10t10 -25v-225h5q1 3 3.5 7t12.5 15.5t22 20t32.5 15.5t44.5 7q77 0 128.5 -56.5t51.5 -148.5v-290q0 -15 -10 -25t-25 -10t-25 10
t-10 25z" />
    <glyph glyph-name="i" unicode="i" horiz-adv-x="230" 
d="M150 480v-450q0 -15 -10 -25t-25 -10t-25 10t-10 25v450q0 15 10 25t25 10t25 -10t10 -25zM70 660q0 22 13 36t32 14t32 -14t13 -36t-13 -36t-32 -14t-32 14t-13 36z" />
    <glyph glyph-name="j" unicode="j" horiz-adv-x="230" 
d="M70 660q0 22 13 36t32 14t32 -14t13 -36t-13 -36t-32 -14t-32 14t-13 36zM150 480v-425q0 -125 -52.5 -200t-112.5 -75q-15 0 -25 10t-10 25q0 14 9 23t21 12q45 11 72.5 68.5t27.5 136.5v425q0 15 10 25t25 10t25 -10t10 -25z" />
    <glyph glyph-name="k" unicode="k" horiz-adv-x="450" 
d="M150 685v-415l215 230q15 15 30 15t25 -10t10 -25t-15 -30l-140 -150l140 -225q20 -33 20 -45q0 -15 -10 -25t-25 -10q-21 0 -30 15l-145 240l-75 -85v-135q0 -15 -10 -25t-25 -10t-25 10t-10 25v655q0 15 10 25t25 10t25 -10t10 -25z" />
    <glyph glyph-name="l" unicode="l" horiz-adv-x="230" 
d="M150 685v-655q0 -15 -10 -25t-25 -10t-25 10t-10 25v655q0 15 10 25t25 10t25 -10t10 -25z" />
    <glyph glyph-name="m" unicode="m" horiz-adv-x="745" 
d="M255 525q42 0 74.5 -22.5t44.5 -44.5l11 -23h5q1 4 4 10t14 21.5t24 27.5t35.5 21.5t47.5 9.5q63 0 109 -56t46 -149v-290q0 -15 -10 -25t-25 -10t-25 10t-10 25v290q0 68 -27.5 104t-67.5 36t-67.5 -36t-27.5 -104v-290q0 -15 -10 -25t-25 -10t-25 10t-10 25v290
q0 68 -27.5 104t-67.5 36t-67.5 -36t-27.5 -104v-290q0 -15 -10 -25t-25 -10t-25 10t-10 25v450q0 15 10 25t25 10t25 -10t10 -25v-20h5q1 3 3.5 7t11.5 15.5t19.5 20t28 15.5t37.5 7z" />
    <glyph glyph-name="n" unicode="n" horiz-adv-x="525" 
d="M380 30v290q0 65 -31.5 102.5t-78.5 37.5q-50 0 -85 -39t-35 -101v-290q0 -15 -10 -25t-25 -10t-25 10t-10 25v450q0 15 10 25t25 10t25 -10t10 -25v-20h5q1 3 3.5 7t12.5 15.5t22 20t32.5 15.5t44.5 7q77 0 128.5 -56.5t51.5 -148.5v-290q0 -15 -10 -25t-25 -10t-25 10
t-10 25z" />
    <glyph glyph-name="o" unicode="o" horiz-adv-x="500" 
d="M250 525q84 0 139.5 -59.5t55.5 -155.5v-110q0 -96 -55.5 -155.5t-139.5 -59.5t-139.5 59.5t-55.5 155.5v110q0 96 55.5 155.5t139.5 59.5zM250 50q54 0 89.5 40.5t35.5 109.5v110q0 69 -35.5 109.5t-89.5 40.5t-89.5 -40.5t-35.5 -109.5v-110q0 -69 35.5 -109.5
t89.5 -40.5z" />
    <glyph glyph-name="p" unicode="p" horiz-adv-x="515" 
d="M270 460q-50 0 -85 -39t-35 -101v-120q0 -69 34.5 -109.5t85.5 -40.5t85.5 40.5t34.5 109.5v110q0 69 -34.5 109.5t-85.5 40.5zM80 -175v655q0 15 10 25t25 10t25 -10t10 -25v-20h5q1 3 3.5 7t12.5 15.5t22 20t32.5 15.5t44.5 7q81 0 135.5 -59.5t54.5 -155.5v-110
q0 -96 -54.5 -155.5t-135.5 -59.5q-33 0 -62 15t-41 30l-12 15h-5v-220q0 -15 -10 -25t-25 -10t-25 10t-10 25z" />
    <glyph glyph-name="q" unicode="q" horiz-adv-x="505" 
d="M245 460q-51 0 -85.5 -40.5t-34.5 -109.5v-110q0 -69 34.5 -109.5t85.5 -40.5t85.5 40.5t34.5 109.5v110q0 69 -34.5 109.5t-85.5 40.5zM365 45h-5q-2 -2 -5 -6.5t-14 -14.5t-23 -18t-32 -14.5t-41 -6.5q-81 0 -135.5 59.5t-54.5 155.5v110q0 96 54.5 155.5t135.5 59.5
t135.5 -59.5t54.5 -155.5v-495q0 -15 -10 -25t-25 -10t-25 10t-10 25v230z" />
    <glyph glyph-name="r" unicode="r" horiz-adv-x="375" 
d="M365 440q0 -13 -8.5 -21.5t-21.5 -8.5q-22 0 -35 20q-20 30 -55 30q-40 0 -67.5 -36t-27.5 -104v-290q0 -15 -10 -25t-25 -10t-25 10t-10 25v450q0 15 10 25t25 10t25 -10t10 -25v-20h5q1 3 3.5 7t12.5 15.5t22 20t32.5 15.5t44.5 7q40 0 67.5 -25.5t27.5 -59.5z" />
    <glyph glyph-name="s" unicode="s" horiz-adv-x="435" 
d="M215 50q59 0 89.5 27t30.5 73q0 29 -29.5 46.5t-71 28.5t-83.5 25t-71.5 45.5t-29.5 79.5q0 61 48.5 105.5t121.5 44.5q67 0 118.5 -42t51.5 -83q0 -14 -8 -22t-22 -8q-22 0 -35 20q-1 2 -8.5 13t-10.5 14.5t-10.5 12.5t-14 12.5t-16 8.5t-21 7t-24.5 2q-44 0 -72 -25
t-28 -60q0 -29 29.5 -46.5t71 -28.5t83.5 -25t71.5 -45.5t29.5 -79.5q0 -77 -49 -121t-141 -44q-70 0 -127.5 47t-57.5 88q0 15 10 25t25 10q21 0 34 -25q39 -80 116 -80z" />
    <glyph glyph-name="t" unicode="t" horiz-adv-x="365" 
d="M95 435h-40q-15 0 -25 9.5t-10 23.5q0 13 10 22.5t25 9.5h40v105q0 15 10 25t25 10t25 -10t10 -25v-105h110q15 0 25 -9.5t10 -23.5q0 -13 -10 -22.5t-25 -9.5h-110v-275q0 -110 70 -110q30 0 55 30q17 20 35 20q30 0 30 -35q0 -29 -33.5 -54.5t-86.5 -25.5
q-62 0 -101 45.5t-39 129.5v275z" />
    <glyph glyph-name="u" unicode="u" 
d="M150 480v-290q0 -65 31.5 -102.5t78.5 -37.5q50 0 85 39t35 101v290q0 15 10 25t25 10t25 -10t10 -25v-450q0 -15 -10 -25t-25 -10t-25 10t-10 25v20h-5q-1 -3 -3.5 -7t-12.5 -15.5t-22 -20t-32.5 -15.5t-44.5 -7q-77 0 -128.5 56.5t-51.5 148.5v290q0 15 10 25t25 10
t25 -10t10 -25z" />
    <glyph glyph-name="v" unicode="v" horiz-adv-x="420" 
d="M213 85l122 395q11 35 40 35q15 0 25 -10t10 -25t-10 -45l-140 -410q-14 -40 -50 -40t-50 40l-140 410q-10 30 -10 45t10 25t25 10q30 0 40 -35l122 -395h6z" />
    <glyph glyph-name="w" unicode="w" horiz-adv-x="660" 
d="M332 410h-4l-93 -385q-10 -40 -50 -40t-50 40l-110 425q-5 25 -5 30q0 15 10 25t25 10q27 0 35 -35l95 -385h5l90 380q10 40 50 40t50 -40l90 -380h5l95 385q8 35 35 35q15 0 25 -10t10 -25q0 -5 -5 -30l-110 -425q-10 -40 -50 -40t-50 40z" />
    <glyph glyph-name="x" unicode="x" horiz-adv-x="415" 
d="M210 200h-5l-115 -180q-15 -25 -40 -25q-15 0 -25 10t-10 25q0 18 15 40l129 195l-109 175q-15 25 -15 40t10 25t25 10q12 0 20.5 -5.5t12.5 -10.5t12 -19l90 -150h5l90 150q8 14 12 19t12.5 10.5t20.5 5.5q15 0 25 -10t10 -25t-15 -40l-109 -175l129 -195q15 -22 15 -40
q0 -15 -10 -25t-25 -10q-25 0 -40 25z" />
    <glyph glyph-name="y" unicode="y" horiz-adv-x="425" 
d="M405 440l-225 -625q-12 -35 -40 -35q-15 0 -25 10t-10 25q0 7 10 40l55 155l-150 430q-10 27 -10 40q0 15 10 25t25 10q28 0 40 -35l125 -355h5l125 355q11 35 40 35q15 0 25 -10t10 -25t-10 -40z" />
    <glyph glyph-name="z" unicode="z" horiz-adv-x="385" 
d="M25 80l255 360v5h-225q-16 0 -25.5 9t-9.5 23t10 23.5t25 9.5h280q15 0 25 -10t10 -25q0 -23 -15 -45l-255 -360v-5h240q16 0 25.5 -9t9.5 -23t-10 -23.5t-25 -9.5h-295q-15 0 -25 10t-10 25q0 23 15 45z" />
    <glyph glyph-name="braceleft" unicode="{" horiz-adv-x="315" 
d="M105 288v-6q3 -1 8.5 -3t19.5 -11t24.5 -21.5t19 -35.5t8.5 -51v-180q0 -65 21 -92.5t64 -27.5q15 0 25 -10t10 -25t-10 -25t-25 -10q-77 0 -118.5 47.5t-41.5 142.5v180q0 34 -16 52.5t-44 32.5q-30 15 -30 40t30 40q28 14 44 32.5t16 52.5v180q0 95 41.5 142.5
t118.5 47.5q15 0 25 -10t10 -25t-10 -25t-25 -10q-43 0 -64 -27.5t-21 -92.5v-180q0 -44 -20 -74.5t-40 -39.5z" />
    <glyph glyph-name="bar" unicode="|" horiz-adv-x="275" 
d="M135 760q40 0 40 -40v-870q0 -40 -40 -40q-15 0 -25 11t-10 29v870q0 18 10 29t25 11z" />
    <glyph glyph-name="braceright" unicode="}" horiz-adv-x="315" 
d="M210 282v6q-3 1 -8.5 3t-19.5 11t-24.5 21.5t-19 35.5t-8.5 51v180q0 65 -21 92.5t-64 27.5q-15 0 -25 10t-10 25t10 25t25 10q77 0 118.5 -47.5t41.5 -142.5v-180q0 -34 16 -52.5t44 -32.5q30 -15 30 -40t-30 -40q-28 -14 -44 -32.5t-16 -52.5v-180q0 -95 -41.5 -142.5
t-118.5 -47.5q-15 0 -25 10t-10 25t10 25t25 10q43 0 64 27.5t21 92.5v180q0 44 20 74.5t40 39.5z" />
    <glyph glyph-name="asciitilde" unicode="~" horiz-adv-x="455" 
d="M305 300q39 0 55 65q9 40 35 40q13 0 21.5 -8.5t8.5 -21.5q0 -62 -36.5 -103.5t-83.5 -41.5q-30 0 -51.5 13t-32.5 31t-19.5 36.5t-21 31.5t-30.5 13q-39 0 -55 -65q-9 -40 -35 -40q-13 0 -21.5 8.5t-8.5 21.5q0 62 36.5 103.5t83.5 41.5q30 0 51.5 -13t32.5 -31.5
t19.5 -36.5t21 -31t30.5 -13z" />
    <glyph glyph-name="nbspace" unicode="&#xa0;" horiz-adv-x="180" 
 />
    <glyph glyph-name="exclamdown" unicode="&#xa1;" horiz-adv-x="270" 
d="M95 -175l5 455q0 18 10 29t25 11t25 -11t10 -29l5 -455q0 -45 -40 -45t-40 45zM180 470q0 -22 -13 -36t-32 -14t-32 14t-13 36t13 36t32 14t32 -14t13 -36z" />
    <glyph glyph-name="cent" unicode="&#xa2;" horiz-adv-x="465" 
d="M435 120q0 -36 -47 -78t-108 -52v-45q0 -15 -10 -25t-25 -10t-25 10t-10 25v45q-69 14 -112 70t-43 140v110q0 83 43 139.5t112 70.5v50q0 15 10 25t25 10t25 -10t10 -25v-50q57 -9 98.5 -47t41.5 -73q0 -14 -8 -22t-22 -8q-22 0 -35 20q-1 2 -8.5 13t-10.5 14.5
t-10.5 12.5t-14 12.5t-16 8.5t-21 7t-24.5 2q-54 0 -89.5 -40.5t-35.5 -109.5v-110q0 -69 35.5 -109.5t89.5 -40.5q77 0 116 80q12 25 34 25q15 0 25 -10t10 -25z" />
    <glyph glyph-name="sterling" unicode="&#xa3;" horiz-adv-x="500" 
d="M450 630q0 -18 -10 -29t-25 -11q-11 0 -18 4.5t-15.5 18.5t-11.5 17q-15 20 -55 20q-35 0 -60 -28t-25 -72v-145h145q15 0 25 -10t10 -25t-10 -25t-25 -10h-145q0 -50 -10 -95.5t-24 -74t-27.5 -50t-23.5 -31.5l-10 -9v-5h320q15 0 25 -10t10 -25t-10 -25t-25 -10h-410
q-15 0 -25 10t-10 25q0 23 25 35q41 20 80.5 86.5t39.5 178.5h-45q-15 0 -25 10t-10 25t10 25t25 10h45v145q0 78 44 124t116 46q60 0 97.5 -28.5t37.5 -61.5z" />
    <glyph glyph-name="currency" unicode="&#xa4;" horiz-adv-x="580" 
d="M65 215h35v65h-35q-15 0 -25 10t-10 25t10 25t25 10h35v310q0 18 10 29t25 11h185q104 0 162 -56t58 -154t-58 -154t-162 -56h-145v-65h225q15 0 25 -10t10 -25t-10 -25t-25 -10h-225v-110q0 -40 -40 -40q-15 0 -25 11t-10 29v110h-35q-15 0 -25 10t-10 25t10 25t25 10z
M320 630h-145v-280h145q67 0 106 38t39 102t-39 102t-106 38z" />
    <glyph glyph-name="yen" unicode="&#xa5;" horiz-adv-x="505" 
d="M255 360l175 320q13 25 40 25q15 0 25 -11t10 -29q0 -10 -20 -45l-135 -245h70q15 0 25 -10t10 -25t-10 -25t-25 -10h-110l-20 -35v-50h130q15 0 25 -10t10 -25t-10 -25t-25 -10h-130v-115q0 -40 -40 -40q-15 0 -25 11t-10 29v115h-130q-15 0 -25 10t-10 25t10 25t25 10
h130v50l-20 35h-110q-15 0 -25 10t-10 25t10 25t25 10h70l-135 245q-20 35 -20 45q0 18 10 29t25 11q27 0 40 -25l175 -320h5z" />
    <glyph glyph-name="brokenbar" unicode="&#xa6;" horiz-adv-x="275" 
d="M135 760q40 0 40 -40v-320q0 -40 -40 -40q-15 0 -25 11t-10 29v320q0 18 10 29t25 11zM135 210q40 0 40 -40v-320q0 -40 -40 -40q-15 0 -25 11t-10 29v320q0 18 10 29t25 11z" />
    <glyph glyph-name="section" unicode="&#xa7;" horiz-adv-x="475" 
d="M140 320q0 -22 7.5 -38t26.5 -28.5t32 -19t43 -18t41 -16.5q7 5 18 14.5t29 38t18 57.5q0 22 -7.5 38t-26.5 28.5t-32 19t-43 18t-41 16.5q-7 -5 -18 -14.5t-29 -38t-18 -57.5zM355 55q0 31 -29.5 53.5t-71 38.5t-83.5 34.5t-71.5 53.5t-29.5 85q0 27 8 50t20 37t24 24.5
t20 14.5l8 4v5q-3 1 -7.5 4t-16.5 13.5t-21.5 22.5t-17 32.5t-7.5 42.5q0 61 48.5 105.5t121.5 44.5q67 0 118.5 -42t51.5 -83q0 -13 -8 -21.5t-22 -8.5q-22 0 -35 20q-1 2 -8.5 13t-10.5 14.5t-10.5 12.5t-14 12.5t-16 8.5t-21 7t-24.5 2q-44 0 -72 -25t-28 -60
q0 -31 28.5 -53t69 -37t80.5 -33t68.5 -52.5t28.5 -84.5q0 -27 -8 -50t-20 -37t-24 -24.5t-20 -14.5l-8 -4v-6q3 -1 8.5 -4t19.5 -13.5t24.5 -23t19 -33.5t8.5 -45q0 -70 -49.5 -112.5t-140.5 -42.5q-70 0 -127.5 47t-57.5 88q0 15 10 25t25 10q21 0 34 -25q39 -80 126 -80
q51 0 80.5 25.5t29.5 64.5z" />
    <glyph glyph-name="dieresis" unicode="&#xa8;" horiz-adv-x="330" 
d="M40 700q0 22 13 36t32 14t32 -14t13 -36t-13 -36t-32 -14t-32 14t-13 36zM200 700q0 22 13 36t32 14t32 -14t13 -36t-13 -36t-32 -14t-32 14t-13 36z" />
    <glyph glyph-name="copyright" unicode="&#xa9;" horiz-adv-x="890" 
d="M445 100q-62 0 -101 44t-39 121v60q0 77 39 121t101 44q52 0 91 -30.5t39 -59.5q0 -30 -30 -30q-13 0 -35 30t-65 30q-35 0 -57.5 -27t-22.5 -78v-60q0 -51 22.5 -78t57.5 -27q30 0 45.5 11t29.5 33q11 16 29 16q11 0 18.5 -8.5t7.5 -21.5q0 -29 -39 -59.5t-91 -30.5z
M830 300q0 -126 -53.5 -228t-141.5 -157t-190 -55t-190 55t-141.5 157t-53.5 228t53.5 228t141.5 157t190 55t190 -55t141.5 -157t53.5 -228zM760 300q0 164 -92 267t-223 103t-223 -103t-92 -267t92 -267t223 -103t223 103t92 267z" />
    <glyph glyph-name="ordfeminine" unicode="&#xaa;" horiz-adv-x="350" 
d="M155 410q33 0 59 24t26 51v35h-85q-23 0 -39 -16t-16 -39t16 -39t39 -16zM60 635q0 25 32.5 50t77.5 25q57 0 93.5 -37.5t36.5 -97.5v-185q0 -13 -8 -21.5t-20 -8.5q-11 0 -19 8.5t-8 21.5v16h-5q-1 -2 -3.5 -5.5t-10.5 -12.5t-17 -15.5t-24 -12t-30 -5.5
q-48 0 -81.5 32.5t-33.5 77.5t33.5 77.5t81.5 32.5h85q0 33 -21.5 56.5t-48.5 23.5q-29 0 -50 -25q-3 -3 -7.5 -10t-6.5 -9t-6.5 -4t-9.5 -2q-30 0 -30 30z" />
    <glyph glyph-name="guillemotleft" unicode="&#xab;" horiz-adv-x="470" 
d="M120 242l115 -157q15 -25 15 -35q0 -13 -8.5 -21.5t-21.5 -8.5q-22 0 -35 20l-115 160q-20 27 -20 45t20 45l115 160q13 20 35 20q13 0 21.5 -8.5t8.5 -21.5q0 -10 -15 -35l-115 -157v-6zM290 242l115 -157q15 -25 15 -35q0 -13 -8.5 -21.5t-21.5 -8.5q-22 0 -35 20
l-115 160q-20 27 -20 45t20 45l115 160q13 20 35 20q13 0 21.5 -8.5t8.5 -21.5q0 -10 -15 -35l-115 -157v-6z" />
    <glyph glyph-name="logicalnot" unicode="&#xac;" horiz-adv-x="470" 
d="M385 200q-15 0 -25 10t-10 25v130h-285q-15 0 -25 9.5t-10 22.5q0 14 10 23.5t25 9.5h320q15 0 25 -10t10 -25v-160q0 -15 -10 -25t-25 -10z" />
    <glyph glyph-name="uni00AD" unicode="&#xad;" horiz-adv-x="445" 
d="M65 375h315q15 0 25 -9.5t10 -22.5q0 -14 -10 -23.5t-25 -9.5h-315q-15 0 -25 9.5t-10 22.5q0 14 10 23.5t25 9.5z" />
    <glyph glyph-name="registered" unicode="&#xae;" horiz-adv-x="890" 
d="M355 480h115q49 0 79.5 -31.5t30.5 -83.5q0 -22 -5.5 -40.5t-14 -29t-16.5 -18t-14 -9.5l-5 -3v-5l60 -100q10 -15 10 -25q0 -13 -8.5 -21.5t-21.5 -8.5q-9 0 -17 5.5t-11.5 10.5t-11.5 19l-65 110h-75v-115q0 -13 -8.5 -21.5t-21.5 -8.5t-21.5 8.5t-8.5 21.5v310
q0 16 8.5 25.5t21.5 9.5zM470 420h-85v-110h85q23 0 36.5 14.5t13.5 40.5t-13.5 40.5t-36.5 14.5zM830 300q0 -126 -53.5 -228t-141.5 -157t-190 -55t-190 55t-141.5 157t-53.5 228t53.5 228t141.5 157t190 55t190 -55t141.5 -157t53.5 -228zM760 300q0 164 -92 267
t-223 103t-223 -103t-92 -267t92 -267t223 -103t223 103t92 267z" />
    <glyph glyph-name="macron" unicode="&#xaf;" horiz-adv-x="340" 
d="M75 715h190q15 0 25 -9.5t10 -22.5q0 -14 -10 -23.5t-25 -9.5h-190q-15 0 -25 9.5t-10 22.5q0 14 10 23.5t25 9.5z" />
    <glyph glyph-name="degree" unicode="&#xb0;" horiz-adv-x="370" 
d="M330 540q0 -70 -42 -115t-103 -45t-103 45t-42 115t42 115t103 45t103 -45t42 -115zM275 540q0 48 -25.5 76.5t-64.5 28.5t-64.5 -28.5t-25.5 -76.5t25.5 -76.5t64.5 -28.5t64.5 28.5t25.5 76.5z" />
    <glyph glyph-name="plusminus" unicode="&#xb1;" horiz-adv-x="445" 
d="M65 390h125v125q0 35 32 35q14 0 23.5 -10t9.5 -25v-125h125q35 0 35 -32q0 -14 -10 -23.5t-25 -9.5h-125v-125h125q15 0 25 -9.5t10 -22.5q0 -14 -10 -23.5t-25 -9.5h-315q-15 0 -25 9.5t-10 22.5q0 14 10 23.5t25 9.5h125v125h-125q-35 0 -35 32q0 14 10 23.5t25 9.5z
" />
    <glyph glyph-name="twosuperior" unicode="&#xb2;" horiz-adv-x="305" 
d="M140 655q-29 0 -50 -25q-3 -3 -7.5 -10t-6.5 -9t-6.5 -4t-9.5 -2q-30 0 -30 30q0 25 32.5 50t77.5 25q52 0 83.5 -30.5t31.5 -79.5q0 -65 -70 -120l-75 -60v-5h120q30 0 30 -27q0 -28 -30 -28h-170q-14 0 -22 8t-8 22q0 28 50 70l60 50q55 46 55 90q0 55 -55 55z" />
    <glyph glyph-name="threesuperior" unicode="&#xb3;" horiz-adv-x="305" 
d="M170 570v-5q4 0 10 -1t21.5 -7t27.5 -15.5t21.5 -29.5t9.5 -47q0 -49 -31.5 -79.5t-83.5 -30.5q-45 0 -77.5 25t-32.5 50q0 30 30 30q5 0 9.5 -2t6.5 -4t6.5 -9t7.5 -10q21 -25 50 -25q55 0 55 55q0 25 -15.5 37.5t-39.5 12.5h-25q-14 0 -22 8.5t-8 21.5q0 15 15 30
l70 65v5h-105q-30 0 -30 27q0 28 30 28h160q14 0 22 -8t8 -22q0 -13 -11 -26.5t-19 -18.5z" />
    <glyph glyph-name="acute" unicode="&#xb4;" horiz-adv-x="210" 
d="M55 680l50 115q7 15 10 20.5t9.5 10t15.5 4.5q13 0 21.5 -8.5t8.5 -21.5q0 -10 -10 -30l-70 -140q-10 -20 -25 -20q-25 0 -25 25q0 11 15 45z" />
    <glyph glyph-name="mu" unicode="&#xb5;" 
d="M80 -185v665q0 15 10 25t25 10t25 -10t10 -25v-290q0 -65 31.5 -102.5t78.5 -37.5q50 0 85 39t35 101v290q0 15 10 25t25 10t25 -10t10 -25v-450q0 -15 -10 -25t-25 -10t-25 10t-10 25v20h-5q-1 -3 -3.5 -7t-12.5 -15.5t-22 -20t-32.5 -15.5t-44.5 -7q-22 0 -41.5 5.5
t-30.5 14t-19 16.5t-11 13l-3 6h-5v-225q0 -15 -10 -25t-25 -10t-25 10t-10 25z" />
    <glyph glyph-name="paragraph" unicode="&#xb6;" horiz-adv-x="490" 
d="M175 -185v545q-62 0 -103.5 46.5t-41.5 123.5t41.5 123.5t103.5 46.5h260q15 0 25 -9.5t10 -23.5q0 -13 -10 -22.5t-25 -9.5h-40v-820q0 -15 -10 -25t-25 -10t-25 10t-10 25v820h-80v-820q0 -15 -10 -25t-25 -10t-25 10t-10 25z" />
    <glyph glyph-name="periodcentered" unicode="&#xb7;" horiz-adv-x="180" 
d="M45 350q0 22 13 36t32 14t32 -14t13 -36t-13 -36t-32 -14t-32 14t-13 36z" />
    <glyph glyph-name="cedilla" unicode="&#xb8;" horiz-adv-x="270" 
d="M230 -165q0 -49 -31.5 -79.5t-83.5 -30.5q-32 0 -53.5 17.5t-21.5 37.5q0 10 7 17.5t18 7.5q9 0 22.5 -10t27.5 -10q26 0 40.5 13.5t14.5 36.5t-14.5 36.5t-40.5 13.5h-20q-25 0 -25 25v90h60v-55q44 -4 72 -33.5t28 -76.5z" />
    <glyph glyph-name="onesuperior" unicode="&#xb9;" horiz-adv-x="230" 
d="M140 360q-13 0 -21.5 8.5t-8.5 21.5v230h-5l-50 -50q-10 -10 -20 -10q-11 0 -18 7t-7 18q0 15 15 30l70 70q20 20 40 20q15 0 25 -10t10 -25v-280q0 -13 -8.5 -21.5t-21.5 -8.5z" />
    <glyph glyph-name="ordmasculine" unicode="&#xba;" horiz-adv-x="340" 
d="M240 510v45q0 50 -19 75t-51 25t-51 -25t-19 -75v-45q0 -50 19 -75t51 -25t51 25t19 75zM40 510v45q0 73 36 114t94 41t94 -41t36 -114v-45q0 -73 -36 -114t-94 -41t-94 41t-36 114z" />
    <glyph glyph-name="guillemotright" unicode="&#xbb;" horiz-adv-x="470" 
d="M350 248l-115 157q-15 25 -15 35q0 13 8.5 21.5t21.5 8.5q22 0 35 -20l115 -160q20 -27 20 -45t-20 -45l-115 -160q-13 -20 -35 -20q-13 0 -21.5 8.5t-8.5 21.5q0 10 15 35l115 157v6zM180 248l-115 157q-15 25 -15 35q0 13 8.5 21.5t21.5 8.5q22 0 35 -20l115 -160
q20 -27 20 -45t-20 -45l-115 -160q-13 -20 -35 -20q-13 0 -21.5 8.5t-8.5 21.5q0 10 15 35l115 157v6z" />
    <glyph glyph-name="onequarter" unicode="&#xbc;" horiz-adv-x="685" 
d="M540 625l-355 -630q-9 -15 -30 -15q-15 0 -25 10t-10 25q0 12 20 45l355 630q9 15 30 15q15 0 25 -10t10 -25q0 -12 -20 -45zM170 355q-13 0 -21.5 8.5t-8.5 21.5v230h-5l-50 -50q-10 -10 -20 -10q-11 0 -18 7.5t-7 17.5q0 15 15 30l70 70q20 20 40 20q15 0 25 -10
t10 -25v-280q0 -13 -8.5 -21.5t-21.5 -8.5zM541 260l-90 -125v-5h94v130h-4zM405 150l125 170q15 20 40 20q15 0 25 -10t10 -25v-175h20q30 0 30 -27q0 -28 -30 -28h-20v-50q0 -13 -8.5 -21.5t-21.5 -8.5t-21.5 8.5t-8.5 21.5v50h-125q-15 0 -25 10t-10 25q0 14 20 40z" />
    <glyph glyph-name="onehalf" unicode="&#xbd;" horiz-adv-x="685" 
d="M515 285q-29 0 -50 -25q-3 -3 -7.5 -10t-6.5 -9t-6.5 -4t-9.5 -2q-30 0 -30 30q0 25 32.5 50t77.5 25q52 0 83.5 -30.5t31.5 -79.5q0 -65 -70 -120l-75 -60v-5h120q30 0 30 -27q0 -28 -30 -28h-170q-13 0 -21.5 8t-8.5 22q0 28 50 70l60 50q55 46 55 90q0 55 -55 55z
M170 355q-13 0 -21.5 8.5t-8.5 21.5v230h-5l-50 -50q-10 -10 -20 -10q-11 0 -18 7.5t-7 17.5q0 15 15 30l70 70q20 20 40 20q15 0 25 -10t10 -25v-280q0 -13 -8.5 -21.5t-21.5 -8.5zM540 625l-355 -630q-9 -15 -30 -15q-15 0 -25 10t-10 25q0 12 20 45l355 630q9 15 30 15
q15 0 25 -10t10 -25q0 -12 -20 -45z" />
    <glyph glyph-name="threequarters" unicode="&#xbe;" horiz-adv-x="690" 
d="M175 565v-5q4 0 10 -1t21.5 -7t27.5 -15.5t21.5 -29.5t9.5 -47q0 -49 -31.5 -79.5t-83.5 -30.5q-45 0 -77.5 25t-32.5 50q0 30 30 30q5 0 9.5 -2t6.5 -4t6.5 -9t7.5 -10q21 -25 50 -25q55 0 55 55q0 25 -15.5 37.5t-39.5 12.5h-25q-13 0 -21.5 8t-8.5 22q0 15 15 30
l70 65v5h-105q-30 0 -30 27q0 28 30 28h160q13 0 21.5 -8.5t8.5 -21.5t-11.5 -26.5t-18.5 -18.5zM535 625l-355 -630q-9 -15 -30 -15q-15 0 -25 10t-10 25q0 12 20 45l355 630q9 15 30 15q15 0 25 -10t10 -25q0 -12 -20 -45zM536 265l-90 -125v-5h94v130h-4zM400 155
l125 170q15 20 40 20q15 0 25 -10t10 -25v-175h20q30 0 30 -27q0 -28 -30 -28h-20v-50q0 -13 -8.5 -21.5t-21.5 -8.5t-21.5 8.5t-8.5 21.5v50h-125q-15 0 -25 10t-10 25q0 14 20 40z" />
    <glyph glyph-name="questiondown" unicode="&#xbf;" horiz-adv-x="490" 
d="M315 280q0 -39 -19.5 -74t-47.5 -62t-56 -53t-47.5 -57t-19.5 -64q0 -53 35.5 -86.5t94.5 -33.5q37 0 74.5 17.5t60.5 52.5q2 3 7 11.5t7.5 11.5t7.5 8t10.5 7t12.5 2q15 0 25 -11t10 -29q0 -43 -64.5 -91.5t-150.5 -48.5q-93 0 -149 53t-56 137q0 41 20 78.5t48.5 64.5
t57.5 52.5t49 55t20 59.5q0 18 10 29t25 11t25 -11t10 -29zM325 470q0 -22 -13 -36t-32 -14t-32 14t-13 36t13 36t32 14t32 -14t13 -36z" />
    <glyph glyph-name="Agrave" unicode="&#xc0;" horiz-adv-x="560" 
d="M395 270l-113 350h-4l-113 -350h230zM475 35l-55 165h-280l-55 -165q0 -1 -2 -6t-2.5 -6.5t-2.5 -6.5t-3.5 -7t-5 -5.5t-6.5 -4.5t-8 -2.5t-10 -1.5q-15 0 -25 11t-10 29q0 2 10 35l205 610q14 40 55 40t55 -40l205 -610q10 -33 10 -35q0 -18 -10 -29t-25 -11
q-5 0 -10 1.5t-8 2.5t-6.5 4.5t-5 5.5t-3.5 7t-2.5 6.5t-2.5 6.5t-2 6zM235 975l50 -115q15 -34 15 -45q0 -25 -25 -25q-15 0 -25 20l-70 140q-10 20 -10 30q0 13 8.5 21.5t21.5 8.5q9 0 15.5 -4.5t9.5 -10t10 -20.5z" />
    <glyph glyph-name="Aacute" unicode="&#xc1;" horiz-adv-x="560" 
d="M395 270l-113 350h-4l-113 -350h230zM475 35l-55 165h-280l-55 -165q0 -1 -2 -6t-2.5 -6.5t-2.5 -6.5t-3.5 -7t-5 -5.5t-6.5 -4.5t-8 -2.5t-10 -1.5q-15 0 -25 11t-10 29q0 2 10 35l205 610q14 40 55 40t55 -40l205 -610q10 -33 10 -35q0 -18 -10 -29t-25 -11
q-5 0 -10 1.5t-8 2.5t-6.5 4.5t-5 5.5t-3.5 7t-2.5 6.5t-2.5 6.5t-2 6zM275 860l50 115q7 15 10 20.5t9.5 10t15.5 4.5q13 0 21.5 -8.5t8.5 -21.5q0 -10 -10 -30l-70 -140q-10 -20 -25 -20q-25 0 -25 25q0 11 15 45z" />
    <glyph glyph-name="Acircumflex" unicode="&#xc2;" horiz-adv-x="560" 
d="M395 270l-113 350h-4l-113 -350h230zM475 35l-55 165h-280l-55 -165q0 -1 -2 -6t-2.5 -6.5t-2.5 -6.5t-3.5 -7t-5 -5.5t-6.5 -4.5t-8 -2.5t-10 -1.5q-15 0 -25 11t-10 29q0 2 10 35l205 610q14 40 55 40t55 -40l205 -610q10 -33 10 -35q0 -18 -10 -29t-25 -11
q-5 0 -10 1.5t-8 2.5t-6.5 4.5t-5 5.5t-3.5 7t-2.5 6.5t-2.5 6.5t-2 6zM278 940l-83 -130q-12 -20 -30 -20q-13 0 -21.5 8.5t-8.5 21.5q0 15 10 30l85 130q19 30 50 30t50 -30l85 -130q10 -15 10 -30q0 -13 -8.5 -21.5t-21.5 -8.5q-18 0 -30 20l-83 130h-4z" />
    <glyph glyph-name="Atilde" unicode="&#xc3;" horiz-adv-x="560" 
d="M395 270l-113 350h-4l-113 -350h230zM475 35l-55 165h-280l-55 -165q0 -1 -2 -6t-2.5 -6.5t-2.5 -6.5t-3.5 -7t-5 -5.5t-6.5 -4.5t-8 -2.5t-10 -1.5q-15 0 -25 11t-10 29q0 2 10 35l205 610q14 40 55 40t55 -40l205 -610q10 -33 10 -35q0 -18 -10 -29t-25 -11
q-5 0 -10 1.5t-8 2.5t-6.5 4.5t-5 5.5t-3.5 7t-2.5 6.5t-2.5 6.5t-2 6zM408 945q10 0 17.5 -7.5t7.5 -17.5q0 -50 -27 -82.5t-63 -32.5q-24 0 -44 13.5t-30.5 29t-24 29t-26.5 13.5q-26 0 -35 -40q-5 -22 -10.5 -31t-19.5 -9q-11 0 -18 7t-7 18q0 50 27 82.5t63 32.5
q24 0 44 -13.5t30.5 -29t24 -29t26.5 -13.5q26 0 35 40q5 22 10.5 31t19.5 9z" />
    <glyph glyph-name="Adieresis" unicode="&#xc4;" horiz-adv-x="560" 
d="M395 270l-113 350h-4l-113 -350h230zM475 35l-55 165h-280l-55 -165q0 -1 -2 -6t-2.5 -6.5t-2.5 -6.5t-3.5 -7t-5 -5.5t-6.5 -4.5t-8 -2.5t-10 -1.5q-15 0 -25 11t-10 29q0 2 10 35l205 610q14 40 55 40t55 -40l205 -610q10 -33 10 -35q0 -18 -10 -29t-25 -11
q-5 0 -10 1.5t-8 2.5t-6.5 4.5t-5 5.5t-3.5 7t-2.5 6.5t-2.5 6.5t-2 6zM155 870q0 22 13 36t32 14t32 -14t13 -36t-13 -36t-32 -14t-32 14t-13 36zM315 870q0 22 13 36t32 14t32 -14t13 -36t-13 -36t-32 -14t-32 14t-13 36z" />
    <glyph glyph-name="Aring" unicode="&#xc5;" horiz-adv-x="560" 
d="M475 35l-55 165h-280l-55 -165q0 -1 -2 -6t-2.5 -6.5t-2.5 -6.5t-3.5 -7t-5 -5.5t-6.5 -4.5t-8 -2.5t-10 -1.5q-15 0 -25 11t-10 29q0 2 10 35l206 613q-61 33 -61 117q0 59 32.5 94.5t82.5 35.5t82.5 -35.5t32.5 -94.5q0 -84 -61 -117l206 -613q10 -33 10 -35
q0 -18 -10 -29t-25 -11q-5 0 -10 1.5t-8 2.5t-6.5 4.5t-5 5.5t-3.5 7t-2.5 6.5t-2.5 6.5t-2 6zM395 270l-113 350h-4l-113 -350h230zM280 715q31 0 50.5 22.5t19.5 62.5t-19.5 62.5t-50.5 22.5t-50.5 -22.5t-19.5 -62.5t19.5 -62.5t50.5 -22.5z" />
    <glyph glyph-name="AE" unicode="&#xc6;" horiz-adv-x="775" 
d="M395 0q-15 0 -25 11t-10 29v160h-234l-51 -165q0 -1 -2 -6t-2.5 -6.5t-2.5 -6.5t-3.5 -7t-5 -5.5t-6.5 -4.5t-8 -2.5t-10 -1.5q-15 0 -25 11t-10 29q0 2 10 35l185 590q5 17 19.5 28.5t35.5 11.5h462q15 0 25 -10t10 -25t-10 -25t-25 -10h-277v-240h202q15 0 25 -10
t10 -25t-10 -25t-25 -10h-202v-250h285q15 0 25 -10t10 -25t-10 -25t-25 -10h-325zM259 630l-112 -360h213v360h-101z" />
    <glyph glyph-name="Ccedilla" unicode="&#xc7;" horiz-adv-x="565" 
d="M415 -165q0 -49 -31.5 -79.5t-83.5 -30.5q-32 0 -53.5 17.5t-21.5 37.5q0 10 7.5 17.5t17.5 7.5q9 0 22.5 -10t27.5 -10q26 0 40.5 13.5t14.5 36.5t-14.5 36.5t-40.5 13.5h-20q-25 0 -25 25v75q-8 1 -20.5 4t-45.5 20.5t-58 44.5t-45.5 82.5t-20.5 128.5v170
q0 135 66 210t174 75q86 0 150.5 -48.5t64.5 -91.5q0 -18 -10 -29t-25 -11q-7 0 -12.5 2t-10.5 7t-7.5 8t-7.5 11.5t-7 11.5q-23 35 -60.5 52.5t-74.5 17.5q-74 0 -119.5 -55t-45.5 -160v-170q0 -105 45.5 -160t119.5 -55q52 0 91.5 27t58.5 73q12 30 40 30q15 0 25 -10
t10 -25q0 -28 -24 -65q-29 -44 -77 -69t-81 -28l-33 -3v-35q44 -4 72 -33.5t28 -76.5z" />
    <glyph glyph-name="Egrave" unicode="&#xc8;" horiz-adv-x="555" 
d="M490 630h-315v-240h220q15 0 25 -10t10 -25t-10 -25t-25 -10h-220v-250h325q15 0 25 -10t10 -25t-10 -25t-25 -10h-365q-15 0 -25 11t-10 29v620q0 18 10 29t25 11h355q15 0 25 -10t10 -25t-10 -25t-25 -10zM275 975l50 -115q15 -34 15 -45q0 -25 -25 -25q-15 0 -25 20
l-70 140q-10 20 -10 30q0 13 8.5 21.5t21.5 8.5q9 0 15.5 -4.5t9.5 -10t10 -20.5z" />
    <glyph glyph-name="Eacute" unicode="&#xc9;" horiz-adv-x="555" 
d="M490 630h-315v-240h220q15 0 25 -10t10 -25t-10 -25t-25 -10h-220v-250h325q15 0 25 -10t10 -25t-10 -25t-25 -10h-365q-15 0 -25 11t-10 29v620q0 18 10 29t25 11h355q15 0 25 -10t10 -25t-10 -25t-25 -10zM310 860l50 115q7 15 10 20.5t9.5 10t15.5 4.5q13 0 21.5 -8.5
t8.5 -21.5q0 -10 -10 -30l-70 -140q-10 -20 -25 -20q-25 0 -25 25q0 11 15 45z" />
    <glyph glyph-name="Ecircumflex" unicode="&#xca;" horiz-adv-x="555" 
d="M490 630h-315v-240h220q15 0 25 -10t10 -25t-10 -25t-25 -10h-220v-250h325q15 0 25 -10t10 -25t-10 -25t-25 -10h-365q-15 0 -25 11t-10 29v620q0 18 10 29t25 11h355q15 0 25 -10t10 -25t-10 -25t-25 -10zM310 940l-83 -130q-12 -20 -30 -20q-13 0 -21.5 8.5t-8.5 21.5
q0 15 10 30l85 130q19 30 50 30t50 -30l85 -130q10 -15 10 -30q0 -13 -8.5 -21.5t-21.5 -8.5q-18 0 -30 20l-83 130h-4z" />
    <glyph glyph-name="Edieresis" unicode="&#xcb;" horiz-adv-x="555" 
d="M490 630h-315v-240h220q15 0 25 -10t10 -25t-10 -25t-25 -10h-220v-250h325q15 0 25 -10t10 -25t-10 -25t-25 -10h-365q-15 0 -25 11t-10 29v620q0 18 10 29t25 11h355q15 0 25 -10t10 -25t-10 -25t-25 -10zM190 870q0 22 13 36t32 14t32 -14t13 -36t-13 -36t-32 -14
t-32 14t-13 36zM350 870q0 22 13 36t32 14t32 -14t13 -36t-13 -36t-32 -14t-32 14t-13 36z" />
    <glyph glyph-name="Igrave" unicode="&#xcc;" horiz-adv-x="275" 
d="M135 705q40 0 40 -40v-630q0 -40 -40 -40q-15 0 -25 11t-10 29v630q0 18 10 29t25 11zM95 975l50 -115q15 -34 15 -45q0 -25 -25 -25q-15 0 -25 20l-70 140q-10 20 -10 30q0 13 8.5 21.5t21.5 8.5q9 0 15.5 -4.5t9.5 -10t10 -20.5z" />
    <glyph glyph-name="Iacute" unicode="&#xcd;" horiz-adv-x="275" 
d="M135 705q40 0 40 -40v-630q0 -40 -40 -40q-15 0 -25 11t-10 29v630q0 18 10 29t25 11zM130 860l50 115q7 15 10 20.5t9.5 10t15.5 4.5q13 0 21.5 -8.5t8.5 -21.5q0 -10 -10 -30l-70 -140q-10 -20 -25 -20q-25 0 -25 25q0 11 15 45z" />
    <glyph glyph-name="Icircumflex" unicode="&#xce;" horiz-adv-x="270" 
d="M133 705q40 0 40 -40v-630q0 -40 -40 -40q-15 0 -25 11t-10 29v630q0 18 10 29t25 11zM133 940l-83 -130q-12 -20 -30 -20q-13 0 -21.5 8.5t-8.5 21.5q0 15 10 30l85 130q19 30 50 30t50 -30l85 -130q10 -15 10 -30q0 -13 -8.5 -21.5t-21.5 -8.5q-18 0 -30 20l-83 130h-4
z" />
    <glyph glyph-name="Idieresis" unicode="&#xcf;" horiz-adv-x="270" 
d="M133 705q40 0 40 -40v-630q0 -40 -40 -40q-15 0 -25 11t-10 29v630q0 18 10 29t25 11zM10 870q0 22 13 36t32 14t32 -14t13 -36t-13 -36t-32 -14t-32 14t-13 36zM170 870q0 22 13 36t32 14t32 -14t13 -36t-13 -36t-32 -14t-32 14t-13 36z" />
    <glyph glyph-name="Eth" unicode="&#xd0;" horiz-adv-x="630" 
d="M325 0h-185q-15 0 -25 11t-10 29v270h-40q-15 0 -25 10t-10 25t10 25t25 10h40v280q0 18 10 29t25 11h185q108 0 174 -75t66 -210v-130q0 -135 -66 -210t-174 -75zM180 70h145q74 0 119.5 55t45.5 160v130q0 105 -45.5 160t-119.5 55h-145v-250h120q15 0 25 -10t10 -25
t-10 -25t-25 -10h-120v-240z" />
    <glyph glyph-name="Ntilde" unicode="&#xd1;" horiz-adv-x="665" 
d="M480 30l-300 505h-5v-500q0 -40 -40 -40q-15 0 -25 11t-10 29v630q0 18 10 29t25 11q29 0 50 -35l300 -505h5v500q0 18 10 29t25 11q40 0 40 -40v-630q0 -18 -10 -29t-25 -11q-29 0 -50 35zM460 945q10 0 17.5 -7.5t7.5 -17.5q0 -50 -27 -82.5t-63 -32.5q-24 0 -44 13.5
t-30.5 29t-24 29t-26.5 13.5q-26 0 -35 -40q-5 -22 -10.5 -31t-19.5 -9q-11 0 -18 7t-7 18q0 50 27 82.5t63 32.5q24 0 44 -13.5t30.5 -29t24 -29t26.5 -13.5q26 0 35 40q5 22 10.5 31t19.5 9z" />
    <glyph glyph-name="Ograve" unicode="&#xd2;" horiz-adv-x="610" 
d="M305 720q108 0 174 -75t66 -210v-170q0 -135 -66 -210t-174 -75t-174 75t-66 210v170q0 135 66 210t174 75zM305 650q-74 0 -119.5 -55t-45.5 -160v-170q0 -105 45.5 -160t119.5 -55t119.5 55t45.5 160v170q0 105 -45.5 160t-119.5 55zM265 975l50 -115q15 -34 15 -45
q0 -25 -25 -25q-15 0 -25 20l-70 140q-10 20 -10 30q0 13 8.5 21.5t21.5 8.5q9 0 15.5 -4.5t9.5 -10t10 -20.5z" />
    <glyph glyph-name="Oacute" unicode="&#xd3;" horiz-adv-x="610" 
d="M305 720q108 0 174 -75t66 -210v-170q0 -135 -66 -210t-174 -75t-174 75t-66 210v170q0 135 66 210t174 75zM305 650q-74 0 -119.5 -55t-45.5 -160v-170q0 -105 45.5 -160t119.5 -55t119.5 55t45.5 160v170q0 105 -45.5 160t-119.5 55zM295 860l50 115q7 15 10 20.5
t9.5 10t15.5 4.5q13 0 21.5 -8.5t8.5 -21.5q0 -10 -10 -30l-70 -140q-10 -20 -25 -20q-25 0 -25 25q0 11 15 45z" />
    <glyph glyph-name="Ocircumflex" unicode="&#xd4;" horiz-adv-x="610" 
d="M305 720q108 0 174 -75t66 -210v-170q0 -135 -66 -210t-174 -75t-174 75t-66 210v170q0 135 66 210t174 75zM305 650q-74 0 -119.5 -55t-45.5 -160v-170q0 -105 45.5 -160t119.5 -55t119.5 55t45.5 160v170q0 105 -45.5 160t-119.5 55zM303 940l-83 -130q-12 -20 -30 -20
q-13 0 -21.5 8.5t-8.5 21.5q0 15 10 30l85 130q19 30 50 30t50 -30l85 -130q10 -15 10 -30q0 -13 -8.5 -21.5t-21.5 -8.5q-18 0 -30 20l-83 130h-4z" />
    <glyph glyph-name="Otilde" unicode="&#xd5;" horiz-adv-x="610" 
d="M305 720q108 0 174 -75t66 -210v-170q0 -135 -66 -210t-174 -75t-174 75t-66 210v170q0 135 66 210t174 75zM305 650q-74 0 -119.5 -55t-45.5 -160v-170q0 -105 45.5 -160t119.5 -55t119.5 55t45.5 160v170q0 105 -45.5 160t-119.5 55zM433 945q11 0 18 -7.5t7 -17.5
q0 -50 -27 -82.5t-63 -32.5q-24 0 -44 13.5t-30.5 29t-24 29t-26.5 13.5q-26 0 -35 -40q-5 -22 -10.5 -31t-19.5 -9q-10 0 -17.5 7t-7.5 18q0 50 27 82.5t63 32.5q24 0 44 -13.5t30.5 -29t24 -29t26.5 -13.5q26 0 35 40q5 22 10.5 31t19.5 9z" />
    <glyph glyph-name="Odieresis" unicode="&#xd6;" horiz-adv-x="610" 
d="M305 720q108 0 174 -75t66 -210v-170q0 -135 -66 -210t-174 -75t-174 75t-66 210v170q0 135 66 210t174 75zM305 650q-74 0 -119.5 -55t-45.5 -160v-170q0 -105 45.5 -160t119.5 -55t119.5 55t45.5 160v170q0 105 -45.5 160t-119.5 55zM180 870q0 22 13 36t32 14t32 -14
t13 -36t-13 -36t-32 -14t-32 14t-13 36zM340 870q0 22 13 36t32 14t32 -14t13 -36t-13 -36t-32 -14t-32 14t-13 36z" />
    <glyph glyph-name="multiply" unicode="&#xd7;" horiz-adv-x="410" 
d="M205 300l-85 -85q-15 -15 -30 -15q-30 0 -30 30q0 15 10 25l90 90l-90 90q-10 10 -10 25q0 30 30 30q15 0 30 -15l85 -85l85 85q15 15 30 15q30 0 30 -30q0 -15 -10 -25l-90 -90l90 -90q10 -10 10 -25q0 -30 -30 -30q-15 0 -30 15z" />
    <glyph glyph-name="Oslash" unicode="&#xd8;" horiz-adv-x="600" 
d="M300 720q36 0 68.5 -8.5t47.5 -17.5l14 -9l5 10q1 1 2 4q12 27 25 30l8 1q13 0 21.5 -8.5t8.5 -21.5q0 -10 -10 -30l-15 -30q3 -2 7 -6.5t15.5 -22.5t20 -39t15.5 -58t7 -79v-170q0 -135 -66 -210t-174 -75q-36 0 -68.5 8.5t-47.5 17.5l-14 9l-5 -10q-13 -28 -23 -33
q-5 -2 -12 -2q-13 0 -21.5 8.5t-8.5 21.5q0 10 10 30l15 30q-3 2 -7 6.5t-15.5 22.5t-20 39t-15.5 58t-7 79v170q0 135 66 210t174 75zM465 435q0 36 -6.5 68.5t-12.5 46.5l-6 15l-235 -485q35 -30 95 -30q74 0 119.5 55t45.5 160v170zM300 650q-74 0 -119.5 -55t-45.5 -160
v-170q0 -38 6.5 -70.5t12.5 -46.5l6 -13l235 480q-3 4 -10 10t-31.5 15.5t-53.5 9.5z" />
    <glyph glyph-name="Ugrave" unicode="&#xd9;" horiz-adv-x="640" 
d="M165 665v-410q0 -101 42 -153t113 -52t113 52t42 153v410q0 40 40 40q15 0 25 -11t10 -29v-410q0 -132 -63 -203.5t-167 -71.5t-167 71.5t-63 203.5v410q0 18 10 29t25 11q40 0 40 -40zM280 975l50 -115q15 -34 15 -45q0 -25 -25 -25q-15 0 -25 20l-70 140q-10 20 -10 30
q0 13 8.5 21.5t21.5 8.5q9 0 15.5 -4.5t9.5 -10t10 -20.5z" />
    <glyph glyph-name="Uacute" unicode="&#xda;" horiz-adv-x="640" 
d="M165 665v-410q0 -101 42 -153t113 -52t113 52t42 153v410q0 40 40 40q15 0 25 -11t10 -29v-410q0 -132 -63 -203.5t-167 -71.5t-167 71.5t-63 203.5v410q0 18 10 29t25 11q40 0 40 -40zM310 860l50 115q7 15 10 20.5t9.5 10t15.5 4.5q13 0 21.5 -8.5t8.5 -21.5
q0 -10 -10 -30l-70 -140q-10 -20 -25 -20q-25 0 -25 25q0 11 15 45z" />
    <glyph glyph-name="Ucircumflex" unicode="&#xdb;" horiz-adv-x="640" 
d="M165 665v-410q0 -101 42 -153t113 -52t113 52t42 153v410q0 40 40 40q15 0 25 -11t10 -29v-410q0 -132 -63 -203.5t-167 -71.5t-167 71.5t-63 203.5v410q0 18 10 29t25 11q40 0 40 -40zM318 940l-83 -130q-12 -20 -30 -20q-13 0 -21.5 8.5t-8.5 21.5q0 15 10 30l85 130
q19 30 50 30t50 -30l85 -130q10 -15 10 -30q0 -13 -8.5 -21.5t-21.5 -8.5q-18 0 -30 20l-83 130h-4z" />
    <glyph glyph-name="Udieresis" unicode="&#xdc;" horiz-adv-x="640" 
d="M165 665v-410q0 -101 42 -153t113 -52t113 52t42 153v410q0 40 40 40q15 0 25 -11t10 -29v-410q0 -132 -63 -203.5t-167 -71.5t-167 71.5t-63 203.5v410q0 18 10 29t25 11q40 0 40 -40zM195 870q0 22 13 36t32 14t32 -14t13 -36t-13 -36t-32 -14t-32 14t-13 36zM355 870
q0 22 13 36t32 14t32 -14t13 -36t-13 -36t-32 -14t-32 14t-13 36z" />
    <glyph glyph-name="Yacute" unicode="&#xdd;" horiz-adv-x="505" 
d="M255 360l175 320q13 25 40 25q15 0 25 -11t10 -29q0 -10 -20 -45l-195 -350v-235q0 -40 -40 -40q-15 0 -25 11t-10 29v235l-195 350q-20 35 -20 45q0 18 10 29t25 11q27 0 40 -25l175 -320h5zM242 860l50 115q7 15 10 20.5t9.5 10t15.5 4.5q13 0 21.5 -8.5t8.5 -21.5
q0 -10 -10 -30l-70 -140q-10 -20 -25 -20q-25 0 -25 25q0 11 15 45z" />
    <glyph glyph-name="Thorn" unicode="&#xde;" horiz-adv-x="585" 
d="M305 515h-130v-320h130q78 0 121.5 42.5t43.5 117.5t-43.5 117.5t-121.5 42.5zM175 585h130q112 0 176 -62t64 -168t-64 -168t-176 -62h-130v-90q0 -40 -40 -40q-15 0 -25 11t-10 29v635q0 18 10 29t25 11q40 0 40 -40v-85z" />
    <glyph glyph-name="germandbls" unicode="&#xdf;" horiz-adv-x="510" 
d="M410 135q0 29 -15.5 52.5t-37.5 41.5t-44 37.5t-37.5 49.5t-15.5 69q0 34 30 81.5t30 73.5q0 50 -25 80t-60 30q-39 0 -62 -28t-23 -82v-510q0 -15 -9.5 -25t-25.5 -10q-15 0 -25 10t-10 25v510q0 81 45 130.5t110 49.5t110 -49.5t45 -130.5q0 -37 -30 -83t-30 -72
q0 -30 15.5 -54t37.5 -42t44 -37t37.5 -48.5t15.5 -68.5q0 -70 -39.5 -112.5t-100.5 -42.5q-46 0 -75.5 22.5t-29.5 47.5q0 35 30 35q18 0 35 -20q18 -20 40 -20q31 0 50.5 23.5t19.5 66.5z" />
    <glyph glyph-name="agrave" unicode="&#xe0;" horiz-adv-x="475" 
d="M205 50q54 0 89.5 38.5t35.5 101.5v50h-115q-105 0 -105 -95q0 -45 25 -70t70 -25zM230 525q76 0 123 -50.5t47 -139.5v-305q0 -15 -10 -25t-25 -10t-25 10t-10 25v20h-5q-1 -3 -3.5 -7t-12.5 -15.5t-22.5 -20t-34.5 -15.5t-47 -7q-78 0 -124 44t-46 116q0 73 47.5 116.5
t132.5 43.5h115v30q0 62 -26.5 93.5t-73.5 31.5q-14 0 -27 -4t-20.5 -7t-17.5 -13.5t-12.5 -13.5t-12.5 -17t-10 -15q-13 -20 -35 -20q-13 0 -21.5 8t-8.5 22q0 41 50.5 83t114.5 42zM192 795l50 -115q15 -34 15 -45q0 -25 -25 -25q-15 0 -25 20l-70 140q-10 20 -10 30
q0 13 8.5 21.5t21.5 8.5q9 0 15.5 -4.5t9.5 -10t10 -20.5z" />
    <glyph glyph-name="aacute" unicode="&#xe1;" horiz-adv-x="475" 
d="M205 50q54 0 89.5 38.5t35.5 101.5v50h-115q-105 0 -105 -95q0 -45 25 -70t70 -25zM230 525q76 0 123 -50.5t47 -139.5v-305q0 -15 -10 -25t-25 -10t-25 10t-10 25v20h-5q-1 -3 -3.5 -7t-12.5 -15.5t-22.5 -20t-34.5 -15.5t-47 -7q-78 0 -124 44t-46 116q0 73 47.5 116.5
t132.5 43.5h115v30q0 62 -26.5 93.5t-73.5 31.5q-14 0 -27 -4t-20.5 -7t-17.5 -13.5t-12.5 -13.5t-12.5 -17t-10 -15q-13 -20 -35 -20q-13 0 -21.5 8t-8.5 22q0 41 50.5 83t114.5 42zM222 680l50 115q7 15 10 20.5t9.5 10t15.5 4.5q13 0 21.5 -8.5t8.5 -21.5q0 -10 -10 -30
l-70 -140q-10 -20 -25 -20q-25 0 -25 25q0 11 15 45z" />
    <glyph glyph-name="acircumflex" unicode="&#xe2;" horiz-adv-x="475" 
d="M205 50q54 0 89.5 38.5t35.5 101.5v50h-115q-105 0 -105 -95q0 -45 25 -70t70 -25zM230 525q76 0 123 -50.5t47 -139.5v-305q0 -15 -10 -25t-25 -10t-25 10t-10 25v20h-5q-1 -3 -3.5 -7t-12.5 -15.5t-22.5 -20t-34.5 -15.5t-47 -7q-78 0 -124 44t-46 116q0 73 47.5 116.5
t132.5 43.5h115v30q0 62 -26.5 93.5t-73.5 31.5q-14 0 -27 -4t-20.5 -7t-17.5 -13.5t-12.5 -13.5t-12.5 -17t-10 -15q-13 -20 -35 -20q-13 0 -21.5 8t-8.5 22q0 41 50.5 83t114.5 42zM230 760l-83 -130q-12 -20 -30 -20q-13 0 -21.5 8.5t-8.5 21.5q0 15 10 30l85 130
q19 30 50 30t50 -30l85 -130q10 -15 10 -30q0 -13 -8.5 -21.5t-21.5 -8.5q-18 0 -30 20l-83 130h-4z" />
    <glyph glyph-name="atilde" unicode="&#xe3;" horiz-adv-x="475" 
d="M205 50q54 0 89.5 38.5t35.5 101.5v50h-115q-105 0 -105 -95q0 -45 25 -70t70 -25zM230 525q76 0 123 -50.5t47 -139.5v-305q0 -15 -10 -25t-25 -10t-25 10t-10 25v20h-5q-1 -3 -3.5 -7t-12.5 -15.5t-22.5 -20t-34.5 -15.5t-47 -7q-78 0 -124 44t-46 116q0 73 47.5 116.5
t132.5 43.5h115v30q0 62 -26.5 93.5t-73.5 31.5q-14 0 -27 -4t-20.5 -7t-17.5 -13.5t-12.5 -13.5t-12.5 -17t-10 -15q-13 -20 -35 -20q-13 0 -21.5 8t-8.5 22q0 41 50.5 83t114.5 42zM360 765q10 0 17.5 -7.5t7.5 -17.5q0 -50 -27 -82.5t-63 -32.5q-24 0 -44 13.5t-30.5 29
t-24 29t-26.5 13.5q-26 0 -35 -40q-5 -22 -10.5 -31t-19.5 -9q-11 0 -18 7t-7 18q0 50 27 82.5t63 32.5q24 0 44 -13.5t30.5 -29t24 -29t26.5 -13.5q26 0 35 40q5 22 10.5 31t19.5 9z" />
    <glyph glyph-name="adieresis" unicode="&#xe4;" horiz-adv-x="475" 
d="M205 50q54 0 89.5 38.5t35.5 101.5v50h-115q-105 0 -105 -95q0 -45 25 -70t70 -25zM230 525q76 0 123 -50.5t47 -139.5v-305q0 -15 -10 -25t-25 -10t-25 10t-10 25v20h-5q-1 -3 -3.5 -7t-12.5 -15.5t-22.5 -20t-34.5 -15.5t-47 -7q-78 0 -124 44t-46 116q0 73 47.5 116.5
t132.5 43.5h115v30q0 62 -26.5 93.5t-73.5 31.5q-14 0 -27 -4t-20.5 -7t-17.5 -13.5t-12.5 -13.5t-12.5 -17t-10 -15q-13 -20 -35 -20q-13 0 -21.5 8t-8.5 22q0 41 50.5 83t114.5 42zM107 690q0 22 13 36t32 14t32 -14t13 -36t-13 -36t-32 -14t-32 14t-13 36zM267 690
q0 22 13 36t32 14t32 -14t13 -36t-13 -36t-32 -14t-32 14t-13 36z" />
    <glyph glyph-name="aring" unicode="&#xe5;" horiz-adv-x="475" 
d="M205 50q54 0 89.5 38.5t35.5 101.5v50h-115q-105 0 -105 -95q0 -45 25 -70t70 -25zM230 525q76 0 123 -50.5t47 -139.5v-305q0 -15 -10 -25t-25 -10t-25 10t-10 25v20h-5q-1 -3 -3.5 -7t-12.5 -15.5t-22.5 -20t-34.5 -15.5t-47 -7q-78 0 -124 44t-46 116q0 73 47.5 116.5
t132.5 43.5h115v30q0 62 -26.5 93.5t-73.5 31.5q-14 0 -27 -4t-20.5 -7t-17.5 -13.5t-12.5 -13.5t-12.5 -17t-10 -15q-13 -20 -35 -20q-13 0 -21.5 8t-8.5 22q0 41 50.5 83t114.5 42zM232 635q31 0 50.5 22.5t19.5 62.5t-19.5 62.5t-50.5 22.5t-50.5 -22.5t-19.5 -62.5
t19.5 -62.5t50.5 -22.5zM232 590q-50 0 -82.5 35.5t-32.5 94.5t32.5 94.5t82.5 35.5t82.5 -35.5t32.5 -94.5t-32.5 -94.5t-82.5 -35.5z" />
    <glyph glyph-name="ae" unicode="&#xe6;" horiz-adv-x="760" 
d="M520 -15q-32 0 -59.5 10.5t-44 25t-28.5 29t-16 24.5l-5 11h-4q-1 -4 -4 -11t-15.5 -24t-28.5 -30t-45.5 -24t-64.5 -11q-78 0 -124 44t-46 116q0 73 47.5 116.5t132.5 43.5h115v30q0 62 -26.5 93.5t-73.5 31.5q-14 0 -27 -4t-20.5 -7t-17.5 -13.5t-12.5 -13.5t-12.5 -17
t-10 -15q-13 -20 -35 -20q-13 0 -21.5 8t-8.5 22q0 41 50.5 83t114.5 42q29 0 54 -9.5t40 -22.5t25.5 -26t14.5 -23l4 -9h4l5 10t15.5 21.5t28 27.5t42 21.5t57.5 9.5q81 0 135.5 -59.5t54.5 -155.5v-35q0 -15 -10 -25t-25 -10h-275v-40q0 -69 34.5 -109.5t85.5 -40.5
q77 0 116 80q12 25 34 25q15 0 25 -10t10 -25q0 -41 -57.5 -88t-127.5 -47zM205 50q54 0 89.5 38.5t35.5 101.5v50h-115q-105 0 -105 -95q0 -45 25 -70t70 -25zM400 310v-5h240v5q0 69 -34.5 109.5t-85.5 40.5t-85.5 -40.5t-34.5 -109.5z" />
    <glyph glyph-name="ccedilla" unicode="&#xe7;" horiz-adv-x="465" 
d="M360 -165q0 -49 -31.5 -79.5t-83.5 -30.5q-32 0 -53.5 17.5t-21.5 37.5q0 10 7 17.5t18 7.5q9 0 22.5 -10t27.5 -10q26 0 40.5 13.5t14.5 36.5t-14.5 36.5t-40.5 13.5h-20q-25 0 -25 25v80q-6 1 -15.5 4.5t-34.5 19t-44.5 36.5t-35 61t-15.5 89v110q0 96 55.5 155.5
t139.5 59.5q67 0 118.5 -42t51.5 -83q0 -14 -8 -22t-22 -8q-22 0 -35 20q-1 2 -8.5 13t-10.5 14.5t-10.5 12.5t-14 12.5t-16 8.5t-21 7t-24.5 2q-54 0 -89.5 -40.5t-35.5 -109.5v-110q0 -69 35.5 -109.5t89.5 -40.5q77 0 116 80q12 25 34 25q15 0 25 -10t10 -25
q0 -43 -60 -90q-24 -20 -53 -31t-46 -13l-16 -1v-40q44 -4 72 -33.5t28 -76.5z" />
    <glyph glyph-name="egrave" unicode="&#xe8;" horiz-adv-x="485" 
d="M245 -15q-81 0 -135.5 59.5t-54.5 155.5v110q0 96 54.5 155.5t135.5 59.5t135.5 -59.5t54.5 -155.5v-55q0 -15 -10 -25t-25 -10h-275v-20q0 -69 34.5 -109.5t85.5 -40.5q77 0 116 80q13 25 34 25q15 0 25 -10t10 -25q0 -41 -57.5 -88t-127.5 -47zM125 310v-25h240v25
q0 69 -34.5 109.5t-85.5 40.5t-85.5 -40.5t-34.5 -109.5zM205 795l50 -115q15 -34 15 -45q0 -25 -25 -25q-15 0 -25 20l-70 140q-10 20 -10 30q0 13 8.5 21.5t21.5 8.5q9 0 15.5 -4.5t9.5 -10t10 -20.5z" />
    <glyph glyph-name="eacute" unicode="&#xe9;" horiz-adv-x="485" 
d="M245 -15q-81 0 -135.5 59.5t-54.5 155.5v110q0 96 54.5 155.5t135.5 59.5t135.5 -59.5t54.5 -155.5v-55q0 -15 -10 -25t-25 -10h-275v-20q0 -69 34.5 -109.5t85.5 -40.5q77 0 116 80q13 25 34 25q15 0 25 -10t10 -25q0 -41 -57.5 -88t-127.5 -47zM125 310v-25h240v25
q0 69 -34.5 109.5t-85.5 40.5t-85.5 -40.5t-34.5 -109.5zM236 680l50 115q7 15 10 20.5t9.5 10t15.5 4.5q13 0 21.5 -8.5t8.5 -21.5q0 -10 -10 -30l-70 -140q-10 -20 -25 -20q-25 0 -25 25q0 11 15 45z" />
    <glyph glyph-name="ecircumflex" unicode="&#xea;" horiz-adv-x="485" 
d="M245 -15q-81 0 -135.5 59.5t-54.5 155.5v110q0 96 54.5 155.5t135.5 59.5t135.5 -59.5t54.5 -155.5v-55q0 -15 -10 -25t-25 -10h-275v-20q0 -69 34.5 -109.5t85.5 -40.5q77 0 116 80q13 25 34 25q15 0 25 -10t10 -25q0 -41 -57.5 -88t-127.5 -47zM125 310v-25h240v25
q0 69 -34.5 109.5t-85.5 40.5t-85.5 -40.5t-34.5 -109.5zM243 760l-83 -130q-12 -20 -30 -20q-13 0 -21.5 8.5t-8.5 21.5q0 15 10 30l85 130q19 30 50 30t50 -30l85 -130q10 -15 10 -30q0 -13 -8.5 -21.5t-21.5 -8.5q-18 0 -30 20l-83 130h-4z" />
    <glyph glyph-name="edieresis" unicode="&#xeb;" horiz-adv-x="485" 
d="M245 -15q-81 0 -135.5 59.5t-54.5 155.5v110q0 96 54.5 155.5t135.5 59.5t135.5 -59.5t54.5 -155.5v-55q0 -15 -10 -25t-25 -10h-275v-20q0 -69 34.5 -109.5t85.5 -40.5q77 0 116 80q13 25 34 25q15 0 25 -10t10 -25q0 -41 -57.5 -88t-127.5 -47zM125 310v-25h240v25
q0 69 -34.5 109.5t-85.5 40.5t-85.5 -40.5t-34.5 -109.5zM120 690q0 22 13 36t32 14t32 -14t13 -36t-13 -36t-32 -14t-32 14t-13 36zM280 690q0 22 13 36t32 14t32 -14t13 -36t-13 -36t-32 -14t-32 14t-13 36z" />
    <glyph glyph-name="igrave" unicode="&#xec;" horiz-adv-x="230" 
d="M75 795l50 -115q15 -34 15 -45q0 -25 -25 -25q-15 0 -25 20l-70 140q-10 20 -10 30q0 13 8.5 21.5t21.5 8.5q9 0 15.5 -4.5t9.5 -10t10 -20.5zM150 480v-450q0 -15 -10 -25t-25 -10t-25 10t-10 25v450q0 15 10 25t25 10t25 -10t10 -25z" />
    <glyph glyph-name="iacute" unicode="&#xed;" horiz-adv-x="230" 
d="M105 680l50 115q7 15 10 20.5t9.5 10t15.5 4.5q13 0 21.5 -8.5t8.5 -21.5q0 -10 -10 -30l-70 -140q-10 -20 -25 -20q-25 0 -25 25q0 11 15 45zM150 480v-450q0 -15 -10 -25t-25 -10t-25 10t-10 25v450q0 15 10 25t25 10t25 -10t10 -25z" />
    <glyph glyph-name="icircumflex" unicode="&#xee;" horiz-adv-x="230" 
d="M150 480v-450q0 -15 -10 -25t-25 -10t-25 10t-10 25v450q0 15 10 25t25 10t25 -10t10 -25zM113 760l-83 -130q-12 -20 -30 -20q-13 0 -21.5 8.5t-8.5 21.5q0 15 10 30l85 130q19 30 50 30t50 -30l85 -130q10 -15 10 -30q0 -13 -8.5 -21.5t-21.5 -8.5q-18 0 -30 20
l-83 130h-4z" />
    <glyph glyph-name="idieresis" unicode="&#xef;" horiz-adv-x="230" 
d="M-10 690q0 22 13 36t32 14t32 -14t13 -36t-13 -36t-32 -14t-32 14t-13 36zM150 690q0 22 13 36t32 14t32 -14t13 -36t-13 -36t-32 -14t-32 14t-13 36zM150 480v-450q0 -15 -10 -25t-25 -10t-25 10t-10 25v450q0 15 10 25t25 10t25 -10t10 -25z" />
    <glyph glyph-name="eth" unicode="&#xf0;" horiz-adv-x="480" 
d="M290 695l-15 -30q6 -2 15.5 -7t34.5 -26t44.5 -48t35 -76t15.5 -108v-200q0 -96 -55.5 -155.5t-139.5 -59.5t-139.5 59.5t-55.5 155.5v35q0 96 55.5 155.5t139.5 59.5q33 0 63 -15t44 -30l13 -15h5v10q0 45 -11 82.5t-26 58.5t-30.5 35t-26.5 19l-11 5l-25 -55
q-8 -20 -30 -20q-13 0 -21.5 8.5t-8.5 21.5q0 7 10 30l15 35l-55 20q-25 10 -25 35q0 13 9.5 21.5t25.5 8.5l25 -5l50 -15l25 50q8 20 30 20q13 0 21.5 -8.5t8.5 -21.5q0 -10 -10 -30zM225 50q54 0 89.5 40.5t35.5 109.5v35q0 69 -35.5 109.5t-89.5 40.5t-89.5 -40.5
t-35.5 -109.5v-35q0 -69 35.5 -109.5t89.5 -40.5z" />
    <glyph glyph-name="ntilde" unicode="&#xf1;" horiz-adv-x="525" 
d="M380 30v290q0 65 -31.5 102.5t-78.5 37.5q-50 0 -85 -39t-35 -101v-290q0 -15 -10 -25t-25 -10t-25 10t-10 25v450q0 15 10 25t25 10t25 -10t10 -25v-20h5q1 3 3.5 7t12.5 15.5t22 20t32.5 15.5t44.5 7q77 0 128.5 -56.5t51.5 -148.5v-290q0 -15 -10 -25t-25 -10t-25 10
t-10 25zM393 775q11 0 18 -7.5t7 -17.5q0 -50 -27 -82.5t-63 -32.5q-24 0 -44 13.5t-30.5 29t-24 29t-26.5 13.5q-26 0 -35 -40q-5 -22 -10.5 -31t-19.5 -9q-10 0 -17.5 7t-7.5 18q0 50 27 82.5t63 32.5q24 0 44 -13.5t30.5 -29t24 -29t26.5 -13.5q26 0 35 40q5 22 10.5 31
t19.5 9z" />
    <glyph glyph-name="ograve" unicode="&#xf2;" horiz-adv-x="500" 
d="M250 525q84 0 139.5 -59.5t55.5 -155.5v-110q0 -96 -55.5 -155.5t-139.5 -59.5t-139.5 59.5t-55.5 155.5v110q0 96 55.5 155.5t139.5 59.5zM250 50q54 0 89.5 40.5t35.5 109.5v110q0 69 -35.5 109.5t-89.5 40.5t-89.5 -40.5t-35.5 -109.5v-110q0 -69 35.5 -109.5
t89.5 -40.5zM210 795l50 -115q15 -34 15 -45q0 -25 -25 -25q-15 0 -25 20l-70 140q-10 20 -10 30q0 13 8.5 21.5t21.5 8.5q9 0 15.5 -4.5t9.5 -10t10 -20.5z" />
    <glyph glyph-name="oacute" unicode="&#xf3;" horiz-adv-x="500" 
d="M250 525q84 0 139.5 -59.5t55.5 -155.5v-110q0 -96 -55.5 -155.5t-139.5 -59.5t-139.5 59.5t-55.5 155.5v110q0 96 55.5 155.5t139.5 59.5zM250 50q54 0 89.5 40.5t35.5 109.5v110q0 69 -35.5 109.5t-89.5 40.5t-89.5 -40.5t-35.5 -109.5v-110q0 -69 35.5 -109.5
t89.5 -40.5zM240 680l50 115q7 15 10 20.5t9.5 10t15.5 4.5q13 0 21.5 -8.5t8.5 -21.5q0 -10 -10 -30l-70 -140q-10 -20 -25 -20q-25 0 -25 25q0 11 15 45z" />
    <glyph glyph-name="ocircumflex" unicode="&#xf4;" horiz-adv-x="500" 
d="M250 525q84 0 139.5 -59.5t55.5 -155.5v-110q0 -96 -55.5 -155.5t-139.5 -59.5t-139.5 59.5t-55.5 155.5v110q0 96 55.5 155.5t139.5 59.5zM250 50q54 0 89.5 40.5t35.5 109.5v110q0 69 -35.5 109.5t-89.5 40.5t-89.5 -40.5t-35.5 -109.5v-110q0 -69 35.5 -109.5
t89.5 -40.5zM248 760l-83 -130q-12 -20 -30 -20q-13 0 -21.5 8.5t-8.5 21.5q0 15 10 30l85 130q19 30 50 30t50 -30l85 -130q10 -15 10 -30q0 -13 -8.5 -21.5t-21.5 -8.5q-18 0 -30 20l-83 130h-4z" />
    <glyph glyph-name="otilde" unicode="&#xf5;" horiz-adv-x="500" 
d="M250 525q84 0 139.5 -59.5t55.5 -155.5v-110q0 -96 -55.5 -155.5t-139.5 -59.5t-139.5 59.5t-55.5 155.5v110q0 96 55.5 155.5t139.5 59.5zM250 50q54 0 89.5 40.5t35.5 109.5v110q0 69 -35.5 109.5t-89.5 40.5t-89.5 -40.5t-35.5 -109.5v-110q0 -69 35.5 -109.5
t89.5 -40.5zM378 755q10 0 17.5 -7.5t7.5 -17.5q0 -50 -27 -82.5t-63 -32.5q-24 0 -44 13.5t-30.5 29t-24 29t-26.5 13.5q-26 0 -35 -40q-5 -22 -10.5 -31t-19.5 -9q-11 0 -18 7t-7 18q0 50 27 82.5t63 32.5q24 0 44 -13.5t30.5 -29t24 -29t26.5 -13.5q26 0 35 40
q5 22 10.5 31t19.5 9z" />
    <glyph glyph-name="odieresis" unicode="&#xf6;" horiz-adv-x="500" 
d="M250 525q84 0 139.5 -59.5t55.5 -155.5v-110q0 -96 -55.5 -155.5t-139.5 -59.5t-139.5 59.5t-55.5 155.5v110q0 96 55.5 155.5t139.5 59.5zM250 50q54 0 89.5 40.5t35.5 109.5v110q0 69 -35.5 109.5t-89.5 40.5t-89.5 -40.5t-35.5 -109.5v-110q0 -69 35.5 -109.5
t89.5 -40.5zM125 690q0 22 13 36t32 14t32 -14t13 -36t-13 -36t-32 -14t-32 14t-13 36zM285 690q0 22 13 36t32 14t32 -14t13 -36t-13 -36t-32 -14t-32 14t-13 36z" />
    <glyph glyph-name="divide" unicode="&#xf7;" horiz-adv-x="460" 
d="M65 375h330q15 0 25 -9.5t10 -22.5q0 -14 -10 -23.5t-25 -9.5h-330q-15 0 -25 9.5t-10 22.5q0 14 10 23.5t25 9.5zM185 505q0 22 13 36t32 14t32 -14t13 -36t-13 -36t-32 -14t-32 14t-13 36zM185 180q0 22 13 36t32 14t32 -14t13 -36t-13 -36t-32 -14t-32 14t-13 36z" />
    <glyph glyph-name="oslash" unicode="&#xf8;" horiz-adv-x="500" 
d="M250 525q24 0 45.5 -5t30.5 -10l9 -5l10 25q8 20 30 20q13 0 21.5 -8.5t8.5 -21.5q0 -10 -10 -30l-10 -20q2 -2 6.5 -6t14.5 -18.5t18 -31.5t14.5 -45t6.5 -59v-110q0 -96 -55.5 -155.5t-139.5 -59.5q-24 0 -45.5 5t-30.5 10l-9 5l-10 -25q-8 -20 -30 -20
q-13 0 -21.5 8.5t-8.5 21.5q0 8 10 30l10 20q-2 2 -6.5 6t-14.5 18.5t-18 31.5t-14.5 45t-6.5 59v110q0 96 55.5 155.5t139.5 59.5zM250 50q54 0 89.5 40.5t35.5 109.5v110q0 27 -5 49.5t-10 31.5l-5 9l-160 -335q20 -15 55 -15zM125 200q0 -24 5 -46.5t10 -33.5l5 -10
l160 335q-20 15 -55 15q-54 0 -89.5 -40.5t-35.5 -109.5v-110z" />
    <glyph glyph-name="ugrave" unicode="&#xf9;" 
d="M150 480v-290q0 -65 31.5 -102.5t78.5 -37.5q50 0 85 39t35 101v290q0 15 10 25t25 10t25 -10t10 -25v-450q0 -15 -10 -25t-25 -10t-25 10t-10 25v20h-5q-1 -3 -3.5 -7t-12.5 -15.5t-22 -20t-32.5 -15.5t-44.5 -7q-77 0 -128.5 56.5t-51.5 148.5v290q0 15 10 25t25 10
t25 -10t10 -25zM225 795l50 -115q15 -34 15 -45q0 -25 -25 -25q-15 0 -25 20l-70 140q-10 20 -10 30q0 13 8.5 21.5t21.5 8.5q9 0 15.5 -4.5t9.5 -10t10 -20.5z" />
    <glyph glyph-name="uacute" unicode="&#xfa;" 
d="M150 480v-290q0 -65 31.5 -102.5t78.5 -37.5q50 0 85 39t35 101v290q0 15 10 25t25 10t25 -10t10 -25v-450q0 -15 -10 -25t-25 -10t-25 10t-10 25v20h-5q-1 -3 -3.5 -7t-12.5 -15.5t-22 -20t-32.5 -15.5t-44.5 -7q-77 0 -128.5 56.5t-51.5 148.5v290q0 15 10 25t25 10
t25 -10t10 -25zM255 680l50 115q7 15 10 20.5t9.5 10t15.5 4.5q13 0 21.5 -8.5t8.5 -21.5q0 -10 -10 -30l-70 -140q-10 -20 -25 -20q-25 0 -25 25q0 11 15 45z" />
    <glyph glyph-name="ucircumflex" unicode="&#xfb;" 
d="M150 480v-290q0 -65 31.5 -102.5t78.5 -37.5q50 0 85 39t35 101v290q0 15 10 25t25 10t25 -10t10 -25v-450q0 -15 -10 -25t-25 -10t-25 10t-10 25v20h-5q-1 -3 -3.5 -7t-12.5 -15.5t-22 -20t-32.5 -15.5t-44.5 -7q-77 0 -128.5 56.5t-51.5 148.5v290q0 15 10 25t25 10
t25 -10t10 -25zM263 760l-83 -130q-12 -20 -30 -20q-13 0 -21.5 8.5t-8.5 21.5q0 15 10 30l85 130q19 30 50 30t50 -30l85 -130q10 -15 10 -30q0 -13 -8.5 -21.5t-21.5 -8.5q-18 0 -30 20l-83 130h-4z" />
    <glyph glyph-name="udieresis" unicode="&#xfc;" 
d="M150 480v-290q0 -65 31.5 -102.5t78.5 -37.5q50 0 85 39t35 101v290q0 15 10 25t25 10t25 -10t10 -25v-450q0 -15 -10 -25t-25 -10t-25 10t-10 25v20h-5q-1 -3 -3.5 -7t-12.5 -15.5t-22 -20t-32.5 -15.5t-44.5 -7q-77 0 -128.5 56.5t-51.5 148.5v290q0 15 10 25t25 10
t25 -10t10 -25zM140 690q0 22 13 36t32 14t32 -14t13 -36t-13 -36t-32 -14t-32 14t-13 36zM300 690q0 22 13 36t32 14t32 -14t13 -36t-13 -36t-32 -14t-32 14t-13 36z" />
    <glyph glyph-name="yacute" unicode="&#xfd;" horiz-adv-x="425" 
d="M405 440l-225 -625q-12 -35 -40 -35q-15 0 -25 10t-10 25q0 7 10 40l55 155l-150 430q-10 27 -10 40q0 15 10 25t25 10q28 0 40 -35l125 -355h5l125 355q11 35 40 35q15 0 25 -10t10 -25t-10 -40zM202 670l50 115q7 15 10 20.5t9.5 10t15.5 4.5q13 0 21.5 -8.5t8.5 -21.5
q0 -10 -10 -30l-70 -140q-10 -20 -25 -20q-25 0 -25 25q0 11 15 45z" />
    <glyph glyph-name="thorn" unicode="&#xfe;" horiz-adv-x="515" 
d="M270 460q-50 0 -85 -39t-35 -101v-120q0 -69 34.5 -109.5t85.5 -40.5t85.5 40.5t34.5 109.5v110q0 69 -34.5 109.5t-85.5 40.5zM80 -175v860q0 15 10 25t25 10t25 -10t10 -25v-225h5q1 3 3.5 7t12.5 15.5t22 20t32.5 15.5t44.5 7q81 0 135.5 -59.5t54.5 -155.5v-110
q0 -96 -54.5 -155.5t-135.5 -59.5q-33 0 -62 15t-41 30l-12 15h-5v-220q0 -15 -10 -25t-25 -10t-25 10t-10 25z" />
    <glyph glyph-name="ydieresis" unicode="&#xff;" horiz-adv-x="425" 
d="M405 440l-225 -625q-12 -35 -40 -35q-15 0 -25 10t-10 25q0 7 10 40l55 155l-150 430q-10 27 -10 40q0 15 10 25t25 10q28 0 40 -35l125 -355h5l125 355q11 35 40 35q15 0 25 -10t10 -25t-10 -40zM87 670q0 22 13 36t32 14t32 -14t13 -36t-13 -36t-32 -14t-32 14t-13 36z
M247 670q0 22 13 36t32 14t32 -14t13 -36t-13 -36t-32 -14t-32 14t-13 36z" />
    <glyph glyph-name="Amacron" unicode="&#x100;" horiz-adv-x="560" 
d="M395 270l-113 350h-4l-113 -350h230zM475 35l-55 165h-280l-55 -165q0 -1 -2 -6t-2.5 -6.5t-2.5 -6.5t-3.5 -7t-5 -5.5t-6.5 -4.5t-8 -2.5t-10 -1.5q-15 0 -25 11t-10 29q0 2 10 35l205 610q14 40 55 40t55 -40l205 -610q10 -33 10 -35q0 -18 -10 -29t-25 -11
q-5 0 -10 1.5t-8 2.5t-6.5 4.5t-5 5.5t-3.5 7t-2.5 6.5t-2.5 6.5t-2 6zM185 905h190q15 0 25 -9.5t10 -22.5q0 -14 -10 -23.5t-25 -9.5h-190q-15 0 -25 9.5t-10 22.5q0 14 10 23.5t25 9.5z" />
    <glyph glyph-name="amacron" unicode="&#x101;" horiz-adv-x="475" 
d="M205 50q54 0 89.5 38.5t35.5 101.5v50h-115q-105 0 -105 -95q0 -45 25 -70t70 -25zM230 525q76 0 123 -50.5t47 -139.5v-305q0 -15 -10 -25t-25 -10t-25 10t-10 25v20h-5q-1 -3 -3.5 -7t-12.5 -15.5t-22.5 -20t-34.5 -15.5t-47 -7q-78 0 -124 44t-46 116q0 73 47.5 116.5
t132.5 43.5h115v30q0 62 -26.5 93.5t-73.5 31.5q-14 0 -27 -4t-20.5 -7t-17.5 -13.5t-12.5 -13.5t-12.5 -17t-10 -15q-13 -20 -35 -20q-13 0 -21.5 8t-8.5 22q0 41 50.5 83t114.5 42zM137 715h190q15 0 25 -9.5t10 -22.5q0 -14 -10 -23.5t-25 -9.5h-190q-15 0 -25 9.5
t-10 22.5q0 14 10 23.5t25 9.5z" />
    <glyph glyph-name="Abreve" unicode="&#x102;" horiz-adv-x="560" 
d="M395 270l-113 350h-4l-113 -350h230zM475 35l-55 165h-280l-55 -165q0 -1 -2 -6t-2.5 -6.5t-2.5 -6.5t-3.5 -7t-5 -5.5t-6.5 -4.5t-8 -2.5t-10 -1.5q-15 0 -25 11t-10 29q0 2 10 35l205 610q14 40 55 40t55 -40l205 -610q10 -33 10 -35q0 -18 -10 -29t-25 -11
q-5 0 -10 1.5t-8 2.5t-6.5 4.5t-5 5.5t-3.5 7t-2.5 6.5t-2.5 6.5t-2 6zM280 800q-56 0 -98 42t-42 98q0 14 8 22t22 8q21 0 30 -30q21 -75 80 -75t80 75q9 30 30 30q14 0 22 -8t8 -22q0 -56 -42 -98t-98 -42z" />
    <glyph glyph-name="abreve" unicode="&#x103;" horiz-adv-x="475" 
d="M205 50q54 0 89.5 38.5t35.5 101.5v50h-115q-105 0 -105 -95q0 -45 25 -70t70 -25zM230 525q76 0 123 -50.5t47 -139.5v-305q0 -15 -10 -25t-25 -10t-25 10t-10 25v20h-5q-1 -3 -3.5 -7t-12.5 -15.5t-22.5 -20t-34.5 -15.5t-47 -7q-78 0 -124 44t-46 116q0 73 47.5 116.5
t132.5 43.5h115v30q0 62 -26.5 93.5t-73.5 31.5q-14 0 -27 -4t-20.5 -7t-17.5 -13.5t-12.5 -13.5t-12.5 -17t-10 -15q-13 -20 -35 -20q-13 0 -21.5 8t-8.5 22q0 41 50.5 83t114.5 42zM233 610q-56 0 -98 42t-42 98q0 14 8.5 22t21.5 8q21 0 30 -30q21 -75 80 -75t80 75
q9 30 30 30q13 0 21.5 -8t8.5 -22q0 -56 -42 -98t-98 -42z" />
    <glyph glyph-name="Aogonek" unicode="&#x104;" horiz-adv-x="560" 
d="M380 -135q0 24 12 50.5t31 48t32 34.5t25 22q-4 10 -60 180h-280l-55 -165q0 -1 -2 -6t-2.5 -6.5t-2.5 -6.5t-3.5 -7t-5 -5.5t-6.5 -4.5t-8 -2.5t-10 -1.5q-15 0 -25 11t-10 29q0 2 10 35l205 610q14 40 55 40t55 -40l205 -610q10 -33 10 -35q0 -18 -10 -30
q-1 -1 -19.5 -15t-36.5 -30t-33.5 -42.5t-15.5 -52.5t13.5 -40.5t36.5 -14.5q14 0 27.5 7.5t22.5 7.5q11 0 18 -7.5t7 -17.5q0 -20 -19.5 -32.5t-55.5 -12.5q-49 0 -77 29t-28 81zM395 270l-113 350h-4l-113 -350h230z" />
    <glyph glyph-name="aogonek" unicode="&#x105;" horiz-adv-x="475" 
d="M255 -135q0 33 20 69.5t40 55.5l20 20q-5 10 -5 20v20h-5q-1 -3 -3.5 -7t-12.5 -15.5t-22.5 -20t-34.5 -15.5t-47 -7q-78 0 -124 44t-46 116q0 73 47.5 116.5t132.5 43.5h115v30q0 62 -26.5 93.5t-73.5 31.5q-14 0 -27 -4t-20.5 -7t-17.5 -13.5t-12.5 -13.5t-12.5 -17
t-10 -15q-13 -20 -35 -20q-13 0 -21.5 8t-8.5 22q0 41 50.5 83t114.5 42q76 0 123 -50.5t47 -139.5v-305q0 -15 -10 -25q-3 -2 -8.5 -6.5t-19.5 -18.5t-24.5 -29t-19 -38.5t-8.5 -47.5q0 -26 13.5 -40.5t36.5 -14.5q14 0 27.5 7.5t22.5 7.5q10 0 17.5 -7.5t7.5 -17.5
q0 -20 -19.5 -32.5t-55.5 -12.5q-49 0 -77 29t-28 81zM205 50q54 0 89.5 38.5t35.5 101.5v50h-115q-105 0 -105 -95q0 -45 25 -70t70 -25z" />
    <glyph glyph-name="Cacute" unicode="&#x106;" horiz-adv-x="565" 
d="M65 265v170q0 135 66 210t174 75q86 0 150.5 -48.5t64.5 -91.5q0 -18 -10 -29t-25 -11q-7 0 -12.5 2t-10.5 7t-7.5 8t-7.5 11.5t-7 11.5q-23 35 -60.5 52.5t-74.5 17.5q-74 0 -119.5 -55t-45.5 -160v-170q0 -105 45.5 -160t119.5 -55q52 0 91.5 27t58.5 73q12 30 40 30
q15 0 25 -10t10 -25q0 -28 -24 -65q-26 -43 -80 -71.5t-121 -28.5q-108 0 -174 75t-66 210zM287 860l50 115q7 15 10 20.5t9.5 10t15.5 4.5q13 0 21.5 -8.5t8.5 -21.5q0 -10 -10 -30l-70 -140q-10 -20 -25 -20q-25 0 -25 25q0 11 15 45z" />
    <glyph glyph-name="cacute" unicode="&#x107;" horiz-adv-x="465" 
d="M250 -15q-84 0 -139.5 59.5t-55.5 155.5v110q0 96 55.5 155.5t139.5 59.5q67 0 118.5 -42t51.5 -83q0 -14 -8 -22t-22 -8q-22 0 -35 20q-1 2 -8.5 13t-10.5 14.5t-10.5 12.5t-14 12.5t-16 8.5t-21 7t-24.5 2q-54 0 -89.5 -40.5t-35.5 -109.5v-110q0 -69 35.5 -109.5
t89.5 -40.5q77 0 116 80q12 25 34 25q15 0 25 -10t10 -25q0 -41 -57.5 -88t-127.5 -47zM235 680l50 115q7 15 10 20.5t9.5 10t15.5 4.5q13 0 21.5 -8.5t8.5 -21.5q0 -10 -10 -30l-70 -140q-10 -20 -25 -20q-25 0 -25 25q0 11 15 45z" />
    <glyph glyph-name="Ccircumflex" unicode="&#x108;" horiz-adv-x="565" 
d="M65 265v170q0 135 66 210t174 75q86 0 150.5 -48.5t64.5 -91.5q0 -18 -10 -29t-25 -11q-7 0 -12.5 2t-10.5 7t-7.5 8t-7.5 11.5t-7 11.5q-23 35 -60.5 52.5t-74.5 17.5q-74 0 -119.5 -55t-45.5 -160v-170q0 -105 45.5 -160t119.5 -55q52 0 91.5 27t58.5 73q12 30 40 30
q15 0 25 -10t10 -25q0 -28 -24 -65q-26 -43 -80 -71.5t-121 -28.5q-108 0 -174 75t-66 210zM295 940l-83 -130q-12 -20 -30 -20q-13 0 -21.5 8.5t-8.5 21.5q0 15 10 30l85 130q19 30 50 30t50 -30l85 -130q10 -15 10 -30q0 -13 -8.5 -21.5t-21.5 -8.5q-18 0 -30 20l-83 130
h-4z" />
    <glyph glyph-name="ccircumflex" unicode="&#x109;" horiz-adv-x="465" 
d="M250 -15q-84 0 -139.5 59.5t-55.5 155.5v110q0 96 55.5 155.5t139.5 59.5q67 0 118.5 -42t51.5 -83q0 -14 -8 -22t-22 -8q-22 0 -35 20q-1 2 -8.5 13t-10.5 14.5t-10.5 12.5t-14 12.5t-16 8.5t-21 7t-24.5 2q-54 0 -89.5 -40.5t-35.5 -109.5v-110q0 -69 35.5 -109.5
t89.5 -40.5q77 0 116 80q12 25 34 25q15 0 25 -10t10 -25q0 -41 -57.5 -88t-127.5 -47zM243 760l-83 -130q-12 -20 -30 -20q-13 0 -21.5 8.5t-8.5 21.5q0 15 10 30l85 130q19 30 50 30t50 -30l85 -130q10 -15 10 -30q0 -13 -8.5 -21.5t-21.5 -8.5q-18 0 -30 20l-83 130h-4z
" />
    <glyph glyph-name="Ccaron" unicode="&#x10c;" horiz-adv-x="565" 
d="M65 265v170q0 135 66 210t174 75q86 0 150.5 -48.5t64.5 -91.5q0 -18 -10 -29t-25 -11q-7 0 -12.5 2t-10.5 7t-7.5 8t-7.5 11.5t-7 11.5q-23 35 -60.5 52.5t-74.5 17.5q-74 0 -119.5 -55t-45.5 -160v-170q0 -105 45.5 -160t119.5 -55q52 0 91.5 27t58.5 73q12 30 40 30
q15 0 25 -10t10 -25q0 -28 -24 -65q-26 -43 -80 -71.5t-121 -28.5q-108 0 -174 75t-66 210zM299 860l83 130q12 20 30 20q13 0 21.5 -8.5t8.5 -21.5q0 -15 -10 -30l-85 -130q-19 -30 -50 -30t-50 30l-85 130q-10 15 -10 30q0 13 8.5 21.5t21.5 8.5q18 0 30 -20l83 -130h4z
" />
    <glyph glyph-name="ccaron" unicode="&#x10d;" horiz-adv-x="465" 
d="M250 -15q-84 0 -139.5 59.5t-55.5 155.5v110q0 96 55.5 155.5t139.5 59.5q67 0 118.5 -42t51.5 -83q0 -14 -8 -22t-22 -8q-22 0 -35 20q-1 2 -8.5 13t-10.5 14.5t-10.5 12.5t-14 12.5t-16 8.5t-21 7t-24.5 2q-54 0 -89.5 -40.5t-35.5 -109.5v-110q0 -69 35.5 -109.5
t89.5 -40.5q77 0 116 80q12 25 34 25q15 0 25 -10t10 -25q0 -41 -57.5 -88t-127.5 -47zM247 680l83 130q12 20 30 20q13 0 21.5 -8.5t8.5 -21.5q0 -15 -10 -30l-85 -130q-19 -30 -50 -30t-50 30l-85 130q-10 15 -10 30q0 13 8.5 21.5t21.5 8.5q18 0 30 -20l83 -130h4z" />
    <glyph glyph-name="Dcaron" unicode="&#x10e;" horiz-adv-x="625" 
d="M175 70h145q74 0 119.5 55t45.5 160v130q0 105 -45.5 160t-119.5 55h-145v-560zM320 0h-185q-15 0 -25 11t-10 29v620q0 18 10 29t25 11h185q108 0 174 -75t66 -210v-130q0 -135 -66 -210t-174 -75zM286 860l83 130q12 20 30 20q13 0 21.5 -8.5t8.5 -21.5q0 -15 -10 -30
l-85 -130q-19 -30 -50 -30t-50 30l-85 130q-10 15 -10 30q0 13 8.5 21.5t21.5 8.5q18 0 30 -20l83 -130h4z" />
    <glyph glyph-name="dcaron" unicode="&#x10f;" horiz-adv-x="570" 
d="M245 50q50 0 85 39t35 101v120q0 69 -34.5 109.5t-85.5 40.5t-85.5 -40.5t-34.5 -109.5v-110q0 -69 34.5 -109.5t85.5 -40.5zM435 685v-655q0 -15 -10 -25t-25 -10t-25 10t-10 25v20h-5q-1 -3 -3.5 -7t-12.5 -15.5t-22 -20t-32.5 -15.5t-44.5 -7q-81 0 -135.5 59.5
t-54.5 155.5v110q0 96 54.5 155.5t135.5 59.5q33 0 62 -15t41 -30l12 -15h5v220q0 15 10 25t25 10t25 -10t10 -25zM500 675q0 19 13 32t32 13t32 -14t13 -36q0 -60 -28.5 -97.5t-61.5 -37.5q-15 0 -15 15q0 11 10 15q46 21 46 65q-5 0 -11.5 1t-18 12.5t-11.5 31.5z" />
    <glyph glyph-name="Dcroat" unicode="&#x110;" horiz-adv-x="630" 
d="M325 0h-185q-15 0 -25 11t-10 29v270h-40q-15 0 -25 10t-10 25t10 25t25 10h40v280q0 18 10 29t25 11h185q108 0 174 -75t66 -210v-130q0 -135 -66 -210t-174 -75zM180 70h145q74 0 119.5 55t45.5 160v130q0 105 -45.5 160t-119.5 55h-145v-250h120q15 0 25 -10t10 -25
t-10 -25t-25 -10h-120v-240z" />
    <glyph glyph-name="dcroat" unicode="&#x111;" horiz-adv-x="510" 
d="M465 535h-40v-505q0 -15 -10 -25t-25 -10t-25 10t-10 25v20h-5q-1 -3 -3.5 -7t-12.5 -15.5t-22 -20t-32.5 -15.5t-44.5 -7q-81 0 -135.5 59.5t-54.5 155.5v35q0 96 54.5 155.5t135.5 59.5q33 0 62 -15t41 -30l12 -15h5v145h-110q-15 0 -25 9.5t-10 23.5q0 13 10 22.5
t25 9.5h110v85q0 15 10 25t25 10t25 -10t10 -25v-85h40q15 0 25 -9.5t10 -23.5q0 -13 -10 -22.5t-25 -9.5zM235 50q50 0 85 39t35 101v45q0 69 -34.5 109.5t-85.5 40.5t-85.5 -40.5t-34.5 -109.5v-35q0 -69 34.5 -109.5t85.5 -40.5z" />
    <glyph glyph-name="Emacron" unicode="&#x112;" horiz-adv-x="555" 
d="M490 630h-315v-240h220q15 0 25 -10t10 -25t-10 -25t-25 -10h-220v-250h325q15 0 25 -10t10 -25t-10 -25t-25 -10h-365q-15 0 -25 11t-10 29v620q0 18 10 29t25 11h355q15 0 25 -10t10 -25t-10 -25t-25 -10zM215 905h190q15 0 25 -9.5t10 -22.5q0 -14 -10 -23.5t-25 -9.5
h-190q-15 0 -25 9.5t-10 22.5q0 14 10 23.5t25 9.5z" />
    <glyph glyph-name="emacron" unicode="&#x113;" horiz-adv-x="485" 
d="M245 -15q-81 0 -135.5 59.5t-54.5 155.5v110q0 96 54.5 155.5t135.5 59.5t135.5 -59.5t54.5 -155.5v-55q0 -15 -10 -25t-25 -10h-275v-20q0 -69 34.5 -109.5t85.5 -40.5q77 0 116 80q13 25 34 25q15 0 25 -10t10 -25q0 -41 -57.5 -88t-127.5 -47zM125 310v-25h240v25
q0 69 -34.5 109.5t-85.5 40.5t-85.5 -40.5t-34.5 -109.5zM150 715h190q15 0 25 -9.5t10 -22.5q0 -14 -10 -23.5t-25 -9.5h-190q-15 0 -25 9.5t-10 22.5q0 14 10 23.5t25 9.5z" />
    <glyph glyph-name="Edotaccent" unicode="&#x116;" horiz-adv-x="555" 
d="M490 630h-315v-240h220q15 0 25 -10t10 -25t-10 -25t-25 -10h-220v-250h325q15 0 25 -10t10 -25t-10 -25t-25 -10h-365q-15 0 -25 11t-10 29v620q0 18 10 29t25 11h355q15 0 25 -10t10 -25t-10 -25t-25 -10zM266 870q0 22 13 36t32 14t32 -14t13 -36t-13 -36t-32 -14
t-32 14t-13 36z" />
    <glyph glyph-name="edotaccent" unicode="&#x117;" horiz-adv-x="485" 
d="M245 -15q-81 0 -135.5 59.5t-54.5 155.5v110q0 96 54.5 155.5t135.5 59.5t135.5 -59.5t54.5 -155.5v-55q0 -15 -10 -25t-25 -10h-275v-20q0 -69 34.5 -109.5t85.5 -40.5q77 0 116 80q13 25 34 25q15 0 25 -10t10 -25q0 -41 -57.5 -88t-127.5 -47zM125 310v-25h240v25
q0 69 -34.5 109.5t-85.5 40.5t-85.5 -40.5t-34.5 -109.5zM200 660q0 22 13 36t32 14t32 -14t13 -36t-13 -36t-32 -14t-32 14t-13 36z" />
    <glyph glyph-name="Eogonek" unicode="&#x118;" horiz-adv-x="555" 
d="M500 0h-365q-15 0 -25 11t-10 29v620q0 18 10 29t25 11h355q15 0 25 -10t10 -25t-10 -25t-25 -10h-315v-240h220q15 0 25 -10t10 -25t-10 -25t-25 -10h-220v-250h325q15 0 25 -10t10 -25q0 -18 -10 -30q-1 -1 -19.5 -15t-36.5 -30t-33.5 -42.5t-15.5 -52.5t13.5 -40.5
t36.5 -14.5q14 0 27.5 7.5t22.5 7.5q10 0 17.5 -7.5t7.5 -17.5q0 -20 -19.5 -32.5t-55.5 -12.5q-49 0 -77 29t-28 81q0 33 21.5 67t42.5 51l21 17l45 16z" />
    <glyph glyph-name="eogonek" unicode="&#x119;" horiz-adv-x="485" 
d="M165 -135q0 31 16.5 61t32.5 44l16 15q-76 5 -125.5 64t-49.5 151v110q0 96 54.5 155.5t135.5 59.5t135.5 -59.5t54.5 -155.5v-55q0 -15 -10 -25t-25 -10h-275v-20q0 -69 34.5 -109.5t85.5 -40.5q77 0 116 80q13 25 34 25q15 0 25 -10t10 -25q0 -29 -33.5 -65t-81.5 -55
q-4 -2 -10.5 -6.5t-22.5 -19t-28.5 -29.5t-23 -37t-10.5 -43q0 -26 13.5 -40.5t36.5 -14.5q14 0 27.5 7.5t22.5 7.5q10 0 17.5 -7.5t7.5 -17.5q0 -20 -19.5 -32.5t-55.5 -12.5q-49 0 -77 29t-28 81zM125 310v-25h240v25q0 69 -34.5 109.5t-85.5 40.5t-85.5 -40.5
t-34.5 -109.5z" />
    <glyph glyph-name="Ecaron" unicode="&#x11a;" horiz-adv-x="555" 
d="M490 630h-315v-240h220q15 0 25 -10t10 -25t-10 -25t-25 -10h-220v-250h325q15 0 25 -10t10 -25t-10 -25t-25 -10h-365q-15 0 -25 11t-10 29v620q0 18 10 29t25 11h355q15 0 25 -10t10 -25t-10 -25t-25 -10zM310 860l83 130q12 20 30 20q13 0 21.5 -8.5t8.5 -21.5
q0 -15 -10 -30l-85 -130q-19 -30 -50 -30t-50 30l-85 130q-10 15 -10 30q0 13 8.5 21.5t21.5 8.5q18 0 30 -20l83 -130h4z" />
    <glyph glyph-name="ecaron" unicode="&#x11b;" horiz-adv-x="485" 
d="M245 -15q-81 0 -135.5 59.5t-54.5 155.5v110q0 96 54.5 155.5t135.5 59.5t135.5 -59.5t54.5 -155.5v-55q0 -15 -10 -25t-25 -10h-275v-20q0 -69 34.5 -109.5t85.5 -40.5q77 0 116 80q13 25 34 25q15 0 25 -10t10 -25q0 -41 -57.5 -88t-127.5 -47zM125 310v-25h240v25
q0 69 -34.5 109.5t-85.5 40.5t-85.5 -40.5t-34.5 -109.5zM247 680l83 130q12 20 30 20q13 0 21.5 -8.5t8.5 -21.5q0 -15 -10 -30l-85 -130q-19 -30 -50 -30t-50 30l-85 130q-10 15 -10 30q0 13 8.5 21.5t21.5 8.5q18 0 30 -20l83 -130h4z" />
    <glyph glyph-name="Gbreve" unicode="&#x11e;" horiz-adv-x="595" 
d="M530 345v-200q0 -28 -24 -65q-26 -43 -80 -71.5t-121 -28.5q-108 0 -174 75t-66 210v170q0 135 66 210t174 75q86 0 150.5 -48.5t64.5 -91.5q0 -18 -10 -29t-25 -11q-7 0 -12.5 2t-10.5 7t-7.5 8t-7.5 11.5t-7 11.5q-23 35 -60.5 52.5t-74.5 17.5q-74 0 -119.5 -55
t-45.5 -160v-170q0 -105 45.5 -160t119.5 -55q51 0 91 26t59 69v170h-125q-15 0 -25 10t-10 25t10 25t25 10h165q15 0 25 -11t10 -29zM297 790q-56 0 -98 42t-42 98q0 14 8.5 22t21.5 8q21 0 30 -30q21 -75 80 -75t80 75q9 30 30 30q13 0 21.5 -8t8.5 -22q0 -56 -42 -98
t-98 -42z" />
    <glyph glyph-name="gbreve" unicode="&#x11f;" horiz-adv-x="515" 
d="M245 460q-51 0 -85.5 -40.5t-34.5 -109.5v-90q0 -69 34.5 -109.5t85.5 -40.5t85.5 40.5t34.5 109.5v100q0 62 -35 101t-85 39zM435 480v-485q0 -96 -55.5 -155.5t-139.5 -59.5q-71 0 -125.5 45t-54.5 90q0 15 10 25t25 10q9 0 16 -4.5t8 -6t6 -9.5q1 -2 9.5 -15.5
t11.5 -17.5t11.5 -15t15.5 -15.5t17.5 -10.5t22.5 -8.5t27 -2.5q54 0 89.5 40.5t35.5 109.5v70h-5q-2 -2 -5 -6.5t-14 -14.5t-23 -18t-32 -14.5t-41 -6.5q-81 0 -135.5 59.5t-54.5 155.5v90q0 96 54.5 155.5t135.5 59.5q38 0 66.5 -16.5t38.5 -32.5l10 -16h5v20q0 15 10 25
t25 10t25 -10t10 -25zM245 610q-56 0 -98 42t-42 98q0 14 8.5 22t21.5 8q21 0 30 -30q21 -75 80 -75t80 75q9 30 30 30q13 0 21.5 -8t8.5 -22q0 -56 -42 -98t-98 -42z" />
    <glyph glyph-name="Gcommaaccent" unicode="&#x122;" horiz-adv-x="595" 
d="M530 345v-200q0 -28 -24 -65q-26 -43 -80 -71.5t-121 -28.5q-108 0 -174 75t-66 210v170q0 135 66 210t174 75q86 0 150.5 -48.5t64.5 -91.5q0 -18 -10 -29t-25 -11q-7 0 -12.5 2t-10.5 7t-7.5 8t-7.5 11.5t-7 11.5q-23 35 -60.5 52.5t-74.5 17.5q-74 0 -119.5 -55
t-45.5 -160v-170q0 -105 45.5 -160t119.5 -55q51 0 91 26t59 69v170h-125q-15 0 -25 10t-10 25t10 25t25 10h165q15 0 25 -11t10 -29zM252 -135q0 19 13 32t32 13t32 -14t13 -36q0 -60 -28.5 -97.5t-61.5 -37.5q-15 0 -15 15q0 11 10 15q46 21 46 65q-5 0 -11.5 1t-18 12.5
t-11.5 31.5z" />
    <glyph glyph-name="gcommaaccent" unicode="&#x123;" horiz-adv-x="515" 
d="M290 655q0 -19 -13 -32t-32 -13t-32 14t-13 36q0 60 28.5 97.5t61.5 37.5q15 0 15 -15q0 -11 -10 -15q-46 -21 -46 -65q5 0 11.5 -1t18 -12.5t11.5 -31.5zM245 460q-51 0 -85.5 -40.5t-34.5 -109.5v-90q0 -69 34.5 -109.5t85.5 -40.5t85.5 40.5t34.5 109.5v100
q0 62 -35 101t-85 39zM435 480v-485q0 -96 -55.5 -155.5t-139.5 -59.5q-71 0 -125.5 45t-54.5 90q0 15 10 25t25 10q9 0 16 -4.5t8 -6t6 -9.5q1 -2 9.5 -15.5t11.5 -17.5t11.5 -15t15.5 -15.5t17.5 -10.5t22.5 -8.5t27 -2.5q54 0 89.5 40.5t35.5 109.5v70h-5q-2 -2 -5 -6.5
t-14 -14.5t-23 -18t-32 -14.5t-41 -6.5q-81 0 -135.5 59.5t-54.5 155.5v90q0 96 54.5 155.5t135.5 59.5q38 0 66.5 -16.5t38.5 -32.5l10 -16h5v20q0 15 10 25t25 10t25 -10t10 -25z" />
    <glyph glyph-name="Imacron" unicode="&#x12a;" horiz-adv-x="280" 
d="M137 705q40 0 40 -40v-630q0 -40 -40 -40q-15 0 -25 11t-10 29v630q0 18 10 29t25 11zM45 905h190q15 0 25 -9.5t10 -22.5q0 -14 -10 -23.5t-25 -9.5h-190q-15 0 -25 9.5t-10 22.5q0 14 10 23.5t25 9.5z" />
    <glyph glyph-name="imacron" unicode="&#x12b;" horiz-adv-x="240" 
d="M25 715h190q15 0 25 -9.5t10 -22.5q0 -14 -10 -23.5t-25 -9.5h-190q-15 0 -25 9.5t-10 22.5q0 14 10 23.5t25 9.5zM155 480v-450q0 -15 -10 -25t-25 -10t-25 10t-10 25v450q0 15 10 25t25 10t25 -10t10 -25z" />
    <glyph glyph-name="Iogonek" unicode="&#x12e;" horiz-adv-x="275" 
d="M5 -135q0 22 10.5 46t25 41.5t29 32.5t24.5 23l11 7q-5 5 -5 20v630q0 18 10 29t25 11q40 0 40 -40v-630q0 -18 -10 -30q-1 -1 -19.5 -15t-36.5 -30t-33.5 -42.5t-15.5 -52.5t13.5 -40.5t36.5 -14.5q14 0 27.5 7.5t22.5 7.5q10 0 17.5 -7.5t7.5 -17.5q0 -20 -19.5 -32.5
t-55.5 -12.5q-49 0 -77 29t-28 81z" />
    <glyph glyph-name="iogonek" unicode="&#x12f;" horiz-adv-x="230" 
d="M80 30v450q0 15 10 25t25 10t25 -10t10 -25v-450q0 -15 -10 -25q-3 -2 -8.5 -6.5t-19.5 -18.5t-24.5 -29t-19 -38.5t-8.5 -47.5q0 -26 13.5 -40.5t36.5 -14.5q14 0 27.5 7.5t22.5 7.5q10 0 17.5 -7.5t7.5 -17.5q0 -20 -19.5 -32.5t-55.5 -12.5q-49 0 -77 29t-28 81
q0 33 20 69.5t40 55.5l20 20q-5 10 -5 20zM70 660q0 22 13 36t32 14t32 -14t13 -36t-13 -36t-32 -14t-32 14t-13 36z" />
    <glyph glyph-name="Idotaccent" unicode="&#x130;" horiz-adv-x="270" 
d="M133 705q40 0 40 -40v-630q0 -40 -40 -40q-15 0 -25 11t-10 29v630q0 18 10 29t25 11zM90 860q0 22 13 36t32 14t32 -14t13 -36t-13 -36t-32 -14t-32 14t-13 36z" />
    <glyph glyph-name="dotlessi" unicode="&#x131;" horiz-adv-x="230" 
d="M150 480v-450q0 -15 -10 -25t-25 -10t-25 10t-10 25v450q0 15 10 25t25 10t25 -10t10 -25z" />
    <glyph glyph-name="Kcommaaccent" unicode="&#x136;" horiz-adv-x="575" 
d="M135 705q40 0 40 -40v-330l285 345q20 25 40 25q40 0 40 -40q0 -16 -15 -35l-180 -215l205 -325q2 -3 8 -11.5t8.5 -13t5.5 -13t3 -17.5q0 -17 -11.5 -28.5t-28.5 -11.5q-19 0 -40 35l-205 330l-115 -145v-180q0 -40 -40 -40q-15 0 -25 11t-10 29v630q0 18 10 29t25 11z
M283 -125q0 19 13 32t32 13t32 -14t13 -36q0 -60 -28.5 -97.5t-61.5 -37.5q-15 0 -15 15q0 11 10 15q46 21 46 65q-5 0 -11.5 1t-18 12.5t-11.5 31.5z" />
    <glyph glyph-name="kcommaaccent" unicode="&#x137;" horiz-adv-x="455" 
d="M155 685v-415l215 230q15 15 30 15t25 -10t10 -25t-15 -30l-140 -150l140 -225q20 -33 20 -45q0 -15 -10 -25t-25 -10q-21 0 -30 15l-145 240l-75 -85v-135q0 -15 -10 -25t-25 -10t-25 10t-10 25v655q0 15 10 25t25 10t25 -10t10 -25zM220 -125q0 19 13 32t32 13t32 -14
t13 -36q0 -60 -28.5 -97.5t-61.5 -37.5q-15 0 -15 15q0 11 10 15q46 21 46 65q-5 0 -11.5 1t-18 12.5t-11.5 31.5z" />
    <glyph glyph-name="Lacute" unicode="&#x139;" horiz-adv-x="510" 
d="M175 70h300q15 0 25 -10t10 -25t-10 -25t-25 -10h-340q-15 0 -25 11t-10 29v625q0 18 10 29t25 11q40 0 40 -40v-595zM128 860l50 115q7 15 10 20.5t9.5 10t15.5 4.5q13 0 21.5 -8.5t8.5 -21.5q0 -10 -10 -30l-70 -140q-10 -20 -25 -20q-25 0 -25 25q0 11 15 45z" />
    <glyph glyph-name="lacute" unicode="&#x13a;" horiz-adv-x="240" 
d="M155 685v-655q0 -15 -10 -25t-25 -10t-25 10t-10 25v655q0 15 10 25t25 10t25 -10t10 -25zM110 860l50 115q7 15 10 20.5t9.5 10t15.5 4.5q13 0 21.5 -8.5t8.5 -21.5q0 -10 -10 -30l-70 -140q-10 -20 -25 -20q-25 0 -25 25q0 11 15 45z" />
    <glyph glyph-name="Lcommaaccent" unicode="&#x13b;" horiz-adv-x="520" 
d="M175 70h300q15 0 25 -10t10 -25t-10 -25t-25 -10h-340q-15 0 -25 11t-10 29v625q0 18 10 29t25 11q40 0 40 -40v-595zM261 -125q0 19 13 32t32 13t32 -14t13 -36q0 -60 -28.5 -97.5t-61.5 -37.5q-15 0 -15 15q0 11 10 15q46 21 46 65q-5 0 -11.5 1t-18 12.5t-11.5 31.5z
" />
    <glyph glyph-name="lcommaaccent" unicode="&#x13c;" horiz-adv-x="240" 
d="M155 685v-655q0 -15 -10 -25t-25 -10t-25 10t-10 25v655q0 15 10 25t25 10t25 -10t10 -25zM75 -125q0 19 13 32t32 13t32 -14t13 -36q0 -60 -28.5 -97.5t-61.5 -37.5q-15 0 -15 15q0 11 10 15q46 21 46 65q-5 0 -11.5 1t-18 12.5t-11.5 31.5z" />
    <glyph glyph-name="Lcaron" unicode="&#x13d;" horiz-adv-x="510" 
d="M175 70h300q15 0 25 -10t10 -25t-10 -25t-25 -10h-340q-15 0 -25 11t-10 29v625q0 18 10 29t25 11q40 0 40 -40v-595zM275 655q0 22 13 36t32 14q20 0 32.5 -15.5t12.5 -44.5q0 -63 -31 -104t-64 -41q-15 0 -15 15q0 11 10 15q50 22 50 75q-4 1 -11 3t-18 14.5t-11 32.5z
" />
    <glyph glyph-name="lcaron" unicode="&#x13e;" horiz-adv-x="290" 
d="M155 685v-655q0 -15 -10 -25t-25 -10t-25 10t-10 25v655q0 15 10 25t25 10t25 -10t10 -25zM220 675q0 19 13 32t32 13t32 -14t13 -36q0 -60 -28.5 -97.5t-61.5 -37.5q-15 0 -15 15q0 11 10 15q46 21 46 65q-5 0 -11.5 1t-18 12.5t-11.5 31.5z" />
    <glyph glyph-name="Lslash" unicode="&#x141;" horiz-adv-x="520" 
d="M185 70h300q15 0 25 -10t10 -25t-10 -25t-25 -10h-340q-15 0 -25 11t-10 29v240l-25 -20q-25 -20 -35 -20q-13 0 -21.5 8.5t-8.5 21.5q0 15 15 30l75 60v305q0 18 10 29t25 11q40 0 40 -40v-245l100 80q25 20 35 20q13 0 21.5 -8.5t8.5 -21.5q0 -15 -15 -30l-150 -120
v-270z" />
    <glyph glyph-name="lslash" unicode="&#x142;" horiz-adv-x="280" 
d="M175 685v-270l30 20q22 15 35 15t21.5 -8.5t8.5 -21.5q0 -20 -15 -30l-80 -55v-305q0 -15 -10 -25t-25 -10t-25 10t-10 25v255l-30 -20q-25 -15 -35 -15q-13 0 -21.5 8.5t-8.5 21.5q0 20 15 30l80 55v320q0 15 10 25t25 10t25 -10t10 -25z" />
    <glyph glyph-name="Nacute" unicode="&#x143;" horiz-adv-x="665" 
d="M480 30l-300 505h-5v-500q0 -40 -40 -40q-15 0 -25 11t-10 29v630q0 18 10 29t25 11q29 0 50 -35l300 -505h5v500q0 18 10 29t25 11q40 0 40 -40v-630q0 -18 -10 -29t-25 -11q-29 0 -50 35zM321 860l50 115q7 15 10 20.5t9.5 10t15.5 4.5q13 0 21.5 -8.5t8.5 -21.5
q0 -10 -10 -30l-70 -140q-10 -20 -25 -20q-25 0 -25 25q0 11 15 45z" />
    <glyph glyph-name="nacute" unicode="&#x144;" horiz-adv-x="525" 
d="M380 30v290q0 65 -31.5 102.5t-78.5 37.5q-50 0 -85 -39t-35 -101v-290q0 -15 -10 -25t-25 -10t-25 10t-10 25v450q0 15 10 25t25 10t25 -10t10 -25v-20h5q1 3 3.5 7t12.5 15.5t22 20t32.5 15.5t44.5 7q77 0 128.5 -56.5t51.5 -148.5v-290q0 -15 -10 -25t-25 -10t-25 10
t-10 25zM254 680l50 115q7 15 10 20.5t9.5 10t15.5 4.5q13 0 21.5 -8.5t8.5 -21.5q0 -10 -10 -30l-70 -140q-10 -20 -25 -20q-25 0 -25 25q0 11 15 45z" />
    <glyph glyph-name="Ncommaaccent" unicode="&#x145;" horiz-adv-x="665" 
d="M480 30l-300 505h-5v-500q0 -40 -40 -40q-15 0 -25 11t-10 29v630q0 18 10 29t25 11q29 0 50 -35l300 -505h5v500q0 18 10 29t25 11q40 0 40 -40v-630q0 -18 -10 -29t-25 -11q-29 0 -50 35zM288 -125q0 19 13 32t32 13t32 -14t13 -36q0 -60 -28.5 -97.5t-61.5 -37.5
q-15 0 -15 15q0 11 10 15q46 21 46 65q-5 0 -11.5 1t-18 12.5t-11.5 31.5z" />
    <glyph glyph-name="ncommaaccent" unicode="&#x146;" horiz-adv-x="525" 
d="M380 30v290q0 65 -31.5 102.5t-78.5 37.5q-50 0 -85 -39t-35 -101v-290q0 -15 -10 -25t-25 -10t-25 10t-10 25v450q0 15 10 25t25 10t25 -10t10 -25v-20h5q1 3 3.5 7t12.5 15.5t22 20t32.5 15.5t44.5 7q77 0 128.5 -56.5t51.5 -148.5v-290q0 -15 -10 -25t-25 -10t-25 10
t-10 25zM220 -125q0 19 13 32t32 13t32 -14t13 -36q0 -60 -28.5 -97.5t-61.5 -37.5q-15 0 -15 15q0 11 10 15q46 21 46 65q-5 0 -11.5 1t-18 12.5t-11.5 31.5z" />
    <glyph glyph-name="Ncaron" unicode="&#x147;" horiz-adv-x="665" 
d="M480 30l-300 505h-5v-500q0 -40 -40 -40q-15 0 -25 11t-10 29v630q0 18 10 29t25 11q29 0 50 -35l300 -505h5v500q0 18 10 29t25 11q40 0 40 -40v-630q0 -18 -10 -29t-25 -11q-29 0 -50 35zM334 860l83 130q12 20 30 20q13 0 21.5 -8.5t8.5 -21.5q0 -15 -10 -30l-85 -130
q-19 -30 -50 -30t-50 30l-85 130q-10 15 -10 30q0 13 8.5 21.5t21.5 8.5q18 0 30 -20l83 -130h4z" />
    <glyph glyph-name="ncaron" unicode="&#x148;" horiz-adv-x="525" 
d="M380 30v290q0 65 -31.5 102.5t-78.5 37.5q-50 0 -85 -39t-35 -101v-290q0 -15 -10 -25t-25 -10t-25 10t-10 25v450q0 15 10 25t25 10t25 -10t10 -25v-20h5q1 3 3.5 7t12.5 15.5t22 20t32.5 15.5t44.5 7q77 0 128.5 -56.5t51.5 -148.5v-290q0 -15 -10 -25t-25 -10t-25 10
t-10 25zM267 680l83 130q12 20 30 20q13 0 21.5 -8.5t8.5 -21.5q0 -15 -10 -30l-85 -130q-19 -30 -50 -30t-50 30l-85 130q-10 15 -10 30q0 13 8.5 21.5t21.5 8.5q18 0 30 -20l83 -130h4z" />
    <glyph glyph-name="Omacron" unicode="&#x14c;" horiz-adv-x="610" 
d="M305 720q108 0 174 -75t66 -210v-170q0 -135 -66 -210t-174 -75t-174 75t-66 210v170q0 135 66 210t174 75zM305 650q-74 0 -119.5 -55t-45.5 -160v-170q0 -105 45.5 -160t119.5 -55t119.5 55t45.5 160v170q0 105 -45.5 160t-119.5 55zM210 905h190q15 0 25 -9.5
t10 -22.5q0 -14 -10 -23.5t-25 -9.5h-190q-15 0 -25 9.5t-10 22.5q0 14 10 23.5t25 9.5z" />
    <glyph glyph-name="omacron" unicode="&#x14d;" horiz-adv-x="500" 
d="M250 525q84 0 139.5 -59.5t55.5 -155.5v-110q0 -96 -55.5 -155.5t-139.5 -59.5t-139.5 59.5t-55.5 155.5v110q0 96 55.5 155.5t139.5 59.5zM250 50q54 0 89.5 40.5t35.5 109.5v110q0 69 -35.5 109.5t-89.5 40.5t-89.5 -40.5t-35.5 -109.5v-110q0 -69 35.5 -109.5
t89.5 -40.5zM155 715h190q15 0 25 -9.5t10 -22.5q0 -14 -10 -23.5t-25 -9.5h-190q-15 0 -25 9.5t-10 22.5q0 14 10 23.5t25 9.5z" />
    <glyph glyph-name="Ohungarumlaut" unicode="&#x150;" horiz-adv-x="610" 
d="M305 720q108 0 174 -75t66 -210v-170q0 -135 -66 -210t-174 -75t-174 75t-66 210v170q0 135 66 210t174 75zM305 650q-74 0 -119.5 -55t-45.5 -160v-170q0 -105 45.5 -160t119.5 -55t119.5 55t45.5 160v170q0 105 -45.5 160t-119.5 55zM215 860l50 115q7 15 10 20.5
t9.5 10t15.5 4.5q13 0 21.5 -8.5t8.5 -21.5q0 -10 -10 -30l-70 -140q-10 -20 -25 -20q-25 0 -25 25q0 11 15 45zM365 860l50 115q7 15 10 20.5t9.5 10t15.5 4.5q13 0 21.5 -8.5t8.5 -21.5q0 -10 -10 -30l-70 -140q-10 -20 -25 -20q-25 0 -25 25q0 11 15 45z" />
    <glyph glyph-name="ohungarumlaut" unicode="&#x151;" horiz-adv-x="500" 
d="M250 525q84 0 139.5 -59.5t55.5 -155.5v-110q0 -96 -55.5 -155.5t-139.5 -59.5t-139.5 59.5t-55.5 155.5v110q0 96 55.5 155.5t139.5 59.5zM250 50q54 0 89.5 40.5t35.5 109.5v110q0 69 -35.5 109.5t-89.5 40.5t-89.5 -40.5t-35.5 -109.5v-110q0 -69 35.5 -109.5
t89.5 -40.5zM158 680l50 115q7 15 10 20.5t9.5 10t15.5 4.5q13 0 21.5 -8.5t8.5 -21.5q0 -10 -10 -30l-70 -140q-10 -20 -25 -20q-25 0 -25 25q0 11 15 45zM308 680l50 115q7 15 10 20.5t9.5 10t15.5 4.5q13 0 21.5 -8.5t8.5 -21.5q0 -10 -10 -30l-70 -140q-10 -20 -25 -20
q-25 0 -25 25q0 11 15 45z" />
    <glyph glyph-name="OE" unicode="&#x152;" horiz-adv-x="820" 
d="M400 630h-95q-74 0 -119.5 -55t-45.5 -160v-130q0 -105 45.5 -160t119.5 -55h95v560zM305 700h450q15 0 25 -10t10 -25t-10 -25t-25 -10h-280v-240h205q15 0 25 -10t10 -25t-10 -25t-25 -10h-205v-250h290q15 0 25 -10t10 -25t-10 -25t-25 -10h-460q-108 0 -174 75
t-66 210v130q0 135 66 210t174 75z" />
    <glyph glyph-name="oe" unicode="&#x153;" horiz-adv-x="805" 
d="M565 -15q-32 0 -59.5 10t-44 23.5t-28.5 27.5t-17 24l-4 10h-4q-2 -4 -5 -10.5t-16 -22.5t-29.5 -28.5t-45 -23t-62.5 -10.5q-84 0 -139.5 59.5t-55.5 155.5v110q0 96 55.5 155.5t139.5 59.5q34 0 62.5 -10t45.5 -23.5t29 -27.5t17 -24l4 -10h4q2 4 5 10.5t16 22.5
t28.5 28.5t43.5 23t60 10.5q81 0 135.5 -59.5t54.5 -155.5v-55q0 -15 -10 -25t-25 -10h-275v-20q0 -69 34.5 -109.5t85.5 -40.5q77 0 116 80q13 25 34 25q15 0 25 -10t10 -25q0 -41 -57.5 -88t-127.5 -47zM250 50q54 0 89.5 40.5t35.5 109.5v110q0 69 -35.5 109.5
t-89.5 40.5t-89.5 -40.5t-35.5 -109.5v-110q0 -69 35.5 -109.5t89.5 -40.5zM445 310v-25h240v25q0 69 -34.5 109.5t-85.5 40.5t-85.5 -40.5t-34.5 -109.5z" />
    <glyph glyph-name="Racute" unicode="&#x154;" horiz-adv-x="590" 
d="M485 35l-150 255h-160v-255q0 -40 -40 -40q-15 0 -25 11t-10 29v625q0 18 10 29t25 11h195q101 0 158 -55.5t57 -149.5q0 -43 -13 -78.5t-31.5 -55.5t-36.5 -33.5t-31 -17.5l-13 -5v-5l125 -210q3 -5 9 -14.5t8.5 -14t5 -12t2.5 -14.5q0 -18 -10 -29t-25 -11
q-6 0 -11.5 1t-10 4.5t-7.5 5.5t-7 7t-5.5 7t-5 8t-3.5 7zM330 630h-155v-270h155q67 0 103.5 35.5t36.5 99.5t-36.5 99.5t-103.5 35.5zM301 860l50 115q7 15 10 20.5t9.5 10t15.5 4.5q13 0 21.5 -8.5t8.5 -21.5q0 -10 -10 -30l-70 -140q-10 -20 -25 -20q-25 0 -25 25
q0 11 15 45z" />
    <glyph glyph-name="racute" unicode="&#x155;" horiz-adv-x="375" 
d="M365 440q0 -13 -8.5 -21.5t-21.5 -8.5q-22 0 -35 20q-20 30 -55 30q-40 0 -67.5 -36t-27.5 -104v-290q0 -15 -10 -25t-25 -10t-25 10t-10 25v450q0 15 10 25t25 10t25 -10t10 -25v-20h5q1 3 3.5 7t12.5 15.5t22 20t32.5 15.5t44.5 7q40 0 67.5 -25.5t27.5 -59.5zM212 680
l50 115q7 15 10 20.5t9.5 10t15.5 4.5q13 0 21.5 -8.5t8.5 -21.5q0 -10 -10 -30l-70 -140q-10 -20 -25 -20q-25 0 -25 25q0 11 15 45z" />
    <glyph glyph-name="Rcommaaccent" unicode="&#x156;" horiz-adv-x="590" 
d="M485 35l-150 255h-160v-255q0 -40 -40 -40q-15 0 -25 11t-10 29v625q0 18 10 29t25 11h195q101 0 158 -55.5t57 -149.5q0 -43 -13 -78.5t-31.5 -55.5t-36.5 -33.5t-31 -17.5l-13 -5v-5l125 -210q3 -5 9 -14.5t8.5 -14t5 -12t2.5 -14.5q0 -18 -10 -29t-25 -11
q-6 0 -11.5 1t-10 4.5t-7.5 5.5t-7 7t-5.5 7t-5 8t-3.5 7zM330 630h-155v-270h155q67 0 103.5 35.5t36.5 99.5t-36.5 99.5t-103.5 35.5zM283 -125q0 19 13 32t32 13t32 -14t13 -36q0 -60 -28.5 -97.5t-61.5 -37.5q-15 0 -15 15q0 11 10 15q46 21 46 65q-5 0 -11.5 1
t-18 12.5t-11.5 31.5z" />
    <glyph glyph-name="rcommaaccent" unicode="&#x157;" horiz-adv-x="375" 
d="M365 440q0 -13 -8.5 -21.5t-21.5 -8.5q-22 0 -35 20q-20 30 -55 30q-40 0 -67.5 -36t-27.5 -104v-290q0 -15 -10 -25t-25 -10t-25 10t-10 25v450q0 15 10 25t25 10t25 -10t10 -25v-20h5q1 3 3.5 7t12.5 15.5t22 20t32.5 15.5t44.5 7q40 0 67.5 -25.5t27.5 -59.5zM70 -125
q0 19 13 32t32 13t32 -14t13 -36q0 -60 -28.5 -97.5t-61.5 -37.5q-15 0 -15 15q0 11 10 15q46 21 46 65q-5 0 -11.5 1t-18 12.5t-11.5 31.5z" />
    <glyph glyph-name="Rcaron" unicode="&#x158;" horiz-adv-x="590" 
d="M485 35l-150 255h-160v-255q0 -40 -40 -40q-15 0 -25 11t-10 29v625q0 18 10 29t25 11h195q101 0 158 -55.5t57 -149.5q0 -43 -13 -78.5t-31.5 -55.5t-36.5 -33.5t-31 -17.5l-13 -5v-5l125 -210q3 -5 9 -14.5t8.5 -14t5 -12t2.5 -14.5q0 -18 -10 -29t-25 -11
q-6 0 -11.5 1t-10 4.5t-7.5 5.5t-7 7t-5.5 7t-5 8t-3.5 7zM330 630h-155v-270h155q67 0 103.5 35.5t36.5 99.5t-36.5 99.5t-103.5 35.5zM305 860l83 130q12 20 30 20q13 0 21.5 -8.5t8.5 -21.5q0 -15 -10 -30l-85 -130q-19 -30 -50 -30t-50 30l-85 130q-10 15 -10 30
q0 13 8.5 21.5t21.5 8.5q18 0 30 -20l83 -130h4z" />
    <glyph glyph-name="rcaron" unicode="&#x159;" horiz-adv-x="375" 
d="M363 440q0 -13 -8.5 -21.5t-21.5 -8.5q-22 0 -35 20q-20 30 -55 30q-40 0 -67.5 -36t-27.5 -104v-290q0 -15 -10 -25t-25 -10t-25 10t-10 25v450q0 15 10 25t25 10t25 -10t10 -25v-20h5q1 3 3.5 7t12.5 15.5t22 20t32.5 15.5t44.5 7q40 0 67.5 -25.5t27.5 -59.5zM222 680
l83 130q12 20 30 20q13 0 21.5 -8.5t8.5 -21.5q0 -15 -10 -30l-85 -130q-19 -30 -50 -30t-50 30l-85 130q-10 15 -10 30q0 13 8.5 21.5t21.5 8.5q18 0 30 -20l83 -130h4z" />
    <glyph glyph-name="Sacute" unicode="&#x15a;" horiz-adv-x="535" 
d="M275 650q-66 0 -103 -34t-37 -91q0 -34 20 -58.5t52.5 -39.5t71 -27.5t77.5 -28t71.5 -36t52.5 -56t20 -84.5q0 -95 -64.5 -155t-175.5 -60q-67 0 -121 28.5t-80 71.5q-24 37 -24 65q0 15 10 25t25 10q28 0 40 -30q19 -46 58.5 -73t91.5 -27q77 0 121 40t44 105
q0 34 -20 58.5t-52.5 39.5t-71 27.5t-77.5 28t-71.5 36t-52.5 56t-20 84.5q0 88 57.5 141.5t157.5 53.5q86 0 150.5 -48.5t64.5 -91.5q0 -18 -10 -29t-25 -11q-7 0 -12.5 2t-10.5 7t-7.5 8t-7.5 11.5t-7 11.5q-23 35 -60.5 52.5t-74.5 17.5zM256 860l50 115q7 15 10 20.5
t9.5 10t15.5 4.5q13 0 21.5 -8.5t8.5 -21.5q0 -10 -10 -30l-70 -140q-10 -20 -25 -20q-25 0 -25 25q0 11 15 45z" />
    <glyph glyph-name="sacute" unicode="&#x15b;" horiz-adv-x="445" 
d="M220 50q59 0 89.5 27t30.5 73q0 29 -29.5 46.5t-71 28.5t-83.5 25t-71.5 45.5t-29.5 79.5q0 61 48.5 105.5t121.5 44.5q67 0 118.5 -42t51.5 -83q0 -14 -8.5 -22t-21.5 -8q-22 0 -35 20q-1 2 -8.5 13t-10.5 14.5t-10.5 12.5t-14 12.5t-16 8.5t-21 7t-24.5 2
q-44 0 -72 -25t-28 -60q0 -29 29.5 -46.5t71.5 -28.5t83.5 -25t71 -45.5t29.5 -79.5q0 -77 -49 -121t-141 -44q-70 0 -127.5 47t-57.5 88q0 15 10 25t25 10q22 0 34 -25q39 -80 116 -80zM213 680l50 115q7 15 10 20.5t9.5 10t15.5 4.5q13 0 21.5 -8.5t8.5 -21.5
q0 -10 -10 -30l-70 -140q-10 -20 -25 -20q-25 0 -25 25q0 11 15 45z" />
    <glyph glyph-name="Scedilla" unicode="&#x15e;" horiz-adv-x="535" 
d="M370 -165q0 -49 -31.5 -79.5t-83.5 -30.5q-32 0 -53.5 17.5t-21.5 37.5q0 10 7 17.5t18 7.5q9 0 22.5 -10t27.5 -10q26 0 40.5 13.5t14.5 36.5t-14.5 36.5t-40.5 13.5h-20q-25 0 -25 25v75q-4 0 -10.5 1.5t-26 8t-37.5 16t-39.5 28t-37.5 41.5q-24 37 -24 65q0 15 10 25
t25 10q28 0 40 -30q19 -46 58.5 -73t91.5 -27q77 0 121 40t44 105q0 34 -20 58.5t-52.5 39.5t-71 27.5t-77.5 28t-71.5 36t-52.5 56t-20 84.5q0 88 57.5 141.5t157.5 53.5q86 0 150.5 -48.5t64.5 -91.5q0 -18 -10 -29t-25 -11q-7 0 -12.5 2t-10.5 7t-7.5 8t-7.5 11.5
t-7 11.5q-23 35 -60.5 52.5t-74.5 17.5q-66 0 -103 -34t-37 -91q0 -34 20 -58.5t52.5 -39.5t71 -27.5t77.5 -28t71.5 -36t52.5 -56t20 -84.5q0 -59 -23.5 -102.5t-57.5 -64t-68 -32.5t-57 -14l-24 -2v-35q44 -4 72 -33.5t28 -76.5z" />
    <glyph glyph-name="scedilla" unicode="&#x15f;" horiz-adv-x="445" 
d="M330 -165q0 -49 -31.5 -79.5t-83.5 -30.5q-32 0 -53.5 17.5t-21.5 37.5q0 10 7 17.5t18 7.5q9 0 22.5 -10t27.5 -10q26 0 40.5 13.5t14.5 36.5t-14.5 36.5t-40.5 13.5h-20q-25 0 -25 25v85q-33 3 -75 35q-60 47 -60 90q0 15 10 25t25 10q22 0 34 -25q39 -80 116 -80
q59 0 89.5 27t30.5 73q0 29 -29.5 46.5t-71 28.5t-83.5 25t-71.5 45.5t-29.5 79.5q0 61 48.5 105.5t121.5 44.5q67 0 118.5 -42t51.5 -83q0 -14 -8.5 -22t-21.5 -8q-22 0 -35 20q-1 2 -8.5 13t-10.5 14.5t-10.5 12.5t-14 12.5t-16 8.5t-21 7t-24.5 2q-44 0 -72 -25t-28 -60
q0 -29 29.5 -46.5t71.5 -28.5t83.5 -25t71 -45.5t29.5 -79.5q0 -35 -10 -62.5t-26 -44.5t-35 -29t-38 -17.5t-35 -8.5t-26 -3h-10v-40q44 -4 72 -33.5t28 -76.5z" />
    <glyph glyph-name="Scaron" unicode="&#x160;" horiz-adv-x="535" 
d="M275 650q-66 0 -103 -34t-37 -91q0 -34 20 -58.5t52.5 -39.5t71 -27.5t77.5 -28t71.5 -36t52.5 -56t20 -84.5q0 -95 -64.5 -155t-175.5 -60q-67 0 -121 28.5t-80 71.5q-24 37 -24 65q0 15 10 25t25 10q28 0 40 -30q19 -46 58.5 -73t91.5 -27q77 0 121 40t44 105
q0 34 -20 58.5t-52.5 39.5t-71 27.5t-77.5 28t-71.5 36t-52.5 56t-20 84.5q0 88 57.5 141.5t157.5 53.5q86 0 150.5 -48.5t64.5 -91.5q0 -18 -10 -29t-25 -11q-7 0 -12.5 2t-10.5 7t-7.5 8t-7.5 11.5t-7 11.5q-23 35 -60.5 52.5t-74.5 17.5zM270 860l83 130q12 20 30 20
q13 0 21.5 -8.5t8.5 -21.5q0 -15 -10 -30l-85 -130q-19 -30 -50 -30t-50 30l-85 130q-10 15 -10 30q0 13 8.5 21.5t21.5 8.5q18 0 30 -20l83 -130h4z" />
    <glyph glyph-name="scaron" unicode="&#x161;" horiz-adv-x="435" 
d="M215 50q59 0 89.5 27t30.5 73q0 29 -29.5 46.5t-71 28.5t-83.5 25t-71.5 45.5t-29.5 79.5q0 61 48.5 105.5t121.5 44.5q67 0 118.5 -42t51.5 -83q0 -14 -8 -22t-22 -8q-22 0 -35 20q-1 2 -8.5 13t-10.5 14.5t-10.5 12.5t-14 12.5t-16 8.5t-21 7t-24.5 2q-44 0 -72 -25
t-28 -60q0 -29 29.5 -46.5t71 -28.5t83.5 -25t71.5 -45.5t29.5 -79.5q0 -77 -49 -121t-141 -44q-70 0 -127.5 47t-57.5 88q0 15 10 25t25 10q21 0 34 -25q39 -80 116 -80zM218 680l83 130q12 20 30 20q13 0 21.5 -8.5t8.5 -21.5q0 -15 -10 -30l-85 -130q-19 -30 -50 -30
t-50 30l-85 130q-10 15 -10 30q0 13 8.5 21.5t21.5 8.5q18 0 30 -20l83 -130h4z" />
    <glyph glyph-name="Tcommaaccent" unicode="&#x162;" horiz-adv-x="500" 
d="M455 630h-165v-595q0 -40 -40 -40q-15 0 -25 11t-10 29v595h-170q-15 0 -25 10t-10 25t10 25t25 10h410q15 0 25 -10t10 -25t-10 -25t-25 -10zM208 -125q0 19 13 32t32 13t32 -14t13 -36q0 -60 -28.5 -97.5t-61.5 -37.5q-15 0 -15 15q0 11 10 15q46 21 46 65
q-5 0 -11.5 1t-18 12.5t-11.5 31.5z" />
    <glyph glyph-name="tcommaaccent" unicode="&#x163;" horiz-adv-x="375" 
d="M95 435h-40q-15 0 -25 9.5t-10 23.5q0 13 10 22.5t25 9.5h40v105q0 15 10 25t25 10t25 -10t10 -25v-105h110q15 0 25 -9.5t10 -23.5q0 -13 -10 -22.5t-25 -9.5h-110v-275q0 -110 70 -110q30 0 55 30q17 20 35 20q30 0 30 -35q0 -29 -33.5 -54.5t-86.5 -25.5
q-62 0 -101 45.5t-39 129.5v275zM173 -135q0 19 13 32t32 13t32 -14t13 -36q0 -60 -28.5 -97.5t-61.5 -37.5q-15 0 -15 15q0 11 10 15q46 21 46 65q-5 0 -11.5 1t-18 12.5t-11.5 31.5z" />
    <glyph glyph-name="Tcaron" unicode="&#x164;" horiz-adv-x="500" 
d="M455 630h-165v-595q0 -40 -40 -40q-15 0 -25 11t-10 29v595h-170q-15 0 -25 10t-10 25t10 25t25 10h410q15 0 25 -10t10 -25t-10 -25t-25 -10zM252 860l83 130q12 20 30 20q13 0 21.5 -8.5t8.5 -21.5q0 -15 -10 -30l-85 -130q-19 -30 -50 -30t-50 30l-85 130
q-10 15 -10 30q0 13 8.5 21.5t21.5 8.5q18 0 30 -20l83 -130h4z" />
    <glyph glyph-name="tcaron" unicode="&#x165;" horiz-adv-x="390" 
d="M320 675q0 19 13 32t32 13t32 -14t13 -36q0 -60 -28.5 -97.5t-61.5 -37.5q-15 0 -15 15q0 11 10 15q46 21 46 65q-5 0 -11.5 1t-18 12.5t-11.5 31.5zM95 435h-40q-15 0 -25 9.5t-10 23.5q0 13 10 22.5t25 9.5h40v105q0 15 10 25t25 10t25 -10t10 -25v-105h110
q15 0 25 -9.5t10 -23.5q0 -13 -10 -22.5t-25 -9.5h-110v-275q0 -110 70 -110q30 0 55 30q17 20 35 20q30 0 30 -35q0 -29 -33.5 -54.5t-86.5 -25.5q-62 0 -101 45.5t-39 129.5v275z" />
    <glyph glyph-name="Umacron" unicode="&#x16a;" horiz-adv-x="640" 
d="M165 665v-410q0 -101 42 -153t113 -52t113 52t42 153v410q0 40 40 40q15 0 25 -11t10 -29v-410q0 -132 -63 -203.5t-167 -71.5t-167 71.5t-63 203.5v410q0 18 10 29t25 11q40 0 40 -40zM225 905h190q15 0 25 -9.5t10 -22.5q0 -14 -10 -23.5t-25 -9.5h-190q-15 0 -25 9.5
t-10 22.5q0 14 10 23.5t25 9.5z" />
    <glyph glyph-name="umacron" unicode="&#x16b;" 
d="M150 480v-290q0 -65 31.5 -102.5t78.5 -37.5q50 0 85 39t35 101v290q0 15 10 25t25 10t25 -10t10 -25v-450q0 -15 -10 -25t-25 -10t-25 10t-10 25v20h-5q-1 -3 -3.5 -7t-12.5 -15.5t-22 -20t-32.5 -15.5t-44.5 -7q-77 0 -128.5 56.5t-51.5 148.5v290q0 15 10 25t25 10
t25 -10t10 -25zM170 715h190q15 0 25 -9.5t10 -22.5q0 -14 -10 -23.5t-25 -9.5h-190q-15 0 -25 9.5t-10 22.5q0 14 10 23.5t25 9.5z" />
    <glyph glyph-name="Uring" unicode="&#x16e;" horiz-adv-x="640" 
d="M165 665v-410q0 -101 42 -153t113 -52t113 52t42 153v410q0 40 40 40q15 0 25 -11t10 -29v-410q0 -132 -63 -203.5t-167 -71.5t-167 71.5t-63 203.5v410q0 18 10 29t25 11q40 0 40 -40zM320 795q31 0 50.5 22.5t19.5 62.5t-19.5 62.5t-50.5 22.5t-50.5 -22.5t-19.5 -62.5
t19.5 -62.5t50.5 -22.5zM320 750q-50 0 -82.5 35.5t-32.5 94.5t32.5 94.5t82.5 35.5t82.5 -35.5t32.5 -94.5t-32.5 -94.5t-82.5 -35.5z" />
    <glyph glyph-name="uring" unicode="&#x16f;" 
d="M150 480v-290q0 -65 31.5 -102.5t78.5 -37.5q50 0 85 39t35 101v290q0 15 10 25t25 10t25 -10t10 -25v-450q0 -15 -10 -25t-25 -10t-25 10t-10 25v20h-5q-1 -3 -3.5 -7t-12.5 -15.5t-22 -20t-32.5 -15.5t-44.5 -7q-77 0 -128.5 56.5t-51.5 148.5v290q0 15 10 25t25 10
t25 -10t10 -25zM265 615q31 0 50.5 22.5t19.5 62.5t-19.5 62.5t-50.5 22.5t-50.5 -22.5t-19.5 -62.5t19.5 -62.5t50.5 -22.5zM265 570q-50 0 -82.5 35.5t-32.5 94.5t32.5 94.5t82.5 35.5t82.5 -35.5t32.5 -94.5t-32.5 -94.5t-82.5 -35.5z" />
    <glyph glyph-name="Uhungarumlaut" unicode="&#x170;" horiz-adv-x="640" 
d="M165 665v-410q0 -101 42 -153t113 -52t113 52t42 153v410q0 40 40 40q15 0 25 -11t10 -29v-410q0 -132 -63 -203.5t-167 -71.5t-167 71.5t-63 203.5v410q0 18 10 29t25 11q40 0 40 -40zM235 860l50 115q7 15 10 20.5t9.5 10t15.5 4.5q13 0 21.5 -8.5t8.5 -21.5
q0 -10 -10 -30l-70 -140q-10 -20 -25 -20q-25 0 -25 25q0 11 15 45zM385 860l50 115q7 15 10 20.5t9.5 10t15.5 4.5q13 0 21.5 -8.5t8.5 -21.5q0 -10 -10 -30l-70 -140q-10 -20 -25 -20q-25 0 -25 25q0 11 15 45z" />
    <glyph glyph-name="uhungarumlaut" unicode="&#x171;" 
d="M150 480v-290q0 -65 31.5 -102.5t78.5 -37.5q50 0 85 39t35 101v290q0 15 10 25t25 10t25 -10t10 -25v-450q0 -15 -10 -25t-25 -10t-25 10t-10 25v20h-5q-1 -3 -3.5 -7t-12.5 -15.5t-22 -20t-32.5 -15.5t-44.5 -7q-77 0 -128.5 56.5t-51.5 148.5v290q0 15 10 25t25 10
t25 -10t10 -25zM185 680l50 115q7 15 10 20.5t9.5 10t15.5 4.5q13 0 21.5 -8.5t8.5 -21.5q0 -10 -10 -30l-70 -140q-10 -20 -25 -20q-25 0 -25 25q0 11 15 45zM335 680l50 115q7 15 10 20.5t9.5 10t15.5 4.5q13 0 21.5 -8.5t8.5 -21.5q0 -10 -10 -30l-70 -140
q-10 -20 -25 -20q-25 0 -25 25q0 11 15 45z" />
    <glyph glyph-name="Uogonek" unicode="&#x172;" horiz-adv-x="640" 
d="M255 -135q0 27 15 55.5t30 43.5l15 16q-102 2 -163.5 73.5t-61.5 201.5v410q0 18 10 29t25 11q40 0 40 -40v-410q0 -101 42 -153t113 -52t113 52t42 153v410q0 40 40 40q15 0 25 -11t10 -29v-410q0 -108 -42.5 -176t-117.5 -89q-9 -7 -22.5 -18.5t-35.5 -44.5t-22 -62
q0 -26 13.5 -40.5t36.5 -14.5q14 0 27.5 7.5t22.5 7.5q10 0 17.5 -7.5t7.5 -17.5q0 -20 -19.5 -32.5t-55.5 -12.5q-49 0 -77 29t-28 81z" />
    <glyph glyph-name="uogonek" unicode="&#x173;" 
d="M380 30v20h-5q-1 -3 -3.5 -7t-12.5 -15.5t-22 -20t-32.5 -15.5t-44.5 -7q-77 0 -128.5 56.5t-51.5 148.5v290q0 15 10 25t25 10t25 -10t10 -25v-290q0 -65 31.5 -102.5t78.5 -37.5q50 0 85 39t35 101v290q0 15 10 25t25 10t25 -10t10 -25v-450q0 -15 -10 -25
q-3 -2 -8.5 -6.5t-19.5 -18.5t-24.5 -29t-19 -38.5t-8.5 -47.5q0 -26 13.5 -40.5t36.5 -14.5q14 0 27.5 7.5t22.5 7.5q10 0 17.5 -7.5t7.5 -17.5q0 -20 -19.5 -32.5t-55.5 -12.5q-49 0 -77 29t-28 81q0 33 20 69.5t40 55.5l20 20q-5 10 -5 20z" />
    <glyph glyph-name="Ydieresis" unicode="&#x178;" horiz-adv-x="505" 
d="M255 360l175 320q13 25 40 25q15 0 25 -11t10 -29q0 -10 -20 -45l-195 -350v-235q0 -40 -40 -40q-15 0 -25 11t-10 29v235l-195 350q-20 35 -20 45q0 18 10 29t25 11q27 0 40 -25l175 -320h5zM127 870q0 22 13 36t32 14t32 -14t13 -36t-13 -36t-32 -14t-32 14t-13 36z
M287 870q0 22 13 36t32 14t32 -14t13 -36t-13 -36t-32 -14t-32 14t-13 36z" />
    <glyph glyph-name="Zacute" unicode="&#x179;" horiz-adv-x="480" 
d="M110 70h325q15 0 25 -10t10 -25t-10 -25t-25 -10h-385q-40 0 -40 40q0 18 20 50l330 535v5h-310q-15 0 -25 10t-10 25t10 25t25 10h370q40 0 40 -40q0 -18 -20 -50l-330 -535v-5zM229 860l50 115q7 15 10 20.5t9.5 10t15.5 4.5q13 0 21.5 -8.5t8.5 -21.5q0 -10 -10 -30
l-70 -140q-10 -20 -25 -20q-25 0 -25 25q0 11 15 45z" />
    <glyph glyph-name="zacute" unicode="&#x17a;" horiz-adv-x="385" 
d="M25 80l255 360v5h-225q-16 0 -25.5 9t-9.5 23t10 23.5t25 9.5h280q15 0 25 -10t10 -25q0 -23 -15 -45l-255 -360v-5h240q16 0 25.5 -9t9.5 -23t-10 -23.5t-25 -9.5h-295q-15 0 -25 10t-10 25q0 23 15 45zM184 680l50 115q7 15 10 20.5t9.5 10t15.5 4.5q13 0 21.5 -8.5
t8.5 -21.5q0 -10 -10 -30l-70 -140q-10 -20 -25 -20q-25 0 -25 25q0 11 15 45z" />
    <glyph glyph-name="Zdotaccent" unicode="&#x17b;" horiz-adv-x="480" 
d="M110 70h325q15 0 25 -10t10 -25t-10 -25t-25 -10h-385q-40 0 -40 40q0 18 20 50l330 535v5h-310q-15 0 -25 10t-10 25t10 25t25 10h370q40 0 40 -40q0 -18 -20 -50l-330 -535v-5zM195 840q0 22 13 36t32 14t32 -14t13 -36t-13 -36t-32 -14t-32 14t-13 36z" />
    <glyph glyph-name="zdotaccent" unicode="&#x17c;" horiz-adv-x="385" 
d="M25 80l255 360v5h-225q-16 0 -25.5 9t-9.5 23t10 23.5t25 9.5h280q15 0 25 -10t10 -25q0 -23 -15 -45l-255 -360v-5h240q16 0 25.5 -9t9.5 -23t-10 -23.5t-25 -9.5h-295q-15 0 -25 10t-10 25q0 23 15 45zM147 660q0 22 13 36t32 14t32 -14t13 -36t-13 -36t-32 -14t-32 14
t-13 36z" />
    <glyph glyph-name="Zcaron" unicode="&#x17d;" horiz-adv-x="480" 
d="M110 70h325q15 0 25 -10t10 -25t-10 -25t-25 -10h-385q-40 0 -40 40q0 18 20 50l330 535v5h-310q-15 0 -25 10t-10 25t10 25t25 10h370q40 0 40 -40q0 -18 -20 -50l-330 -535v-5zM248 860l83 130q12 20 30 20q13 0 21.5 -8.5t8.5 -21.5q0 -15 -10 -30l-85 -130
q-19 -30 -50 -30t-50 30l-85 130q-10 15 -10 30q0 13 8.5 21.5t21.5 8.5q18 0 30 -20l83 -130h4z" />
    <glyph glyph-name="zcaron" unicode="&#x17e;" horiz-adv-x="385" 
d="M25 80l255 360v5h-225q-16 0 -25.5 9t-9.5 23t10 23.5t25 9.5h280q15 0 25 -10t10 -25q0 -23 -15 -45l-255 -360v-5h240q16 0 25.5 -9t9.5 -23t-10 -23.5t-25 -9.5h-295q-15 0 -25 10t-10 25q0 23 15 45zM212 670l83 130q12 20 30 20q13 0 21.5 -8.5t8.5 -21.5
q0 -15 -10 -30l-85 -130q-19 -30 -50 -30t-50 30l-85 130q-10 15 -10 30q0 13 8.5 21.5t21.5 8.5q18 0 30 -20l83 -130h4z" />
    <glyph glyph-name="florin" unicode="&#x192;" horiz-adv-x="320" 
d="M100 55v380h-40q-15 0 -25 9.5t-10 22.5q0 14 10 23.5t25 9.5h40v45q0 84 39 129.5t101 45.5q53 0 86.5 -25.5t33.5 -54.5q0 -35 -30 -35q-18 0 -35 20q-25 30 -55 30q-70 0 -70 -110v-45h110q15 0 25 -9.5t10 -22.5q0 -14 -10 -23.5t-25 -9.5h-110v-380
q0 -125 -52.5 -200t-112.5 -75q-15 0 -25 10t-10 25q0 14 9 23t21 12q45 11 72.5 68.5t27.5 136.5z" />
    <glyph glyph-name="Scommaaccent" unicode="&#x218;" horiz-adv-x="535" 
d="M275 650q-66 0 -103 -34t-37 -91q0 -34 20 -58.5t52.5 -39.5t71 -27.5t77.5 -28t71.5 -36t52.5 -56t20 -84.5q0 -95 -64.5 -155t-175.5 -60q-67 0 -121 28.5t-80 71.5q-24 37 -24 65q0 15 10 25t25 10q28 0 40 -30q19 -46 58.5 -73t91.5 -27q77 0 121 40t44 105
q0 34 -20 58.5t-52.5 39.5t-71 27.5t-77.5 28t-71.5 36t-52.5 56t-20 84.5q0 88 57.5 141.5t157.5 53.5q86 0 150.5 -48.5t64.5 -91.5q0 -18 -10 -29t-25 -11q-7 0 -12.5 2t-10.5 7t-7.5 8t-7.5 11.5t-7 11.5q-23 35 -60.5 52.5t-74.5 17.5zM222 -135q0 19 13 32t32 13
t32 -14t13 -36q0 -60 -28.5 -97.5t-61.5 -37.5q-15 0 -15 15q0 11 10 15q46 21 46 65q-5 0 -11.5 1t-18 12.5t-11.5 31.5z" />
    <glyph glyph-name="scommaaccent" unicode="&#x219;" horiz-adv-x="445" 
d="M220 50q59 0 89.5 27t30.5 73q0 29 -29.5 46.5t-71 28.5t-83.5 25t-71.5 45.5t-29.5 79.5q0 61 48.5 105.5t121.5 44.5q67 0 118.5 -42t51.5 -83q0 -14 -8.5 -22t-21.5 -8q-22 0 -35 20q-1 2 -8.5 13t-10.5 14.5t-10.5 12.5t-14 12.5t-16 8.5t-21 7t-24.5 2
q-44 0 -72 -25t-28 -60q0 -29 29.5 -46.5t71.5 -28.5t83.5 -25t71 -45.5t29.5 -79.5q0 -77 -49 -121t-141 -44q-70 0 -127.5 47t-57.5 88q0 15 10 25t25 10q22 0 34 -25q39 -80 116 -80zM177 -135q0 19 13 32t32 13t32 -14t13 -36q0 -60 -28.5 -97.5t-61.5 -37.5
q-15 0 -15 15q0 11 10 15q46 21 46 65q-5 0 -11.5 1t-18 12.5t-11.5 31.5z" />
    <glyph glyph-name="afii57929" unicode="&#x2bc;" horiz-adv-x="185" 
d="M55 780q0 19 13 32t32 13t32 -14t13 -36q0 -60 -28.5 -97.5t-61.5 -37.5q-15 0 -15 15q0 11 10 15q46 21 46 65q-5 0 -11.5 1t-18 12.5t-11.5 31.5z" />
    <glyph glyph-name="circumflex" unicode="&#x2c6;" horiz-adv-x="370" 
d="M183 760l-83 -130q-12 -20 -30 -20q-13 0 -21.5 8.5t-8.5 21.5q0 15 10 30l85 130q19 30 50 30t50 -30l85 -130q10 -15 10 -30q0 -13 -8.5 -21.5t-21.5 -8.5q-18 0 -30 20l-83 130h-4z" />
    <glyph glyph-name="caron" unicode="&#x2c7;" horiz-adv-x="370" 
d="M187 680l83 130q12 20 30 20q13 0 21.5 -8.5t8.5 -21.5q0 -15 -10 -30l-85 -130q-19 -30 -50 -30t-50 30l-85 130q-10 15 -10 30q0 13 8.5 21.5t21.5 8.5q18 0 30 -20l83 -130h4z" />
    <glyph glyph-name="breve" unicode="&#x2d8;" horiz-adv-x="360" 
d="M180 610q-56 0 -98 42t-42 98q0 14 8 22t22 8q21 0 30 -30q21 -75 80 -75t80 75q9 30 30 30q14 0 22 -8t8 -22q0 -56 -42 -98t-98 -42z" />
    <glyph glyph-name="dotaccent" unicode="&#x2d9;" horiz-adv-x="170" 
d="M40 700q0 22 13 36t32 14t32 -14t13 -36t-13 -36t-32 -14t-32 14t-13 36z" />
    <glyph glyph-name="ring" unicode="&#x2da;" horiz-adv-x="310" 
d="M155 635q31 0 50.5 22.5t19.5 62.5t-19.5 62.5t-50.5 22.5t-50.5 -22.5t-19.5 -62.5t19.5 -62.5t50.5 -22.5zM155 590q-50 0 -82.5 35.5t-32.5 94.5t32.5 94.5t82.5 35.5t82.5 -35.5t32.5 -94.5t-32.5 -94.5t-82.5 -35.5z" />
    <glyph glyph-name="ogonek" unicode="&#x2db;" horiz-adv-x="260" 
d="M40 -135q0 21 9 42.5t21 37.5t24.5 29t21.5 20l9 6h55q-10 -8 -24 -21t-37.5 -48.5t-23.5 -65.5q0 -26 13.5 -40.5t36.5 -14.5q14 0 27.5 7.5t22.5 7.5q11 0 18 -7.5t7 -17.5q0 -20 -19.5 -32.5t-55.5 -12.5q-49 0 -77 29t-28 81z" />
    <glyph glyph-name="tilde" unicode="&#x2dc;" horiz-adv-x="385" 
d="M320 785q10 0 17.5 -7.5t7.5 -17.5q0 -50 -27 -82.5t-63 -32.5q-24 0 -44 13.5t-30.5 29t-24 29t-26.5 13.5q-26 0 -35 -40q-5 -22 -10.5 -31t-19.5 -9q-11 0 -18 7t-7 18q0 50 27 82.5t63 32.5q24 0 44 -13.5t30.5 -29t24 -29t26.5 -13.5q26 0 35 40q5 22 10.5 31
t19.5 9z" />
    <glyph glyph-name="hungarumlaut" unicode="&#x2dd;" horiz-adv-x="360" 
d="M55 680l50 115q7 15 10 20.5t9.5 10t15.5 4.5q13 0 21.5 -8.5t8.5 -21.5q0 -10 -10 -30l-70 -140q-10 -20 -25 -20q-25 0 -25 25q0 11 15 45zM205 680l50 115q7 15 10 20.5t9.5 10t15.5 4.5q13 0 21.5 -8.5t8.5 -21.5q0 -10 -10 -30l-70 -140q-10 -20 -25 -20
q-25 0 -25 25q0 11 15 45z" />
    <glyph glyph-name="afii10023" unicode="&#x401;" horiz-adv-x="555" 
d="M490 630h-315v-240h220q15 0 25 -10t10 -25t-10 -25t-25 -10h-220v-250h325q15 0 25 -10t10 -25t-10 -25t-25 -10h-365q-15 0 -25 11t-10 29v620q0 18 10 29t25 11h355q15 0 25 -10t10 -25t-10 -25t-25 -10zM182 840q0 22 13 36t32 14t32 -14t13 -36t-13 -36t-32 -14
t-32 14t-13 36zM342 840q0 22 13 36t32 14t32 -14t13 -36t-13 -36t-32 -14t-32 14t-13 36z" />
    <glyph glyph-name="afii10051" unicode="&#x402;" horiz-adv-x="615" 
d="M500 195q0 81 -45.5 130.5t-114.5 49.5q-33 0 -68 -11.5t-54 -22.5l-18 -11v-295q0 -40 -40 -40q-15 0 -25 11t-10 29v595h-110q-15 0 -25 10t-10 25t10 25t25 10h360q15 0 25 -10t10 -25t-10 -25t-25 -10h-175v-225q65 40 155 40q92 0 156 -70t64 -180q0 -99 -54.5 -167
t-115.5 -68q-15 0 -25 10t-10 24q0 23 20 31q52 21 81 65.5t29 104.5z" />
    <glyph glyph-name="afii10052" unicode="&#x403;" horiz-adv-x="485" 
d="M287 850l50 115q7 15 10 20.5t9.5 10t15.5 4.5q13 0 21.5 -8.5t8.5 -21.5q0 -10 -10 -30l-70 -140q-10 -20 -25 -20q-25 0 -25 25q0 11 15 45zM175 630v-595q0 -40 -40 -40q-15 0 -25 11t-10 29v625q0 18 10 29t25 11h325q15 0 25 -10t10 -25t-10 -25t-25 -10h-285z" />
    <glyph glyph-name="afii10053" unicode="&#x404;" horiz-adv-x="565" 
d="M65 265v170q0 135 66 210t174 75q86 0 150.5 -48.5t64.5 -91.5q0 -18 -10 -29t-25 -11q-7 0 -12.5 2t-10.5 7t-7.5 8t-7.5 11.5t-7 11.5q-23 35 -60.5 52.5t-74.5 17.5q-74 0 -119.5 -55t-45.5 -160v-45h200q15 0 25 -10t10 -25t-10 -25t-25 -10h-200v-55
q0 -105 45.5 -160t119.5 -55q52 0 91.5 27t58.5 73q12 30 40 30q15 0 25 -10t10 -25q0 -28 -24 -65q-26 -43 -80 -71.5t-121 -28.5q-108 0 -174 75t-66 210z" />
    <glyph glyph-name="afii10054" unicode="&#x405;" horiz-adv-x="535" 
d="M275 650q-66 0 -103 -34t-37 -91q0 -34 20 -58.5t52.5 -39.5t71 -27.5t77.5 -28t71.5 -36t52.5 -56t20 -84.5q0 -95 -64.5 -155t-175.5 -60q-67 0 -121 28.5t-80 71.5q-24 37 -24 65q0 15 10 25t25 10q28 0 40 -30q19 -46 58.5 -73t91.5 -27q77 0 121 40t44 105
q0 34 -20 58.5t-52.5 39.5t-71 27.5t-77.5 28t-71.5 36t-52.5 56t-20 84.5q0 88 57.5 141.5t157.5 53.5q86 0 150.5 -48.5t64.5 -91.5q0 -18 -10 -29t-25 -11q-7 0 -12.5 2t-10.5 7t-7.5 8t-7.5 11.5t-7 11.5q-23 35 -60.5 52.5t-74.5 17.5z" />
    <glyph glyph-name="afii10055" unicode="&#x406;" horiz-adv-x="275" 
d="M135 705q40 0 40 -40v-630q0 -40 -40 -40q-15 0 -25 11t-10 29v630q0 18 10 29t25 11z" />
    <glyph glyph-name="afii10056" unicode="&#x407;" horiz-adv-x="280" 
d="M138 705q40 0 40 -40v-630q0 -40 -40 -40q-15 0 -25 11t-10 29v630q0 18 10 29t25 11zM15 850q0 22 13 36t32 14t32 -14t13 -36t-13 -36t-32 -14t-32 14t-13 36zM175 850q0 22 13 36t32 14t32 -14t13 -36t-13 -36t-32 -14t-32 14t-13 36z" />
    <glyph glyph-name="afii10057" unicode="&#x408;" horiz-adv-x="360" 
d="M35 50q150 0 150 220v395q0 18 10 29t25 11q40 0 40 -40v-395q0 -145 -60 -217.5t-165 -72.5q-15 0 -25 10t-10 25t10 25t25 10z" />
    <glyph glyph-name="afii10058" unicode="&#x409;" horiz-adv-x="885" 
d="M430 40v590h-225v-315q0 -165 -52.5 -250t-117.5 -85q-15 0 -25 10t-10 24q0 23 20 31q55 22 82.5 85t27.5 185v345q0 18 10 29t25 11h305q15 0 25 -11t10 -29v-210h105q111 0 173 -61t62 -164t-62 -164t-173 -61h-145q-15 0 -25 11t-10 29zM505 70h105q75 0 117.5 41.5
t42.5 113.5t-42.5 113.5t-117.5 41.5h-105v-310z" />
    <glyph glyph-name="afii10059" unicode="&#x40a;" horiz-adv-x="900" 
d="M440 40v310h-265v-315q0 -40 -40 -40q-15 0 -25 11t-10 29v630q0 18 10 29t25 11q40 0 40 -40v-245h265v245q0 40 40 40q15 0 25 -11t10 -29v-245h125q103 0 161.5 -57.5t58.5 -152.5t-58.5 -152.5t-161.5 -57.5h-165q-15 0 -25 11t-10 29zM515 70h125q67 0 106 38
t39 102t-39 102t-106 38h-125v-280z" />
    <glyph glyph-name="afii10060" unicode="&#x40b;" horiz-adv-x="625" 
d="M200 630v-225q65 40 155 40q92 0 156 -70.5t64 -184.5v-155q0 -18 -10 -29t-25 -11q-40 0 -40 40v155q0 84 -45.5 134.5t-114.5 50.5q-33 0 -68 -11.5t-54 -22.5l-18 -11v-295q0 -40 -40 -40q-15 0 -25 11t-10 29v595h-110q-15 0 -25 10t-10 25t10 25t25 10h360
q15 0 25 -10t10 -25t-10 -25t-25 -10h-175z" />
    <glyph glyph-name="afii10061" unicode="&#x40c;" horiz-adv-x="585" 
d="M135 705q40 0 40 -40v-330l285 345q20 25 40 25q40 0 40 -40q0 -16 -15 -35l-180 -215l205 -325q2 -3 8 -11.5t8.5 -13t5.5 -13t3 -17.5q0 -17 -11.5 -28.5t-28.5 -11.5q-19 0 -40 35l-205 330l-115 -145v-180q0 -40 -40 -40q-15 0 -25 11t-10 29v630q0 18 10 29t25 11z
M310 830l50 115q7 15 10 20.5t9.5 10t15.5 4.5q13 0 21.5 -8.5t8.5 -21.5q0 -10 -10 -30l-70 -140q-10 -20 -25 -20q-25 0 -25 25q0 11 15 45z" />
    <glyph glyph-name="afii10062" unicode="&#x40e;" horiz-adv-x="505" 
d="M265 750q-67 0 -111 43t-44 107q0 14 10 24.5t25 10.5q25 0 35 -35q10 -37 29 -58.5t56 -21.5t56 21.5t29 58.5q10 35 35 35q15 0 25 -10.5t10 -24.5q0 -64 -44 -107t-111 -43zM90 680l185 -420h5l150 405q13 40 40 40q15 0 25 -11t10 -29q0 -10 -10 -35l-175 -460
q-37 -98 -77.5 -136.5t-107.5 -38.5q-39 0 -67 23t-28 47q0 14 10.5 24.5t24.5 10.5t32.5 -17.5t37.5 -17.5q30 0 54 23.5t46 76.5l-210 455q-15 33 -15 45q0 18 10 29t25 11q23 0 35 -25z" />
    <glyph glyph-name="afii10145" unicode="&#x40f;" horiz-adv-x="665" 
d="M530 0h-160v-120q0 -18 -10 -29t-25 -11q-40 0 -40 40v120h-160q-15 0 -25 11t-10 29v625q0 18 10 29t25 11q40 0 40 -40v-595h315v595q0 40 40 40q15 0 25 -11t10 -29v-625q0 -18 -10 -29t-25 -11z" />
    <glyph glyph-name="afii10017" unicode="&#x410;" horiz-adv-x="560" 
d="M395 270l-113 350h-4l-113 -350h230zM475 35l-55 165h-280l-55 -165q0 -1 -2 -6t-2.5 -6.5t-2.5 -6.5t-3.5 -7t-5 -5.5t-6.5 -4.5t-8 -2.5t-10 -1.5q-15 0 -25 11t-10 29q0 2 10 35l205 610q14 40 55 40t55 -40l205 -610q10 -33 10 -35q0 -18 -10 -29t-25 -11
q-5 0 -10 1.5t-8 2.5t-6.5 4.5t-5 5.5t-3.5 7t-2.5 6.5t-2.5 6.5t-2 6z" />
    <glyph glyph-name="afii10018" unicode="&#x411;" horiz-adv-x="600" 
d="M175 70h165q67 0 106 38t39 102t-39 102t-106 38h-165v-280zM175 630v-210h165q104 0 162 -56t58 -154t-58 -154t-162 -56h-205q-15 0 -25 11t-10 29v620q0 18 10 29t25 11h325q15 0 25 -10t10 -25t-10 -25t-25 -10h-285z" />
    <glyph glyph-name="afii10019" unicode="&#x412;" horiz-adv-x="615" 
d="M175 630v-225h155q125 0 125 110q0 115 -120 115h-160zM175 335v-265h180q67 0 103.5 35.5t36.5 99.5q0 61 -37.5 95.5t-107.5 34.5h-175zM355 0h-220q-15 0 -25 11t-10 29v620q0 18 10 29t25 11h200q92 0 143.5 -47.5t51.5 -127.5q0 -34 -9 -61t-21 -42t-24.5 -25
t-21.5 -13l-9 -4v-5q5 -1 13.5 -3.5t30 -15.5t38 -30.5t30 -52.5t13.5 -78q0 -91 -55.5 -143t-159.5 -52z" />
    <glyph glyph-name="afii10020" unicode="&#x413;" horiz-adv-x="485" 
d="M175 630v-595q0 -40 -40 -40q-15 0 -25 11t-10 29v625q0 18 10 29t25 11h325q15 0 25 -10t10 -25t-10 -25t-25 -10h-285z" />
    <glyph glyph-name="afii10021" unicode="&#x414;" horiz-adv-x="650" 
d="M540 0h-465v-120q0 -40 -40 -40q-15 0 -25 11t-10 29v150q0 18 10 29t25 11h15q3 3 8.5 8t19.5 26t24.5 46t19 68t8.5 92v350q0 18 10 29t25 11h335q15 0 25 -11t10 -29v-590h45q15 0 25 -11t10 -29v-150q0 -18 -10 -29t-25 -11q-40 0 -40 40v120zM135 70h325v560h-255
v-320q0 -49 -7 -91t-17.5 -67.5t-21 -44t-17.5 -25.5l-7 -7v-5z" />
    <glyph glyph-name="afii10022" unicode="&#x415;" horiz-adv-x="555" 
d="M490 630h-315v-240h220q15 0 25 -10t10 -25t-10 -25t-25 -10h-220v-250h325q15 0 25 -10t10 -25t-10 -25t-25 -10h-365q-15 0 -25 11t-10 29v620q0 18 10 29t25 11h355q15 0 25 -10t10 -25t-10 -25t-25 -10z" />
    <glyph glyph-name="afii10024" unicode="&#x416;" horiz-adv-x="835" 
d="M415 705q40 0 40 -40v-295l255 310q20 25 40 25q40 0 40 -40q0 -16 -15 -35l-180 -215l205 -325q2 -3 8 -11.5t8.5 -13t5.5 -13t3 -17.5q0 -17 -11.5 -28.5t-28.5 -11.5q-19 0 -40 35l-205 330l-85 -105v-220q0 -40 -40 -40q-15 0 -25 11t-10 29v220l-85 105l-205 -330
q-21 -35 -40 -35q-17 0 -28.5 11.5t-11.5 28.5q0 9 3 17.5t5.5 13t8.5 13t8 11.5l205 325l-180 215q-15 19 -15 35q0 40 40 40q20 0 40 -25l255 -310v295q0 18 10 29t25 11z" />
    <glyph glyph-name="afii10025" unicode="&#x417;" horiz-adv-x="520" 
d="M245 335h-45q-15 0 -25 10t-10 25t10 25t25 10h45q66 0 103 33t37 87q0 57 -37 91t-103 34q-37 0 -74.5 -17.5t-60.5 -52.5q-2 -3 -7 -11.5t-7.5 -11.5t-7.5 -8t-10.5 -7t-12.5 -2q-15 0 -25 11t-10 29q0 43 64.5 91.5t150.5 48.5q100 0 157.5 -53.5t57.5 -141.5
q0 -35 -11 -63.5t-27 -44t-31.5 -25.5t-26.5 -14l-11 -3v-5q5 -1 13 -3.5t29 -15.5t37.5 -30.5t29.5 -52.5t13 -78q0 -95 -61.5 -152.5t-168.5 -57.5q-67 0 -121 28.5t-80 71.5q-24 37 -24 65q0 15 10 25t25 10q28 0 40 -30q19 -46 58.5 -73t91.5 -27q74 0 114.5 37.5
t40.5 102.5q0 68 -40.5 106.5t-114.5 38.5z" />
    <glyph glyph-name="afii10026" unicode="&#x418;" horiz-adv-x="665" 
d="M485 545l-300 -515q-21 -35 -50 -35q-15 0 -25 11t-10 29v630q0 40 40 40q15 0 25 -11t10 -29v-510h5l300 515q21 35 50 35q15 0 25 -11t10 -29v-630q0 -18 -10 -29t-25 -11q-40 0 -40 40v510h-5z" />
    <glyph glyph-name="afii10027" unicode="&#x419;" horiz-adv-x="665" 
d="M485 545l-300 -515q-21 -35 -50 -35q-15 0 -25 11t-10 29v630q0 40 40 40q15 0 25 -11t10 -29v-510h5l300 515q21 35 50 35q15 0 25 -11t10 -29v-630q0 -18 -10 -29t-25 -11q-40 0 -40 40v510h-5zM332 760q-67 0 -111 43t-44 107q0 14 10 24.5t25 10.5q24 0 35 -35
q10 -37 29 -58.5t56 -21.5t56 21.5t29 58.5q11 35 35 35q15 0 25 -10.5t10 -24.5q0 -64 -44 -107t-111 -43z" />
    <glyph glyph-name="afii10028" unicode="&#x41a;" horiz-adv-x="575" 
d="M135 705q40 0 40 -40v-330l285 345q20 25 40 25q40 0 40 -40q0 -16 -15 -35l-180 -215l205 -325q2 -3 8 -11.5t8.5 -13t5.5 -13t3 -17.5q0 -17 -11.5 -28.5t-28.5 -11.5q-19 0 -40 35l-205 330l-115 -145v-180q0 -40 -40 -40q-15 0 -25 11t-10 29v630q0 18 10 29t25 11z
" />
    <glyph glyph-name="afii10029" unicode="&#x41b;" horiz-adv-x="630" 
d="M130 315v345q0 18 10 29t25 11h330q15 0 25 -11t10 -29v-625q0 -18 -10 -29t-25 -11q-40 0 -40 40v595h-250v-315q0 -165 -52.5 -250t-117.5 -85q-15 0 -25 10t-10 24q0 23 20 31q55 22 82.5 85t27.5 185z" />
    <glyph glyph-name="afii10030" unicode="&#x41c;" horiz-adv-x="800" 
d="M402 205l168 470q9 24 21 34.5t34 10.5q18 0 30.5 -13t14.5 -32l80 -595q0 -3 1.5 -12t2.5 -17.5t1 -15.5q0 -18 -10 -29t-25 -11q-35 0 -40 35l-70 540h-5l-155 -440q-14 -40 -50 -40t-50 40l-155 440h-5l-70 -540q-5 -35 -40 -35q-15 0 -25 11t-10 29q0 7 1 15.5
t2.5 17.5t1.5 12l80 595q2 19 14.5 32t30.5 13q22 0 34 -10.5t21 -34.5l168 -470h4z" />
    <glyph glyph-name="afii10031" unicode="&#x41d;" horiz-adv-x="655" 
d="M135 705q40 0 40 -40v-270h305v270q0 40 40 40q15 0 25 -11t10 -29v-630q0 -18 -10 -29t-25 -11q-40 0 -40 40v290h-305v-290q0 -40 -40 -40q-15 0 -25 11t-10 29v630q0 18 10 29t25 11z" />
    <glyph glyph-name="afii10032" unicode="&#x41e;" horiz-adv-x="610" 
d="M305 720q108 0 174 -75t66 -210v-170q0 -135 -66 -210t-174 -75t-174 75t-66 210v170q0 135 66 210t174 75zM305 650q-74 0 -119.5 -55t-45.5 -160v-170q0 -105 45.5 -160t119.5 -55t119.5 55t45.5 160v170q0 105 -45.5 160t-119.5 55z" />
    <glyph glyph-name="afii10033" unicode="&#x41f;" horiz-adv-x="655" 
d="M135 700h385q15 0 25 -11t10 -29v-625q0 -18 -10 -29t-25 -11q-40 0 -40 40v595h-305v-595q0 -40 -40 -40q-15 0 -25 11t-10 29v625q0 18 10 29t25 11z" />
    <glyph glyph-name="afii10034" unicode="&#x420;" horiz-adv-x="575" 
d="M135 700h170q112 0 176 -62t64 -168t-64 -168t-176 -62h-130v-205q0 -40 -40 -40q-15 0 -25 11t-10 29v625q0 18 10 29t25 11zM305 630h-130v-320h130q78 0 121.5 42.5t43.5 117.5t-43.5 117.5t-121.5 42.5z" />
    <glyph glyph-name="afii10035" unicode="&#x421;" horiz-adv-x="565" 
d="M65 265v170q0 135 66 210t174 75q86 0 150.5 -48.5t64.5 -91.5q0 -18 -10 -29t-25 -11q-7 0 -12.5 2t-10.5 7t-7.5 8t-7.5 11.5t-7 11.5q-23 35 -60.5 52.5t-74.5 17.5q-74 0 -119.5 -55t-45.5 -160v-170q0 -105 45.5 -160t119.5 -55q52 0 91.5 27t58.5 73q12 30 40 30
q15 0 25 -10t10 -25q0 -28 -24 -65q-26 -43 -80 -71.5t-121 -28.5q-108 0 -174 75t-66 210z" />
    <glyph glyph-name="afii10036" unicode="&#x422;" horiz-adv-x="500" 
d="M455 630h-165v-595q0 -40 -40 -40q-15 0 -25 11t-10 29v595h-170q-15 0 -25 10t-10 25t10 25t25 10h410q15 0 25 -10t10 -25t-10 -25t-25 -10z" />
    <glyph glyph-name="afii10037" unicode="&#x423;" horiz-adv-x="505" 
d="M90 680l185 -420h5l150 405q13 40 40 40q15 0 25 -11t10 -29q0 -10 -10 -35l-175 -460q-37 -98 -77.5 -136.5t-107.5 -38.5q-39 0 -67 23t-28 47q0 14 10.5 24.5t24.5 10.5t32.5 -17.5t37.5 -17.5q30 0 54 23.5t46 76.5l-210 455q-15 33 -15 45q0 18 10 29t25 11
q23 0 35 -25z" />
    <glyph glyph-name="afii10038" unicode="&#x424;" horiz-adv-x="825" 
d="M55 305v90q0 128 60 196.5t160 68.5q29 0 54 -7.5t35 -14.5l11 -8v100q0 18 10 29t25 11q40 0 40 -40v-100q35 30 100 30q100 0 160 -68.5t60 -196.5v-90q0 -128 -60 -196.5t-160 -68.5q-29 0 -54 7.5t-36 14.5l-10 8v-100q0 -40 -40 -40q-15 0 -25 11t-10 29v100
q-35 -30 -100 -30q-100 0 -160 68.5t-60 196.5zM550 590q-29 0 -54 -10t-36 -20l-10 -10v-400q4 -4 11.5 -11t33.5 -18t55 -11q67 0 106 48.5t39 146.5v90q0 98 -39 146.5t-106 48.5zM375 150v400q-4 4 -11.5 11t-33.5 18t-55 11q-67 0 -106 -48.5t-39 -146.5v-90
q0 -98 39 -146.5t106 -48.5q29 0 54 10t35 20z" />
    <glyph glyph-name="afii10039" unicode="&#x425;" horiz-adv-x="535" 
d="M270 300h-5l-165 -265q-2 -2 -5 -8t-5 -8.5t-5.5 -7t-6.5 -7t-7 -5t-9.5 -3.5t-11.5 -1q-15 0 -25 11t-10 29q0 17 25 55l177 270l-157 250q-1 2 -8.5 13.5t-9.5 15t-4.5 11.5t-2.5 15q0 18 10 29t25 11q12 0 20.5 -5.5t12 -10t12.5 -19.5l150 -250h5l150 250
q9 15 12.5 19.5t12 10t20.5 5.5q15 0 25 -11t10 -29q0 -7 -2.5 -15t-4.5 -11.5t-9.5 -15t-8.5 -13.5l-157 -250l177 -270q25 -38 25 -55q0 -18 -10 -29t-25 -11q-7 0 -13.5 2t-10 4t-8 7t-6.5 7.5t-6.5 10t-5.5 9.5z" />
    <glyph glyph-name="afii10040" unicode="&#x426;" horiz-adv-x="655" 
d="M545 665v-595h40q15 0 25 -11t10 -29v-150q0 -18 -10 -29t-25 -11q-40 0 -40 40v120h-410q-15 0 -25 11t-10 29v625q0 18 10 29t25 11q40 0 40 -40v-595h295v595q0 40 40 40q15 0 25 -11t10 -29z" />
    <glyph glyph-name="afii10041" unicode="&#x427;" horiz-adv-x="620" 
d="M445 35v235q-65 -40 -155 -40q-89 0 -149.5 69.5t-60.5 185.5v180q0 18 10 29t25 11q40 0 40 -40v-180q0 -87 42 -136t108 -49q33 0 68 11t53 23l19 11v320q0 40 40 40q15 0 25 -11t10 -29v-630q0 -18 -10 -29t-25 -11q-40 0 -40 40z" />
    <glyph glyph-name="afii10042" unicode="&#x428;" horiz-adv-x="930" 
d="M465 705q40 0 40 -40v-595h250v595q0 40 40 40q15 0 25 -11t10 -29v-625q0 -18 -10 -29t-25 -11h-660q-15 0 -25 11t-10 29v625q0 18 10 29t25 11q40 0 40 -40v-595h250v595q0 40 40 40z" />
    <glyph glyph-name="afii10043" unicode="&#x429;" horiz-adv-x="935" 
d="M465 705q40 0 40 -40v-595h250v595q0 40 40 40q15 0 25 -11t10 -29v-595h35q15 0 25 -11t10 -29v-150q0 -18 -10 -29t-25 -11q-40 0 -40 40v120h-690q-15 0 -25 11t-10 29v625q0 18 10 29t25 11q40 0 40 -40v-595h250v595q0 40 40 40z" />
    <glyph glyph-name="afii10044" unicode="&#x42a;" horiz-adv-x="605" 
d="M15 700h150q40 0 40 -40v-210h125q111 0 173 -61t62 -164t-62 -164t-173 -61h-165q-15 0 -25 11t-10 29v590h-115q-15 0 -25 10t-10 25t10 25t25 10zM205 70h125q75 0 117.5 41.5t42.5 113.5t-42.5 113.5t-117.5 41.5h-125v-310z" />
    <glyph glyph-name="afii10045" unicode="&#x42b;" horiz-adv-x="820" 
d="M300 0h-165q-15 0 -25 11t-10 29v625q0 18 10 29t25 11q40 0 40 -40v-215h125q111 0 173 -61t62 -164t-62 -164t-173 -61zM175 70h125q75 0 117.5 41.5t42.5 113.5t-42.5 113.5t-117.5 41.5h-125v-310zM680 705q40 0 40 -40v-630q0 -40 -40 -40q-15 0 -25 11t-10 29v630
q0 18 10 29t25 11z" />
    <glyph glyph-name="afii10046" unicode="&#x42c;" horiz-adv-x="585" 
d="M310 0h-175q-15 0 -25 11t-10 29v625q0 18 10 29t25 11q40 0 40 -40v-215h135q111 0 173 -61t62 -164t-62 -164t-173 -61zM175 70h135q75 0 117.5 41.5t42.5 113.5t-42.5 113.5t-117.5 41.5h-135v-310z" />
    <glyph glyph-name="afii10047" unicode="&#x42d;" horiz-adv-x="555" 
d="M490 435v-170q0 -135 -66 -210t-174 -75q-67 0 -121 28.5t-80 71.5q-24 37 -24 65q0 15 10 25t25 10q28 0 40 -30q19 -46 58.5 -73t91.5 -27q74 0 119.5 55t45.5 160v55h-230q-15 0 -25 10t-10 25t10 25t25 10h230v45q0 105 -45.5 160t-119.5 55q-37 0 -74.5 -17.5
t-60.5 -52.5q-2 -3 -7 -11.5t-7.5 -11.5t-7.5 -8t-10.5 -7t-12.5 -2q-15 0 -25 11t-10 29q0 43 64.5 91.5t150.5 48.5q108 0 174 -75t66 -210z" />
    <glyph glyph-name="afii10048" unicode="&#x42e;" horiz-adv-x="815" 
d="M135 705q40 0 40 -40v-270h125v55q0 131 62 200.5t163 69.5t163 -69.5t62 -200.5v-200q0 -131 -62 -200.5t-163 -69.5t-163 69.5t-62 200.5v75h-125v-290q0 -40 -40 -40q-15 0 -25 11t-10 29v630q0 18 10 29t25 11zM675 250v200q0 100 -41 150t-109 50t-109 -50t-41 -150
v-200q0 -100 41 -150t109 -50t109 50t41 150z" />
    <glyph glyph-name="afii10049" unicode="&#x42f;" horiz-adv-x="605" 
d="M295 700h175q15 0 25 -11t10 -29v-625q0 -18 -10 -29t-25 -11q-40 0 -40 40v215h-175l-135 -215q-2 -2 -5 -8t-5 -8.5t-5.5 -7t-6.5 -7t-7 -5t-9.5 -3.5t-11.5 -1q-15 0 -25 11t-10 29q0 17 25 55l125 180v5q-5 2 -13.5 5.5t-30 19t-38 36t-30 57.5t-13.5 82
q0 103 62 164t173 61zM430 630h-135q-75 0 -117.5 -41.5t-42.5 -113.5t42.5 -113.5t117.5 -41.5h135v310z" />
    <glyph glyph-name="afii10065" unicode="&#x430;" horiz-adv-x="475" 
d="M205 50q54 0 89.5 38.5t35.5 101.5v50h-115q-105 0 -105 -95q0 -45 25 -70t70 -25zM230 525q76 0 123 -50.5t47 -139.5v-305q0 -15 -10 -25t-25 -10t-25 10t-10 25v20h-5q-1 -3 -3.5 -7t-12.5 -15.5t-22.5 -20t-34.5 -15.5t-47 -7q-78 0 -124 44t-46 116q0 73 47.5 116.5
t132.5 43.5h115v30q0 62 -26.5 93.5t-73.5 31.5q-14 0 -27 -4t-20.5 -7t-17.5 -13.5t-12.5 -13.5t-12.5 -17t-10 -15q-13 -20 -35 -20q-13 0 -21.5 8t-8.5 22q0 41 50.5 83t114.5 42z" />
    <glyph glyph-name="afii10066" unicode="&#x431;" horiz-adv-x="495" 
d="M250 50q54 0 89.5 40.5t35.5 109.5v45q0 69 -35.5 109.5t-89.5 40.5t-89.5 -40.5t-35.5 -109.5v-45q0 -69 35.5 -109.5t89.5 -40.5zM125 410v-10h5q5 7 14.5 17t41 26.5t64.5 16.5q84 0 139.5 -59.5t55.5 -155.5v-45q0 -96 -55.5 -155.5t-139.5 -59.5t-139.5 59.5
t-55.5 155.5v210q0 246 185 285l120 25q25 5 35 5q16 0 25.5 -8.5t9.5 -21.5q0 -29 -25 -35l-155 -35q-125 -28 -125 -215z" />
    <glyph glyph-name="afii10067" unicode="&#x432;" horiz-adv-x="495" 
d="M275 240h-125v-175h130q48 0 76.5 25.5t28.5 64.5q0 35 -29.5 60t-80.5 25zM270 445h-120v-140h125q40 0 62.5 19.5t22.5 50.5t-23 50.5t-67 19.5zM115 0q-15 0 -25 10t-10 25v440q0 15 10 25t25 10h160q74 0 114.5 -37t40.5 -98q0 -31 -15 -56t-30 -35l-15 -9v-5l9 -3
t20.5 -11.5t26 -21t20.5 -33t9 -46.5q0 -69 -47 -112t-128 -43h-165z" />
    <glyph glyph-name="afii10068" unicode="&#x433;" horiz-adv-x="390" 
d="M115 510h250q15 0 25 -9.5t10 -23.5q0 -13 -10 -22.5t-25 -9.5h-215v-415q0 -15 -10 -25t-25 -10t-25 10t-10 25v445q0 15 10 25t25 10z" />
    <glyph glyph-name="afii10069" unicode="&#x434;" horiz-adv-x="525" 
d="M35 65h10l6 6t13.5 20.5t16.5 36t13 54t6 73.5v220q0 15 10 25t25 10h255q15 0 25 -10t10 -25v-410h35q15 0 25 -10t10 -25v-135q0 -15 -10 -25t-25 -10t-25 10t-10 25v105h-355v-105q0 -15 -10 -25t-25 -10t-25 10t-10 25v135q0 15 10 25t25 10zM125 70v-5h230v380h-185
v-190q0 -60 -11 -106t-23 -63z" />
    <glyph glyph-name="afii10070" unicode="&#x435;" horiz-adv-x="485" 
d="M245 -15q-81 0 -135.5 59.5t-54.5 155.5v110q0 96 54.5 155.5t135.5 59.5t135.5 -59.5t54.5 -155.5v-55q0 -15 -10 -25t-25 -10h-275v-20q0 -69 34.5 -109.5t85.5 -40.5q77 0 116 80q13 25 34 25q15 0 25 -10t10 -25q0 -41 -57.5 -88t-127.5 -47zM125 310v-25h240v25
q0 69 -34.5 109.5t-85.5 40.5t-85.5 -40.5t-34.5 -109.5z" />
    <glyph glyph-name="afii10072" unicode="&#x436;" horiz-adv-x="620" 
d="M345 480v-185l190 205q15 15 30 15t25 -10t10 -25t-15 -30l-140 -150l140 -225q20 -33 20 -45q0 -15 -10 -25t-25 -10q-21 0 -30 15l-145 240l-50 -55v-165q0 -15 -10 -25t-25 -10t-25 10t-10 25v165l-50 55l-145 -240q-9 -15 -30 -15q-15 0 -25 10t-10 25q0 12 20 45
l140 225l-140 150q-15 15 -15 30t10 25t25 10t30 -15l190 -205v185q0 15 10 25t25 10t25 -10t10 -25z" />
    <glyph glyph-name="afii10073" unicode="&#x437;" horiz-adv-x="435" 
d="M215 240h-40q-15 0 -25 9.5t-10 22.5q0 14 10 23.5t25 9.5h35q43 0 71.5 24.5t28.5 55.5q0 28 -28.5 51.5t-71.5 23.5q-13 0 -24.5 -2t-21 -7t-16 -8.5t-14 -12.5t-10.5 -12.5t-10.5 -14.5t-8.5 -13q-13 -20 -35 -20q-14 0 -22 8t-8 22q0 41 51.5 83t118.5 42
q72 0 121 -42.5t49 -97.5q0 -31 -17.5 -57t-34.5 -37l-18 -11v-5q3 -1 9 -3.5t20.5 -13.5t26 -24t20.5 -37t9 -52q0 -73 -49 -116.5t-141 -43.5q-70 0 -127.5 47t-57.5 88q0 15 10 25t25 10q21 0 34 -25q39 -80 116 -80q58 0 89 26t31 69q0 42 -29.5 68.5t-80.5 26.5z" />
    <glyph glyph-name="afii10074" unicode="&#x438;" 
d="M380 370h-5l-220 -345q-18 -30 -40 -30q-14 0 -24.5 10.5t-10.5 24.5v450q0 15 10 25t25 10t25 -10t10 -25v-340h5l220 345q18 30 40 30q14 0 24.5 -10.5t10.5 -24.5v-450q0 -15 -10 -25t-25 -10t-25 10t-10 25v340z" />
    <glyph glyph-name="afii10075" unicode="&#x439;" 
d="M265 575q-56 0 -98 42t-42 98q0 13 8.5 21.5t21.5 8.5q21 0 30 -30q21 -75 80 -75t80 75q9 30 30 30q13 0 21.5 -8.5t8.5 -21.5q0 -56 -42 -98t-98 -42zM380 370h-5l-220 -345q-18 -30 -40 -30q-14 0 -24.5 10.5t-10.5 24.5v450q0 15 10 25t25 10t25 -10t10 -25v-340h5
l220 345q18 30 40 30q14 0 24.5 -10.5t10.5 -24.5v-450q0 -15 -10 -25t-25 -10t-25 10t-10 25v340z" />
    <glyph glyph-name="afii10076" unicode="&#x43a;" horiz-adv-x="450" 
d="M150 480v-210l215 230q15 15 30 15t25 -10t10 -25t-15 -30l-140 -150l140 -225q20 -33 20 -45q0 -15 -10 -25t-25 -10q-21 0 -30 15l-145 240l-75 -85v-135q0 -15 -10 -25t-25 -10t-25 10t-10 25v450q0 15 10 25t25 10t25 -10t10 -25z" />
    <glyph glyph-name="afii10077" unicode="&#x43b;" horiz-adv-x="505" 
d="M105 255v220q0 15 10 25t25 10h250q15 0 25 -10t10 -25v-445q0 -15 -10 -25t-25 -10t-25 10t-10 25v415h-180v-190q0 -135 -42 -202.5t-98 -67.5q-15 0 -25 10t-10 25q0 21 30 35q32 15 53.5 65.5t21.5 134.5z" />
    <glyph glyph-name="afii10078" unicode="&#x43c;" horiz-adv-x="650" 
d="M325 60q-42 0 -55 40l-101 280h-4l-50 -350q-5 -35 -35 -35q-15 0 -25 10t-10 25t5 40l60 410q2 13 13.5 24t31.5 11q31 0 45 -35l122 -325h6l122 325q14 35 45 35q20 0 31.5 -11t13.5 -24l60 -410q5 -25 5 -40t-10 -25t-25 -10q-30 0 -35 35l-50 350h-4l-101 -280
q-13 -40 -55 -40z" />
    <glyph glyph-name="afii10079" unicode="&#x43d;" 
d="M450 480v-450q0 -15 -10 -25t-25 -10t-25 10t-10 25v195h-230v-195q0 -15 -10 -25t-25 -10t-25 10t-10 25v450q0 15 10 25t25 10t25 -10t10 -25v-190h230v190q0 15 10 25t25 10t25 -10t10 -25z" />
    <glyph glyph-name="afii10080" unicode="&#x43e;" horiz-adv-x="500" 
d="M250 525q84 0 139.5 -59.5t55.5 -155.5v-110q0 -96 -55.5 -155.5t-139.5 -59.5t-139.5 59.5t-55.5 155.5v110q0 96 55.5 155.5t139.5 59.5zM250 50q54 0 89.5 40.5t35.5 109.5v110q0 69 -35.5 109.5t-89.5 40.5t-89.5 -40.5t-35.5 -109.5v-110q0 -69 35.5 -109.5
t89.5 -40.5z" />
    <glyph glyph-name="afii10081" unicode="&#x43f;" 
d="M450 475v-445q0 -15 -10 -25t-25 -10t-25 10t-10 25v415h-230v-415q0 -15 -10 -25t-25 -10t-25 10t-10 25v445q0 15 10 25t25 10h300q15 0 25 -10t10 -25z" />
    <glyph glyph-name="afii10082" unicode="&#x440;" horiz-adv-x="515" 
d="M270 460q-50 0 -85 -39t-35 -101v-120q0 -69 34.5 -109.5t85.5 -40.5t85.5 40.5t34.5 109.5v110q0 69 -34.5 109.5t-85.5 40.5zM80 -175v655q0 15 10 25t25 10t25 -10t10 -25v-20h5q1 3 3.5 7t12.5 15.5t22 20t32.5 15.5t44.5 7q81 0 135.5 -59.5t54.5 -155.5v-110
q0 -96 -54.5 -155.5t-135.5 -59.5q-33 0 -62 15t-41 30l-12 15h-5v-220q0 -15 -10 -25t-25 -10t-25 10t-10 25z" />
    <glyph glyph-name="afii10083" unicode="&#x441;" horiz-adv-x="465" 
d="M250 -15q-84 0 -139.5 59.5t-55.5 155.5v110q0 96 55.5 155.5t139.5 59.5q67 0 118.5 -42t51.5 -83q0 -14 -8 -22t-22 -8q-22 0 -35 20q-1 2 -8.5 13t-10.5 14.5t-10.5 12.5t-14 12.5t-16 8.5t-21 7t-24.5 2q-54 0 -89.5 -40.5t-35.5 -109.5v-110q0 -69 35.5 -109.5
t89.5 -40.5q77 0 116 80q12 25 34 25q15 0 25 -10t10 -25q0 -41 -57.5 -88t-127.5 -47z" />
    <glyph glyph-name="afii10084" unicode="&#x442;" horiz-adv-x="390" 
d="M355 445h-125v-415q0 -15 -10 -25t-25 -10t-25 10t-10 25v415h-125q-15 0 -25 9.5t-10 22.5q0 14 10 23.5t25 9.5h320q15 0 25 -9.5t10 -23.5q0 -13 -10 -22.5t-25 -9.5z" />
    <glyph glyph-name="afii10085" unicode="&#x443;" horiz-adv-x="425" 
d="M405 440l-225 -625q-12 -35 -40 -35q-15 0 -25 10t-10 25q0 7 10 40l55 155l-150 430q-10 27 -10 40q0 15 10 25t25 10q28 0 40 -35l125 -355h5l125 355q11 35 40 35q15 0 25 -10t10 -25t-10 -40z" />
    <glyph glyph-name="afii10086" unicode="&#x444;" horiz-adv-x="690" 
d="M55 175v160q0 85 48.5 137.5t121.5 52.5q22 0 42 -6.5t29 -12.5l9 -6h5v185q0 15 10 25t25 10t25 -10t10 -25v-185h5q30 25 80 25q73 0 121.5 -52.5t48.5 -137.5v-160q0 -85 -48.5 -137.5t-121.5 -52.5q-22 0 -42 6.5t-29 12.5l-9 6h-5v-195q0 -15 -10 -25t-25 -10
t-25 10t-10 25v195h-5q-30 -25 -80 -25q-73 0 -121.5 52.5t-48.5 137.5zM225 50q22 0 43.5 9t31.5 17l10 9v340q-35 35 -85 35q-43 0 -71.5 -33.5t-28.5 -91.5v-160q0 -58 28.5 -91.5t71.5 -33.5zM465 460q-22 0 -43.5 -9t-31.5 -17l-10 -9v-340q35 -35 85 -35
q43 0 71.5 33.5t28.5 91.5v160q0 58 -28.5 91.5t-71.5 33.5z" />
    <glyph glyph-name="afii10087" unicode="&#x445;" horiz-adv-x="415" 
d="M210 200h-5l-115 -180q-15 -25 -40 -25q-15 0 -25 10t-10 25q0 18 15 40l129 195l-109 175q-15 25 -15 40t10 25t25 10q12 0 20.5 -5.5t12.5 -10.5t12 -19l90 -150h5l90 150q8 14 12 19t12.5 10.5t20.5 5.5q15 0 25 -10t10 -25t-15 -40l-109 -175l129 -195q15 -22 15 -40
q0 -15 -10 -25t-25 -10q-25 0 -40 25z" />
    <glyph glyph-name="afii10088" unicode="&#x446;" horiz-adv-x="535" 
d="M505 30v-135q0 -15 -10 -25t-25 -10t-25 10t-10 25v105h-320q-15 0 -25 10t-10 25v445q0 15 10 25t25 10t25 -10t10 -25v-415h220v415q0 15 10 25t25 10t25 -10t10 -25v-415h30q15 0 25 -10t10 -25z" />
    <glyph glyph-name="afii10089" unicode="&#x447;" horiz-adv-x="490" 
d="M60 355v125q0 15 10 25t25 10t25 -10t10 -25v-125q0 -62 29 -96t76 -34q29 0 55 8.5t38 17.5l12 9v220q0 15 10 25t25 10t25 -10t10 -25v-450q0 -15 -10 -25t-25 -10t-25 10t-10 25v165q-45 -35 -125 -35q-66 0 -110.5 52t-44.5 143z" />
    <glyph glyph-name="afii10090" unicode="&#x448;" horiz-adv-x="730" 
d="M615 0h-500q-15 0 -25 10t-10 25v445q0 15 10 25t25 10t25 -10t10 -25v-415h180v415q0 15 10 25t25 10t25 -10t10 -25v-415h180v415q0 15 10 25t25 10t25 -10t10 -25v-445q0 -15 -10 -25t-25 -10z" />
    <glyph glyph-name="afii10091" unicode="&#x449;" horiz-adv-x="745" 
d="M715 30v-135q0 -15 -10 -25t-25 -10t-25 10t-10 25v105h-530q-15 0 -25 10t-10 25v445q0 15 10 25t25 10t25 -10t10 -25v-415h180v415q0 15 10 25t25 10t25 -10t10 -25v-415h180v415q0 15 10 25t25 10t25 -10t10 -25v-415h30q15 0 25 -10t10 -25z" />
    <glyph glyph-name="afii10092" unicode="&#x44a;" horiz-adv-x="495" 
d="M160 0q-15 0 -25 10t-10 25v410h-90q-15 0 -25 9.5t-10 22.5q0 14 10 23.5t25 9.5h125q15 0 25 -10t10 -25v-135h80q89 0 139.5 -47t50.5 -123t-50.5 -123t-139.5 -47h-115zM275 275h-80v-210h80q55 0 87.5 29.5t32.5 75.5t-32.5 75.5t-87.5 29.5z" />
    <glyph glyph-name="afii10093" unicode="&#x44b;" horiz-adv-x="640" 
d="M150 480v-140h80q89 0 139.5 -47t50.5 -123t-50.5 -123t-139.5 -47h-115q-15 0 -25 10t-10 25v445q0 15 10 25t25 10t25 -10t10 -25zM560 480v-450q0 -15 -10 -25t-25 -10t-25 10t-10 25v450q0 15 10 25t25 10t25 -10t10 -25zM230 275h-80v-210h80q55 0 87.5 29.5
t32.5 75.5t-32.5 75.5t-87.5 29.5z" />
    <glyph glyph-name="afii10094" unicode="&#x44c;" horiz-adv-x="470" 
d="M150 480v-140h95q89 0 139.5 -47t50.5 -123t-50.5 -123t-139.5 -47h-130q-15 0 -25 10t-10 25v445q0 15 10 25t25 10t25 -10t10 -25zM245 275h-95v-210h95q55 0 87.5 29.5t32.5 75.5t-32.5 75.5t-87.5 29.5z" />
    <glyph glyph-name="afii10095" unicode="&#x44d;" horiz-adv-x="465" 
d="M215 -15q-70 0 -127.5 47t-57.5 88q0 15 10 25t25 10q21 0 34 -25q39 -80 116 -80q54 0 89.5 40.5t35.5 109.5v25h-155q-15 0 -25 9.5t-10 22.5q0 14 10 23.5t25 9.5h155v20q0 69 -35.5 109.5t-89.5 40.5q-13 0 -24.5 -2t-21 -7t-16 -8.5t-14 -12.5t-10.5 -12.5
t-10.5 -14.5t-8.5 -13q-13 -20 -35 -20q-13 0 -21.5 8t-8.5 22q0 41 51.5 83t118.5 42q84 0 139.5 -59.5t55.5 -155.5v-110q0 -96 -55.5 -155.5t-139.5 -59.5z" />
    <glyph glyph-name="afii10096" unicode="&#x44e;" horiz-adv-x="665" 
d="M425 525q80 0 132.5 -56.5t52.5 -148.5v-130q0 -92 -52.5 -148.5t-132.5 -56.5t-132.5 56.5t-52.5 148.5v35h-90v-195q0 -15 -10 -25t-25 -10t-25 10t-10 25v450q0 15 10 25t25 10t25 -10t10 -25v-190h90v30q0 92 52.5 148.5t132.5 56.5zM425 50q50 0 82.5 37t32.5 103
v130q0 66 -32.5 103t-82.5 37t-82.5 -37t-32.5 -103v-130q0 -66 32.5 -103t82.5 -37z" />
    <glyph glyph-name="afii10097" unicode="&#x44f;" horiz-adv-x="485" 
d="M335 30v150h-140l-100 -170q-9 -15 -30 -15q-15 0 -25 10t-10 25q0 12 20 45l80 130v5q-3 1 -9 3.5t-20.5 13t-26 24t-20.5 39t-9 55.5q0 73 50 119t135 46h140q15 0 25 -10t10 -25v-445q0 -15 -10 -25t-25 -10t-25 10t-10 25zM230 245h105v200h-105q-52 0 -81 -27
t-29 -73t29 -73t81 -27z" />
    <glyph glyph-name="afii10071" unicode="&#x451;" horiz-adv-x="485" 
d="M245 -15q-81 0 -135.5 59.5t-54.5 155.5v110q0 96 54.5 155.5t135.5 59.5t135.5 -59.5t54.5 -155.5v-55q0 -15 -10 -25t-25 -10h-275v-20q0 -69 34.5 -109.5t85.5 -40.5q77 0 116 80q13 25 34 25q15 0 25 -10t10 -25q0 -41 -57.5 -88t-127.5 -47zM125 310v-25h240v25
q0 69 -34.5 109.5t-85.5 40.5t-85.5 -40.5t-34.5 -109.5zM120 660q0 22 13 36t32 14t32 -14t13 -36t-13 -36t-32 -14t-32 14t-13 36zM280 660q0 22 13 36t32 14t32 -14t13 -36t-13 -36t-32 -14t-32 14t-13 36z" />
    <glyph glyph-name="afii10099" unicode="&#x452;" horiz-adv-x="505" 
d="M385 225q0 82 -31 123.5t-79 41.5q-50 0 -85 -39t-35 -101v-220q0 -15 -10 -25t-25 -10t-25 10t-10 25v505h-40q-15 0 -25 9.5t-10 22.5q0 14 10 23.5t25 9.5h40v85q0 15 10 25t25 10t25 -10t10 -25v-85h110q15 0 25 -9.5t10 -22.5q0 -14 -10 -23.5t-25 -9.5h-110v-145h5
q1 3 3.5 7t12.5 15.5t22 20t32.5 15.5t44.5 7q78 0 129 -60.5t51 -169.5q0 -122 -46.5 -193.5t-98.5 -71.5q-15 0 -25 10t-10 25q0 22 30 35q37 15 58.5 67.5t21.5 127.5z" />
    <glyph glyph-name="afii10100" unicode="&#x453;" horiz-adv-x="390" 
d="M230 660l50 115q7 15 10 20.5t9.5 10t15.5 4.5q13 0 21.5 -8.5t8.5 -21.5q0 -10 -10 -30l-70 -140q-10 -20 -25 -20q-25 0 -25 25q0 11 15 45zM115 510h250q15 0 25 -9.5t10 -23.5q0 -13 -10 -22.5t-25 -9.5h-215v-415q0 -15 -10 -25t-25 -10t-25 10t-10 25v445
q0 15 10 25t25 10z" />
    <glyph glyph-name="afii10101" unicode="&#x454;" horiz-adv-x="465" 
d="M250 -15q-84 0 -139.5 59.5t-55.5 155.5v110q0 96 55.5 155.5t139.5 59.5q67 0 118.5 -42t51.5 -83q0 -14 -8 -22t-22 -8q-22 0 -35 20q-1 2 -8.5 13t-10.5 14.5t-10.5 12.5t-14 12.5t-16 8.5t-21 7t-24.5 2q-54 0 -89.5 -40.5t-35.5 -109.5v-20h140q15 0 25 -9.5
t10 -22.5q0 -14 -10 -23.5t-25 -9.5h-140v-25q0 -69 35.5 -109.5t89.5 -40.5q77 0 116 80q12 25 34 25q15 0 25 -10t10 -25q0 -41 -57.5 -88t-127.5 -47z" />
    <glyph glyph-name="afii10102" unicode="&#x455;" horiz-adv-x="435" 
d="M215 50q59 0 89.5 27t30.5 73q0 29 -29.5 46.5t-71 28.5t-83.5 25t-71.5 45.5t-29.5 79.5q0 61 48.5 105.5t121.5 44.5q67 0 118.5 -42t51.5 -83q0 -14 -8 -22t-22 -8q-22 0 -35 20q-1 2 -8.5 13t-10.5 14.5t-10.5 12.5t-14 12.5t-16 8.5t-21 7t-24.5 2q-44 0 -72 -25
t-28 -60q0 -29 29.5 -46.5t71 -28.5t83.5 -25t71.5 -45.5t29.5 -79.5q0 -77 -49 -121t-141 -44q-70 0 -127.5 47t-57.5 88q0 15 10 25t25 10q21 0 34 -25q39 -80 116 -80z" />
    <glyph glyph-name="afii10103" unicode="&#x456;" horiz-adv-x="230" 
d="M150 480v-450q0 -15 -10 -25t-25 -10t-25 10t-10 25v450q0 15 10 25t25 10t25 -10t10 -25zM70 660q0 22 13 36t32 14t32 -14t13 -36t-13 -36t-32 -14t-32 14t-13 36z" />
    <glyph glyph-name="afii10104" unicode="&#x457;" horiz-adv-x="230" 
d="M-10 660q0 22 13 36t32 14t32 -14t13 -36t-13 -36t-32 -14t-32 14t-13 36zM150 660q0 22 13 36t32 14t32 -14t13 -36t-13 -36t-32 -14t-32 14t-13 36zM150 480v-450q0 -15 -10 -25t-25 -10t-25 10t-10 25v450q0 15 10 25t25 10t25 -10t10 -25z" />
    <glyph glyph-name="afii10105" unicode="&#x458;" horiz-adv-x="230" 
d="M70 660q0 22 13 36t32 14t32 -14t13 -36t-13 -36t-32 -14t-32 14t-13 36zM150 480v-425q0 -125 -52.5 -200t-112.5 -75q-15 0 -25 10t-10 25q0 14 9 23t21 12q45 11 72.5 68.5t27.5 136.5v425q0 15 10 25t25 10t25 -10t10 -25z" />
    <glyph glyph-name="afii10106" unicode="&#x459;" horiz-adv-x="710" 
d="M340 35v410h-165v-190q0 -135 -42 -202.5t-98 -67.5q-15 0 -25 10t-10 25q0 21 30 35q32 15 53.5 65.5t21.5 134.5v220q0 15 10 25t25 10h235q15 0 25 -10t10 -25v-135h80q89 0 139.5 -47t50.5 -123t-50.5 -123t-139.5 -47h-115q-15 0 -25 10t-10 25zM490 275h-80v-210
h80q55 0 87.5 29.5t32.5 75.5t-32.5 75.5t-87.5 29.5z" />
    <glyph glyph-name="afii10107" unicode="&#x45a;" horiz-adv-x="735" 
d="M350 35v210h-200v-215q0 -15 -10 -25t-25 -10t-25 10t-10 25v450q0 15 10 25t25 10t25 -10t10 -25v-170h200v170q0 15 10 25t25 10t25 -10t10 -25v-170h110q81 0 128 -43t47 -112t-47 -112t-128 -43h-145q-15 0 -25 10t-10 25zM525 245h-105v-180h105q48 0 76.5 25.5
t28.5 64.5t-28.5 64.5t-76.5 25.5z" />
    <glyph glyph-name="afii10108" unicode="&#x45b;" 
d="M45 600h40v85q0 15 10 25t25 10t25 -10t10 -25v-85h110q15 0 25 -9.5t10 -22.5q0 -14 -10 -23.5t-25 -9.5h-110v-145h5q1 3 3.5 7t12.5 15.5t22 20t32.5 15.5t44.5 7q77 0 128.5 -56.5t51.5 -148.5v-220q0 -15 -10 -25t-25 -10t-25 10t-10 25v220q0 65 -31.5 102.5
t-78.5 37.5q-50 0 -85 -39t-35 -101v-220q0 -15 -10 -25t-25 -10t-25 10t-10 25v505h-40q-15 0 -25 9.5t-10 22.5q0 14 10 23.5t25 9.5z" />
    <glyph glyph-name="afii10109" unicode="&#x45c;" horiz-adv-x="450" 
d="M245 680l50 115q7 15 10 20.5t9.5 10t15.5 4.5q13 0 21.5 -8.5t8.5 -21.5q0 -10 -10 -30l-70 -140q-10 -20 -25 -20q-25 0 -25 25q0 11 15 45zM150 480v-210l215 230q15 15 30 15t25 -10t10 -25t-15 -30l-140 -150l140 -225q20 -33 20 -45q0 -15 -10 -25t-25 -10
q-21 0 -30 15l-145 240l-75 -85v-135q0 -15 -10 -25t-25 -10t-25 10t-10 25v450q0 15 10 25t25 10t25 -10t10 -25z" />
    <glyph glyph-name="afii10110" unicode="&#x45e;" horiz-adv-x="425" 
d="M405 440l-225 -625q-12 -35 -40 -35q-15 0 -25 10t-10 25q0 7 10 40l55 155l-150 430q-10 27 -10 40q0 15 10 25t25 10q28 0 40 -35l125 -355h5l125 355q11 35 40 35q15 0 25 -10t10 -25t-10 -40zM215 575q-56 0 -98 42t-42 98q0 13 8.5 21.5t21.5 8.5q21 0 30 -30
q21 -75 80 -75t80 75q9 30 30 30q13 0 21.5 -8.5t8.5 -21.5q0 -56 -42 -98t-98 -42z" />
    <glyph glyph-name="afii10193" unicode="&#x45f;" 
d="M450 480v-445q0 -15 -10 -25t-25 -10h-115v-105q0 -15 -10 -25t-25 -10t-25 10t-10 25v105h-115q-15 0 -25 10t-10 25v445q0 15 10 25t25 10t25 -10t10 -25v-415h230v415q0 15 10 25t25 10t25 -10t10 -25z" />
    <glyph glyph-name="afii10050" unicode="&#x490;" horiz-adv-x="485" 
d="M175 630v-595q0 -40 -40 -40q-15 0 -25 11t-10 29v625q0 18 10 29t25 11h285v70q0 40 40 40q15 0 25 -11t10 -29v-100q0 -18 -10 -29t-25 -11h-285z" />
    <glyph glyph-name="afii10098" unicode="&#x491;" horiz-adv-x="395" 
d="M405 585v-105q0 -15 -10 -25t-25 -10h-220v-415q0 -15 -10 -25t-25 -10t-25 10t-10 25v445q0 15 10 25t25 10h220v75q0 15 10 25t25 10t25 -10t10 -25z" />
    <glyph glyph-name="uni1E9E" unicode="&#x1e9e;" horiz-adv-x="590" 
d="M325 -10q-14 0 -24.5 10.5t-10.5 24.5t10.5 24.5t24.5 10.5q67 0 108.5 41t41.5 109t-41.5 109t-108.5 41q-16 0 -25.5 10t-9.5 25t15 45l90 185v5h-75q-71 0 -113 -52t-42 -153v-390q0 -40 -40 -40q-15 0 -25 11t-10 29v390q0 132 63 203.5t167 71.5h125q40 0 40 -40
q0 -8 -15 -40l-95 -190v-5q7 -1 19 -4t42 -17.5t53 -35.5t42 -63t19 -95q0 -98 -62 -159t-163 -61z" />
    <glyph glyph-name="endash" unicode="&#x2013;" 
d="M65 355h400q15 0 25 -9.5t10 -22.5q0 -14 -10 -23.5t-25 -9.5h-400q-15 0 -25 9.5t-10 22.5q0 14 10 23.5t25 9.5z" />
    <glyph glyph-name="emdash" unicode="&#x2014;" horiz-adv-x="730" 
d="M65 355h600q15 0 25 -9.5t10 -22.5q0 -14 -10 -23.5t-25 -9.5h-600q-15 0 -25 9.5t-10 22.5q0 14 10 23.5t25 9.5z" />
    <glyph glyph-name="quoteleft" unicode="&#x2018;" horiz-adv-x="190" 
d="M140 555q0 -22 -13 -36t-32 -14q-20 0 -32.5 15.5t-12.5 44.5q0 63 31 104t64 41q15 0 15 -15q0 -11 -10 -15q-50 -22 -50 -75q4 -1 11 -3t18 -14.5t11 -32.5z" />
    <glyph glyph-name="quoteright" unicode="&#x2019;" horiz-adv-x="190" 
d="M50 660q0 22 13 36t32 14q20 0 32.5 -15.5t12.5 -44.5q0 -63 -31 -104t-64 -41q-15 0 -15 15q0 11 10 15q50 23 50 75q-4 1 -11 3t-18 14.5t-11 32.5z" />
    <glyph glyph-name="quotesinglbase" unicode="&#x201a;" horiz-adv-x="190" 
d="M50 40q0 22 13 36t32 14q20 0 32.5 -15.5t12.5 -44.5q0 -63 -31 -104t-64 -41q-15 0 -15 15q0 11 10 15q50 23 50 75q-4 1 -11 3t-18 14.5t-11 32.5z" />
    <glyph glyph-name="quotedblleft" unicode="&#x201c;" horiz-adv-x="335" 
d="M285 555q0 -22 -13 -36t-32 -14q-20 0 -32.5 15.5t-12.5 44.5q0 63 31 104t64 41q15 0 15 -15q0 -11 -10 -15q-50 -22 -50 -75q4 -1 11 -3t18 -14.5t11 -32.5zM140 555q0 -22 -13 -36t-32 -14q-20 0 -32.5 15.5t-12.5 44.5q0 63 31 104t64 41q15 0 15 -15q0 -11 -10 -15
q-50 -22 -50 -75q4 -1 11 -3t18 -14.5t11 -32.5z" />
    <glyph glyph-name="quotedblright" unicode="&#x201d;" horiz-adv-x="335" 
d="M50 660q0 22 13 36t32 14q20 0 32.5 -15.5t12.5 -44.5q0 -63 -31 -104t-64 -41q-15 0 -15 15q0 11 10 15q50 23 50 75q-4 1 -11 3t-18 14.5t-11 32.5zM195 660q0 22 13 36t32 14q20 0 32.5 -15.5t12.5 -44.5q0 -63 -31 -104t-64 -41q-15 0 -15 15q0 11 10 15q50 23 50 75
q-4 1 -11 3t-18 14.5t-11 32.5z" />
    <glyph glyph-name="quotedblbase" unicode="&#x201e;" horiz-adv-x="335" 
d="M50 40q0 22 13 36t32 14q20 0 32.5 -15.5t12.5 -44.5q0 -63 -31 -104t-64 -41q-15 0 -15 15q0 11 10 15q50 23 50 75q-4 1 -11 3t-18 14.5t-11 32.5zM195 40q0 22 13 36t32 14q20 0 32.5 -15.5t12.5 -44.5q0 -63 -31 -104t-64 -41q-15 0 -15 15q0 11 10 15q50 22 50 75
q-4 1 -11 3t-18 14.5t-11 32.5z" />
    <glyph glyph-name="dagger" unicode="&#x2020;" horiz-adv-x="475" 
d="M410 430h-135v-450q0 -40 -40 -40q-15 0 -25 11t-10 29v450h-135q-15 0 -25 10t-10 25t10 25t25 10h135v210q0 18 10 29t25 11q40 0 40 -40v-210h135q15 0 25 -10t10 -25t-10 -25t-25 -10z" />
    <glyph glyph-name="daggerdbl" unicode="&#x2021;" horiz-adv-x="495" 
d="M420 145h-135v-165q0 -40 -40 -40q-15 0 -25 11t-10 29v165h-135q-15 0 -25 10t-10 25t10 25t25 10h135v260h-135q-15 0 -25 10t-10 25t10 25t25 10h135v165q0 18 10 29t25 11q40 0 40 -40v-165h135q15 0 25 -10t10 -25t-10 -25t-25 -10h-135v-260h135q15 0 25 -10
t10 -25t-10 -25t-25 -10z" />
    <glyph glyph-name="bullet" unicode="&#x2022;" horiz-adv-x="310" 
d="M155 235q-31 0 -53 24t-22 61t22 61t53 24t53 -24t22 -61t-22 -61t-53 -24z" />
    <glyph glyph-name="ellipsis" unicode="&#x2026;" horiz-adv-x="620" 
d="M50 40q0 22 13 36t32 14t32 -14t13 -36t-13 -36t-32 -14t-32 14t-13 36zM265 40q0 22 13 36t32 14t32 -14t13 -36t-13 -36t-32 -14t-32 14t-13 36zM480 40q0 22 13 36t32 14t32 -14t13 -36t-13 -36t-32 -14t-32 14t-13 36z" />
    <glyph glyph-name="perthousand" unicode="&#x2030;" horiz-adv-x="980" 
d="M590 140v45q0 50 -19 75t-51 25t-51 -25t-19 -75v-45q0 -50 19 -75t51 -25t51 25t19 75zM390 140v45q0 73 36 114t94 41t94 -41t36 -114v-45q0 -73 -36 -114t-94 -41t-94 41t-36 114zM540 625l-355 -630q-9 -15 -30 -15q-15 0 -25 10t-10 25q0 12 20 45l355 630
q9 15 30 15q15 0 25 -10t10 -25q0 -12 -20 -45zM230 500v45q0 50 -19 75t-51 25t-51 -25t-19 -75v-45q0 -50 19 -75t51 -25t51 25t19 75zM30 500v45q0 73 36 114t94 41t94 -41t36 -114v-45q0 -73 -36 -114t-94 -41t-94 41t-36 114zM890 140v45q0 50 -19 75t-51 25t-51 -25
t-19 -75v-45q0 -50 19 -75t51 -25t51 25t19 75zM690 140v45q0 73 36 114t94 41t94 -41t36 -114v-45q0 -73 -36 -114t-94 -41t-94 41t-36 114z" />
    <glyph glyph-name="guilsinglleft" unicode="&#x2039;" horiz-adv-x="330" 
d="M225 30l-160 175q-25 27 -25 50q0 22 25 50l160 175q20 20 35 20q13 0 21.5 -9.5t8.5 -25.5q0 -15 -15 -30l-160 -175v-10l160 -175q15 -15 15 -30q0 -16 -8.5 -25.5t-21.5 -9.5q-15 0 -35 20z" />
    <glyph glyph-name="guilsinglright" unicode="&#x203a;" horiz-adv-x="330" 
d="M105 480l160 -175q25 -27 25 -50q0 -22 -25 -50l-160 -175q-20 -20 -35 -20q-13 0 -21.5 9.5t-8.5 25.5q0 15 15 30l160 175v10l-160 175q-15 15 -15 30q0 16 8.5 25.5t21.5 9.5q15 0 35 -20z" />
    <glyph glyph-name="fraction" unicode="&#x2044;" horiz-adv-x="480" 
d="M440 625l-355 -630q-9 -15 -30 -15q-15 0 -25 10t-10 25q0 12 20 45l355 630q9 15 30 15q15 0 25 -10t10 -25q0 -12 -20 -45z" />
    <glyph glyph-name="foursuperior" unicode="&#x2074;" horiz-adv-x="310" 
d="M176 625l-90 -125v-5h94v130h-4zM40 515l125 170q15 20 40 20q15 0 25 -10t10 -25v-175h20q30 0 30 -27q0 -28 -30 -28h-20v-50q0 -13 -8.5 -21.5t-21.5 -8.5t-21.5 8.5t-8.5 21.5v50h-125q-15 0 -25 10t-10 25q0 14 20 40z" />
    <glyph glyph-name="Euro" unicode="&#x20ac;" horiz-adv-x="595" 
d="M170 315h195q15 0 25 -10t10 -25t-10 -25t-25 -10h-195q5 -96 49.5 -145.5t115.5 -49.5q52 0 91.5 27t58.5 73q12 30 40 30q15 0 25 -10t10 -25q0 -28 -24 -65q-26 -43 -80 -71.5t-121 -28.5q-104 0 -169.5 69.5t-70.5 195.5h-40q-15 0 -25 10t-10 25t10 25t25 10h40v70
h-40q-15 0 -25 10t-10 25t10 25t25 10h40q5 126 70.5 195.5t169.5 69.5q86 0 150.5 -48.5t64.5 -91.5q0 -18 -10 -29t-25 -11q-7 0 -12.5 2t-10.5 7t-7.5 8t-7.5 11.5t-7 11.5q-23 35 -60.5 52.5t-74.5 17.5q-71 0 -115.5 -50t-49.5 -145h195q15 0 25 -10t10 -25t-10 -25
t-25 -10h-195v-70z" />
    <glyph glyph-name="uni20B4" unicode="&#x20b4;" horiz-adv-x="569" 
d="M494 375h-419q-15 0 -25 10t-10 25t10 25t25 10h301l3 3q3 3 8.5 9.5t10.5 15.5t8.5 23t3.5 29q0 57 -35 91t-95 34q-30 0 -66 -18t-59 -52q-2 -3 -7 -11.5t-7.5 -11.5t-7.5 -8t-10.5 -7t-12.5 -2q-15 0 -25 11t-10 29q0 42 62.5 91t142.5 49q93 0 149 -54t56 -141
q0 -20 -6.5 -40t-12.5 -30l-6 -10h34q15 0 25 -10t10 -25t-10 -25t-25 -10zM75 325h419q15 0 25 -10t10 -25t-10 -25t-25 -10h-301l-3 -3q-3 -3 -8.5 -9.5t-10.5 -15.5t-8.5 -23t-3.5 -29q0 -57 35 -91t95 -34q30 0 66 18t59 52q2 3 7 11.5t7.5 11.5t7.5 8t10.5 7t12.5 2
q15 0 25 -11t10 -29q0 -42 -62.5 -91t-142.5 -49q-93 0 -149 54t-56 141q0 20 6 40t12 30l7 10h-34q-15 0 -25 10t-10 25t10 25t25 10z" />
    <glyph glyph-name="uni20BD" unicode="&#x20bd;" horiz-adv-x="580" 
d="M65 215h35v65h-35q-15 0 -25 10t-10 25t10 25t25 10h35v310q0 18 10 29t25 11h185q104 0 162 -56t58 -154t-58 -154t-162 -56h-145v-65h225q15 0 25 -10t10 -25t-10 -25t-25 -10h-225v-110q0 -40 -40 -40q-15 0 -25 11t-10 29v110h-35q-15 0 -25 10t-10 25t10 25t25 10z
M320 630h-145v-280h145q67 0 106 38t39 102t-39 102t-106 38z" />
    <glyph glyph-name="afii61352" unicode="&#x2116;" horiz-adv-x="960" 
d="M480 30l-300 505h-5v-500q0 -40 -40 -40q-15 0 -25 11t-10 29v630q0 18 10 29t25 11q29 0 50 -35l300 -505h5v500q0 18 10 29t25 11q40 0 40 -40v-630q0 -18 -10 -29t-25 -11q-29 0 -50 35zM850 510v45q0 50 -19 75t-51 25t-51 -25t-19 -75v-45q0 -50 19 -75t51 -25
t51 25t19 75zM650 510v45q0 73 36 114t94 41t94 -41t36 -114v-45q0 -73 -36 -114t-94 -41t-94 41t-36 114zM685 270h190q15 0 25 -9.5t10 -22.5q0 -14 -10 -23.5t-25 -9.5h-190q-15 0 -25 9.5t-10 22.5q0 14 10 23.5t25 9.5z" />
    <glyph glyph-name="trademark" unicode="&#x2122;" horiz-adv-x="721" 
d="M490 510l76 160q17 35 39 35q13 0 21 -9t10 -21l40 -260q5 -30 5 -45q0 -12 -9.5 -21t-22.5 -9q-29 0 -33 30l-28 185h-4l-68 -140q-10 -20 -28 -20t-28 20l-68 140h-4l-28 -185q-4 -30 -33 -30q-13 0 -22.5 9t-9.5 21q0 15 5 45l40 260q2 12 10 21t21 9q22 0 39 -35
l76 -160h4zM115 640h-85q-14 0 -22 8t-8 22t8 22t22 8h235q13 0 21.5 -8t8.5 -22t-8.5 -22t-21.5 -8h-85v-265q0 -15 -9.5 -25t-23.5 -10t-23 9.5t-9 25.5v265z" />
    <glyph glyph-name="minus" unicode="&#x2212;" horiz-adv-x="460" 
d="M65 375h330q15 0 25 -9.5t10 -22.5q0 -14 -10 -23.5t-25 -9.5h-330q-15 0 -25 9.5t-10 22.5q0 14 10 23.5t25 9.5z" />
    <glyph glyph-name="commaaccent" unicode="&#xf6c3;" horiz-adv-x="185" 
d="M55 -95q0 19 13 32t32 13t32 -14t13 -36q0 -60 -28.5 -97.5t-61.5 -37.5q-15 0 -15 15q0 11 10 15q46 21 46 65q-5 0 -11.5 1t-18 12.5t-11.5 31.5z" />
    <glyph glyph-name="cyrBreve" unicode="&#xf6d1;" horiz-adv-x="390" 
d="M195 750q-67 0 -111 43t-44 107q0 14 10 24.5t25 10.5q25 0 35 -35q10 -37 29 -58.5t56 -21.5t56 21.5t29 58.5q10 35 35 35q15 0 25 -10.5t10 -24.5q0 -64 -44 -107t-111 -43z" />
    <glyph glyph-name="cyrbreve" unicode="&#xf6d4;" horiz-adv-x="360" 
d="M180 575q-56 0 -98 42t-42 98q0 13 8 21.5t22 8.5q21 0 30 -30q21 -75 80 -75t80 75q9 30 30 30q14 0 22 -8.5t8 -21.5q0 -56 -42 -98t-98 -42z" />
    <glyph glyph-name="foundryicon" horiz-adv-x="1230" 
d="M100 -110v920h1030v-920h-1030zM1110 -90v880h-990v-880h990zM635 610h110q36 0 58 -19t22 -46t-22 -46t-58 -19h-55v-80h-55v210zM635 300h110q36 0 58 -19t22 -46t-22 -46t-58 -19h-55v-80h-55v210zM495 170l-75 130h60l40 -75h5l40 75h65l-80 -130v-80h-55v80z
M495 480l-75 130h60l40 -75h5l40 75h65l-80 -130v-80h-55v80zM300 255h-65v45h165l25 -45h-70v-165h-55v165zM300 565h-65v45h165l25 -45h-70v-165h-55v165zM790 400v65q20 4 38 21t22 39h80v-45h-85v-35h120v-45h-175zM790 90v65q20 4 38 21t22 39h80v-45h-85v-35h120v-45
h-175zM810 300h155v-45h-115q-9 37 -40 45zM810 610h155v-45h-115q-9 37 -40 45zM765 545q0 7 -6.5 13.5t-13.5 6.5h-55v-40h55q8 0 14 6t6 14zM765 235q0 7 -6.5 13.5t-13.5 6.5h-55v-40h55q8 0 14 6t6 14z" />
    <glyph glyph-name="Germandbls" horiz-adv-x="590" 
d="M325 -10q-14 0 -24.5 10.5t-10.5 24.5t10.5 24.5t24.5 10.5q67 0 108.5 41t41.5 109t-41.5 109t-108.5 41q-16 0 -25.5 10t-9.5 25t15 45l90 185v5h-75q-71 0 -113 -52t-42 -153v-390q0 -40 -40 -40q-15 0 -25 11t-10 29v390q0 132 63 203.5t167 71.5h125q40 0 40 -40
q0 -8 -15 -40l-95 -190v-5q7 -1 19 -4t42 -17.5t53 -35.5t42 -63t19 -95q0 -98 -62 -159t-163 -61z" />
    <glyph glyph-name="CR" horiz-adv-x="0" 
 />
    </font>
</defs>
</svg>
