<?xml version="1.0" standalone="no"?>
<!DOCTYPE svg PUBLIC "-//W3C//DTD SVG 1.1//EN" "http://www.w3.org/Graphics/SVG/1.1/DTD/svg11.dtd" >
<svg xmlns="http://www.w3.org/2000/svg" xmlns:xlink="http://www.w3.org/1999/xlink" version="1.1">
<metadata>
Created by FontForge 20170731 at Tue Aug 11 22:17:49 2015
 By Aleksey,,,
Copyright (c) 2015 by Typetype. Designer Ivan Gladkikh, technical designer Olexa Volochay. All rights reserved.
</metadata>
<defs>
<font id="TTRoundsCondensed-Bold" horiz-adv-x="490" >
  <font-face 
    font-family="TT Rounds Condensed"
    font-weight="700"
    font-stretch="normal"
    units-per-em="1000"
    panose-1="2 0 8 6 3 0 0 2 0 3"
    ascent="800"
    descent="-200"
    x-height="510"
    cap-height="700"
    bbox="-60 -305 1130 1020"
    underline-thickness="50"
    underline-position="-200"
    unicode-range="U+0020-2212"
  />
<missing-glyph horiz-adv-x="0" 
 />
    <glyph glyph-name=".notdef" horiz-adv-x="0" 
 />
    <glyph glyph-name=".null" horiz-adv-x="0" 
 />
    <glyph glyph-name="nonmarkingreturn" horiz-adv-x="333" 
 />
    <glyph glyph-name="space" unicode=" " horiz-adv-x="200" 
 />
    <glyph glyph-name="exclam" unicode="!" horiz-adv-x="270" 
d="M205 550l-15 -280q-2 -27 -16 -43.5t-39 -16.5t-39 16.5t-16 43.5l-15 280q-5 75 -5 90q0 37 20.5 58.5t54.5 21.5t54.5 -21.5t20.5 -58.5q0 -15 -5 -90zM60 65q0 34 20.5 54.5t54.5 20.5t54.5 -20.5t20.5 -54.5t-20.5 -54.5t-54.5 -20.5t-54.5 20.5t-20.5 54.5z" />
    <glyph glyph-name="quotedbl" unicode="&#x22;" horiz-adv-x="370" 
d="M105 425q-18 0 -28 12t-12 28l-10 115q-5 50 -5 70q0 22 16 38.5t39 16.5t39 -16.5t16 -38.5q0 -20 -5 -70l-10 -115q-2 -16 -12 -28t-28 -12zM265 425q-18 0 -28 12t-12 28l-10 115q-5 50 -5 70q0 22 16 38.5t39 16.5t39 -16.5t16 -38.5q0 -20 -5 -70l-10 -115
q-2 -16 -12 -28t-28 -12z" />
    <glyph glyph-name="numbersign" unicode="#" horiz-adv-x="630" 
d="M75 80l25 100h-30q-26 0 -43 16t-17 39t17 39t43 16h55l30 120h-35q-26 0 -43 16t-17 39t17 39t43 16h60l30 120q8 33 22.5 49t42.5 16q23 0 39 -16.5t16 -38.5q0 -5 -5 -30l-25 -100h110l30 120q8 33 22.5 49t42.5 16q23 0 39 -16.5t16 -38.5q0 -5 -5 -30l-25 -100h30
q26 0 43 -16t17 -39t-17 -39t-43 -16h-55l-30 -120h35q26 0 43 -16t17 -39t-17 -39t-43 -16h-60l-30 -120q-8 -33 -22.5 -49t-42.5 -16q-23 0 -39 16.5t-16 38.5q0 5 5 30l25 100h-110l-30 -120q-8 -33 -22.5 -49t-42.5 -16q-23 0 -39 16.5t-16 38.5q0 5 5 30zM275 410
l-30 -120h110l30 120h-110z" />
    <glyph glyph-name="dollar" unicode="$" horiz-adv-x="535" 
d="M260 100q51 0 83 28t32 67q0 38 -34 63t-82.5 41.5t-97 37.5t-82.5 64.5t-34 108.5q0 72 42 126.5t113 73.5v35q0 30 17.5 47.5t47.5 17.5t47.5 -17.5t17.5 -47.5v-30q70 -14 115 -57.5t45 -87.5q0 -28 -17.5 -46.5t-42.5 -18.5q-33 0 -55 35q-39 60 -100 60
q-48 0 -74 -23.5t-26 -61.5q0 -35 34 -58.5t82.5 -40t97 -37.5t82.5 -65t34 -109q0 -87 -45.5 -145t-129.5 -75v-30q0 -30 -17.5 -47.5t-47.5 -17.5t-47.5 17.5t-17.5 47.5v30q-71 16 -120.5 66t-49.5 94q0 30 17.5 47.5t47.5 17.5q35 0 55 -40q35 -70 110 -70z" />
    <glyph glyph-name="percent" unicode="%" horiz-adv-x="725" 
d="M165 415q45 0 45 70v65q0 70 -45 70t-45 -70v-65q0 -70 45 -70zM165 340q-57 0 -96 41t-39 104v65q0 63 39 104t96 41t96 -41t39 -104v-65q0 -63 -39 -104t-96 -41zM560 65q45 0 45 70v65q0 70 -45 70t-45 -70v-65q0 -70 45 -70zM560 -10q-57 0 -96 41t-39 104v65
q0 63 39 104t96 41t96 -41t39 -104v-65q0 -63 -39 -104t-96 -41zM565 595l-315 -575q-21 -40 -55 -40q-23 0 -39 16t-16 39q0 17 20 55l315 575q21 40 55 40q22 0 38.5 -16.5t16.5 -38.5q0 -18 -20 -55z" />
    <glyph glyph-name="ampersand" unicode="&#x26;" horiz-adv-x="600" 
d="M540 215l-35 -45l60 -60q25 -25 25 -50q0 -26 -17 -43t-43 -17q-12 0 -20.5 1.5t-16 7t-11.5 8.5t-13 13t-14 15l-35 35q-3 -4 -9 -11t-25.5 -24t-41 -30t-55.5 -24t-69 -11q-86 0 -143 56t-57 139q0 38 13 72t31 55.5t36.5 37.5t31.5 23l13 7v5q-3 2 -8 6.5t-18 19
t-23 30.5t-18 41.5t-8 52.5q0 86 53.5 140.5t136.5 54.5t136.5 -54.5t53.5 -140.5q0 -29 -12.5 -57t-30 -46.5t-35 -33t-30.5 -21.5l-12 -7v-5l90 -95l40 50q16 20 45 20q26 0 43 -17t17 -43q0 -24 -25 -55zM230 100q55 0 110 65l-115 130q-3 -1 -7.5 -4t-16.5 -13
t-21.5 -22t-17 -31t-7.5 -40q0 -41 20.5 -63t54.5 -22zM200 525q0 -22 13.5 -47t26.5 -39l14 -14q7 4 18 12.5t29.5 34.5t18.5 53q0 36 -16.5 55.5t-43.5 19.5t-43.5 -19.5t-16.5 -55.5z" />
    <glyph glyph-name="quotesingle" unicode="'" horiz-adv-x="210" 
d="M105 425q-18 0 -28 12t-12 28l-10 115q-5 50 -5 70q0 22 16 38.5t39 16.5t39 -16.5t16 -38.5q0 -20 -5 -70l-10 -115q-2 -16 -12 -28t-28 -12z" />
    <glyph glyph-name="parenleft" unicode="(" horiz-adv-x="335" 
d="M180 285q0 -68 12 -129.5t32 -108t37.5 -77.5t37 -59t21.5 -31q15 -27 15 -45q0 -23 -16.5 -39t-38.5 -16t-45 20t-49 54.5t-59.5 94t-55 148.5t-21.5 188t21.5 188t55 148.5t59.5 94t49 54.5t45 20t38.5 -16t16.5 -39q0 -18 -15 -45q-2 -3 -21.5 -31t-37 -59
t-37.5 -77.5t-32 -108t-12 -129.5z" />
    <glyph glyph-name="parenright" unicode=")" horiz-adv-x="335" 
d="M155 285q0 68 -12 129.5t-32 108t-37.5 77.5t-37 59t-21.5 31q-15 27 -15 45q0 23 16 39t39 16t45 -20q23 -20 49 -54.5t59.5 -94t55 -148.5t21.5 -188t-21.5 -188t-55 -148.5t-59.5 -94t-49 -54.5q-22 -20 -45 -20t-39 16t-16 39q0 18 15 45q2 3 21.5 31t37 59
t37.5 77.5t32 108t12 129.5z" />
    <glyph glyph-name="asterisk" unicode="*" horiz-adv-x="460" 
d="M290 350l-60 90l-60 -90q-23 -35 -50 -35q-19 0 -32 13t-13 32q0 17 20 40l75 80l-105 30q-45 13 -45 45q0 19 13 32t32 13q17 0 50 -15l80 -35l-5 50q-5 38 -5 75q0 19 13 32t32 13t32 -13t13 -32q0 -37 -5 -75l-5 -50l80 35q33 15 50 15q19 0 32 -13t13 -32
q0 -32 -45 -45l-105 -30l75 -80q20 -23 20 -40q0 -19 -13 -32t-32 -13q-27 0 -50 35z" />
    <glyph glyph-name="plus" unicode="+" horiz-adv-x="480" 
d="M75 400h110v105q0 26 16 43t39 17t39 -17t16 -43v-105h110q23 0 39 -16t16 -39t-16 -39t-39 -16h-110v-105q0 -26 -16 -43t-39 -17t-39 17t-16 43v105h-110q-23 0 -39 16t-16 39t16 39t39 16z" />
    <glyph glyph-name="comma" unicode="," horiz-adv-x="210" 
d="M180 55q0 -75 -41 -125t-89 -50q-10 0 -17.5 7t-7.5 18q0 9 5 15t9 8t6 2q50 20 50 60q-27 0 -46 21t-19 54q0 34 20.5 54.5t54.5 20.5t54.5 -22t20.5 -63z" />
    <glyph glyph-name="hyphen" unicode="-" horiz-adv-x="430" 
d="M350 290h-270q-26 0 -43 16t-17 39t17 39t43 16h270q26 0 43 -16t17 -39t-17 -39t-43 -16z" />
    <glyph glyph-name="period" unicode="." horiz-adv-x="210" 
d="M30 65q0 34 20.5 54.5t54.5 20.5t54.5 -20.5t20.5 -54.5t-20.5 -54.5t-54.5 -20.5t-54.5 20.5t-20.5 54.5z" />
    <glyph glyph-name="slash" unicode="/" horiz-adv-x="425" 
d="M400 630l-270 -630q-20 -45 -60 -45q-26 0 -43 17t-17 43q0 17 15 55l270 630q20 45 60 45q26 0 43 -17t17 -43q0 -17 -15 -55z" />
    <glyph glyph-name="zero" unicode="0" horiz-adv-x="580" 
d="M290 720q104 0 169.5 -72.5t65.5 -197.5v-200q0 -125 -65.5 -197.5t-169.5 -72.5t-169.5 72.5t-65.5 197.5v200q0 125 65.5 197.5t169.5 72.5zM290 600q-48 0 -76.5 -37.5t-28.5 -112.5v-200q0 -75 28.5 -112.5t76.5 -37.5t76.5 37.5t28.5 112.5v200q0 75 -28.5 112.5
t-76.5 37.5z" />
    <glyph glyph-name="one" unicode="1" horiz-adv-x="400" 
d="M190 485h-5l-70 -85q-16 -20 -40 -20q-23 0 -39 16t-16 39q0 21 15 40l145 180q39 50 75 50q30 0 47.5 -17.5t17.5 -47.5v-580q0 -30 -17.5 -47.5t-47.5 -17.5t-47.5 17.5t-17.5 47.5v425z" />
    <glyph glyph-name="two" unicode="2" horiz-adv-x="520" 
d="M195 125v-5h225q26 0 43 -17t17 -43t-17 -43t-43 -17h-335q-30 0 -47.5 17.5t-17.5 47.5q0 42 45 85q186 179 233 239.5t47 120.5q0 42 -26 66t-74 24q-61 0 -100 -60q-22 -35 -55 -35q-25 0 -42.5 18.5t-17.5 46.5q0 53 61.5 101.5t153.5 48.5q103 0 166.5 -59.5
t63.5 -150.5q0 -86 -50 -154.5t-230 -230.5z" />
    <glyph glyph-name="three" unicode="3" horiz-adv-x="535" 
d="M495 205q0 -103 -65 -164t-180 -61q-91 0 -160.5 55.5t-69.5 109.5q0 30 17.5 47.5t47.5 17.5q35 0 55 -40q35 -70 110 -70q52 0 83.5 30.5t31.5 79.5t-31.5 79.5t-83.5 30.5h-55q-23 0 -39 16t-16 39q0 28 20 50l140 150v5h-200q-26 0 -43 17t-17 43t17 43t43 17h310
q30 0 47.5 -17.5t17.5 -47.5q0 -32 -30 -65l-135 -140v-5q8 -1 20 -3t44 -15.5t56.5 -35t44.5 -65.5t20 -101z" />
    <glyph glyph-name="four" unicode="4" horiz-adv-x="550" 
d="M390 -5q-30 0 -47.5 17.5t-17.5 47.5v100h-245q-30 0 -47.5 17.5t-17.5 47.5q0 8 2 17t4.5 15.5t8 15.5t8 13t9.5 13t8 11l250 345q36 50 85 50q30 0 47.5 -17.5t17.5 -47.5v-360h20q26 0 43 -17t17 -43t-17 -43t-43 -17h-20v-100q0 -30 -17.5 -47.5t-47.5 -17.5z
M180 285v-5h145v200h-5z" />
    <glyph glyph-name="five" unicode="5" horiz-adv-x="555" 
d="M200 435h5q40 25 95 25q95 0 155 -64.5t60 -175.5q0 -113 -64.5 -176.5t-180.5 -63.5q-91 0 -160.5 55.5t-69.5 109.5q0 30 17.5 47.5t47.5 17.5q35 0 55 -40q35 -70 110 -70q53 0 84 32t31 88t-31 88t-84 32q-39 0 -79 -20t-56 -20q-30 0 -47.5 17.5t-17.5 47.5v270
q0 30 17.5 47.5t47.5 17.5h290q26 0 43 -17t17 -43t-17 -43t-43 -17h-225v-145z" />
    <glyph glyph-name="six" unicode="6" horiz-adv-x="560" 
d="M185 455v-30h5q40 25 100 25q105 0 170 -65t65 -170t-65 -170t-170 -65q-104 0 -169.5 72.5t-65.5 197.5v200q0 124 65 197t165 73q92 0 153.5 -48.5t61.5 -101.5q0 -28 -17.5 -46.5t-42.5 -18.5q-33 0 -55 35q-39 60 -100 60q-44 0 -72 -36.5t-28 -108.5zM290 330
q-27 0 -53 -9t-39 -17l-13 -9v-45q0 -75 28.5 -112.5t76.5 -37.5q46 0 75.5 31.5t29.5 83.5t-29.5 83.5t-75.5 31.5z" />
    <glyph glyph-name="seven" unicode="7" horiz-adv-x="475" 
d="M325 575v5h-255q-26 0 -43 17t-17 43t17 43t43 17h330q30 0 47.5 -17.5t17.5 -47.5q0 -27 -10 -55l-185 -510q-10 -27 -15 -39t-19.5 -24t-35.5 -12q-26 0 -43 17t-17 43q0 17 6 35z" />
    <glyph glyph-name="eight" unicode="8" horiz-adv-x="560" 
d="M280 -20q-118 0 -184 60.5t-66 159.5q0 39 13 72t31 52t36.5 32.5t31.5 18.5l13 5v5q-4 1 -10.5 4t-22.5 15t-28.5 27t-23 41.5t-10.5 57.5q0 80 58.5 135t161.5 55t161.5 -55t58.5 -135q0 -49 -24 -85t-48 -48l-23 -12v-5q5 -2 13.5 -5.5t30 -18t38 -32.5t30 -51.5
t13.5 -72.5q0 -99 -66 -159.5t-184 -60.5zM280 600q-41 0 -63 -20.5t-22 -54.5q0 -64 85 -85q85 21 85 85q0 34 -22 54.5t-63 20.5zM280 310q-57 -11 -86 -40t-29 -65q0 -46 31.5 -75.5t83.5 -29.5t83.5 29.5t31.5 75.5q0 36 -29 65t-86 40z" />
    <glyph glyph-name="nine" unicode="9" horiz-adv-x="560" 
d="M375 245v30h-5q-40 -25 -100 -25q-105 0 -170 65t-65 170t65 170t170 65q104 0 169.5 -72.5t65.5 -197.5v-200q0 -124 -65 -197t-165 -73q-92 0 -153.5 48.5t-61.5 101.5q0 28 17.5 46.5t42.5 18.5q33 0 55 -35q39 -60 100 -60q44 0 72 36.5t28 108.5zM270 370q27 0 53 9
t39 17l13 9v45q0 75 -28.5 112.5t-76.5 37.5q-46 0 -75.5 -31.5t-29.5 -83.5t29.5 -83.5t75.5 -31.5z" />
    <glyph glyph-name="colon" unicode=":" horiz-adv-x="230" 
d="M40 65q0 34 20.5 54.5t54.5 20.5t54.5 -20.5t20.5 -54.5t-20.5 -54.5t-54.5 -20.5t-54.5 20.5t-20.5 54.5zM40 450q0 34 20.5 54.5t54.5 20.5t54.5 -20.5t20.5 -54.5t-20.5 -54.5t-54.5 -20.5t-54.5 20.5t-20.5 54.5z" />
    <glyph glyph-name="semicolon" unicode=";" horiz-adv-x="230" 
d="M40 450q0 34 20.5 54.5t54.5 20.5t54.5 -20.5t20.5 -54.5t-20.5 -54.5t-54.5 -20.5t-54.5 20.5t-20.5 54.5zM190 55q0 -75 -41 -125t-89 -50q-10 0 -17.5 7t-7.5 18q0 9 5 15t9 8t6 2q50 20 50 60q-27 0 -46 21t-19 54q0 34 20.5 54.5t54.5 20.5t54.5 -22t20.5 -63z" />
    <glyph glyph-name="less" unicode="&#x3c;" horiz-adv-x="500" 
d="M205 250l190 -115q3 -2 12 -7t11.5 -7t10 -6.5t9.5 -7t7 -7t6.5 -8.5t4 -9t3.5 -10.5t1 -12.5q0 -26 -17 -43t-43 -17q-23 0 -65 25l-240 145q-55 33 -55 85t55 85l240 145q42 25 65 25q26 0 43 -17t17 -43q0 -14 -3.5 -24.5t-16 -20.5t-18 -13.5t-27.5 -16.5l-190 -115
v-10z" />
    <glyph glyph-name="equal" unicode="=" horiz-adv-x="460" 
d="M370 390h-280q-26 0 -43 16t-17 39t17 39t43 16h280q26 0 43 -16t17 -39t-17 -39t-43 -16zM370 170h-280q-26 0 -43 16t-17 39t17 39t43 16h280q26 0 43 -16t17 -39t-17 -39t-43 -16z" />
    <glyph glyph-name="greater" unicode="&#x3e;" horiz-adv-x="500" 
d="M295 260l-190 115q-3 2 -12 7t-11.5 7t-10 6.5t-9.5 7t-7 7t-6.5 8.5t-4 9t-3.5 10.5t-1 12.5q0 26 17 43t43 17q23 0 65 -25l240 -145q55 -33 55 -85t-55 -85l-240 -145q-42 -25 -65 -25q-26 0 -43 17t-17 43q0 7 1 12.5t3.5 10.5t4 9t6.5 8.5t7 7t9.5 7t10 6.5t11.5 7
t12 7l190 115v10z" />
    <glyph glyph-name="question" unicode="?" horiz-adv-x="495" 
d="M275 260q-16 -50 -55 -50q-26 0 -40.5 16.5t-14.5 43.5q0 36 26.5 69.5t58.5 55.5t58.5 52.5t26.5 62.5q0 42 -26 66t-74 24q-61 0 -100 -60q-22 -35 -55 -35q-25 0 -42.5 18.5t-17.5 46.5q0 53 61.5 101.5t153.5 48.5q103 0 166.5 -59.5t63.5 -150.5q0 -39 -17 -71
t-42.5 -53.5t-51.5 -40t-48.5 -40.5t-30.5 -45zM145 65q0 34 20.5 54.5t54.5 20.5t54.5 -20.5t20.5 -54.5t-20.5 -54.5t-54.5 -20.5t-54.5 20.5t-20.5 54.5z" />
    <glyph glyph-name="at" unicode="@" horiz-adv-x="860" 
d="M610 -95q-75 -45 -180 -45q-165 0 -277.5 122.5t-112.5 317.5t112.5 317.5t277.5 122.5q163 0 276.5 -117.5t113.5 -292.5q0 -102 -56.5 -166t-134.5 -64q-33 0 -61.5 11t-41.5 23l-12 11h-4q-3 -5 -10 -12.5t-30 -20t-50 -12.5q-61 0 -103 44t-42 111v80q0 67 42 111
t103 44q20 0 36 -7.5t22 -14.5l7 -8h5q10 25 40 25q19 0 32 -14t13 -36v-235q19 -25 54 -25t60.5 39t25.5 116q0 133 -83.5 221.5t-201.5 88.5q-120 0 -202.5 -93.5t-82.5 -246.5t82.5 -246.5t202.5 -93.5q65 0 125 30q20 10 30 10q23 0 36.5 -14t13.5 -36q0 -31 -25 -45z
M485 255v80q0 40 -16.5 60t-43.5 20t-43.5 -20t-16.5 -60v-80q0 -40 16.5 -60t43.5 -20t43.5 21.5t16.5 58.5z" />
    <glyph glyph-name="A" unicode="A" horiz-adv-x="580" 
d="M287 555l-72 -255h150l-72 255h-6zM435 60l-35 115h-220l-35 -115q-19 -65 -70 -65q-26 0 -45.5 19.5t-19.5 45.5q0 17 10 50l175 540q23 70 95 70t95 -70l175 -540q10 -33 10 -50q0 -26 -19.5 -45.5t-45.5 -19.5q-51 0 -70 65z" />
    <glyph glyph-name="B" unicode="B" horiz-adv-x="600" 
d="M145 700h180q93 0 154 -58t61 -142q0 -27 -8 -49.5t-20 -36t-24 -23t-20 -13.5l-8 -3v-5q4 -1 11.5 -4t26.5 -15t33.5 -28t26.5 -46t12 -67q0 -87 -64.5 -148.5t-160.5 -61.5h-200q-30 0 -47.5 17.5t-17.5 47.5v570q0 30 17.5 47.5t47.5 17.5zM340 305h-130v-185h135
q41 0 65.5 24.5t24.5 65.5q0 45 -25 70t-70 25zM325 580h-115v-165h110q85 0 85 85q0 38 -21.5 59t-58.5 21z" />
    <glyph glyph-name="C" unicode="C" horiz-adv-x="555" 
d="M310 100q75 0 110 70q20 40 55 40q30 0 47.5 -17.5t17.5 -47.5q0 -54 -69.5 -109.5t-160.5 -55.5q-111 0 -183 79t-72 211v160q0 132 72 211t183 79q92 0 153.5 -48.5t61.5 -101.5q0 -28 -17.5 -46.5t-42.5 -18.5q-33 0 -55 35q-39 60 -100 60q-55 0 -90 -43.5
t-35 -126.5v-160q0 -83 35 -126.5t90 -43.5z" />
    <glyph glyph-name="D" unicode="D" horiz-adv-x="610" 
d="M210 120h95q55 0 90 43.5t35 126.5v120q0 83 -35 126.5t-90 43.5h-95v-460zM305 0h-160q-30 0 -47.5 17.5t-17.5 47.5v570q0 30 17.5 47.5t47.5 17.5h160q111 0 183 -79t72 -211v-120q0 -132 -72 -211t-183 -79z" />
    <glyph glyph-name="E" unicode="E" horiz-adv-x="555" 
d="M485 0h-340q-30 0 -47.5 17.5t-17.5 47.5v570q0 30 17.5 47.5t47.5 17.5h330q26 0 43 -17t17 -43t-17 -43t-43 -17h-265v-170h185q26 0 43 -17t17 -43t-17 -43t-43 -17h-185v-170h275q26 0 43 -17t17 -43t-17 -43t-43 -17z" />
    <glyph glyph-name="F" unicode="F" horiz-adv-x="535" 
d="M380 260h-170v-200q0 -30 -17.5 -47.5t-47.5 -17.5t-47.5 17.5t-17.5 47.5v575q0 30 17.5 47.5t47.5 17.5h330q26 0 43 -17t17 -43t-17 -43t-43 -17h-265v-200h170q26 0 43 -17t17 -43t-17 -43t-43 -17z" />
    <glyph glyph-name="G" unicode="G" horiz-adv-x="595" 
d="M425 280h-65q-26 0 -43 16t-17 39q0 30 16.5 47.5t43.5 17.5h115q30 0 47.5 -17.5t17.5 -47.5v-205q0 -44 -70 -97t-160 -53q-111 0 -183 79t-72 211v160q0 132 72 211t183 79q92 0 153.5 -48.5t61.5 -101.5q0 -28 -17.5 -46.5t-42.5 -18.5q-33 0 -55 35q-39 60 -100 60
q-55 0 -90 -43.5t-35 -126.5v-160q0 -83 35 -126.5t90 -43.5q36 0 64.5 15t39.5 30l11 15v120z" />
    <glyph glyph-name="H" unicode="H" horiz-adv-x="645" 
d="M210 300v-240q0 -30 -17.5 -47.5t-47.5 -17.5t-47.5 17.5t-17.5 47.5v580q0 30 17.5 47.5t47.5 17.5t47.5 -17.5t17.5 -47.5v-230h225v230q0 30 17.5 47.5t47.5 17.5t47.5 -17.5t17.5 -47.5v-580q0 -30 -17.5 -47.5t-47.5 -17.5t-47.5 17.5t-17.5 47.5v240h-225z" />
    <glyph glyph-name="I" unicode="I" horiz-adv-x="290" 
d="M210 640v-580q0 -30 -17.5 -47.5t-47.5 -17.5t-47.5 17.5t-17.5 47.5v580q0 30 17.5 47.5t47.5 17.5t47.5 -17.5t17.5 -47.5z" />
    <glyph glyph-name="J" unicode="J" horiz-adv-x="375" 
d="M60 100q48 0 79 42.5t31 127.5v365q0 30 18.5 50t46.5 20t46.5 -20t18.5 -50v-365q0 -135 -67.5 -212.5t-172.5 -77.5q-26 0 -43 17t-17 43t17 43t43 17z" />
    <glyph glyph-name="K" unicode="K" horiz-adv-x="580" 
d="M210 640v-240l220 275q24 30 55 30q26 0 45.5 -19.5t19.5 -45.5q0 -25 -20 -50l-144 -180l164 -285q25 -42 25 -65q0 -27 -19 -46t-46 -19q-39 0 -60 35l-155 270l-85 -110v-130q0 -30 -17.5 -47.5t-47.5 -17.5t-47.5 17.5t-17.5 47.5v580q0 30 17.5 47.5t47.5 17.5
t47.5 -17.5t17.5 -47.5z" />
    <glyph glyph-name="L" unicode="L" horiz-adv-x="515" 
d="M455 0h-310q-30 0 -47.5 17.5t-17.5 47.5v575q0 30 17.5 47.5t47.5 17.5t47.5 -17.5t17.5 -47.5v-520h245q26 0 43 -17t17 -43t-17 -43t-43 -17z" />
    <glyph glyph-name="M" unicode="M" horiz-adv-x="790" 
d="M395 75q-51 0 -70 55l-110 330h-5l-55 -410q-3 -23 -20.5 -39t-44.5 -16t-43.5 17.5t-16.5 47.5q0 20 5 60l70 520q5 37 28 58.5t57 21.5q66 0 90 -80l113 -335h4l113 335q28 80 90 80q34 0 57 -21.5t28 -58.5l70 -520q5 -40 5 -60q0 -30 -16.5 -47.5t-43.5 -17.5
t-44.5 16t-20.5 39l-55 410h-5l-110 -330q-19 -55 -70 -55z" />
    <glyph glyph-name="N" unicode="N" horiz-adv-x="660" 
d="M450 275v365q0 30 17.5 47.5t47.5 17.5t47.5 -17.5t17.5 -47.5v-580q0 -30 -17.5 -47.5t-47.5 -17.5q-19 0 -34 9.5t-23 20t-23 35.5l-220 365h-5v-365q0 -30 -17.5 -47.5t-47.5 -17.5t-47.5 17.5t-17.5 47.5v580q0 30 17.5 47.5t47.5 17.5q27 0 43 -14.5t37 -50.5
l220 -365h5z" />
    <glyph glyph-name="O" unicode="O" horiz-adv-x="620" 
d="M310 720q111 0 183 -79t72 -211v-160q0 -132 -72 -211t-183 -79t-183 79t-72 211v160q0 132 72 211t183 79zM310 600q-55 0 -90 -43.5t-35 -126.5v-160q0 -83 35 -126.5t90 -43.5t90 43.5t35 126.5v160q0 83 -35 126.5t-90 43.5z" />
    <glyph glyph-name="P" unicode="P" horiz-adv-x="580" 
d="M145 700h155q111 0 183 -69t72 -171t-72 -171t-183 -69h-90v-160q0 -30 -17.5 -47.5t-47.5 -17.5t-47.5 17.5t-17.5 47.5v575q0 30 17.5 47.5t47.5 17.5zM300 580h-90v-240h90q56 0 88 32t32 88t-32 88t-88 32z" />
    <glyph glyph-name="Q" unicode="Q" horiz-adv-x="620" 
d="M310 720q111 0 183 -79t72 -211v-160q0 -51 -11.5 -96t-22.5 -64l-11 -20l30 -40q25 -31 25 -55q0 -23 -16.5 -39t-38.5 -16q-10 0 -20.5 5.5t-15.5 10.5t-14 16.5t-10 12.5l-25 30q-4 -4 -13 -10t-41.5 -15.5t-70.5 -9.5q-111 0 -183 79t-72 211v160q0 132 72 211
t183 79zM310 600q-55 0 -90 -43.5t-35 -126.5v-160q0 -83 35 -126.5t90 -43.5q13 0 25.5 2.5t18.5 5.5l6 2l-40 55q-25 34 -25 55q0 22 16.5 38.5t38.5 16.5q9 0 16.5 -2.5t15 -9.5t10.5 -10t10 -13l8 -10l20 -25q5 30 5 65v160q0 83 -35 126.5t-90 43.5z" />
    <glyph glyph-name="R" unicode="R" horiz-adv-x="595" 
d="M445 45l-125 215h-110v-200q0 -30 -17.5 -47.5t-47.5 -17.5t-47.5 17.5t-17.5 47.5v575q0 30 17.5 47.5t47.5 17.5h175q104 0 169.5 -62.5t65.5 -157.5q0 -38 -11 -71t-26.5 -53t-30.5 -34.5t-26 -20.5l-11 -6v-5l105 -180q20 -33 20 -50q0 -30 -16.5 -47.5t-43.5 -17.5
q-12 0 -22 3t-16.5 7.5t-12.5 11t-9 10.5t-7 11zM320 580h-110v-200h110q45 0 72.5 27.5t27.5 72.5t-27.5 72.5t-72.5 27.5z" />
    <glyph glyph-name="S" unicode="S" horiz-adv-x="535" 
d="M260 100q51 0 83 28t32 67q0 38 -34 63t-82.5 41.5t-97 37.5t-82.5 64.5t-34 108.5q0 91 63.5 150.5t166.5 59.5q92 0 153.5 -48.5t61.5 -101.5q0 -28 -17.5 -46.5t-42.5 -18.5q-33 0 -55 35q-39 60 -100 60q-48 0 -74 -23.5t-26 -61.5q0 -35 34 -58.5t82.5 -40t97 -37.5
t82.5 -65t34 -109q0 -103 -65 -164t-180 -61q-91 0 -160.5 55.5t-69.5 109.5q0 30 17.5 47.5t47.5 17.5q35 0 55 -40q35 -70 110 -70z" />
    <glyph glyph-name="T" unicode="T" horiz-adv-x="500" 
d="M250 -5q-30 0 -47.5 17.5t-17.5 47.5v520h-125q-26 0 -43 17t-17 43t17 43t43 17h380q26 0 43 -17t17 -43t-17 -43t-43 -17h-125v-520q0 -30 -17.5 -47.5t-47.5 -17.5z" />
    <glyph glyph-name="U" unicode="U" horiz-adv-x="630" 
d="M560 640v-380q0 -129 -69 -204.5t-176 -75.5t-176 75.5t-69 204.5v380q0 30 17.5 47.5t47.5 17.5t47.5 -17.5t17.5 -47.5v-380q0 -79 32 -119.5t83 -40.5t83 40.5t32 119.5v380q0 30 17.5 47.5t47.5 17.5t47.5 -17.5t17.5 -47.5z" />
    <glyph glyph-name="V" unicode="V" horiz-adv-x="550" 
d="M278 165l127 475q16 65 70 65q26 0 45.5 -19.5t19.5 -45.5q0 -17 -10 -50l-155 -530q-10 -32 -37.5 -56t-62.5 -24t-62.5 24t-37.5 56l-155 530q-10 33 -10 50q0 26 19.5 45.5t45.5 19.5q54 0 70 -65l127 -475h6z" />
    <glyph glyph-name="W" unicode="W" horiz-adv-x="840" 
d="M420 705q69 0 87 -85l88 -420h5l95 440q16 65 70 65q26 0 45.5 -19.5t19.5 -45.5q0 -20 -10 -60l-115 -510q-9 -40 -35 -65t-65 -25q-40 0 -68.5 25.5t-36.5 64.5l-78 390h-4l-78 -390q-8 -39 -36.5 -64.5t-68.5 -25.5q-39 0 -65 25t-35 65l-115 510q-10 40 -10 60
q0 26 19.5 45.5t45.5 19.5q54 0 70 -65l95 -440h5l88 420q18 85 87 85z" />
    <glyph glyph-name="X" unicode="X" horiz-adv-x="540" 
d="M272 240h-4l-128 -210q-21 -35 -60 -35q-26 0 -45.5 19.5t-19.5 45.5q0 23 22 60l153 240l-138 220q-22 37 -22 60q0 26 19.5 45.5t45.5 19.5q39 0 60 -35l113 -190h4l113 190q21 35 60 35q26 0 45.5 -19.5t19.5 -45.5q0 -23 -22 -60l-138 -220l153 -240q22 -37 22 -60
q0 -26 -19.5 -45.5t-45.5 -19.5q-39 0 -60 35z" />
    <glyph glyph-name="Y" unicode="Y" horiz-adv-x="530" 
d="M330 260v-200q0 -30 -17.5 -47.5t-47.5 -17.5t-47.5 17.5t-17.5 47.5v200l-180 320q-20 33 -20 60q0 26 19.5 45.5t45.5 19.5q40 0 65 -45l133 -235h4l133 235q25 45 65 45q26 0 45.5 -19.5t19.5 -45.5q0 -27 -20 -60z" />
    <glyph glyph-name="Z" unicode="Z" horiz-adv-x="515" 
d="M50 145l265 430v5h-230q-26 0 -43 17t-17 43t17 43t43 17h340q30 0 47.5 -17.5t17.5 -47.5q0 -25 -35 -80l-265 -430v-5h250q26 0 43 -17t17 -43t-17 -43t-43 -17h-360q-30 0 -47.5 17.5t-17.5 47.5q0 22 35 80z" />
    <glyph glyph-name="bracketleft" unicode="[" horiz-adv-x="360" 
d="M210 660v-750h80q26 0 43 -17t17 -43t-17 -43t-43 -17h-145q-30 0 -47.5 17.5t-17.5 47.5v860q0 30 17.5 47.5t47.5 17.5h145q26 0 43 -17t17 -43t-17 -43t-43 -17h-80z" />
    <glyph glyph-name="backslash" unicode="\" horiz-adv-x="425" 
d="M295 0l-270 630q-15 38 -15 55q0 26 17 43t43 17q40 0 60 -45l270 -630q15 -38 15 -55q0 -26 -17 -43t-43 -17q-40 0 -60 45z" />
    <glyph glyph-name="bracketright" unicode="]" horiz-adv-x="360" 
d="M150 -90v750h-80q-26 0 -43 17t-17 43t17 43t43 17h145q30 0 47.5 -17.5t17.5 -47.5v-860q0 -30 -17.5 -47.5t-47.5 -17.5h-145q-26 0 -43 17t-17 43t17 43t43 17h80z" />
    <glyph glyph-name="asciicircum" unicode="^" horiz-adv-x="430" 
d="M217 565h-4l-63 -100q-30 -46 -45 -56q-14 -9 -30 -9q-23 0 -39 16t-16 39q0 6 1.5 12l2.5 10t5 11t5.5 9.5t7.5 11.5t8 11l95 145q26 40 70 40q42 0 70 -40l95 -145q3 -5 9 -14t8.5 -13t6 -11t5 -13.5t1.5 -13.5q0 -23 -16 -39t-39 -16q-13 0 -22.5 4t-20 16t-14.5 18
l-18 27z" />
    <glyph glyph-name="underscore" unicode="_" horiz-adv-x="380" 
d="M320 -180h-260q-26 0 -43 16t-17 39t17 39t43 16h260q26 0 43 -16t17 -39t-17 -39t-43 -16z" />
    <glyph glyph-name="grave" unicode="`" horiz-adv-x="240" 
d="M200 515q0 -19 -13 -32t-32 -13q-28 0 -45 30l-55 95q-15 27 -15 45q0 26 16 43t39 17q39 0 55 -40l40 -105q10 -23 10 -40z" />
    <glyph glyph-name="a" unicode="a" 
d="M225 100q39 0 62 28t23 82v10h-65q-40 0 -60 -16.5t-20 -43.5q0 -26 17 -43t43 -17zM235 410q-8 0 -15.5 -1t-14 -3t-10.5 -3.5t-9.5 -5.5t-7 -5.5t-7.5 -6.5l-6 -5q-2 -1 -9 -7t-11.5 -9t-12.5 -6t-17 -3q-23 0 -39 16.5t-16 38.5q0 37 54 76t121 39q83 0 139 -59
t56 -146v-260q0 -30 -16.5 -47.5t-43.5 -17.5q-24 0 -39 12.5t-18 24.5l-3 13h-4q-1 -2 -3.5 -6.5t-11 -14.5t-19 -18t-29 -14.5t-38.5 -6.5q-72 0 -118.5 48.5t-46.5 126.5q0 73 50 119t135 46h85q0 41 -20.5 63t-54.5 22z" />
    <glyph glyph-name="b" unicode="b" horiz-adv-x="520" 
d="M190 475h5q4 6 13 14t39 22t63 14q78 0 124 -55t46 -160v-110q0 -93 -59 -154t-146 -61t-146 61t-59 154v455q0 30 16.5 47.5t43.5 17.5t43.5 -17.5t16.5 -47.5v-180zM275 100q38 0 61.5 26t23.5 74v110q0 48 -23.5 74t-61.5 26t-61.5 -26t-23.5 -74v-110q0 -48 23.5 -74
t61.5 -26z" />
    <glyph glyph-name="c" unicode="c" horiz-adv-x="450" 
d="M245 410q-38 0 -61.5 -26t-23.5 -74v-110q0 -48 23.5 -74t61.5 -26q49 0 80 40q26 35 55 35q22 0 38.5 -16.5t16.5 -38.5q0 -45 -56.5 -90t-133.5 -45q-87 0 -146 61t-59 154v110q0 93 59 154t146 61q71 0 128 -42t57 -83q0 -22 -16 -38.5t-39 -16.5t-50 25l-10 10
t-13 11t-14 8.5t-19.5 8t-23.5 2.5z" />
    <glyph glyph-name="d" unicode="d" horiz-adv-x="520" 
d="M245 100q38 0 61.5 26t23.5 74v110q0 48 -23.5 74t-61.5 26t-61.5 -26t-23.5 -74v-110q0 -48 23.5 -74t61.5 -26zM325 475h5v180q0 30 16.5 47.5t43.5 17.5t43.5 -17.5t16.5 -47.5v-595q0 -30 -16.5 -47.5t-43.5 -17.5q-22 0 -37 10t-19 20l-4 10h-5q-4 -6 -13 -14
t-39 -22t-63 -14q-78 0 -124 55t-46 160v110q0 105 46 160t124 55q33 0 62 -12.5t41 -24.5z" />
    <glyph glyph-name="e" unicode="e" horiz-adv-x="475" 
d="M380 205h-220q0 -51 23 -78t62 -27q54 0 80 30q11 13 17 19t16 11t22 5q22 0 38.5 -16.5t16.5 -38.5q0 -46 -53 -85.5t-137 -39.5q-87 0 -146 61t-59 154v110q0 93 59 154t146 61q80 0 137.5 -61.5t57.5 -153.5v-40q0 -30 -16.5 -47.5t-43.5 -17.5zM320 305
q0 50 -21.5 77.5t-53.5 27.5q-39 0 -62 -27t-23 -78h160z" />
    <glyph glyph-name="f" unicode="f" horiz-adv-x="325" 
d="M365 635q0 -23 -16.5 -39t-38.5 -16q-16 0 -34.5 12.5t-30.5 12.5q-45 0 -45 -70v-30h75q23 0 39 -16.5t16 -38.5t-16 -38.5t-39 -16.5h-75v-335q0 -30 -16.5 -47.5t-43.5 -17.5t-43.5 17.5t-16.5 47.5v335h-5q-23 0 -39 16.5t-16 38.5t16 38.5t39 16.5h5v30
q0 84 45.5 134.5t114.5 50.5q57 0 91 -26t34 -59z" />
    <glyph glyph-name="g" unicode="g" horiz-adv-x="515" 
d="M245 410q-38 0 -61.5 -26t-23.5 -74v-85q0 -48 23.5 -74t61.5 -26t61.5 26t23.5 74v85q0 48 -23.5 74t-61.5 26zM330 -5v65h-5q-4 -6 -13 -14t-39 -22t-63 -14q-78 0 -124 55t-46 160v85q0 105 46 160t124 55q33 0 62 -12.5t41 -24.5l12 -13h5q1 4 4 11t18.5 18t37.5 11
q27 0 43.5 -17.5t16.5 -47.5v-455q0 -93 -59 -154t-146 -61q-77 0 -133.5 45t-56.5 90q0 23 16.5 39t38.5 16q29 0 55 -35q31 -40 80 -40q38 0 61.5 26t23.5 74z" />
    <glyph glyph-name="h" unicode="h" horiz-adv-x="530" 
d="M190 475h5q4 6 13 14t37.5 22t59.5 14q74 0 119.5 -55t45.5 -160v-250q0 -30 -16.5 -47.5t-43.5 -17.5t-43.5 17.5t-16.5 47.5v250q0 47 -22.5 73.5t-57.5 26.5t-57.5 -26.5t-22.5 -73.5v-250q-2 -30 -18 -47.5t-42 -17.5q-27 0 -43.5 17.5t-16.5 47.5v595
q0 30 16.5 47.5t43.5 17.5t43.5 -17.5t16.5 -47.5v-180z" />
    <glyph glyph-name="i" unicode="i" horiz-adv-x="250" 
d="M185 450v-390q0 -30 -16.5 -47.5t-43.5 -17.5t-43.5 17.5t-16.5 47.5v390q0 30 16.5 47.5t43.5 17.5t43.5 -17.5t16.5 -47.5zM60 645q0 30 19 50t46 20t46 -20t19 -50t-19 -50t-46 -20t-46 20t-19 50z" />
    <glyph glyph-name="j" unicode="j" horiz-adv-x="255" 
d="M70 60v390q0 30 16.5 47.5t43.5 17.5t43.5 -17.5t16.5 -47.5v-390q0 -131 -56.5 -205.5t-133.5 -74.5q-25 0 -42.5 18.5t-17.5 41.5q0 43 45 60q49 18 67 51.5t18 108.5zM65 645q0 30 19 50t46 20t46 -20t19 -50t-19 -50t-46 -20t-46 20t-19 50z" />
    <glyph glyph-name="k" unicode="k" horiz-adv-x="470" 
d="M190 655v-345l155 180q21 25 50 25q23 0 39 -16.5t16 -38.5q0 -7 -2 -14t-6 -13l-7 -10.5t-7 -8.5l-3 -4l-95 -109l110 -196q20 -33 20 -50q0 -26 -17 -43t-43 -17q-35 0 -55 35l-100 175l-55 -65v-80q0 -30 -16.5 -47.5t-43.5 -17.5t-43.5 17.5t-16.5 47.5v595
q0 30 16.5 47.5t43.5 17.5t43.5 -17.5t16.5 -47.5z" />
    <glyph glyph-name="l" unicode="l" horiz-adv-x="260" 
d="M190 655v-595q0 -30 -16.5 -47.5t-43.5 -17.5t-43.5 17.5t-16.5 47.5v595q0 30 16.5 47.5t43.5 17.5t43.5 -17.5t16.5 -47.5z" />
    <glyph glyph-name="m" unicode="m" horiz-adv-x="765" 
d="M385 -5q-27 0 -43.5 17.5t-16.5 47.5v250q0 50 -19 75t-51 25t-51 -25t-19 -75v-250q0 -30 -16.5 -47.5t-43.5 -17.5t-43.5 17.5t-16.5 47.5v390q0 30 16.5 47.5t43.5 17.5q22 0 37 -10t19 -20l4 -10h5q3 6 10 14t33 22t57 14q40 0 70 -16.5t40 -32.5l10 -16h10
q4 7 13.5 18t43 29t73.5 18q71 0 113 -53.5t42 -161.5v-250q0 -30 -16.5 -47.5t-43.5 -17.5t-43.5 17.5t-16.5 47.5v250q0 50 -19 75t-51 25t-51 -25t-19 -75v-250q0 -30 -16.5 -47.5t-43.5 -17.5z" />
    <glyph glyph-name="n" unicode="n" horiz-adv-x="525" 
d="M345 60v250q0 47 -22.5 73.5t-57.5 26.5t-57.5 -26.5t-22.5 -73.5v-250q0 -30 -16.5 -47.5t-43.5 -17.5t-43.5 17.5t-16.5 47.5v390q0 30 16.5 47.5t43.5 17.5q22 0 37 -10t19 -20l4 -10h5q4 6 13 14t37.5 22t59.5 14q74 0 119.5 -55t45.5 -160v-250q0 -30 -16.5 -47.5
t-43.5 -17.5t-43.5 17.5t-16.5 47.5z" />
    <glyph glyph-name="o" unicode="o" 
d="M245 100q38 0 61.5 26t23.5 74v110q0 48 -23.5 74t-61.5 26t-61.5 -26t-23.5 -74v-110q0 -48 23.5 -74t61.5 -26zM245 -15q-87 0 -146 61t-59 154v110q0 93 59 154t146 61t146 -61t59 -154v-110q0 -93 -59 -154t-146 -61z" />
    <glyph glyph-name="p" unicode="p" horiz-adv-x="515" 
d="M270 410q-38 0 -61.5 -26t-23.5 -74v-110q0 -48 23.5 -74t61.5 -26t61.5 26t23.5 74v110q0 48 -23.5 74t-61.5 26zM190 35h-5v-190q0 -30 -16.5 -47.5t-43.5 -17.5t-43.5 17.5t-16.5 47.5v605q0 30 16.5 47.5t43.5 17.5q22 0 37 -10t19 -20l4 -10h5q4 6 13 14t39 22
t63 14q78 0 124 -55t46 -160v-110q0 -105 -46 -160t-124 -55q-33 0 -62 12.5t-41 24.5z" />
    <glyph glyph-name="q" unicode="q" horiz-adv-x="505" 
d="M330 35h-5q-4 -6 -13 -14t-39 -22t-63 -14q-78 0 -124 55t-46 160v110q0 93 59 154t146 61t146 -61t59 -154v-465q0 -30 -16.5 -47.5t-43.5 -17.5t-43.5 17.5t-16.5 47.5v190zM245 410q-38 0 -61.5 -26t-23.5 -74v-110q0 -48 23.5 -74t61.5 -26t61.5 26t23.5 74v110
q0 48 -23.5 74t-61.5 26z" />
    <glyph glyph-name="r" unicode="r" horiz-adv-x="380" 
d="M390 445q0 -23 -16 -39t-39 -16q-14 0 -31.5 10t-38.5 10q-35 0 -57.5 -26.5t-22.5 -73.5v-250q0 -30 -16.5 -47.5t-43.5 -17.5t-43.5 17.5t-16.5 47.5v390q0 30 16.5 47.5t43.5 17.5q22 0 37 -10t19 -20l4 -10h5q4 6 13 14t37.5 22t59.5 14q40 0 65 -23t25 -57z" />
    <glyph glyph-name="s" unicode="s" horiz-adv-x="425" 
d="M225 100q29 0 44.5 12.5t15.5 32.5q0 23 -25 38.5t-61 27.5t-72.5 28t-61.5 49t-25 82q0 69 48 112t132 43q82 0 131 -38t49 -87q0 -22 -16 -38.5t-39 -16.5t-50 25q-2 2 -10 9.5t-12.5 11.5t-13 9t-18.5 7.5t-21 2.5q-28 0 -44 -12t-16 -28q0 -23 25 -38.5t61 -27.5
t72.5 -28t61.5 -49t25 -82q0 -76 -45.5 -118t-134.5 -42q-87 0 -146 44.5t-59 90.5q0 22 16 38.5t39 16.5q29 0 55 -35q31 -40 95 -40z" />
    <glyph glyph-name="t" unicode="t" horiz-adv-x="375" 
d="M365 70q0 -33 -34 -59t-91 -26q-69 0 -114.5 50.5t-45.5 134.5v225h-5q-23 0 -39 16.5t-16 38.5t16 38.5t39 16.5h5v70q0 30 16.5 47.5t43.5 17.5t43.5 -17.5t16.5 -47.5v-70h75q23 0 39 -16.5t16 -38.5t-16 -38.5t-39 -16.5h-75v-225q0 -70 45 -70q12 0 30.5 12.5
t34.5 12.5q22 0 38.5 -16.5t16.5 -38.5z" />
    <glyph glyph-name="u" unicode="u" horiz-adv-x="530" 
d="M185 450v-250q0 -47 22.5 -73.5t57.5 -26.5t57.5 26.5t22.5 73.5v250q0 30 16.5 47.5t43.5 17.5t43.5 -17.5t16.5 -47.5v-390q0 -30 -16.5 -47.5t-43.5 -17.5q-22 0 -37 10t-19 20l-4 10h-5q-4 -6 -13 -14t-37.5 -22t-59.5 -14q-74 0 -119.5 55t-45.5 160v250
q0 30 16.5 47.5t43.5 17.5t43.5 -17.5t16.5 -47.5z" />
    <glyph glyph-name="v" unicode="v" horiz-adv-x="430" 
d="M405 390l-92 -305q-18 -58 -38 -79t-60 -21t-60 21t-38 79l-92 305q-15 50 -15 65q0 26 17 43t43 17q28 0 42.5 -16t22.5 -49l78 -310h4l78 310q8 33 22.5 49t42.5 16q26 0 43 -17t17 -43q0 -15 -15 -65z" />
    <glyph glyph-name="w" unicode="w" horiz-adv-x="690" 
d="M345 515q60 0 75 -65l65 -270h5l65 270q7 32 22 48.5t43 16.5q26 0 43 -17t17 -43q0 -15 -15 -65l-80 -305q-15 -55 -35.5 -77.5t-54.5 -22.5q-74 0 -95 100l-53 235h-4l-53 -235q-21 -100 -95 -100q-34 0 -54.5 22.5t-35.5 77.5l-80 305q-15 50 -15 65q0 26 17 43t43 17
q28 0 43 -16.5t22 -48.5l65 -270h5l65 270q15 65 75 65z" />
    <glyph glyph-name="x" unicode="x" horiz-adv-x="425" 
d="M210 375h5l50 75q3 5 13 20t13.5 19.5t11.5 12.5t16.5 10.5t20.5 2.5q26 0 43 -17t17 -43q0 -29 -25 -65l-85 -125l100 -145q25 -36 25 -65q0 -26 -17 -43t-43 -17q-10 0 -18 2.5t-13.5 5.5t-12.5 11t-9.5 12t-10.5 16.5t-11 17.5l-65 100h-5l-65 -100q-3 -5 -11 -17.5
t-10.5 -16.5t-9.5 -12t-12.5 -11t-13.5 -5.5t-18 -2.5q-26 0 -43 17t-17 43q0 29 25 65l100 145l-85 125q-25 36 -25 65q0 26 17 43t43 17q12 0 20.5 -2.5t16.5 -10.5t11.5 -12.5t13.5 -19.5t13 -20z" />
    <glyph glyph-name="y" unicode="y" horiz-adv-x="440" 
d="M415 390l-195 -555q-11 -30 -24.5 -42.5t-35.5 -12.5q-26 0 -43 17t-17 43q0 15 20 65l41 114l-136 371q-20 50 -20 65q0 26 17 43t43 17q23 0 36.5 -12.5t23.5 -42.5l95 -260h4l91 260q10 30 23.5 42.5t36.5 12.5q26 0 43 -17t17 -43q0 -15 -20 -65z" />
    <glyph glyph-name="z" unicode="z" horiz-adv-x="410" 
d="M75 510h260q27 0 43.5 -17.5t16.5 -47.5q0 -22 -25 -55l-200 -275v-5h175q23 0 39 -16t16 -39t-16 -39t-39 -16h-275q-27 0 -43.5 17.5t-16.5 47.5q0 22 25 55l200 275v5h-160q-23 0 -39 16t-16 39t16 39t39 16z" />
    <glyph glyph-name="braceleft" unicode="{" horiz-adv-x="380" 
d="M80 345q35 0 35 55v160q0 103 53.5 161.5t141.5 58.5q26 0 43 -17t17 -43t-17 -43t-43 -17q-28 0 -46.5 -25t-18.5 -75v-160q0 -44 -20 -71.5t-40 -32.5l-20 -6v-10q3 0 8.5 -1.5t19.5 -8.5t24.5 -18t19 -32.5t8.5 -49.5v-160q0 -50 18.5 -75t46.5 -25q26 0 43 -17
t17 -43t-17 -43t-43 -17q-88 0 -141.5 58.5t-53.5 161.5v160q0 55 -35 55q-26 0 -43 17t-17 43t17 43t43 17z" />
    <glyph glyph-name="bar" unicode="|" horiz-adv-x="290" 
d="M210 695v-820q0 -30 -17.5 -47.5t-47.5 -17.5t-47.5 17.5t-17.5 47.5v820q0 30 17.5 47.5t47.5 17.5t47.5 -17.5t17.5 -47.5z" />
    <glyph glyph-name="braceright" unicode="}" horiz-adv-x="380" 
d="M300 225q-35 0 -35 -55v-160q0 -103 -53.5 -161.5t-141.5 -58.5q-26 0 -43 17t-17 43t17 43t43 17q28 0 46.5 25t18.5 75v160q0 44 20 71.5t40 32.5l20 6v10q-3 0 -8.5 1.5t-19.5 8.5t-24.5 18t-19 32.5t-8.5 49.5v160q0 50 -18.5 75t-46.5 25q-26 0 -43 17t-17 43t17 43
t43 17q88 0 141.5 -58.5t53.5 -161.5v-160q0 -55 35 -55q26 0 43 -17t17 -43t-17 -43t-43 -17z" />
    <glyph glyph-name="asciitilde" unicode="~" horiz-adv-x="460" 
d="M310 230q-32 0 -56 12.5t-35.5 27.5t-25.5 27.5t-28 12.5q-15 0 -24 -11.5t-13.5 -26t-17.5 -26t-35 -11.5q-23 0 -39 16.5t-16 38.5q0 62 40 106t90 44q32 0 56 -12.5t35.5 -27.5t25.5 -27.5t28 -12.5q15 0 24 11.5t13.5 26t17.5 26t35 11.5q23 0 39 -16.5t16 -38.5
q0 -62 -40 -106t-90 -44z" />
    <glyph glyph-name="nbspace" unicode="&#xa0;" horiz-adv-x="200" 
 />
    <glyph glyph-name="exclamdown" unicode="&#xa1;" horiz-adv-x="270" 
d="M190 245l15 -280q5 -75 5 -90q0 -37 -20.5 -58.5t-54.5 -21.5t-54.5 21.5t-20.5 58.5q0 15 5 90l15 280q2 27 16 43.5t39 16.5t39 -16.5t16 -43.5zM60 450q0 34 20.5 54.5t54.5 20.5t54.5 -20.5t20.5 -54.5t-20.5 -54.5t-54.5 -20.5t-54.5 20.5t-20.5 54.5z" />
    <glyph glyph-name="cent" unicode="&#xa2;" horiz-adv-x="450" 
d="M245 410q-38 0 -61.5 -26t-23.5 -74v-110q0 -48 23.5 -74t61.5 -26q49 0 80 40q26 35 55 35q22 0 38.5 -16.5t16.5 -38.5q0 -35 -38.5 -73t-96.5 -52v-20q0 -30 -16.5 -47.5t-43.5 -17.5t-43.5 17.5t-16.5 47.5v20q-62 20 -101 75.5t-39 129.5v110q0 74 38.5 129
t101.5 76v25q0 30 16.5 47.5t43.5 17.5t43.5 -17.5t16.5 -47.5v-25q54 -15 92 -49.5t38 -65.5q0 -22 -16 -38.5t-39 -16.5t-50 25l-10 10t-13 11t-14 8.5t-19.5 8t-23.5 2.5z" />
    <glyph glyph-name="sterling" unicode="&#xa3;" 
d="M190 125v-5h230q26 0 43 -17t17 -43t-17 -43t-43 -17h-355q-30 0 -47.5 17.5t-17.5 47.5q0 13 4 23.5t12 18.5t13 12t15 10t11 6q47 30 66 65t19 110v5h-25q-23 0 -39 16.5t-16 38.5t16 38.5t39 16.5h25v110q0 81 48 133t117 52q71 0 110.5 -29.5t39.5 -70.5
q0 -22 -16.5 -38.5t-38.5 -16.5q-13 0 -39.5 17.5t-50.5 17.5q-50 0 -50 -65v-110h105q23 0 39 -16.5t16 -38.5t-16 -38.5t-39 -16.5h-105v-5q0 -60 -17.5 -106t-34.5 -62z" />
    <glyph glyph-name="currency" unicode="&#xa4;" horiz-adv-x="555" 
d="M145 700h165q96 0 160.5 -61.5t64.5 -148.5t-64.5 -148.5t-160.5 -61.5h-100v-50h210q26 0 43 -17t17 -43t-17 -43t-43 -17h-210v-50q0 -30 -17.5 -47.5t-47.5 -17.5t-47.5 17.5t-17.5 47.5v50q-26 0 -43 17t-17 43t17 43t43 17v50q-26 0 -43 17t-17 43t17 43t43 17v235
q0 30 17.5 47.5t47.5 17.5zM310 580h-100v-180h100q41 0 65.5 24.5t24.5 65.5t-24.5 65.5t-65.5 24.5z" />
    <glyph glyph-name="yen" unicode="&#xa5;" horiz-adv-x="530" 
d="M435 130h-105v-70q0 -30 -17.5 -47.5t-47.5 -17.5t-47.5 17.5t-17.5 47.5v70h-105q-23 0 -36.5 14t-13.5 36t13.5 36t36.5 14h105v30l-20 35h-85q-23 0 -36.5 13.5t-13.5 36.5t13.5 36.5t36.5 13.5h30l-105 185q-20 33 -20 60q0 26 19.5 45.5t45.5 19.5q40 0 65 -45
l133 -235h4l133 235q25 45 65 45q26 0 45.5 -19.5t19.5 -45.5q0 -27 -20 -60l-105 -185h30q23 0 36.5 -13.5t13.5 -36.5t-13.5 -36.5t-36.5 -13.5h-85l-20 -35v-30h105q23 0 36.5 -14t13.5 -36t-13.5 -36t-36.5 -14z" />
    <glyph glyph-name="brokenbar" unicode="&#xa6;" horiz-adv-x="290" 
d="M210 695v-285q0 -30 -17.5 -47.5t-47.5 -17.5t-47.5 17.5t-17.5 47.5v285q0 30 17.5 47.5t47.5 17.5t47.5 -17.5t17.5 -47.5zM210 160v-285q0 -30 -17.5 -47.5t-47.5 -17.5t-47.5 17.5t-17.5 47.5v285q0 30 17.5 47.5t47.5 17.5t47.5 -17.5t17.5 -47.5z" />
    <glyph glyph-name="section" unicode="&#xa7;" horiz-adv-x="455" 
d="M260 230q30 35 30 80q0 20 -7 34.5t-24 26t-30 18t-39 16.5q-30 -35 -30 -80q0 -20 7 -34.5t24 -26t30 -18t39 -16.5zM295 60q0 22 -26.5 40t-63.5 34.5t-74.5 37.5t-64 57.5t-26.5 85.5q0 42 17.5 74.5t34.5 44.5l18 11v5q-2 2 -6.5 5t-14.5 14t-18 23t-14.5 32t-6.5 41
q0 69 48 112t132 43q82 0 131 -38t49 -87q0 -23 -16 -39t-39 -16t-50 25q-2 2 -10 9.5t-12.5 11.5t-13 9t-18.5 7.5t-21 2.5q-28 0 -44 -12t-16 -28q0 -22 24.5 -39t60 -32t71 -34.5t60 -55t24.5 -84.5q0 -42 -17.5 -74.5t-34.5 -43.5l-18 -12v-5q3 -2 8 -5t18 -14.5t23 -25
t18 -35t8 -45.5q0 -76 -45.5 -118t-134.5 -42q-87 0 -146 44.5t-59 90.5q0 23 16 39t39 16q29 0 55 -35q31 -40 95 -40q29 0 44.5 12.5t15.5 32.5z" />
    <glyph glyph-name="dieresis" unicode="&#xa8;" horiz-adv-x="390" 
d="M40 695q0 26 19.5 45.5t45.5 19.5t45.5 -19.5t19.5 -45.5t-19.5 -45.5t-45.5 -19.5t-45.5 19.5t-19.5 45.5zM220 695q0 26 19.5 45.5t45.5 19.5t45.5 -19.5t19.5 -45.5t-19.5 -45.5t-45.5 -19.5t-45.5 19.5t-19.5 45.5z" />
    <glyph glyph-name="copyright" unicode="&#xa9;" horiz-adv-x="840" 
d="M135 300q0 -153 82.5 -246.5t202.5 -93.5t202.5 93.5t82.5 246.5t-82.5 246.5t-202.5 93.5t-202.5 -93.5t-82.5 -246.5zM810 300q0 -195 -112.5 -317.5t-277.5 -122.5t-277.5 122.5t-112.5 317.5t112.5 317.5t277.5 122.5t277.5 -122.5t112.5 -317.5zM425 175
q22 0 35.5 9.5t18 20.5t14.5 20.5t27 9.5q15 0 25 -10t10 -25q0 -36 -38 -68t-92 -32q-61 0 -103 44t-42 111v80q0 67 42 111t103 44q54 0 92 -32t38 -68q0 -15 -10 -25t-25 -10q-17 0 -27 9.5t-14.5 20.5t-18 20.5t-35.5 9.5q-24 0 -39.5 -20.5t-15.5 -59.5v-80
q0 -39 15.5 -59.5t39.5 -20.5z" />
    <glyph glyph-name="ordfeminine" unicode="&#xaa;" horiz-adv-x="355" 
d="M155 430q27 0 43.5 19.5t16.5 55.5v5h-55q-45 0 -45 -40t40 -40zM140 355q-45 0 -77.5 33.5t-32.5 81.5q0 46 36 78t94 32h55q0 25 -13 40t-32 15q-11 0 -19.5 -5t-14.5 -12l-6 -8q-20 -20 -35 -20q-18 0 -29 10.5t-11 29.5q0 29 33 54.5t82 25.5q57 0 96 -41t39 -104
v-165q0 -40 -40 -40q-18 0 -28 9t-11 17l-1 9h-5q-2 -4 -7 -11t-25.5 -18t-47.5 -11z" />
    <glyph glyph-name="guillemotleft" unicode="&#xab;" horiz-adv-x="485" 
d="M135 243l105 -143q15 -20 15 -40q0 -22 -13.5 -36t-36.5 -14q-27 0 -50 30l-95 130q-30 42 -30 75t30 75l95 130q23 30 50 30q23 0 36.5 -14t13.5 -36q0 -20 -15 -40l-105 -143v-4zM335 243l105 -143q15 -20 15 -40q0 -22 -13.5 -36t-36.5 -14q-27 0 -50 30l-95 130
q-30 42 -30 75t30 75l95 130q23 30 50 30q23 0 36.5 -14t13.5 -36q0 -20 -15 -40l-105 -143v-4z" />
    <glyph glyph-name="logicalnot" unicode="&#xac;" horiz-adv-x="475" 
d="M375 180q-27 0 -43.5 17.5t-16.5 47.5v95h-235q-26 0 -43 16t-17 39t17 39t43 16h295q27 0 43.5 -17.5t16.5 -47.5v-140q0 -30 -16.5 -47.5t-43.5 -17.5z" />
    <glyph glyph-name="uni00AD" unicode="&#xad;" horiz-adv-x="430" 
d="M350 285h-270q-26 0 -43 16t-17 39t17 39t43 16h270q26 0 43 -16t17 -39t-17 -39t-43 -16z" />
    <glyph glyph-name="registered" unicode="&#xae;" horiz-adv-x="840" 
d="M325 480h106q55 0 89.5 -33.5t34.5 -86.5q0 -21 -5.5 -38.5t-13.5 -27.5t-16.5 -17t-13.5 -9l-6 -3v-5l50 -85q10 -17 10 -30q0 -16 -11 -28t-29 -12q-23 0 -45 35l-60 100h-45v-85q0 -22 -13 -36t-32 -14t-32 14t-13 36v275q0 22 13 36t32 14zM425 410h-55v-100h55
q16 0 28 14t12 36t-12 36t-28 14zM810 300q0 -195 -112.5 -317.5t-277.5 -122.5t-277.5 122.5t-112.5 317.5t112.5 317.5t277.5 122.5t277.5 -122.5t112.5 -317.5zM135 300q0 -153 82.5 -246.5t202.5 -93.5t202.5 93.5t82.5 246.5t-82.5 246.5t-202.5 93.5t-202.5 -93.5
t-82.5 -246.5z" />
    <glyph glyph-name="macron" unicode="&#xaf;" horiz-adv-x="360" 
d="M270 620h-180q-22 0 -36 14t-14 36t14 36t36 14h180q22 0 36 -14t14 -36t-14 -36t-36 -14z" />
    <glyph glyph-name="degree" unicode="&#xb0;" horiz-adv-x="370" 
d="M340 540q0 -70 -45.5 -117.5t-109.5 -47.5t-109.5 47.5t-45.5 117.5t45.5 117.5t109.5 47.5t109.5 -47.5t45.5 -117.5zM260 540q0 37 -22 61t-53 24t-53 -24t-22 -61t22 -61t53 -24t53 24t22 61z" />
    <glyph glyph-name="plusminus" unicode="&#xb1;" horiz-adv-x="500" 
d="M415 100h-330q-23 0 -39 16t-16 39t16 39t39 16h110v105h-110q-23 0 -39 16.5t-16 38.5t16 38.5t39 16.5h110v105q0 26 16 43t39 17t39 -17t16 -43v-105h110q23 0 39 -16.5t16 -38.5t-16 -38.5t-39 -16.5h-110v-105h110q23 0 39 -16t16 -39t-16 -39t-39 -16z" />
    <glyph glyph-name="twosuperior" unicode="&#xb2;" horiz-adv-x="310" 
d="M20 400q0 7 2 13.5t6.5 12.5t6.5 9t9 9l6 6q9 8 29.5 26.5t30 27.5t24.5 24.5t22.5 25.5t13 22.5t5.5 23.5q0 15 -11 25t-29 10q-11 0 -19.5 -5t-14.5 -12l-6 -8q-20 -20 -35 -20q-18 0 -29 10.5t-11 29.5q0 29 33 54.5t82 25.5q58 0 94 -32t36 -78q0 -36 -30 -74.5
t-60 -59.5l-30 -21v-5h85q16 0 28 -12t12 -28t-12 -28t-28 -12h-170q-16 0 -28 12t-12 28z" />
    <glyph glyph-name="threesuperior" unicode="&#xb3;" horiz-adv-x="305" 
d="M190 570v-5q3 -1 8 -2.5t18 -8.5t23 -17t18 -29t8 -43q0 -46 -36 -78t-94 -32q-49 0 -82 25.5t-33 54.5q0 19 11 29.5t29 10.5q15 0 35 -20l6 -7q6 -8 14.5 -13t19.5 -5q18 0 29 10t11 25q0 40 -40 40h-20q-15 0 -25 10t-10 25t20 35l45 45v5h-85q-16 0 -28 11.5
t-12 28.5t12 28.5t28 11.5h160q16 0 28 -11.5t12 -28.5q0 -7 -4 -15t-7.5 -13t-10.5 -13t-8 -9z" />
    <glyph glyph-name="acute" unicode="&#xb4;" horiz-adv-x="240" 
d="M40 635q0 17 10 40l40 105q16 40 55 40q23 0 39 -17t16 -43q0 -18 -15 -45l-55 -95q-17 -30 -45 -30q-19 0 -32 13t-13 32z" />
    <glyph glyph-name="mu" unicode="&#xb5;" horiz-adv-x="530" 
d="M185 450v-250q0 -47 22.5 -73.5t57.5 -26.5t57.5 26.5t22.5 73.5v250q0 30 16.5 47.5t43.5 17.5t43.5 -17.5t16.5 -47.5v-390q0 -30 -16.5 -47.5t-43.5 -17.5q-22 0 -37 10t-19 20l-4 10h-5q-3 -6 -8.5 -14t-26.5 -22t-45 -14q-20 0 -37.5 8.5t-24.5 17.5l-8 9h-5v-175
q0 -30 -16.5 -47.5t-43.5 -17.5t-43.5 17.5t-16.5 47.5v605q0 30 16.5 47.5t43.5 17.5t43.5 -17.5t16.5 -47.5z" />
    <glyph glyph-name="paragraph" unicode="&#xb6;" horiz-adv-x="555" 
d="M170 700h310q22 0 38.5 -16t16.5 -39t-16.5 -39t-38.5 -16h-10v-745q0 -30 -16.5 -47.5t-43.5 -17.5t-43.5 17.5t-16.5 47.5v745h-60v-745q0 -30 -16.5 -47.5t-43.5 -17.5t-43.5 17.5t-16.5 47.5v495q-59 0 -104.5 52t-45.5 129q0 76 46 127.5t104 51.5z" />
    <glyph glyph-name="periodcentered" unicode="&#xb7;" horiz-adv-x="200" 
d="M25 350q0 34 20.5 54.5t54.5 20.5t54.5 -20.5t20.5 -54.5t-20.5 -54.5t-54.5 -20.5t-54.5 20.5t-20.5 54.5z" />
    <glyph glyph-name="cedilla" unicode="&#xb8;" horiz-adv-x="295" 
d="M255 -165q0 -57 -37 -91t-103 -34q-35 0 -55 15t-20 35q0 16 12 28t28 12q11 0 19.5 -2.5t15.5 -2.5q50 0 50 40t-55 40q-40 0 -40 40v90h80v-55q42 0 73.5 -33.5t31.5 -81.5z" />
    <glyph glyph-name="onesuperior" unicode="&#xb9;" horiz-adv-x="265" 
d="M160 705q19 0 32 -13t13 -32v-255q0 -19 -13 -32t-32 -13t-32 13t-13 32v170h-4l-16 -15q-25 -20 -35 -20q-40 0 -40 40q0 18 22 40l78 70q18 15 40 15z" />
    <glyph glyph-name="ordmasculine" unicode="&#xba;" horiz-adv-x="350" 
d="M175 430q45 0 45 70v65q0 70 -45 70t-45 -70v-65q0 -70 45 -70zM175 355q-57 0 -96 41t-39 104v65q0 63 39 104t96 41t96 -41t39 -104v-65q0 -63 -39 -104t-96 -41z" />
    <glyph glyph-name="guillemotright" unicode="&#xbb;" horiz-adv-x="485" 
d="M350 247l-105 143q-15 20 -15 40q0 22 14 36t36 14q28 0 50 -30l95 -130q30 -42 30 -75t-30 -75l-95 -130q-22 -30 -50 -30q-22 0 -36 14t-14 36q0 21 15 40l105 143v4zM150 247l-105 143q-15 20 -15 40q0 22 14 36t36 14q27 0 50 -30l95 -130q30 -42 30 -75t-30 -75
l-95 -130q-23 -30 -50 -30q-22 0 -36 14t-14 36q0 21 15 40l105 143v4z" />
    <glyph glyph-name="onequarter" unicode="&#xbc;" horiz-adv-x="730" 
d="M545 595l-315 -575q-21 -40 -55 -40q-23 0 -39 16t-16 39q0 17 20 55l315 575q21 40 55 40q22 0 38.5 -16.5t16.5 -38.5q0 -18 -20 -55zM415 160l130 160q20 25 50 25q19 0 32 -13t13 -32v-150h10q16 0 28 -12t12 -28t-12 -28t-28 -12h-10v-25q0 -19 -13 -32t-32 -13
t-32 13t-13 32v25h-120q-16 0 -28 12t-12 28q0 19 25 50zM500 150v-5h55v80h-4zM160 695q19 0 32 -13t13 -32v-255q0 -19 -13 -32t-32 -13t-32 13t-13 32v170h-4l-16 -15q-25 -20 -35 -20q-40 0 -40 40q0 18 22 40l78 70q18 15 40 15z" />
    <glyph glyph-name="onehalf" unicode="&#xbd;" horiz-adv-x="705" 
d="M545 595l-315 -575q-21 -40 -55 -40q-23 0 -39 16t-16 39q0 17 20 55l315 575q21 40 55 40q22 0 38.5 -16.5t16.5 -38.5q0 -18 -20 -55zM160 695q19 0 32 -13t13 -32v-255q0 -19 -13 -32t-32 -13t-32 13t-13 32v170h-4l-16 -15q-25 -20 -35 -20q-40 0 -40 40q0 18 22 40
l78 70q18 15 40 15zM415 35q0 7 2 13.5t6.5 12.5t6.5 9t8 9l7 6q9 8 29.5 26.5t30 27.5t24.5 24.5t22.5 25.5t13 22.5t5.5 23.5q0 15 -11 25t-29 10q-11 0 -19.5 -5t-14.5 -13l-6 -7q-20 -20 -35 -20q-18 0 -29 10.5t-11 29.5q0 29 33 54.5t82 25.5q58 0 94 -32t36 -78
q0 -36 -30 -74.5t-60 -59.5l-30 -21v-5h85q17 0 28.5 -11.5t11.5 -28.5t-11.5 -28.5t-28.5 -11.5h-170q-17 0 -28.5 11.5t-11.5 28.5z" />
    <glyph glyph-name="threequarters" unicode="&#xbe;" horiz-adv-x="755" 
d="M570 595l-315 -575q-21 -40 -55 -40q-22 0 -38.5 16t-16.5 39q0 17 20 55l315 575q21 40 55 40q23 0 39 -16.5t16 -38.5q0 -18 -20 -55zM440 160l130 160q20 25 50 25q19 0 32 -13t13 -32v-150h10q17 0 28.5 -12t11.5 -28t-11.5 -28t-28.5 -12h-10v-25q0 -19 -13 -32
t-32 -13t-32 13t-13 32v25h-120q-17 0 -28.5 12t-11.5 28q0 19 25 50zM525 150v-5h55v80h-4zM200 560v-5q3 -1 8 -2.5t18 -8.5t23 -17t18 -29t8 -43q0 -46 -36 -78t-94 -32q-49 0 -82 25.5t-33 54.5q0 19 11 29.5t29 10.5q15 0 35 -20l6 -7q6 -8 14.5 -13t19.5 -5
q18 0 29 10t11 25q0 40 -40 40h-20q-15 0 -25 10t-10 25t20 35l45 45v5h-85q-16 0 -28 11.5t-12 28.5t12 28.5t28 11.5h160q16 0 28 -11.5t12 -28.5q0 -7 -4 -15t-7.5 -13t-10.5 -13t-8 -9z" />
    <glyph glyph-name="questiondown" unicode="&#xbf;" horiz-adv-x="495" 
d="M220 255q16 50 55 50q26 0 40.5 -16.5t14.5 -43.5q0 -36 -26.5 -69.5t-58.5 -55.5t-58.5 -52.5t-26.5 -62.5q0 -42 26 -66t74 -24q61 0 100 60q22 35 55 35q25 0 42.5 -18.5t17.5 -46.5q0 -53 -61.5 -101.5t-153.5 -48.5q-104 0 -167 59.5t-63 150.5q0 39 17 71
t42.5 53.5t51.5 40t48.5 40.5t30.5 45zM350 450q0 -34 -20.5 -54.5t-54.5 -20.5t-54.5 20.5t-20.5 54.5t20.5 54.5t54.5 20.5t54.5 -20.5t20.5 -54.5z" />
    <glyph glyph-name="Agrave" unicode="&#xc0;" horiz-adv-x="580" 
d="M287 555l-72 -255h150l-72 255h-6zM435 60l-35 115h-220l-35 -115q-19 -65 -70 -65q-26 0 -45.5 19.5t-19.5 45.5q0 17 10 50l175 540q23 70 95 70t95 -70l175 -540q10 -33 10 -50q0 -26 -19.5 -45.5t-45.5 -19.5q-51 0 -70 65zM337 835q0 -19 -13 -32t-32 -13
q-28 0 -45 30l-55 95q-15 27 -15 45q0 26 16 43t39 17q39 0 55 -40l40 -105q10 -23 10 -40z" />
    <glyph glyph-name="Aacute" unicode="&#xc1;" horiz-adv-x="580" 
d="M287 555l-72 -255h150l-72 255h-6zM435 60l-35 115h-220l-35 -115q-19 -65 -70 -65q-26 0 -45.5 19.5t-19.5 45.5q0 17 10 50l175 540q23 70 95 70t95 -70l175 -540q10 -33 10 -50q0 -26 -19.5 -45.5t-45.5 -19.5q-51 0 -70 65zM265 835q0 17 10 40l40 105q16 40 55 40
q23 0 39 -17t16 -43q0 -18 -15 -45l-55 -95q-17 -30 -45 -30q-19 0 -32 13t-13 32z" />
    <glyph glyph-name="Acircumflex" unicode="&#xc2;" horiz-adv-x="580" 
d="M287 555l-72 -255h150l-72 255h-6zM435 60l-35 115h-220l-35 -115q-19 -65 -70 -65q-26 0 -45.5 19.5t-19.5 45.5q0 17 10 50l175 540q23 70 95 70t95 -70l175 -540q10 -33 10 -50q0 -26 -19.5 -45.5t-45.5 -19.5q-51 0 -70 65zM288 915l-53 -95q-17 -30 -45 -30
q-19 0 -32 13t-13 32q0 13 10 30l65 115q23 40 70 40t70 -40l65 -115q10 -17 10 -30q0 -19 -13 -32t-32 -13q-28 0 -45 30l-53 95h-4z" />
    <glyph glyph-name="Atilde" unicode="&#xc3;" horiz-adv-x="580" 
d="M287 555l-72 -255h150l-72 255h-6zM435 60l-35 115h-220l-35 -115q-19 -65 -70 -65q-26 0 -45.5 19.5t-19.5 45.5q0 17 10 50l175 540q23 70 95 70t95 -70l175 -540q10 -33 10 -50q0 -26 -19.5 -45.5t-45.5 -19.5q-51 0 -70 65zM230 975q25 0 44 -11t28 -24t18.5 -24
t19.5 -11q11 0 18.5 10t11.5 22.5t15 22.5t30 10q17 0 28.5 -12t11.5 -28q0 -54 -33 -92t-72 -38q-25 0 -44 11t-28 24t-18.5 24t-19.5 11q-11 0 -18.5 -10t-11.5 -22.5t-15 -22.5t-30 -10q-17 0 -28.5 11.5t-11.5 28.5q0 54 33 92t72 38z" />
    <glyph glyph-name="Adieresis" unicode="&#xc4;" horiz-adv-x="580" 
d="M287 555l-72 -255h150l-72 255h-6zM435 60l-35 115h-220l-35 -115q-19 -65 -70 -65q-26 0 -45.5 19.5t-19.5 45.5q0 17 10 50l175 540q23 70 95 70t95 -70l175 -540q10 -33 10 -50q0 -26 -19.5 -45.5t-45.5 -19.5q-51 0 -70 65zM135 875q0 26 19.5 45.5t45.5 19.5
t45.5 -19.5t19.5 -45.5t-19.5 -45.5t-45.5 -19.5t-45.5 19.5t-19.5 45.5zM315 875q0 26 19.5 45.5t45.5 19.5t45.5 -19.5t19.5 -45.5t-19.5 -45.5t-45.5 -19.5t-45.5 19.5t-19.5 45.5z" />
    <glyph glyph-name="Aring" unicode="&#xc5;" horiz-adv-x="580" 
d="M420 785q0 -63 -50 -105q11 -16 15 -30l175 -540q10 -33 10 -50q0 -26 -19.5 -45.5t-45.5 -19.5q-51 0 -70 65l-35 115h-220l-35 -115q-19 -65 -70 -65q-26 0 -45.5 19.5t-19.5 45.5q0 17 10 50l175 540q4 16 15 30q-50 42 -50 105q0 56 38.5 95.5t91.5 39.5t91.5 -39.5
t38.5 -95.5zM287 555l-72 -255h150l-72 255h-6zM230 785q0 -33 16.5 -51.5t43.5 -18.5t43.5 18.5t16.5 51.5t-16.5 51.5t-43.5 18.5t-43.5 -18.5t-16.5 -51.5z" />
    <glyph glyph-name="AE" unicode="&#xc6;" horiz-adv-x="800" 
d="M285 700h435q26 0 43 -17t17 -43t-17 -43t-43 -17h-225v-170h145q26 0 43 -17t17 -43t-17 -43t-43 -17h-145v-170h235q26 0 43 -17t17 -43t-17 -43t-43 -17h-300q-30 0 -47.5 17.5t-17.5 47.5v110h-185l-35 -115q-19 -65 -70 -65q-26 0 -45.5 19.5t-19.5 45.5q0 17 10 50
l170 520q23 70 95 70zM215 300h150v280h-70z" />
    <glyph glyph-name="Ccedilla" unicode="&#xc7;" horiz-adv-x="555" 
d="M430 -165q0 -57 -37 -91t-103 -34q-35 0 -55 15t-20 35q0 16 11.5 28t28.5 12q11 0 19.5 -2.5t15.5 -2.5q50 0 50 40t-55 40q-40 0 -40 40v75q-86 22 -138 95.5t-52 184.5v160q0 132 72 211t183 79q92 0 153.5 -48.5t61.5 -101.5q0 -28 -17.5 -46.5t-42.5 -18.5
q-33 0 -55 35q-39 60 -100 60q-55 0 -90 -43.5t-35 -126.5v-160q0 -83 35 -126.5t90 -43.5q75 0 110 70q20 40 55 40q30 0 47.5 -17.5t17.5 -47.5q0 -51 -64.5 -105.5t-150.5 -59.5v-30q42 0 73.5 -33.5t31.5 -81.5z" />
    <glyph glyph-name="Egrave" unicode="&#xc8;" horiz-adv-x="555" 
d="M485 0h-340q-30 0 -47.5 17.5t-17.5 47.5v570q0 30 17.5 47.5t47.5 17.5h330q26 0 43 -17t17 -43t-17 -43t-43 -17h-265v-170h185q26 0 43 -17t17 -43t-17 -43t-43 -17h-185v-170h275q26 0 43 -17t17 -43t-17 -43t-43 -17zM355 835q0 -19 -13 -32t-32 -13q-28 0 -45 30
l-55 95q-15 27 -15 45q0 26 16 43t39 17q39 0 55 -40l40 -105q10 -23 10 -40z" />
    <glyph glyph-name="Eacute" unicode="&#xc9;" horiz-adv-x="555" 
d="M485 0h-340q-30 0 -47.5 17.5t-17.5 47.5v570q0 30 17.5 47.5t47.5 17.5h330q26 0 43 -17t17 -43t-17 -43t-43 -17h-265v-170h185q26 0 43 -17t17 -43t-17 -43t-43 -17h-185v-170h275q26 0 43 -17t17 -43t-17 -43t-43 -17zM275 835q0 17 10 40l40 105q16 40 55 40
q23 0 39 -17t16 -43q0 -18 -15 -45l-55 -95q-17 -30 -45 -30q-19 0 -32 13t-13 32z" />
    <glyph glyph-name="Ecircumflex" unicode="&#xca;" horiz-adv-x="555" 
d="M485 0h-340q-30 0 -47.5 17.5t-17.5 47.5v570q0 30 17.5 47.5t47.5 17.5h330q26 0 43 -17t17 -43t-17 -43t-43 -17h-265v-170h185q26 0 43 -17t17 -43t-17 -43t-43 -17h-185v-170h275q26 0 43 -17t17 -43t-17 -43t-43 -17zM310 915l-53 -95q-17 -30 -45 -30q-19 0 -32 13
t-13 32q0 13 10 30l65 115q23 40 70 40t70 -40l65 -115q10 -17 10 -30q0 -19 -13 -32t-32 -13q-28 0 -45 30l-53 95h-4z" />
    <glyph glyph-name="Edieresis" unicode="&#xcb;" horiz-adv-x="555" 
d="M485 0h-340q-30 0 -47.5 17.5t-17.5 47.5v570q0 30 17.5 47.5t47.5 17.5h330q26 0 43 -17t17 -43t-17 -43t-43 -17h-265v-170h185q26 0 43 -17t17 -43t-17 -43t-43 -17h-185v-170h275q26 0 43 -17t17 -43t-17 -43t-43 -17zM157 875q0 26 19.5 45.5t45.5 19.5t45.5 -19.5
t19.5 -45.5t-19.5 -45.5t-45.5 -19.5t-45.5 19.5t-19.5 45.5zM337 875q0 26 19.5 45.5t45.5 19.5t45.5 -19.5t19.5 -45.5t-19.5 -45.5t-45.5 -19.5t-45.5 19.5t-19.5 45.5z" />
    <glyph glyph-name="Igrave" unicode="&#xcc;" horiz-adv-x="290" 
d="M210 640v-580q0 -30 -17.5 -47.5t-47.5 -17.5t-47.5 17.5t-17.5 47.5v580q0 30 17.5 47.5t47.5 17.5t47.5 -17.5t17.5 -47.5zM190 835q0 -19 -13 -32t-32 -13q-28 0 -45 30l-55 95q-15 27 -15 45q0 26 16 43t39 17q39 0 55 -40l40 -105q10 -23 10 -40z" />
    <glyph glyph-name="Iacute" unicode="&#xcd;" horiz-adv-x="295" 
d="M210 640v-580q0 -30 -17.5 -47.5t-47.5 -17.5t-47.5 17.5t-17.5 47.5v580q0 30 17.5 47.5t47.5 17.5t47.5 -17.5t17.5 -47.5zM115 835q0 17 10 40l40 105q16 40 55 40q23 0 39 -17t16 -43q0 -18 -15 -45l-55 -95q-17 -30 -45 -30q-19 0 -32 13t-13 32z" />
    <glyph glyph-name="Icircumflex" unicode="&#xce;" horiz-adv-x="290" 
d="M210 640v-580q0 -30 -17.5 -47.5t-47.5 -17.5t-47.5 17.5t-17.5 47.5v580q0 30 17.5 47.5t47.5 17.5t47.5 -17.5t17.5 -47.5zM143 915l-53 -95q-17 -30 -45 -30q-19 0 -32 13t-13 32q0 13 10 30l65 115q23 40 70 40t70 -40l65 -115q10 -17 10 -30q0 -19 -13 -32t-32 -13
q-28 0 -45 30l-53 95h-4z" />
    <glyph glyph-name="Idieresis" unicode="&#xcf;" horiz-adv-x="290" 
d="M210 640v-580q0 -30 -17.5 -47.5t-47.5 -17.5t-47.5 17.5t-17.5 47.5v580q0 30 17.5 47.5t47.5 17.5t47.5 -17.5t17.5 -47.5zM-10 875q0 26 19.5 45.5t45.5 19.5t45.5 -19.5t19.5 -45.5t-19.5 -45.5t-45.5 -19.5t-45.5 19.5t-19.5 45.5zM170 875q0 26 19.5 45.5
t45.5 19.5t45.5 -19.5t19.5 -45.5t-19.5 -45.5t-45.5 -19.5t-45.5 19.5t-19.5 45.5z" />
    <glyph glyph-name="Eth" unicode="&#xd0;" horiz-adv-x="610" 
d="M305 0h-160q-30 0 -47.5 17.5t-17.5 47.5v225q-26 0 -43 17t-17 43t17 43t43 17v225q0 30 17.5 47.5t47.5 17.5h160q111 0 183 -79t72 -211v-120q0 -132 -72 -211t-183 -79zM210 120h95q55 0 90 43.5t35 126.5v120q0 83 -35 126.5t-90 43.5h-95v-170h60q26 0 43 -17
t17 -43t-17 -43t-43 -17h-60v-170z" />
    <glyph glyph-name="Ntilde" unicode="&#xd1;" horiz-adv-x="660" 
d="M450 275v365q0 30 17.5 47.5t47.5 17.5t47.5 -17.5t17.5 -47.5v-580q0 -30 -17.5 -47.5t-47.5 -17.5q-19 0 -34 9.5t-23 20t-23 35.5l-220 365h-5v-365q0 -30 -17.5 -47.5t-47.5 -17.5t-47.5 17.5t-17.5 47.5v580q0 30 17.5 47.5t47.5 17.5q27 0 43 -14.5t37 -50.5
l220 -365h5zM270 975q25 0 44 -11t28 -24t18.5 -24t19.5 -11q11 0 18.5 10t11.5 22.5t15 22.5t30 10q17 0 28.5 -12t11.5 -28q0 -54 -33 -92t-72 -38q-25 0 -44 11t-28 24t-18.5 24t-19.5 11q-11 0 -18.5 -10t-11.5 -22.5t-15 -22.5t-30 -10q-17 0 -28.5 11.5t-11.5 28.5
q0 54 33 92t72 38z" />
    <glyph glyph-name="Ograve" unicode="&#xd2;" horiz-adv-x="620" 
d="M310 720q111 0 183 -79t72 -211v-160q0 -132 -72 -211t-183 -79t-183 79t-72 211v160q0 132 72 211t183 79zM310 600q-55 0 -90 -43.5t-35 -126.5v-160q0 -83 35 -126.5t90 -43.5t90 43.5t35 126.5v160q0 83 -35 126.5t-90 43.5zM355 835q0 -19 -13 -32t-32 -13
q-28 0 -45 30l-55 95q-15 27 -15 45q0 26 16 43t39 17q39 0 55 -40l40 -105q10 -23 10 -40z" />
    <glyph glyph-name="Oacute" unicode="&#xd3;" horiz-adv-x="620" 
d="M310 720q111 0 183 -79t72 -211v-160q0 -132 -72 -211t-183 -79t-183 79t-72 211v160q0 132 72 211t183 79zM310 600q-55 0 -90 -43.5t-35 -126.5v-160q0 -83 35 -126.5t90 -43.5t90 43.5t35 126.5v160q0 83 -35 126.5t-90 43.5zM280 835q0 17 10 40l40 105q16 40 55 40
q23 0 39 -17t16 -43q0 -18 -15 -45l-55 -95q-17 -30 -45 -30q-19 0 -32 13t-13 32z" />
    <glyph glyph-name="Ocircumflex" unicode="&#xd4;" horiz-adv-x="620" 
d="M310 720q111 0 183 -79t72 -211v-160q0 -132 -72 -211t-183 -79t-183 79t-72 211v160q0 132 72 211t183 79zM310 600q-55 0 -90 -43.5t-35 -126.5v-160q0 -83 35 -126.5t90 -43.5t90 43.5t35 126.5v160q0 83 -35 126.5t-90 43.5zM308 915l-53 -95q-17 -30 -45 -30
q-19 0 -32 13t-13 32q0 13 10 30l65 115q23 40 70 40t70 -40l65 -115q10 -17 10 -30q0 -19 -13 -32t-32 -13q-28 0 -45 30l-53 95h-4z" />
    <glyph glyph-name="Otilde" unicode="&#xd5;" horiz-adv-x="620" 
d="M310 720q111 0 183 -79t72 -211v-160q0 -132 -72 -211t-183 -79t-183 79t-72 211v160q0 132 72 211t183 79zM310 600q-55 0 -90 -43.5t-35 -126.5v-160q0 -83 35 -126.5t90 -43.5t90 43.5t35 126.5v160q0 83 -35 126.5t-90 43.5zM250 975q25 0 44 -11t28 -24t18.5 -24
t19.5 -11q11 0 18.5 10t11.5 22.5t15 22.5t30 10q17 0 28.5 -12t11.5 -28q0 -54 -33 -92t-72 -38q-25 0 -44 11t-28 24t-18.5 24t-19.5 11q-11 0 -18.5 -10t-11.5 -22.5t-15 -22.5t-30 -10q-17 0 -28.5 11.5t-11.5 28.5q0 54 33 92t72 38z" />
    <glyph glyph-name="Odieresis" unicode="&#xd6;" horiz-adv-x="620" 
d="M310 720q111 0 183 -79t72 -211v-160q0 -132 -72 -211t-183 -79t-183 79t-72 211v160q0 132 72 211t183 79zM310 600q-55 0 -90 -43.5t-35 -126.5v-160q0 -83 35 -126.5t90 -43.5t90 43.5t35 126.5v160q0 83 -35 126.5t-90 43.5zM155 875q0 26 19.5 45.5t45.5 19.5
t45.5 -19.5t19.5 -45.5t-19.5 -45.5t-45.5 -19.5t-45.5 19.5t-19.5 45.5zM335 875q0 26 19.5 45.5t45.5 19.5t45.5 -19.5t19.5 -45.5t-19.5 -45.5t-45.5 -19.5t-45.5 19.5t-19.5 45.5z" />
    <glyph glyph-name="multiply" unicode="&#xd7;" horiz-adv-x="440" 
d="M220 270l-75 -75q-20 -20 -45 -20q-22 0 -36 14t-14 36q0 30 20 50l70 70l-70 70q-20 20 -20 50q0 22 14 36t36 14q25 0 45 -20l75 -75l75 75q20 20 45 20q22 0 36 -14t14 -36q0 -30 -20 -50l-70 -70l70 -70q20 -20 20 -50q0 -22 -14 -36t-36 -14q-25 0 -45 20z" />
    <glyph glyph-name="Oslash" unicode="&#xd8;" horiz-adv-x="620" 
d="M310 720q29 0 57.5 -6t42.5 -12l15 -7q2 4 5.5 10t16 15.5t28.5 9.5q23 0 39 -16t16 -39q0 -11 -5 -25t-10 -22l-5 -8q55 -79 55 -190v-160q0 -132 -72 -211t-183 -79q-29 0 -57.5 6t-42.5 12l-15 7q-2 -4 -5.5 -10t-16 -15.5t-28.5 -9.5q-23 0 -39 16t-16 39q0 13 5 27
t10 21l5 7q-6 7 -15 21.5t-24.5 63.5t-15.5 105v160q0 132 72 211t183 79zM435 430l-5 40l-180 -355q20 -15 60 -15q55 0 90 43.5t35 126.5v160zM310 600q-55 0 -90 -43.5t-35 -126.5v-160l5 -40l180 355q-20 15 -60 15z" />
    <glyph glyph-name="Ugrave" unicode="&#xd9;" horiz-adv-x="630" 
d="M560 640v-380q0 -129 -69 -204.5t-176 -75.5t-176 75.5t-69 204.5v380q0 30 17.5 47.5t47.5 17.5t47.5 -17.5t17.5 -47.5v-380q0 -79 32 -119.5t83 -40.5t83 40.5t32 119.5v380q0 30 17.5 47.5t47.5 17.5t47.5 -17.5t17.5 -47.5zM360 835q0 -19 -13 -32t-32 -13
q-28 0 -45 30l-55 95q-15 27 -15 45q0 26 16 43t39 17q39 0 55 -40l40 -105q10 -23 10 -40z" />
    <glyph glyph-name="Uacute" unicode="&#xda;" horiz-adv-x="630" 
d="M560 640v-380q0 -129 -69 -204.5t-176 -75.5t-176 75.5t-69 204.5v380q0 30 17.5 47.5t47.5 17.5t47.5 -17.5t17.5 -47.5v-380q0 -79 32 -119.5t83 -40.5t83 40.5t32 119.5v380q0 30 17.5 47.5t47.5 17.5t47.5 -17.5t17.5 -47.5zM285 835q0 17 10 40l40 105q16 40 55 40
q23 0 39 -17t16 -43q0 -18 -15 -45l-55 -95q-17 -30 -45 -30q-19 0 -32 13t-13 32z" />
    <glyph glyph-name="Ucircumflex" unicode="&#xdb;" horiz-adv-x="630" 
d="M560 640v-380q0 -129 -69 -204.5t-176 -75.5t-176 75.5t-69 204.5v380q0 30 17.5 47.5t47.5 17.5t47.5 -17.5t17.5 -47.5v-380q0 -79 32 -119.5t83 -40.5t83 40.5t32 119.5v380q0 30 17.5 47.5t47.5 17.5t47.5 -17.5t17.5 -47.5zM313 915l-53 -95q-17 -30 -45 -30
q-19 0 -32 13t-13 32q0 13 10 30l65 115q23 40 70 40t70 -40l65 -115q10 -17 10 -30q0 -19 -13 -32t-32 -13q-28 0 -45 30l-53 95h-4z" />
    <glyph glyph-name="Udieresis" unicode="&#xdc;" horiz-adv-x="630" 
d="M560 640v-380q0 -129 -69 -204.5t-176 -75.5t-176 75.5t-69 204.5v380q0 30 17.5 47.5t47.5 17.5t47.5 -17.5t17.5 -47.5v-380q0 -79 32 -119.5t83 -40.5t83 40.5t32 119.5v380q0 30 17.5 47.5t47.5 17.5t47.5 -17.5t17.5 -47.5zM160 875q0 26 19.5 45.5t45.5 19.5
t45.5 -19.5t19.5 -45.5t-19.5 -45.5t-45.5 -19.5t-45.5 19.5t-19.5 45.5zM340 875q0 26 19.5 45.5t45.5 19.5t45.5 -19.5t19.5 -45.5t-19.5 -45.5t-45.5 -19.5t-45.5 19.5t-19.5 45.5z" />
    <glyph glyph-name="Yacute" unicode="&#xdd;" horiz-adv-x="530" 
d="M330 260v-200q0 -30 -17.5 -47.5t-47.5 -17.5t-47.5 17.5t-17.5 47.5v200l-180 320q-20 33 -20 60q0 26 19.5 45.5t45.5 19.5q40 0 65 -45l133 -235h4l133 235q25 45 65 45q26 0 45.5 -19.5t19.5 -45.5q0 -27 -20 -60zM240 835q0 17 10 40l40 105q16 40 55 40
q23 0 39 -17t16 -43q0 -18 -15 -45l-55 -95q-17 -30 -45 -30q-19 0 -32 13t-13 32z" />
    <glyph glyph-name="Thorn" unicode="&#xde;" horiz-adv-x="585" 
d="M300 475h-90v-240h90q56 0 88 32t32 88t-32 88t-88 32zM210 595h90q111 0 183 -69t72 -171t-72 -171t-183 -69h-90v-60q0 -30 -17.5 -47.5t-47.5 -17.5t-47.5 17.5t-17.5 47.5v595q0 30 17.5 47.5t47.5 17.5t47.5 -17.5t17.5 -47.5v-55z" />
    <glyph glyph-name="germandbls" unicode="&#xdf;" horiz-adv-x="535" 
d="M395 150q0 24 -14 43t-33.5 33.5t-39.5 31t-34 45t-14 67.5q0 34 20 86.5t20 78.5q0 33 -16 51.5t-39 18.5t-39 -18.5t-16 -51.5v-475q0 -30 -16.5 -47.5t-43.5 -17.5t-43.5 17.5t-16.5 47.5v475q0 78 51.5 131.5t123.5 53.5t123.5 -53.5t51.5 -131.5q0 -37 -20 -90
t-20 -75t14 -39.5t33.5 -31.5t39.5 -31.5t34 -47.5t14 -70q0 -74 -46 -122t-114 -48q-57 0 -91 26t-34 59q0 23 16 39t39 16q16 0 34.5 -12.5t30.5 -12.5q19 0 32 15t13 40z" />
    <glyph glyph-name="agrave" unicode="&#xe0;" 
d="M225 100q39 0 62 28t23 82v10h-65q-40 0 -60 -16.5t-20 -43.5q0 -26 17 -43t43 -17zM235 410q-8 0 -15.5 -1t-14 -3t-10.5 -3.5t-9.5 -5.5t-7 -5.5t-7.5 -6.5l-6 -5q-2 -1 -9 -7t-11.5 -9t-12.5 -6t-17 -3q-23 0 -39 16.5t-16 38.5q0 37 54 76t121 39q83 0 139 -59
t56 -146v-260q0 -30 -16.5 -47.5t-43.5 -17.5q-24 0 -39 12.5t-18 24.5l-3 13h-4q-1 -2 -3.5 -6.5t-11 -14.5t-19 -18t-29 -14.5t-38.5 -6.5q-72 0 -118.5 48.5t-46.5 126.5q0 73 50 119t135 46h85q0 41 -20.5 63t-54.5 22zM280 655q0 -19 -13 -32t-32 -13q-28 0 -45 30
l-55 95q-15 27 -15 45q0 26 16 43t39 17q39 0 55 -40l40 -105q10 -23 10 -40z" />
    <glyph glyph-name="aacute" unicode="&#xe1;" 
d="M225 100q39 0 62 28t23 82v10h-65q-40 0 -60 -16.5t-20 -43.5q0 -26 17 -43t43 -17zM235 410q-8 0 -15.5 -1t-14 -3t-10.5 -3.5t-9.5 -5.5t-7 -5.5t-7.5 -6.5l-6 -5q-2 -1 -9 -7t-11.5 -9t-12.5 -6t-17 -3q-23 0 -39 16.5t-16 38.5q0 37 54 76t121 39q83 0 139 -59
t56 -146v-260q0 -30 -16.5 -47.5t-43.5 -17.5q-24 0 -39 12.5t-18 24.5l-3 13h-4q-1 -2 -3.5 -6.5t-11 -14.5t-19 -18t-29 -14.5t-38.5 -6.5q-72 0 -118.5 48.5t-46.5 126.5q0 73 50 119t135 46h85q0 41 -20.5 63t-54.5 22zM205 655q0 17 10 40l40 105q16 40 55 40
q23 0 39 -17t16 -43q0 -18 -15 -45l-55 -95q-17 -30 -45 -30q-19 0 -32 13t-13 32z" />
    <glyph glyph-name="acircumflex" unicode="&#xe2;" 
d="M225 100q39 0 62 28t23 82v10h-65q-40 0 -60 -16.5t-20 -43.5q0 -26 17 -43t43 -17zM235 410q-8 0 -15.5 -1t-14 -3t-10.5 -3.5t-9.5 -5.5t-7 -5.5t-7.5 -6.5l-6 -5q-2 -1 -9 -7t-11.5 -9t-12.5 -6t-17 -3q-23 0 -39 16.5t-16 38.5q0 37 54 76t121 39q83 0 139 -59
t56 -146v-260q0 -30 -16.5 -47.5t-43.5 -17.5q-24 0 -39 12.5t-18 24.5l-3 13h-4q-1 -2 -3.5 -6.5t-11 -14.5t-19 -18t-29 -14.5t-38.5 -6.5q-72 0 -118.5 48.5t-46.5 126.5q0 73 50 119t135 46h85q0 41 -20.5 63t-54.5 22zM233 735l-53 -95q-17 -30 -45 -30q-19 0 -32 13
t-13 32q0 13 10 30l65 115q23 40 70 40t70 -40l65 -115q10 -17 10 -30q0 -19 -13 -32t-32 -13q-28 0 -45 30l-53 95h-4z" />
    <glyph glyph-name="atilde" unicode="&#xe3;" 
d="M225 100q39 0 62 28t23 82v10h-65q-40 0 -60 -16.5t-20 -43.5q0 -26 17 -43t43 -17zM235 410q-8 0 -15.5 -1t-14 -3t-10.5 -3.5t-9.5 -5.5t-7 -5.5t-7.5 -6.5l-6 -5q-2 -1 -9 -7t-11.5 -9t-12.5 -6t-17 -3q-23 0 -39 16.5t-16 38.5q0 37 54 76t121 39q83 0 139 -59
t56 -146v-260q0 -30 -16.5 -47.5t-43.5 -17.5q-24 0 -39 12.5t-18 24.5l-3 13h-4q-1 -2 -3.5 -6.5t-11 -14.5t-19 -18t-29 -14.5t-38.5 -6.5q-72 0 -118.5 48.5t-46.5 126.5q0 73 50 119t135 46h85q0 41 -20.5 63t-54.5 22zM175 785q25 0 44 -11t28 -24t18.5 -24t19.5 -11
q11 0 18.5 10t11.5 22.5t15 22.5t30 10q16 0 28 -12t12 -28q0 -54 -33 -92t-72 -38q-25 0 -44 11t-28 24t-18.5 24t-19.5 11q-11 0 -18.5 -10t-11.5 -22.5t-15 -22.5t-30 -10q-16 0 -28 11.5t-12 28.5q0 54 33 92t72 38z" />
    <glyph glyph-name="adieresis" unicode="&#xe4;" 
d="M225 100q39 0 62 28t23 82v10h-65q-40 0 -60 -16.5t-20 -43.5q0 -26 17 -43t43 -17zM235 410q-8 0 -15.5 -1t-14 -3t-10.5 -3.5t-9.5 -5.5t-7 -5.5t-7.5 -6.5l-6 -5q-2 -1 -9 -7t-11.5 -9t-12.5 -6t-17 -3q-23 0 -39 16.5t-16 38.5q0 37 54 76t121 39q83 0 139 -59
t56 -146v-260q0 -30 -16.5 -47.5t-43.5 -17.5q-24 0 -39 12.5t-18 24.5l-3 13h-4q-1 -2 -3.5 -6.5t-11 -14.5t-19 -18t-29 -14.5t-38.5 -6.5q-72 0 -118.5 48.5t-46.5 126.5q0 73 50 119t135 46h85q0 41 -20.5 63t-54.5 22zM80 685q0 26 19.5 45.5t45.5 19.5t45.5 -19.5
t19.5 -45.5t-19.5 -45.5t-45.5 -19.5t-45.5 19.5t-19.5 45.5zM260 685q0 26 19.5 45.5t45.5 19.5t45.5 -19.5t19.5 -45.5t-19.5 -45.5t-45.5 -19.5t-45.5 19.5t-19.5 45.5z" />
    <glyph glyph-name="aring" unicode="&#xe5;" 
d="M225 100q39 0 62 28t23 82v10h-65q-40 0 -60 -16.5t-20 -43.5q0 -26 17 -43t43 -17zM235 410q-8 0 -15.5 -1t-14 -3t-10.5 -3.5t-9.5 -5.5t-7 -5.5t-7.5 -6.5l-6 -5q-2 -1 -9 -7t-11.5 -9t-12.5 -6t-17 -3q-23 0 -39 16.5t-16 38.5q0 37 54 76t121 39q83 0 139 -59
t56 -146v-260q0 -30 -16.5 -47.5t-43.5 -17.5q-24 0 -39 12.5t-18 24.5l-3 13h-4q-1 -2 -3.5 -6.5t-11 -14.5t-19 -18t-29 -14.5t-38.5 -6.5q-72 0 -118.5 48.5t-46.5 126.5q0 73 50 119t135 46h85q0 41 -20.5 63t-54.5 22zM175 715q0 -33 16.5 -51.5t43.5 -18.5t43.5 18.5
t16.5 51.5t-16.5 51.5t-43.5 18.5t-43.5 -18.5t-16.5 -51.5zM365 715q0 -56 -38.5 -95.5t-91.5 -39.5t-91.5 39.5t-38.5 95.5t38.5 95.5t91.5 39.5t91.5 -39.5t38.5 -95.5z" />
    <glyph glyph-name="ae" unicode="&#xe6;" horiz-adv-x="745" 
d="M650 205h-220q0 -51 23 -78t62 -27q54 0 80 30q11 13 17 19t16 11t22 5q22 0 38.5 -16.5t16.5 -38.5q0 -46 -53 -85.5t-137 -39.5q-29 0 -54.5 7t-41 17.5t-27 21t-16.5 17.5l-4 7h-4l-5 -7.5t-15 -16.5t-27 -21.5t-41 -17t-55 -7.5q-85 0 -135 47t-50 123t50 123t135 47
h85q0 41 -20.5 63t-54.5 22q-8 0 -15.5 -1t-14 -3t-10.5 -3.5t-9.5 -5.5t-7 -5.5t-7.5 -6.5l-6 -5q-2 -1 -9 -7t-11.5 -9t-12.5 -6t-17 -3q-23 0 -39 16.5t-16 38.5q0 37 54 76t121 39q27 0 50.5 -7t38 -17.5t25 -21t15.5 -17.5l4 -7h4l5 7.5t15 16.5t27 21.5t41 17t55 7.5
q80 0 137.5 -61.5t57.5 -153.5v-40q0 -30 -16.5 -47.5t-43.5 -17.5zM225 100q39 0 62 28t23 82v10h-65q-40 0 -60 -16.5t-20 -43.5q0 -26 17 -43t43 -17zM590 305q0 50 -21.5 77.5t-53.5 27.5q-39 0 -62 -27t-23 -78h160z" />
    <glyph glyph-name="ccedilla" unicode="&#xe7;" horiz-adv-x="450" 
d="M360 -165q0 -57 -37 -91t-103 -34q-35 0 -55 15t-20 35q0 16 11.5 28t28.5 12q11 0 19.5 -2.5t15.5 -2.5q50 0 50 40t-55 40q-40 0 -40 40v80q-61 21 -98 76.5t-37 128.5v110q0 93 59 154t146 61q71 0 128 -42t57 -83q0 -22 -16 -38.5t-39 -16.5t-50 25l-10 10t-13 11
t-14 8.5t-19.5 8t-23.5 2.5q-38 0 -61.5 -26t-23.5 -74v-110q0 -48 23.5 -74t61.5 -26q49 0 80 40q26 35 55 35q22 0 38.5 -16.5t16.5 -38.5q0 -44 -53 -87.5t-127 -47.5v-35q42 0 73.5 -33.5t31.5 -81.5z" />
    <glyph glyph-name="egrave" unicode="&#xe8;" horiz-adv-x="475" 
d="M380 205h-220q0 -51 23 -78t62 -27q54 0 80 30q11 13 17 19t16 11t22 5q22 0 38.5 -16.5t16.5 -38.5q0 -46 -53 -85.5t-137 -39.5q-87 0 -146 61t-59 154v110q0 93 59 154t146 61q80 0 137.5 -61.5t57.5 -153.5v-40q0 -30 -16.5 -47.5t-43.5 -17.5zM320 305
q0 50 -21.5 77.5t-53.5 27.5q-39 0 -62 -27t-23 -78h160zM285 655q0 -19 -13 -32t-32 -13q-28 0 -45 30l-55 95q-15 27 -15 45q0 26 16 43t39 17q39 0 55 -40l40 -105q10 -23 10 -40z" />
    <glyph glyph-name="eacute" unicode="&#xe9;" horiz-adv-x="475" 
d="M380 205h-220q0 -51 23 -78t62 -27q54 0 80 30q11 13 17 19t16 11t22 5q22 0 38.5 -16.5t16.5 -38.5q0 -46 -53 -85.5t-137 -39.5q-87 0 -146 61t-59 154v110q0 93 59 154t146 61q80 0 137.5 -61.5t57.5 -153.5v-40q0 -30 -16.5 -47.5t-43.5 -17.5zM320 305
q0 50 -21.5 77.5t-53.5 27.5q-39 0 -62 -27t-23 -78h160zM209 655q0 17 10 40l40 105q16 40 55 40q23 0 39 -17t16 -43q0 -18 -15 -45l-55 -95q-17 -30 -45 -30q-19 0 -32 13t-13 32z" />
    <glyph glyph-name="ecircumflex" unicode="&#xea;" horiz-adv-x="475" 
d="M380 205h-220q0 -51 23 -78t62 -27q54 0 80 30q11 13 17 19t16 11t22 5q22 0 38.5 -16.5t16.5 -38.5q0 -46 -53 -85.5t-137 -39.5q-87 0 -146 61t-59 154v110q0 93 59 154t146 61q80 0 137.5 -61.5t57.5 -153.5v-40q0 -30 -16.5 -47.5t-43.5 -17.5zM320 305
q0 50 -21.5 77.5t-53.5 27.5q-39 0 -62 -27t-23 -78h160zM238 735l-53 -95q-17 -30 -45 -30q-19 0 -32 13t-13 32q0 13 10 30l65 115q23 40 70 40t70 -40l65 -115q10 -17 10 -30q0 -19 -13 -32t-32 -13q-28 0 -45 30l-53 95h-4z" />
    <glyph glyph-name="edieresis" unicode="&#xeb;" horiz-adv-x="475" 
d="M380 205h-220q0 -51 23 -78t62 -27q54 0 80 30q11 13 17 19t16 11t22 5q22 0 38.5 -16.5t16.5 -38.5q0 -46 -53 -85.5t-137 -39.5q-87 0 -146 61t-59 154v110q0 93 59 154t146 61q80 0 137.5 -61.5t57.5 -153.5v-40q0 -30 -16.5 -47.5t-43.5 -17.5zM320 305
q0 50 -21.5 77.5t-53.5 27.5q-39 0 -62 -27t-23 -78h160zM85 685q0 26 19.5 45.5t45.5 19.5t45.5 -19.5t19.5 -45.5t-19.5 -45.5t-45.5 -19.5t-45.5 19.5t-19.5 45.5zM265 685q0 26 19.5 45.5t45.5 19.5t45.5 -19.5t19.5 -45.5t-19.5 -45.5t-45.5 -19.5t-45.5 19.5
t-19.5 45.5z" />
    <glyph glyph-name="igrave" unicode="&#xec;" horiz-adv-x="254" 
d="M189 450v-390q0 -30 -16.5 -47.5t-43.5 -17.5t-43.5 17.5t-16.5 47.5v390q0 30 16.5 47.5t43.5 17.5t43.5 -17.5t16.5 -47.5zM175 655q0 -19 -13 -32t-32 -13q-28 0 -45 30l-55 95q-15 27 -15 45q0 26 16 43t39 17q39 0 55 -40l40 -105q10 -23 10 -40z" />
    <glyph glyph-name="iacute" unicode="&#xed;" horiz-adv-x="245" 
d="M185 450v-390q0 -30 -16.5 -47.5t-43.5 -17.5t-43.5 17.5t-16.5 47.5v390q0 30 16.5 47.5t43.5 17.5t43.5 -17.5t16.5 -47.5zM95 655q0 17 10 40l40 105q16 40 55 40q23 0 39 -17t16 -43q0 -18 -15 -45l-55 -95q-17 -30 -45 -30q-19 0 -32 13t-13 32z" />
    <glyph glyph-name="icircumflex" unicode="&#xee;" horiz-adv-x="240" 
d="M185 450v-390q0 -30 -16.5 -47.5t-43.5 -17.5t-43.5 17.5t-16.5 47.5v390q0 30 16.5 47.5t43.5 17.5t43.5 -17.5t16.5 -47.5zM123 715l-53 -95q-17 -30 -45 -30q-19 0 -32 13t-13 32q0 13 10 30l65 115q23 40 70 40t70 -40l65 -115q10 -17 10 -30q0 -19 -13 -32t-32 -13
q-28 0 -45 30l-53 95h-4z" />
    <glyph glyph-name="idieresis" unicode="&#xef;" horiz-adv-x="250" 
d="M185 450v-390q0 -30 -16.5 -47.5t-43.5 -17.5t-43.5 17.5t-16.5 47.5v390q0 30 16.5 47.5t43.5 17.5t43.5 -17.5t16.5 -47.5zM-30 685q0 26 19.5 45.5t45.5 19.5t45.5 -19.5t19.5 -45.5t-19.5 -45.5t-45.5 -19.5t-45.5 19.5t-19.5 45.5zM150 685q0 26 19.5 45.5
t45.5 19.5t45.5 -19.5t19.5 -45.5t-19.5 -45.5t-45.5 -19.5t-45.5 19.5t-19.5 45.5z" />
    <glyph glyph-name="eth" unicode="&#xf0;" horiz-adv-x="470" 
d="M145 710q22 0 44.5 -4t34.5 -8l11 -3l20 40q13 25 40 25q19 0 32 -14t13 -36q0 -10 -5 -20l-20 -40q5 -3 12.5 -9t27.5 -29t35 -49.5t27.5 -72t12.5 -95.5v-180q0 -95 -62 -162.5t-143 -67.5t-143 67.5t-62 162.5q0 108 49.5 169t120.5 61q33 0 62 -12.5t41 -24.5l12 -13
h5q0 47 -11 85.5t-23 53.5l-11 16l-20 -35q-14 -25 -40 -25q-19 0 -32 14t-13 36q0 10 5 20l20 35q-15 5 -40 5q-23 0 -39 16t-16 39t16 39t39 16zM140 215q0 -54 24.5 -84.5t60.5 -30.5t60.5 30.5t24.5 84.5t-24.5 84.5t-60.5 30.5t-60.5 -30.5t-24.5 -84.5z" />
    <glyph glyph-name="ntilde" unicode="&#xf1;" horiz-adv-x="525" 
d="M345 60v250q0 47 -22.5 73.5t-57.5 26.5t-57.5 -26.5t-22.5 -73.5v-250q0 -30 -16.5 -47.5t-43.5 -17.5t-43.5 17.5t-16.5 47.5v390q0 30 16.5 47.5t43.5 17.5q22 0 37 -10t19 -20l4 -10h5q4 6 13 14t37.5 22t59.5 14q74 0 119.5 -55t45.5 -160v-250q0 -30 -16.5 -47.5
t-43.5 -17.5t-43.5 17.5t-16.5 47.5zM205 785q25 0 44 -11t28 -24t18.5 -24t19.5 -11q11 0 18.5 10t11.5 22.5t15 22.5t30 10q16 0 28 -12t12 -28q0 -54 -33 -92t-72 -38q-25 0 -44 11t-28 24t-18.5 24t-19.5 11q-11 0 -18.5 -10t-11.5 -22.5t-15 -22.5t-30 -10
q-16 0 -28 11.5t-12 28.5q0 54 33 92t72 38z" />
    <glyph glyph-name="ograve" unicode="&#xf2;" 
d="M245 100q38 0 61.5 26t23.5 74v110q0 48 -23.5 74t-61.5 26t-61.5 -26t-23.5 -74v-110q0 -48 23.5 -74t61.5 -26zM245 -15q-87 0 -146 61t-59 154v110q0 93 59 154t146 61t146 -61t59 -154v-110q0 -93 -59 -154t-146 -61zM290 655q0 -19 -13 -32t-32 -13q-28 0 -45 30
l-55 95q-15 27 -15 45q0 26 16 43t39 17q39 0 55 -40l40 -105q10 -23 10 -40z" />
    <glyph glyph-name="oacute" unicode="&#xf3;" 
d="M245 100q38 0 61.5 26t23.5 74v110q0 48 -23.5 74t-61.5 26t-61.5 -26t-23.5 -74v-110q0 -48 23.5 -74t61.5 -26zM245 -15q-87 0 -146 61t-59 154v110q0 93 59 154t146 61t146 -61t59 -154v-110q0 -93 -59 -154t-146 -61zM215 655q0 17 10 40l40 105q16 40 55 40
q23 0 39 -17t16 -43q0 -18 -15 -45l-55 -95q-17 -30 -45 -30q-19 0 -32 13t-13 32z" />
    <glyph glyph-name="ocircumflex" unicode="&#xf4;" 
d="M245 100q38 0 61.5 26t23.5 74v110q0 48 -23.5 74t-61.5 26t-61.5 -26t-23.5 -74v-110q0 -48 23.5 -74t61.5 -26zM245 -15q-87 0 -146 61t-59 154v110q0 93 59 154t146 61t146 -61t59 -154v-110q0 -93 -59 -154t-146 -61zM243 735l-53 -95q-17 -30 -45 -30q-19 0 -32 13
t-13 32q0 13 10 30l65 115q23 40 70 40t70 -40l65 -115q10 -17 10 -30q0 -19 -13 -32t-32 -13q-28 0 -45 30l-53 95h-4z" />
    <glyph glyph-name="otilde" unicode="&#xf5;" 
d="M245 100q38 0 61.5 26t23.5 74v110q0 48 -23.5 74t-61.5 26t-61.5 -26t-23.5 -74v-110q0 -48 23.5 -74t61.5 -26zM245 -15q-87 0 -146 61t-59 154v110q0 93 59 154t146 61t146 -61t59 -154v-110q0 -93 -59 -154t-146 -61zM185 785q25 0 44 -11t28 -24t18.5 -24t19.5 -11
q11 0 18.5 10t11.5 22.5t15 22.5t30 10q16 0 28 -12t12 -28q0 -54 -33 -92t-72 -38q-25 0 -44 11t-28 24t-18.5 24t-19.5 11q-11 0 -18.5 -10t-11.5 -22.5t-15 -22.5t-30 -10q-16 0 -28 11.5t-12 28.5q0 54 33 92t72 38z" />
    <glyph glyph-name="odieresis" unicode="&#xf6;" 
d="M245 100q38 0 61.5 26t23.5 74v110q0 48 -23.5 74t-61.5 26t-61.5 -26t-23.5 -74v-110q0 -48 23.5 -74t61.5 -26zM245 -15q-87 0 -146 61t-59 154v110q0 93 59 154t146 61t146 -61t59 -154v-110q0 -93 -59 -154t-146 -61zM90 685q0 26 19.5 45.5t45.5 19.5t45.5 -19.5
t19.5 -45.5t-19.5 -45.5t-45.5 -19.5t-45.5 19.5t-19.5 45.5zM270 685q0 26 19.5 45.5t45.5 19.5t45.5 -19.5t19.5 -45.5t-19.5 -45.5t-45.5 -19.5t-45.5 19.5t-19.5 45.5z" />
    <glyph glyph-name="divide" unicode="&#xf7;" horiz-adv-x="460" 
d="M155 150q0 34 20.5 54.5t54.5 20.5t54.5 -20.5t20.5 -54.5t-20.5 -54.5t-54.5 -20.5t-54.5 20.5t-20.5 54.5zM155 540q0 34 20.5 54.5t54.5 20.5t54.5 -20.5t20.5 -54.5t-20.5 -54.5t-54.5 -20.5t-54.5 20.5t-20.5 54.5zM385 290h-310q-23 0 -39 16t-16 39t16 39t39 16
h310q23 0 39 -16t16 -39t-16 -39t-39 -16z" />
    <glyph glyph-name="oslash" unicode="&#xf8;" 
d="M245 -15q-18 0 -36.5 3.5t-28.5 7.5l-10 4l-10 -20q-12 -25 -40 -25q-19 0 -32 14t-13 36q0 10 5 20l15 25q-6 6 -15 18t-24.5 51t-15.5 81v110q0 93 59 154t146 61q37 0 75 -15l10 20q13 25 40 25q19 0 32 -14t13 -36q0 -10 -5 -20l-15 -25q55 -61 55 -150v-110
q0 -93 -59 -154t-146 -61zM245 100q38 0 61.5 26t23.5 74v120l-110 -215q18 -5 25 -5zM160 310v-120l110 215q-20 5 -25 5q-38 0 -61.5 -26t-23.5 -74z" />
    <glyph glyph-name="ugrave" unicode="&#xf9;" horiz-adv-x="530" 
d="M185 450v-250q0 -47 22.5 -73.5t57.5 -26.5t57.5 26.5t22.5 73.5v250q0 30 16.5 47.5t43.5 17.5t43.5 -17.5t16.5 -47.5v-390q0 -30 -16.5 -47.5t-43.5 -17.5q-22 0 -37 10t-19 20l-4 10h-5q-4 -6 -13 -14t-37.5 -22t-59.5 -14q-74 0 -119.5 55t-45.5 160v250
q0 30 16.5 47.5t43.5 17.5t43.5 -17.5t16.5 -47.5zM310 655q0 -19 -13 -32t-32 -13q-28 0 -45 30l-55 95q-15 27 -15 45q0 26 16 43t39 17q39 0 55 -40l40 -105q10 -23 10 -40z" />
    <glyph glyph-name="uacute" unicode="&#xfa;" horiz-adv-x="530" 
d="M185 450v-250q0 -47 22.5 -73.5t57.5 -26.5t57.5 26.5t22.5 73.5v250q0 30 16.5 47.5t43.5 17.5t43.5 -17.5t16.5 -47.5v-390q0 -30 -16.5 -47.5t-43.5 -17.5q-22 0 -37 10t-19 20l-4 10h-5q-4 -6 -13 -14t-37.5 -22t-59.5 -14q-74 0 -119.5 55t-45.5 160v250
q0 30 16.5 47.5t43.5 17.5t43.5 -17.5t16.5 -47.5zM235 655q0 17 10 40l40 105q16 40 55 40q23 0 39 -17t16 -43q0 -18 -15 -45l-55 -95q-17 -30 -45 -30q-19 0 -32 13t-13 32z" />
    <glyph glyph-name="ucircumflex" unicode="&#xfb;" horiz-adv-x="530" 
d="M185 450v-250q0 -47 22.5 -73.5t57.5 -26.5t57.5 26.5t22.5 73.5v250q0 30 16.5 47.5t43.5 17.5t43.5 -17.5t16.5 -47.5v-390q0 -30 -16.5 -47.5t-43.5 -17.5q-22 0 -37 10t-19 20l-4 10h-5q-4 -6 -13 -14t-37.5 -22t-59.5 -14q-74 0 -119.5 55t-45.5 160v250
q0 30 16.5 47.5t43.5 17.5t43.5 -17.5t16.5 -47.5zM263 735l-53 -95q-17 -30 -45 -30q-19 0 -32 13t-13 32q0 13 10 30l65 115q23 40 70 40t70 -40l65 -115q10 -17 10 -30q0 -19 -13 -32t-32 -13q-28 0 -45 30l-53 95h-4z" />
    <glyph glyph-name="udieresis" unicode="&#xfc;" horiz-adv-x="530" 
d="M185 450v-250q0 -47 22.5 -73.5t57.5 -26.5t57.5 26.5t22.5 73.5v250q0 30 16.5 47.5t43.5 17.5t43.5 -17.5t16.5 -47.5v-390q0 -30 -16.5 -47.5t-43.5 -17.5q-22 0 -37 10t-19 20l-4 10h-5q-4 -6 -13 -14t-37.5 -22t-59.5 -14q-74 0 -119.5 55t-45.5 160v250
q0 30 16.5 47.5t43.5 17.5t43.5 -17.5t16.5 -47.5zM110 685q0 26 19.5 45.5t45.5 19.5t45.5 -19.5t19.5 -45.5t-19.5 -45.5t-45.5 -19.5t-45.5 19.5t-19.5 45.5zM290 685q0 26 19.5 45.5t45.5 19.5t45.5 -19.5t19.5 -45.5t-19.5 -45.5t-45.5 -19.5t-45.5 19.5t-19.5 45.5z
" />
    <glyph glyph-name="yacute" unicode="&#xfd;" horiz-adv-x="440" 
d="M220 -165l195 555q20 50 20 65q0 26 -17 43t-43 17q-23 0 -36.5 -12.5t-23.5 -42.5l-91 -260h-4l-95 260q-10 30 -23.5 42.5t-36.5 12.5q-26 0 -43 -17t-17 -43q0 -15 20 -65l136 -371l-41 -114q-20 -50 -20 -65q0 -26 17 -43t43 -17q22 0 35.5 12.5t24.5 42.5zM190 655
q0 17 10 40l40 105q16 40 55 40q23 0 39 -17t16 -43q0 -18 -15 -45l-55 -95q-17 -30 -45 -30q-19 0 -32 13t-13 32z" />
    <glyph glyph-name="thorn" unicode="&#xfe;" horiz-adv-x="520" 
d="M275 410q-38 0 -61.5 -26t-23.5 -74v-110q0 -48 23.5 -74t61.5 -26t61.5 26t23.5 74v110q0 48 -23.5 74t-61.5 26zM70 -155v810q0 30 16.5 47.5t43.5 17.5t43.5 -17.5t16.5 -47.5v-180h5q4 6 13 14t39 22t63 14q78 0 124 -55t46 -160v-110q0 -105 -46 -160t-124 -55
q-33 0 -62 12.5t-41 24.5l-12 13h-5v-190q0 -30 -16.5 -47.5t-43.5 -17.5t-43.5 17.5t-16.5 47.5z" />
    <glyph glyph-name="ydieresis" unicode="&#xff;" horiz-adv-x="440" 
d="M220 -165l195 555q20 50 20 65q0 26 -17 43t-43 17q-23 0 -36.5 -12.5t-23.5 -42.5l-91 -260h-4l-95 260q-10 30 -23.5 42.5t-36.5 12.5q-26 0 -43 -17t-17 -43q0 -15 20 -65l136 -371l-41 -114q-20 -50 -20 -65q0 -26 17 -43t43 -17q22 0 35.5 12.5t24.5 42.5zM65 685
q0 26 19.5 45.5t45.5 19.5t45.5 -19.5t19.5 -45.5t-19.5 -45.5t-45.5 -19.5t-45.5 19.5t-19.5 45.5zM245 685q0 26 19.5 45.5t45.5 19.5t45.5 -19.5t19.5 -45.5t-19.5 -45.5t-45.5 -19.5t-45.5 19.5t-19.5 45.5z" />
    <glyph glyph-name="Amacron" unicode="&#x100;" horiz-adv-x="580" 
d="M287 555l-72 -255h150l-72 255h-6zM435 60l-35 115h-220l-35 -115q-19 -65 -70 -65q-26 0 -45.5 19.5t-19.5 45.5q0 17 10 50l175 540q23 70 95 70t95 -70l175 -540q10 -33 10 -50q0 -26 -19.5 -45.5t-45.5 -19.5q-51 0 -70 65zM380 820h-180q-22 0 -36 14t-14 36t14 36
t36 14h180q22 0 36 -14t14 -36t-14 -36t-36 -14z" />
    <glyph glyph-name="amacron" unicode="&#x101;" 
d="M225 100q39 0 62 28t23 82v10h-65q-40 0 -60 -16.5t-20 -43.5q0 -26 17 -43t43 -17zM235 410q-8 0 -15.5 -1t-14 -3t-10.5 -3.5t-9.5 -5.5t-7 -5.5t-7.5 -6.5l-6 -5q-2 -1 -9 -7t-11.5 -9t-12.5 -6t-17 -3q-23 0 -39 16.5t-16 38.5q0 37 54 76t121 39q83 0 139 -59
t56 -146v-260q0 -30 -16.5 -47.5t-43.5 -17.5q-24 0 -39 12.5t-18 24.5l-3 13h-4q-1 -2 -3.5 -6.5t-11 -14.5t-19 -18t-29 -14.5t-38.5 -6.5q-72 0 -118.5 48.5t-46.5 126.5q0 73 50 119t135 46h85q0 41 -20.5 63t-54.5 22zM325 630h-180q-23 0 -36.5 14t-13.5 36t13.5 36
t36.5 14h180q23 0 36.5 -14t13.5 -36t-13.5 -36t-36.5 -14z" />
    <glyph glyph-name="Abreve" unicode="&#x102;" horiz-adv-x="580" 
d="M287 555l-72 -255h150l-72 255h-6zM435 60l-35 115h-220l-35 -115q-19 -65 -70 -65q-26 0 -45.5 19.5t-19.5 45.5q0 17 10 50l175 540q23 70 95 70t95 -70l175 -540q10 -33 10 -50q0 -26 -19.5 -45.5t-45.5 -19.5q-51 0 -70 65zM290 800q-60 0 -102.5 41t-42.5 94
q0 19 13 32t32 13q30 0 45 -30l3 -6q9 -18 14 -26t15 -15.5t23 -7.5t23 7.5t15 15.5t14 26l3 6q15 30 45 30q19 0 32 -13t13 -32q0 -53 -42.5 -94t-102.5 -41z" />
    <glyph glyph-name="abreve" unicode="&#x103;" 
d="M225 100q39 0 62 28t23 82v10h-65q-40 0 -60 -16.5t-20 -43.5q0 -26 17 -43t43 -17zM235 410q-8 0 -15.5 -1t-14 -3t-10.5 -3.5t-9.5 -5.5t-7 -5.5t-7.5 -6.5l-6 -5q-2 -1 -9 -7t-11.5 -9t-12.5 -6t-17 -3q-23 0 -39 16.5t-16 38.5q0 37 54 76t121 39q83 0 139 -59
t56 -146v-260q0 -30 -16.5 -47.5t-43.5 -17.5q-24 0 -39 12.5t-18 24.5l-3 13h-4q-1 -2 -3.5 -6.5t-11 -14.5t-19 -18t-29 -14.5t-38.5 -6.5q-72 0 -118.5 48.5t-46.5 126.5q0 73 50 119t135 46h85q0 41 -20.5 63t-54.5 22zM235 610q-60 0 -102.5 41t-42.5 94q0 19 13 32
t32 13q30 0 45 -30l3 -6q9 -18 14 -26t15 -15.5t23 -7.5t23 7.5t15 15.5t14 26l3 6q15 30 45 30q19 0 32 -13t13 -32q0 -53 -42.5 -94t-102.5 -41z" />
    <glyph glyph-name="Aogonek" unicode="&#x104;" horiz-adv-x="580" 
d="M355 -125q0 36 25 72t50 55l25 18q-11 10 -20 40l-35 115h-220l-35 -115q-19 -65 -70 -65q-26 0 -45.5 19.5t-19.5 45.5q0 17 10 50l175 540q23 70 95 70t95 -70l175 -540q10 -33 10 -50q0 -20 -10 -35t-20 -20l-10 -5q-10 -7 -25 -18.5t-40 -43t-25 -58.5q0 -45 40 -45
q7 0 15.5 2.5t19.5 2.5q17 0 28.5 -12t11.5 -28q0 -20 -20 -35t-55 -15q-59 0 -92 32.5t-33 92.5zM287 555l-72 -255h150l-72 255h-6z" />
    <glyph glyph-name="aogonek" unicode="&#x105;" 
d="M225 100q39 0 62 28t23 82v10h-65q-40 0 -60 -16.5t-20 -43.5q0 -26 17 -43t43 -17zM310 45h-4q-1 -2 -3.5 -6.5t-11 -14.5t-19 -18t-29 -14.5t-38.5 -6.5q-72 0 -118.5 48.5t-46.5 126.5q0 73 50 119t135 46h85q0 41 -20.5 63t-54.5 22q-8 0 -15.5 -1t-14 -3t-10.5 -3.5
t-9.5 -5.5t-7 -5.5t-7.5 -6.5l-6 -5q-2 -1 -9 -7t-11.5 -9t-12.5 -6t-17 -3q-23 0 -39 16.5t-16 38.5q0 37 54 76t121 39q83 0 139 -59t56 -146v-260q0 -21 -9 -36t-17 -20l-9 -4q-10 -7 -25 -18.5t-40 -43t-25 -58.5q0 -45 40 -45q7 0 15.5 2.5t19.5 2.5q16 0 28 -12
t12 -28q0 -20 -20 -35t-55 -15q-59 0 -92 32.5t-33 92.5q0 36 25 72t50 55l25 18q-10 10 -10 25z" />
    <glyph glyph-name="Cacute" unicode="&#x106;" horiz-adv-x="555" 
d="M310 100q75 0 110 70q20 40 55 40q30 0 47.5 -17.5t17.5 -47.5q0 -54 -69.5 -109.5t-160.5 -55.5q-111 0 -183 79t-72 211v160q0 132 72 211t183 79q92 0 153.5 -48.5t61.5 -101.5q0 -28 -17.5 -46.5t-42.5 -18.5q-33 0 -55 35q-39 60 -100 60q-55 0 -90 -43.5
t-35 -126.5v-160q0 -83 35 -126.5t90 -43.5zM270 835q0 17 10 40l40 105q16 40 55 40q23 0 39 -17t16 -43q0 -18 -15 -45l-55 -95q-17 -30 -45 -30q-19 0 -32 13t-13 32z" />
    <glyph glyph-name="cacute" unicode="&#x107;" horiz-adv-x="450" 
d="M245 410q-38 0 -61.5 -26t-23.5 -74v-110q0 -48 23.5 -74t61.5 -26q49 0 80 40q26 35 55 35q22 0 38.5 -16.5t16.5 -38.5q0 -45 -56.5 -90t-133.5 -45q-87 0 -146 61t-59 154v110q0 93 59 154t146 61q71 0 128 -42t57 -83q0 -22 -16 -38.5t-39 -16.5t-50 25l-10 10
t-13 11t-14 8.5t-19.5 8t-23.5 2.5zM207 655q0 17 10 40l40 105q16 40 55 40q23 0 39 -17t16 -43q0 -18 -15 -45l-55 -95q-17 -30 -45 -30q-19 0 -32 13t-13 32z" />
    <glyph glyph-name="Ccircumflex" unicode="&#x108;" horiz-adv-x="555" 
d="M310 100q75 0 110 70q20 40 55 40q30 0 47.5 -17.5t17.5 -47.5q0 -54 -69.5 -109.5t-160.5 -55.5q-111 0 -183 79t-72 211v160q0 132 72 211t183 79q92 0 153.5 -48.5t61.5 -101.5q0 -28 -17.5 -46.5t-42.5 -18.5q-33 0 -55 35q-39 60 -100 60q-55 0 -90 -43.5
t-35 -126.5v-160q0 -83 35 -126.5t90 -43.5zM295 915l-53 -95q-17 -30 -45 -30q-19 0 -32 13t-13 32q0 13 10 30l65 115q23 40 70 40t70 -40l65 -115q10 -17 10 -30q0 -19 -13 -32t-32 -13q-28 0 -45 30l-53 95h-4z" />
    <glyph glyph-name="ccircumflex" unicode="&#x109;" horiz-adv-x="450" 
d="M245 410q-38 0 -61.5 -26t-23.5 -74v-110q0 -48 23.5 -74t61.5 -26q49 0 80 40q26 35 55 35q22 0 38.5 -16.5t16.5 -38.5q0 -45 -56.5 -90t-133.5 -45q-87 0 -146 61t-59 154v110q0 93 59 154t146 61q71 0 128 -42t57 -83q0 -22 -16 -38.5t-39 -16.5t-50 25l-10 10
t-13 11t-14 8.5t-19.5 8t-23.5 2.5zM235 735l-53 -95q-17 -30 -45 -30q-19 0 -32 13t-13 32q0 13 10 30l65 115q23 40 70 40t70 -40l65 -115q10 -17 10 -30q0 -19 -13 -32t-32 -13q-28 0 -45 30l-53 95h-4z" />
    <glyph glyph-name="Ccaron" unicode="&#x10c;" horiz-adv-x="555" 
d="M310 100q75 0 110 70q20 40 55 40q30 0 47.5 -17.5t17.5 -47.5q0 -54 -69.5 -109.5t-160.5 -55.5q-111 0 -183 79t-72 211v160q0 132 72 211t183 79q92 0 153.5 -48.5t61.5 -101.5q0 -28 -17.5 -46.5t-42.5 -18.5q-33 0 -55 35q-39 60 -100 60q-55 0 -90 -43.5
t-35 -126.5v-160q0 -83 35 -126.5t90 -43.5zM299 895l53 95q17 30 45 30q19 0 32 -13t13 -32q0 -13 -10 -30l-65 -115q-23 -40 -70 -40t-70 40l-65 115q-10 17 -10 30q0 19 13 32t32 13q28 0 45 -30l53 -95h4z" />
    <glyph glyph-name="ccaron" unicode="&#x10d;" horiz-adv-x="450" 
d="M245 410q-38 0 -61.5 -26t-23.5 -74v-110q0 -48 23.5 -74t61.5 -26q49 0 80 40q26 35 55 35q22 0 38.5 -16.5t16.5 -38.5q0 -45 -56.5 -90t-133.5 -45q-87 0 -146 61t-59 154v110q0 93 59 154t146 61q71 0 128 -42t57 -83q0 -22 -16 -38.5t-39 -16.5t-50 25l-10 10
t-13 11t-14 8.5t-19.5 8t-23.5 2.5zM239 715l53 95q17 30 45 30q19 0 32 -13t13 -32q0 -13 -10 -30l-65 -115q-23 -40 -70 -40t-70 40l-65 115q-10 17 -10 30q0 19 13 32t32 13q28 0 45 -30l53 -95h4z" />
    <glyph glyph-name="Dcaron" unicode="&#x10e;" horiz-adv-x="610" 
d="M210 120h95q55 0 90 43.5t35 126.5v120q0 83 -35 126.5t-90 43.5h-95v-460zM305 0h-160q-30 0 -47.5 17.5t-17.5 47.5v570q0 30 17.5 47.5t47.5 17.5h160q111 0 183 -79t72 -211v-120q0 -132 -72 -211t-183 -79zM292 895l53 95q17 30 45 30q19 0 32 -13t13 -32
q0 -13 -10 -30l-65 -115q-23 -40 -70 -40t-70 40l-65 115q-10 17 -10 30q0 19 13 32t32 13q28 0 45 -30l53 -95h4z" />
    <glyph glyph-name="dcaron" unicode="&#x10f;" horiz-adv-x="615" 
d="M245 100q38 0 61.5 26t23.5 74v110q0 48 -23.5 74t-61.5 26t-61.5 -26t-23.5 -74v-110q0 -48 23.5 -74t61.5 -26zM325 475h5v180q0 30 16.5 47.5t43.5 17.5t43.5 -17.5t16.5 -47.5v-595q0 -30 -16.5 -47.5t-43.5 -17.5q-22 0 -37 10t-19 20l-4 10h-5q-4 -6 -13 -14
t-39 -22t-63 -14q-78 0 -124 55t-46 160v110q0 105 46 160t124 55q33 0 62 -12.5t41 -24.5zM645 645q0 -60 -39 -107.5t-76 -47.5q-8 0 -14 6t-6 14q0 14 20 25q40 23 40 55q-20 0 -37.5 18.5t-17.5 46.5q0 30 17.5 47.5t47.5 17.5q65 0 65 -75z" />
    <glyph glyph-name="Dcroat" unicode="&#x110;" horiz-adv-x="610" 
d="M305 0h-160q-30 0 -47.5 17.5t-17.5 47.5v225q-26 0 -43 17t-17 43t17 43t43 17v225q0 30 17.5 47.5t47.5 17.5h160q111 0 183 -79t72 -211v-120q0 -132 -72 -211t-183 -79zM210 120h95q55 0 90 43.5t35 126.5v120q0 83 -35 126.5t-90 43.5h-95v-170h60q26 0 43 -17
t17 -43t-17 -43t-43 -17h-60v-170z" />
    <glyph glyph-name="dcroat" unicode="&#x111;" horiz-adv-x="520" 
d="M245 620h85v35q0 30 16.5 47.5t43.5 17.5t43.5 -17.5t16.5 -47.5v-35h5q23 0 39 -16t16 -39t-16 -39t-39 -16h-5v-450q0 -30 -16.5 -47.5t-43.5 -17.5q-22 0 -37 10t-19 20l-4 10h-5q-4 -6 -13 -14t-39 -22t-63 -14q-71 0 -120.5 61t-49.5 169t49.5 169t120.5 61
q33 0 62 -12.5t41 -24.5l12 -13h5v115h-85q-23 0 -39 16t-16 39t16 39t39 16zM160 215q0 -54 24.5 -84.5t60.5 -30.5t60.5 30.5t24.5 84.5t-24.5 84.5t-60.5 30.5t-60.5 -30.5t-24.5 -84.5z" />
    <glyph glyph-name="Emacron" unicode="&#x112;" horiz-adv-x="555" 
d="M485 0h-340q-30 0 -47.5 17.5t-17.5 47.5v570q0 30 17.5 47.5t47.5 17.5h330q26 0 43 -17t17 -43t-17 -43t-43 -17h-265v-170h185q26 0 43 -17t17 -43t-17 -43t-43 -17h-185v-170h275q26 0 43 -17t17 -43t-17 -43t-43 -17zM402 820h-180q-22 0 -36 14t-14 36t14 36t36 14
h180q22 0 36 -14t14 -36t-14 -36t-36 -14z" />
    <glyph glyph-name="emacron" unicode="&#x113;" horiz-adv-x="475" 
d="M380 205h-220q0 -51 23 -78t62 -27q54 0 80 30q11 13 17 19t16 11t22 5q22 0 38.5 -16.5t16.5 -38.5q0 -46 -53 -85.5t-137 -39.5q-87 0 -146 61t-59 154v110q0 93 59 154t146 61q80 0 137.5 -61.5t57.5 -153.5v-40q0 -30 -16.5 -47.5t-43.5 -17.5zM320 305
q0 50 -21.5 77.5t-53.5 27.5q-39 0 -62 -27t-23 -78h160zM330 630h-180q-22 0 -36 14t-14 36t14 36t36 14h180q22 0 36 -14t14 -36t-14 -36t-36 -14z" />
    <glyph glyph-name="Edotaccent" unicode="&#x116;" horiz-adv-x="555" 
d="M485 0h-340q-30 0 -47.5 17.5t-17.5 47.5v570q0 30 17.5 47.5t47.5 17.5h330q26 0 43 -17t17 -43t-17 -43t-43 -17h-265v-170h185q26 0 43 -17t17 -43t-17 -43t-43 -17h-185v-170h275q26 0 43 -17t17 -43t-17 -43t-43 -17zM247 865q0 30 19 50t46 20t46 -20t19 -50
t-19 -50t-46 -20t-46 20t-19 50z" />
    <glyph glyph-name="edotaccent" unicode="&#x117;" horiz-adv-x="475" 
d="M380 205h-220q0 -51 23 -78t62 -27q54 0 80 30q11 13 17 19t16 11t22 5q22 0 38.5 -16.5t16.5 -38.5q0 -46 -53 -85.5t-137 -39.5q-87 0 -146 61t-59 154v110q0 93 59 154t146 61q80 0 137.5 -61.5t57.5 -153.5v-40q0 -30 -16.5 -47.5t-43.5 -17.5zM320 305
q0 50 -21.5 77.5t-53.5 27.5q-39 0 -62 -27t-23 -78h160zM175 685q0 30 19 50t46 20t46 -20t19 -50t-19 -50t-46 -20t-46 20t-19 50z" />
    <glyph glyph-name="Eogonek" unicode="&#x118;" horiz-adv-x="555" 
d="M325 -125q0 33 20 64.5t40 46.5l20 14h-260q-30 0 -47.5 17.5t-17.5 47.5v570q0 30 17.5 47.5t47.5 17.5h330q26 0 43 -17t17 -43t-17 -43t-43 -17h-265v-170h185q26 0 43 -17t17 -43t-17 -43t-43 -17h-185v-170h275q26 0 43 -17t17 -43q0 -23 -21 -43.5t-46.5 -35
t-46.5 -41t-21 -60.5q0 -45 40 -45q7 0 15.5 2.5t19.5 2.5q17 0 28.5 -12t11.5 -28q0 -20 -20 -35t-55 -15q-59 0 -92 32.5t-33 92.5z" />
    <glyph glyph-name="eogonek" unicode="&#x119;" horiz-adv-x="475" 
d="M155 -125q0 29 15 56.5t30 40.5l15 13q-7 1 -19 4t-42 18.5t-53 36.5t-42 62.5t-19 93.5v110q0 93 59 154t146 61q80 0 137.5 -61.5t57.5 -153.5v-40q0 -30 -16.5 -47.5t-43.5 -17.5h-220q0 -51 23 -78t62 -27q54 0 80 30q11 13 17 19t16 11t22 5q22 0 38.5 -16.5
t16.5 -38.5q0 -33 -25 -60.5t-50 -38.5l-25 -11q-1 0 -8 -5t-11 -8t-13 -10t-15 -12.5t-14 -13.5t-13.5 -16t-10.5 -17t-7.5 -18.5t-2.5 -19.5q0 -45 40 -45q7 0 15.5 2.5t19.5 2.5q17 0 28.5 -12t11.5 -28q0 -20 -20 -35t-55 -15q-59 0 -92 32.5t-33 92.5zM320 305
q0 50 -21.5 77.5t-53.5 27.5q-39 0 -62 -27t-23 -78h160z" />
    <glyph glyph-name="Ecaron" unicode="&#x11a;" horiz-adv-x="555" 
d="M485 0h-340q-30 0 -47.5 17.5t-17.5 47.5v570q0 30 17.5 47.5t47.5 17.5h330q26 0 43 -17t17 -43t-17 -43t-43 -17h-265v-170h185q26 0 43 -17t17 -43t-17 -43t-43 -17h-185v-170h275q26 0 43 -17t17 -43t-17 -43t-43 -17zM314 895l53 95q17 30 45 30q19 0 32 -13t13 -32
q0 -13 -10 -30l-65 -115q-23 -40 -70 -40t-70 40l-65 115q-10 17 -10 30q0 19 13 32t32 13q28 0 45 -30l53 -95h4z" />
    <glyph glyph-name="ecaron" unicode="&#x11b;" horiz-adv-x="475" 
d="M380 205h-220q0 -51 23 -78t62 -27q54 0 80 30q11 13 17 19t16 11t22 5q22 0 38.5 -16.5t16.5 -38.5q0 -46 -53 -85.5t-137 -39.5q-87 0 -146 61t-59 154v110q0 93 59 154t146 61q80 0 137.5 -61.5t57.5 -153.5v-40q0 -30 -16.5 -47.5t-43.5 -17.5zM320 305
q0 50 -21.5 77.5t-53.5 27.5q-39 0 -62 -27t-23 -78h160zM242 715l53 95q17 30 45 30q19 0 32 -13t13 -32q0 -13 -10 -30l-65 -115q-23 -40 -70 -40t-70 40l-65 115q-10 17 -10 30q0 19 13 32t32 13q28 0 45 -30l53 -95h4z" />
    <glyph glyph-name="Gbreve" unicode="&#x11e;" horiz-adv-x="595" 
d="M425 280h-65q-26 0 -43 16t-17 39q0 30 16.5 47.5t43.5 17.5h115q30 0 47.5 -17.5t17.5 -47.5v-205q0 -44 -70 -97t-160 -53q-111 0 -183 79t-72 211v160q0 132 72 211t183 79q92 0 153.5 -48.5t61.5 -101.5q0 -28 -17.5 -46.5t-42.5 -18.5q-33 0 -55 35q-39 60 -100 60
q-55 0 -90 -43.5t-35 -126.5v-160q0 -83 35 -126.5t90 -43.5q36 0 64.5 15t39.5 30l11 15v120zM297 790q-60 0 -102.5 41t-42.5 94q0 19 13 32t32 13q30 0 45 -30l3 -6q9 -18 14 -26t15 -15.5t23 -7.5t23 7.5t15 15.5t14 26l3 6q15 30 45 30q19 0 32 -13t13 -32
q0 -53 -42.5 -94t-102.5 -41z" />
    <glyph glyph-name="gbreve" unicode="&#x11f;" horiz-adv-x="515" 
d="M245 410q38 0 61.5 -26t23.5 -74v-85q0 -48 -23.5 -74t-61.5 -26t-61.5 26t-23.5 74v85q0 48 23.5 74t61.5 26zM330 60v-65q0 -48 -23.5 -74t-61.5 -26q-49 0 -80 40q-26 35 -55 35q-22 0 -38.5 -16t-16.5 -39q0 -45 56.5 -90t133.5 -45q87 0 146 61t59 154v455
q0 30 -16.5 47.5t-43.5 17.5q-22 0 -37 -10t-19 -20l-4 -10h-5q-4 6 -13 14t-39 22t-63 14q-78 0 -124 -55t-46 -160v-85q0 -105 46 -160t124 -55q33 0 62 12.5t41 25.5l12 12h5zM245 610q-60 0 -102.5 41t-42.5 94q0 19 13 32t32 13q30 0 45 -30l3 -6q9 -18 14 -26
t15 -15.5t23 -7.5t23 7.5t15 15.5t14 26l3 6q15 30 45 30q19 0 32 -13t13 -32q0 -53 -42.5 -94t-102.5 -41z" />
    <glyph glyph-name="Gcommaaccent" unicode="&#x122;" horiz-adv-x="595" 
d="M425 280h-65q-26 0 -43 16t-17 39q0 30 16.5 47.5t43.5 17.5h115q30 0 47.5 -17.5t17.5 -47.5v-205q0 -44 -70 -97t-160 -53q-111 0 -183 79t-72 211v160q0 132 72 211t183 79q92 0 153.5 -48.5t61.5 -101.5q0 -28 -17.5 -46.5t-42.5 -18.5q-33 0 -55 35q-39 60 -100 60
q-55 0 -90 -43.5t-35 -126.5v-160q0 -83 35 -126.5t90 -43.5q36 0 64.5 15t39.5 30l11 15v120zM361 -150q0 -60 -39 -107.5t-76 -47.5q-8 0 -14 6t-6 14q0 14 20 25q40 23 40 55q-20 0 -37.5 18.5t-17.5 46.5q0 30 17.5 47.5t47.5 17.5q65 0 65 -75z" />
    <glyph glyph-name="gcommaaccent" unicode="&#x123;" horiz-adv-x="515" 
d="M183 685q0 60 39 107.5t76 47.5q8 0 14 -6t6 -14q0 -14 -20 -25q-40 -23 -40 -55q20 0 37.5 -18.5t17.5 -46.5q0 -30 -17.5 -47.5t-47.5 -17.5q-65 0 -65 75zM245 410q38 0 61.5 -26t23.5 -74v-85q0 -48 -23.5 -74t-61.5 -26t-61.5 26t-23.5 74v85q0 48 23.5 74t61.5 26z
M330 60v-65q0 -48 -23.5 -74t-61.5 -26q-49 0 -80 40q-26 35 -55 35q-22 0 -38.5 -16t-16.5 -39q0 -45 56.5 -90t133.5 -45q87 0 146 61t59 154v455q0 30 -16.5 47.5t-43.5 17.5q-22 0 -37 -10t-19 -20l-4 -10h-5q-4 6 -13 14t-39 22t-63 14q-78 0 -124 -55t-46 -160v-85
q0 -105 46 -160t124 -55q33 0 62 12.5t41 25.5l12 12h5z" />
    <glyph glyph-name="Imacron" unicode="&#x12a;" horiz-adv-x="290" 
d="M210 640v-580q0 -30 -17.5 -47.5t-47.5 -17.5t-47.5 17.5t-17.5 47.5v580q0 30 17.5 47.5t47.5 17.5t47.5 -17.5t17.5 -47.5zM235 820h-180q-23 0 -36.5 14t-13.5 36t13.5 36t36.5 14h180q23 0 36.5 -14t13.5 -36t-13.5 -36t-36.5 -14z" />
    <glyph glyph-name="imacron" unicode="&#x12b;" horiz-adv-x="250" 
d="M215 630h-180q-23 0 -36.5 14t-13.5 36t13.5 36t36.5 14h180q23 0 36.5 -14t13.5 -36t-13.5 -36t-36.5 -14zM185 450v-390q0 -30 -16.5 -47.5t-43.5 -17.5t-43.5 17.5t-16.5 47.5v390q0 30 16.5 47.5t43.5 17.5t43.5 -17.5t16.5 -47.5z" />
    <glyph glyph-name="Iogonek" unicode="&#x12e;" horiz-adv-x="290" 
d="M0 -125q0 33 23.5 68t47.5 53l24 19q-15 15 -15 45v580q0 30 17.5 47.5t47.5 17.5t47.5 -17.5t17.5 -47.5v-580q0 -25 -19.5 -48t-43 -38t-43 -40t-19.5 -54q0 -45 40 -45q7 0 15.5 2.5t19.5 2.5q16 0 28 -12t12 -28q0 -20 -20 -35t-55 -15q-59 0 -92 32.5t-33 92.5z" />
    <glyph glyph-name="iogonek" unicode="&#x12f;" horiz-adv-x="250" 
d="M-25 -125q0 36 25 72t50 55l25 18q-10 15 -10 40v390q0 30 16.5 47.5t43.5 17.5t43.5 -17.5t16.5 -47.5v-390q0 -21 -8.5 -36t-17.5 -20l-9 -4q-10 -7 -25 -18.5t-40 -43t-25 -58.5q0 -45 40 -45q7 0 15.5 2.5t19.5 2.5q17 0 28.5 -12t11.5 -28q0 -20 -20 -35t-55 -15
q-59 0 -92 32.5t-33 92.5zM60 645q0 30 19 50t46 20t46 -20t19 -50t-19 -50t-46 -20t-46 20t-19 50z" />
    <glyph glyph-name="Idotaccent" unicode="&#x130;" horiz-adv-x="290" 
d="M210 640v-580q0 -30 -17.5 -47.5t-47.5 -17.5t-47.5 17.5t-17.5 47.5v580q0 30 17.5 47.5t47.5 17.5t47.5 -17.5t17.5 -47.5zM80 865q0 30 19 50t46 20t46 -20t19 -50t-19 -50t-46 -20t-46 20t-19 50z" />
    <glyph glyph-name="dotlessi" unicode="&#x131;" horiz-adv-x="250" 
d="M185 450v-390q0 -30 -16.5 -47.5t-43.5 -17.5t-43.5 17.5t-16.5 47.5v390q0 30 16.5 47.5t43.5 17.5t43.5 -17.5t16.5 -47.5z" />
    <glyph glyph-name="Kcommaaccent" unicode="&#x136;" horiz-adv-x="575" 
d="M210 640v-240l220 275q24 30 55 30q26 0 45.5 -19.5t19.5 -45.5q0 -25 -20 -50l-144 -180l164 -285q25 -42 25 -65q0 -27 -19 -46t-46 -19q-39 0 -60 35l-155 270l-85 -110v-130q0 -30 -17.5 -47.5t-47.5 -17.5t-47.5 17.5t-17.5 47.5v580q0 30 17.5 47.5t47.5 17.5
t47.5 -17.5t17.5 -47.5zM390 -150q0 -60 -39 -107.5t-76 -47.5q-8 0 -14 6t-6 14q0 14 20 25q40 23 40 55q-20 0 -37.5 18.5t-17.5 46.5q0 30 17.5 47.5t47.5 17.5q65 0 65 -75z" />
    <glyph glyph-name="kcommaaccent" unicode="&#x137;" horiz-adv-x="470" 
d="M190 655v-345l155 180q21 25 50 25q23 0 39 -16.5t16 -38.5q0 -7 -2 -14t-6 -13l-7 -10.5t-7 -8.5l-3 -4l-95 -109l110 -196q20 -33 20 -50q0 -26 -17 -43t-43 -17q-35 0 -55 35l-100 175l-55 -65v-80q0 -30 -16.5 -47.5t-43.5 -17.5t-43.5 17.5t-16.5 47.5v595
q0 30 16.5 47.5t43.5 17.5t43.5 -17.5t16.5 -47.5zM328 -150q0 -60 -39 -107.5t-76 -47.5q-8 0 -14 6t-6 14q0 14 20 25q40 23 40 55q-20 0 -37.5 18.5t-17.5 46.5q0 30 17.5 47.5t47.5 17.5q65 0 65 -75z" />
    <glyph glyph-name="Lacute" unicode="&#x139;" horiz-adv-x="515" 
d="M455 0h-310q-30 0 -47.5 17.5t-17.5 47.5v575q0 30 17.5 47.5t47.5 17.5t47.5 -17.5t17.5 -47.5v-520h245q26 0 43 -17t17 -43t-17 -43t-43 -17zM113 825q0 17 10 40l40 105q16 40 55 40q23 0 39 -17t16 -43q0 -18 -15 -45l-55 -95q-17 -30 -45 -30q-19 0 -32 13t-13 32z
" />
    <glyph glyph-name="lacute" unicode="&#x13a;" horiz-adv-x="260" 
d="M190 655v-595q0 -30 -16.5 -47.5t-43.5 -17.5t-43.5 17.5t-16.5 47.5v595q0 30 16.5 47.5t43.5 17.5t43.5 -17.5t16.5 -47.5zM100 825q0 17 10 40l40 105q16 40 55 40q23 0 39 -17t16 -43q0 -18 -15 -45l-55 -95q-17 -30 -45 -30q-19 0 -32 13t-13 32z" />
    <glyph glyph-name="Lcommaaccent" unicode="&#x13b;" horiz-adv-x="515" 
d="M455 0h-310q-30 0 -47.5 17.5t-17.5 47.5v575q0 30 17.5 47.5t47.5 17.5t47.5 -17.5t17.5 -47.5v-520h245q26 0 43 -17t17 -43t-17 -43t-43 -17zM362 -150q0 -60 -39 -107.5t-76 -47.5q-8 0 -14 6t-6 14q0 14 20 25q40 23 40 55q-20 0 -37.5 18.5t-17.5 46.5
q0 30 17.5 47.5t47.5 17.5q65 0 65 -75z" />
    <glyph glyph-name="lcommaaccent" unicode="&#x13c;" horiz-adv-x="265" 
d="M192 655v-595q0 -30 -16.5 -47.5t-43.5 -17.5t-43.5 17.5t-16.5 47.5v595q0 30 16.5 47.5t43.5 17.5t43.5 -17.5t16.5 -47.5zM195 -150q0 -60 -39 -107.5t-76 -47.5q-8 0 -14 6t-6 14q0 14 20 25q40 23 40 55q-20 0 -37.5 18.5t-17.5 46.5q0 30 17.5 47.5t47.5 17.5
q65 0 65 -75z" />
    <glyph glyph-name="Lcaron" unicode="&#x13d;" horiz-adv-x="515" 
d="M455 0h-310q-30 0 -47.5 17.5t-17.5 47.5v575q0 30 17.5 47.5t47.5 17.5t47.5 -17.5t17.5 -47.5v-520h245q26 0 43 -17t17 -43t-17 -43t-43 -17zM450 625q0 -75 -41 -125t-89 -50q-10 0 -17.5 7t-7.5 18q0 9 5 15t9 8t6 2q50 20 50 60q-27 0 -46 21t-19 54
q0 34 20.5 54.5t54.5 20.5t54.5 -22t20.5 -63z" />
    <glyph glyph-name="lcaron" unicode="&#x13e;" horiz-adv-x="355" 
d="M190 655v-595q0 -30 -16.5 -47.5t-43.5 -17.5t-43.5 17.5t-16.5 47.5v595q0 30 16.5 47.5t43.5 17.5t43.5 -17.5t16.5 -47.5zM385 645q0 -60 -39 -107.5t-76 -47.5q-8 0 -14 6t-6 14q0 14 20 25q40 23 40 55q-20 0 -37.5 18.5t-17.5 46.5q0 30 17.5 47.5t47.5 17.5
q65 0 65 -75z" />
    <glyph glyph-name="Lslash" unicode="&#x141;" horiz-adv-x="515" 
d="M455 0h-310q-30 0 -47.5 17.5t-17.5 47.5v185q-20 -10 -30 -10q-22 0 -36 14t-14 36q0 28 35 55l45 35v260q0 30 17.5 47.5t47.5 17.5t47.5 -17.5t17.5 -47.5v-160l35 30q31 25 55 25q22 0 36 -13.5t14 -36.5q0 -28 -35 -55l-105 -85v-225h245q26 0 43 -17t17 -43
t-17 -43t-43 -17z" />
    <glyph glyph-name="lslash" unicode="&#x142;" horiz-adv-x="325" 
d="M215 655v-185q39 30 60 30q19 0 32 -13t13 -32q0 -12 -5.5 -21.5t-11.5 -15t-23 -18.5l-65 -50v-290q0 -30 -16.5 -47.5t-43.5 -17.5t-43.5 17.5t-16.5 47.5v200q-28 -20 -45 -20q-19 0 -32 13t-13 32q0 12 5.5 21.5t11.5 15t23 18.5l50 40v275q0 30 16.5 47.5t43.5 17.5
t43.5 -17.5t16.5 -47.5z" />
    <glyph glyph-name="Nacute" unicode="&#x143;" horiz-adv-x="660" 
d="M450 275v365q0 30 17.5 47.5t47.5 17.5t47.5 -17.5t17.5 -47.5v-580q0 -30 -17.5 -47.5t-47.5 -17.5q-19 0 -34 9.5t-23 20t-23 35.5l-220 365h-5v-365q0 -30 -17.5 -47.5t-47.5 -17.5t-47.5 17.5t-17.5 47.5v580q0 30 17.5 47.5t47.5 17.5q27 0 43 -14.5t37 -50.5
l220 -365h5zM300 835q0 17 10 40l40 105q16 40 55 40q23 0 39 -17t16 -43q0 -18 -15 -45l-55 -95q-17 -30 -45 -30q-19 0 -32 13t-13 32z" />
    <glyph glyph-name="nacute" unicode="&#x144;" horiz-adv-x="525" 
d="M345 60v250q0 47 -22.5 73.5t-57.5 26.5t-57.5 -26.5t-22.5 -73.5v-250q0 -30 -16.5 -47.5t-43.5 -17.5t-43.5 17.5t-16.5 47.5v390q0 30 16.5 47.5t43.5 17.5q22 0 37 -10t19 -20l4 -10h5q4 6 13 14t37.5 22t59.5 14q74 0 119.5 -55t45.5 -160v-250q0 -30 -16.5 -47.5
t-43.5 -17.5t-43.5 17.5t-16.5 47.5zM235 655q0 17 10 40l40 105q16 40 55 40q23 0 39 -17t16 -43q0 -18 -15 -45l-55 -95q-17 -30 -45 -30q-19 0 -32 13t-13 32z" />
    <glyph glyph-name="Ncommaaccent" unicode="&#x145;" horiz-adv-x="660" 
d="M450 275v365q0 30 17.5 47.5t47.5 17.5t47.5 -17.5t17.5 -47.5v-580q0 -30 -17.5 -47.5t-47.5 -17.5q-19 0 -34 9.5t-23 20t-23 35.5l-220 365h-5v-365q0 -30 -17.5 -47.5t-47.5 -17.5t-47.5 17.5t-17.5 47.5v580q0 30 17.5 47.5t47.5 17.5q27 0 43 -14.5t37 -50.5
l220 -365h5zM395 -150q0 -60 -39 -107.5t-76 -47.5q-8 0 -14 6t-6 14q0 14 20 25q40 23 40 55q-20 0 -37.5 18.5t-17.5 46.5q0 30 17.5 47.5t47.5 17.5q65 0 65 -75z" />
    <glyph glyph-name="ncommaaccent" unicode="&#x146;" horiz-adv-x="525" 
d="M345 60v250q0 47 -22.5 73.5t-57.5 26.5t-57.5 -26.5t-22.5 -73.5v-250q0 -30 -16.5 -47.5t-43.5 -17.5t-43.5 17.5t-16.5 47.5v390q0 30 16.5 47.5t43.5 17.5q22 0 37 -10t19 -20l4 -10h5q4 6 13 14t37.5 22t59.5 14q74 0 119.5 -55t45.5 -160v-250q0 -30 -16.5 -47.5
t-43.5 -17.5t-43.5 17.5t-16.5 47.5zM328 -150q0 -60 -39 -107.5t-76 -47.5q-8 0 -14 6t-6 14q0 14 20 25q40 23 40 55q-20 0 -37.5 18.5t-17.5 46.5q0 30 17.5 47.5t47.5 17.5q65 0 65 -75z" />
    <glyph glyph-name="Ncaron" unicode="&#x147;" horiz-adv-x="660" 
d="M450 275v365q0 30 17.5 47.5t47.5 17.5t47.5 -17.5t17.5 -47.5v-580q0 -30 -17.5 -47.5t-47.5 -17.5q-19 0 -34 9.5t-23 20t-23 35.5l-220 365h-5v-365q0 -30 -17.5 -47.5t-47.5 -17.5t-47.5 17.5t-17.5 47.5v580q0 30 17.5 47.5t47.5 17.5q27 0 43 -14.5t37 -50.5
l220 -365h5zM332 895l53 95q17 30 45 30q19 0 32 -13t13 -32q0 -13 -10 -30l-65 -115q-23 -40 -70 -40t-70 40l-65 115q-10 17 -10 30q0 19 13 32t32 13q28 0 45 -30l53 -95h4z" />
    <glyph glyph-name="ncaron" unicode="&#x148;" horiz-adv-x="525" 
d="M345 60v250q0 47 -22.5 73.5t-57.5 26.5t-57.5 -26.5t-22.5 -73.5v-250q0 -30 -16.5 -47.5t-43.5 -17.5t-43.5 17.5t-16.5 47.5v390q0 30 16.5 47.5t43.5 17.5q22 0 37 -10t19 -20l4 -10h5q4 6 13 14t37.5 22t59.5 14q74 0 119.5 -55t45.5 -160v-250q0 -30 -16.5 -47.5
t-43.5 -17.5t-43.5 17.5t-16.5 47.5zM267 715l53 95q17 30 45 30q19 0 32 -13t13 -32q0 -13 -10 -30l-65 -115q-23 -40 -70 -40t-70 40l-65 115q-10 17 -10 30q0 19 13 32t32 13q28 0 45 -30l53 -95h4z" />
    <glyph glyph-name="Omacron" unicode="&#x14c;" horiz-adv-x="620" 
d="M310 720q111 0 183 -79t72 -211v-160q0 -132 -72 -211t-183 -79t-183 79t-72 211v160q0 132 72 211t183 79zM310 600q-55 0 -90 -43.5t-35 -126.5v-160q0 -83 35 -126.5t90 -43.5t90 43.5t35 126.5v160q0 83 -35 126.5t-90 43.5zM400 820h-180q-22 0 -36 14t-14 36t14 36
t36 14h180q22 0 36 -14t14 -36t-14 -36t-36 -14z" />
    <glyph glyph-name="omacron" unicode="&#x14d;" 
d="M245 100q38 0 61.5 26t23.5 74v110q0 48 -23.5 74t-61.5 26t-61.5 -26t-23.5 -74v-110q0 -48 23.5 -74t61.5 -26zM245 -15q-87 0 -146 61t-59 154v110q0 93 59 154t146 61t146 -61t59 -154v-110q0 -93 -59 -154t-146 -61zM335 630h-180q-23 0 -36.5 14t-13.5 36t13.5 36
t36.5 14h180q23 0 36.5 -14t13.5 -36t-13.5 -36t-36.5 -14z" />
    <glyph glyph-name="Ohungarumlaut" unicode="&#x150;" horiz-adv-x="620" 
d="M310 720q111 0 183 -79t72 -211v-160q0 -132 -72 -211t-183 -79t-183 79t-72 211v160q0 132 72 211t183 79zM310 600q-55 0 -90 -43.5t-35 -126.5v-160q0 -83 35 -126.5t90 -43.5t90 43.5t35 126.5v160q0 83 -35 126.5t-90 43.5zM191 835q0 17 10 40l40 105q16 40 55 40
q23 0 39 -17t16 -43q0 -18 -15 -45l-55 -95q-17 -30 -45 -30q-19 0 -32 13t-13 32zM351 835q0 17 10 40l40 105q16 40 55 40q23 0 39 -17t16 -43q0 -18 -15 -45l-55 -95q-17 -30 -45 -30q-19 0 -32 13t-13 32z" />
    <glyph glyph-name="ohungarumlaut" unicode="&#x151;" horiz-adv-x="493" 
d="M245 100q38 0 61.5 26t23.5 74v110q0 48 -23.5 74t-61.5 26t-61.5 -26t-23.5 -74v-110q0 -48 23.5 -74t61.5 -26zM245 -15q-87 0 -146 61t-59 154v110q0 93 59 154t146 61t146 -61t59 -154v-110q0 -93 -59 -154t-146 -61zM133 655q0 17 10 40l40 105q16 40 55 40
q23 0 39 -17t16 -43q0 -18 -15 -45l-55 -95q-17 -30 -45 -30q-19 0 -32 13t-13 32zM293 655q0 17 10 40l40 105q16 40 55 40q23 0 39 -17t16 -43q0 -18 -15 -45l-55 -95q-17 -30 -45 -30q-19 0 -32 13t-13 32z" />
    <glyph glyph-name="OE" unicode="&#x152;" horiz-adv-x="815" 
d="M745 0h-435q-111 0 -183 79t-72 211v120q0 132 72 211t183 79h425q26 0 43 -17t17 -43t-17 -43t-43 -17h-225v-170h145q26 0 43 -17t17 -43t-17 -43t-43 -17h-145v-170h235q26 0 43 -17t17 -43t-17 -43t-43 -17zM310 120h70v460h-70q-55 0 -90 -43.5t-35 -126.5v-120
q0 -83 35 -126.5t90 -43.5z" />
    <glyph glyph-name="oe" unicode="&#x153;" horiz-adv-x="765" 
d="M670 205h-220q0 -51 23 -78t62 -27q54 0 80 30q11 13 17 19t16 11t22 5q22 0 38.5 -16.5t16.5 -38.5q0 -46 -53 -85.5t-137 -39.5q-44 0 -79.5 16.5t-49.5 32.5l-13 16h-6q-5 -7 -14.5 -18t-46.5 -29t-81 -18q-87 0 -146 61t-59 154v110q0 93 59 154t146 61
q44 0 79.5 -16.5t49.5 -32.5l13 -16h6q5 7 14.5 18t46.5 29t81 18q80 0 137.5 -61.5t57.5 -153.5v-40q0 -30 -16.5 -47.5t-43.5 -17.5zM245 100q38 0 61.5 26t23.5 74v110q0 48 -23.5 74t-61.5 26t-61.5 -26t-23.5 -74v-110q0 -48 23.5 -74t61.5 -26zM610 305
q0 50 -21.5 77.5t-53.5 27.5q-39 0 -62 -27t-23 -78h160z" />
    <glyph glyph-name="Racute" unicode="&#x154;" horiz-adv-x="595" 
d="M445 45l-125 215h-110v-200q0 -30 -17.5 -47.5t-47.5 -17.5t-47.5 17.5t-17.5 47.5v575q0 30 17.5 47.5t47.5 17.5h175q104 0 169.5 -62.5t65.5 -157.5q0 -38 -11 -71t-26.5 -53t-30.5 -34.5t-26 -20.5l-11 -6v-5l105 -180q20 -33 20 -50q0 -30 -16.5 -47.5t-43.5 -17.5
q-12 0 -22 3t-16.5 7.5t-12.5 11t-9 10.5t-7 11zM320 580h-110v-200h110q45 0 72.5 27.5t27.5 72.5t-27.5 72.5t-72.5 27.5zM262 835q0 17 10 40l40 105q16 40 55 40q23 0 39 -17t16 -43q0 -18 -15 -45l-55 -95q-17 -30 -45 -30q-19 0 -32 13t-13 32z" />
    <glyph glyph-name="racute" unicode="&#x155;" horiz-adv-x="380" 
d="M390 445q0 -23 -16 -39t-39 -16q-14 0 -31.5 10t-38.5 10q-35 0 -57.5 -26.5t-22.5 -73.5v-250q0 -30 -16.5 -47.5t-43.5 -17.5t-43.5 17.5t-16.5 47.5v390q0 30 16.5 47.5t43.5 17.5q22 0 37 -10t19 -20l4 -10h5q4 6 13 14t37.5 22t59.5 14q40 0 65 -23t25 -57zM193 655
q0 17 10 40l40 105q16 40 55 40q23 0 39 -17t16 -43q0 -18 -15 -45l-55 -95q-17 -30 -45 -30q-19 0 -32 13t-13 32z" />
    <glyph glyph-name="Rcommaaccent" unicode="&#x156;" horiz-adv-x="595" 
d="M445 45l-125 215h-110v-200q0 -30 -17.5 -47.5t-47.5 -17.5t-47.5 17.5t-17.5 47.5v575q0 30 17.5 47.5t47.5 17.5h175q104 0 169.5 -62.5t65.5 -157.5q0 -38 -11 -71t-26.5 -53t-30.5 -34.5t-26 -20.5l-11 -6v-5l105 -180q20 -33 20 -50q0 -30 -16.5 -47.5t-43.5 -17.5
q-12 0 -22 3t-16.5 7.5t-12.5 11t-9 10.5t-7 11zM320 580h-110v-200h110q45 0 72.5 27.5t27.5 72.5t-27.5 72.5t-72.5 27.5zM389 -150q0 -60 -39 -107.5t-76 -47.5q-8 0 -14 6t-6 14q0 14 20 25q40 23 40 55q-20 0 -37.5 18.5t-17.5 46.5q0 30 17.5 47.5t47.5 17.5
q65 0 65 -75z" />
    <glyph glyph-name="rcommaaccent" unicode="&#x157;" horiz-adv-x="382" 
d="M392 445q0 -23 -16 -39t-39 -16q-14 0 -31.5 10t-38.5 10q-35 0 -57.5 -26.5t-22.5 -73.5v-250q0 -30 -16.5 -47.5t-43.5 -17.5t-43.5 17.5t-16.5 47.5v390q0 30 16.5 47.5t43.5 17.5q22 0 37 -10t19 -20l4 -10h5q4 6 13 14t37.5 22t59.5 14q40 0 65 -23t25 -57z
M190 -150q0 -60 -39 -107.5t-76 -47.5q-8 0 -14 6t-6 14q0 14 20 25q40 23 40 55q-20 0 -37.5 18.5t-17.5 46.5q0 30 17.5 47.5t47.5 17.5q65 0 65 -75z" />
    <glyph glyph-name="Rcaron" unicode="&#x158;" horiz-adv-x="595" 
d="M445 45l-125 215h-110v-200q0 -30 -17.5 -47.5t-47.5 -17.5t-47.5 17.5t-17.5 47.5v575q0 30 17.5 47.5t47.5 17.5h175q104 0 169.5 -62.5t65.5 -157.5q0 -38 -11 -71t-26.5 -53t-30.5 -34.5t-26 -20.5l-11 -6v-5l105 -180q20 -33 20 -50q0 -30 -16.5 -47.5t-43.5 -17.5
q-12 0 -22 3t-16.5 7.5t-12.5 11t-9 10.5t-7 11zM320 580h-110v-200h110q45 0 72.5 27.5t27.5 72.5t-27.5 72.5t-72.5 27.5zM299 895l53 95q17 30 45 30q19 0 32 -13t13 -32q0 -13 -10 -30l-65 -115q-23 -40 -70 -40t-70 40l-65 115q-10 17 -10 30q0 19 13 32t32 13
q28 0 45 -30l53 -95h4z" />
    <glyph glyph-name="rcaron" unicode="&#x159;" horiz-adv-x="380" 
d="M390 445q0 -23 -16 -39t-39 -16q-14 0 -31.5 10t-38.5 10q-35 0 -57.5 -26.5t-22.5 -73.5v-250q0 -30 -16.5 -47.5t-43.5 -17.5t-43.5 17.5t-16.5 47.5v390q0 30 16.5 47.5t43.5 17.5q22 0 37 -10t19 -20l4 -10h5q4 6 13 14t37.5 22t59.5 14q40 0 65 -23t25 -57zM229 715
l53 95q17 30 45 30q19 0 32 -13t13 -32q0 -13 -10 -30l-65 -115q-23 -40 -70 -40t-70 40l-65 115q-10 17 -10 30q0 19 13 32t32 13q28 0 45 -30l53 -95h4z" />
    <glyph glyph-name="Sacute" unicode="&#x15a;" horiz-adv-x="535" 
d="M260 100q51 0 83 28t32 67q0 38 -34 63t-82.5 41.5t-97 37.5t-82.5 64.5t-34 108.5q0 91 63.5 150.5t166.5 59.5q92 0 153.5 -48.5t61.5 -101.5q0 -28 -17.5 -46.5t-42.5 -18.5q-33 0 -55 35q-39 60 -100 60q-48 0 -74 -23.5t-26 -61.5q0 -35 34 -58.5t82.5 -40t97 -37.5
t82.5 -65t34 -109q0 -103 -65 -164t-180 -61q-91 0 -160.5 55.5t-69.5 109.5q0 30 17.5 47.5t47.5 17.5q35 0 55 -40q35 -70 110 -70zM235 835q0 17 10 40l40 105q16 40 55 40q23 0 39 -17t16 -43q0 -18 -15 -45l-55 -95q-17 -30 -45 -30q-19 0 -32 13t-13 32z" />
    <glyph glyph-name="sacute" unicode="&#x15b;" horiz-adv-x="425" 
d="M225 100q29 0 44.5 12.5t15.5 32.5q0 23 -25 38.5t-61 27.5t-72.5 28t-61.5 49t-25 82q0 69 48 112t132 43q82 0 131 -38t49 -87q0 -22 -16 -38.5t-39 -16.5t-50 25q-2 2 -10 9.5t-12.5 11.5t-13 9t-18.5 7.5t-21 2.5q-28 0 -44 -12t-16 -28q0 -23 25 -38.5t61 -27.5
t72.5 -28t61.5 -49t25 -82q0 -76 -45.5 -118t-134.5 -42q-87 0 -146 44.5t-59 90.5q0 22 16 38.5t39 16.5q29 0 55 -35q31 -40 95 -40zM187 655q0 17 10 40l40 105q16 40 55 40q23 0 39 -17t16 -43q0 -18 -15 -45l-55 -95q-17 -30 -45 -30q-19 0 -32 13t-13 32z" />
    <glyph glyph-name="Scedilla" unicode="&#x15e;" horiz-adv-x="535" 
d="M385 -165q0 -57 -37 -91t-103 -34q-35 0 -55 15t-20 35q0 16 12 28t28 12q11 0 19.5 -2.5t15.5 -2.5q50 0 50 40t-55 40q-40 0 -40 40v75q-72 17 -121 64t-49 91q0 30 17.5 47.5t47.5 17.5q35 0 55 -40q35 -70 110 -70q51 0 83 28t32 67q0 38 -34 63t-82.5 41.5t-97 37.5
t-82.5 64.5t-34 108.5q0 91 63.5 150.5t166.5 59.5q92 0 153.5 -48.5t61.5 -101.5q0 -28 -17.5 -46.5t-42.5 -18.5q-33 0 -55 35q-39 60 -100 60q-48 0 -74 -23.5t-26 -61.5q0 -35 34 -58.5t82.5 -40t97 -37.5t82.5 -65t34 -109q0 -98 -59.5 -159t-165.5 -66v-30
q42 0 73.5 -33.5t31.5 -81.5z" />
    <glyph glyph-name="scedilla" unicode="&#x15f;" horiz-adv-x="425" 
d="M350 -165q0 -57 -37 -91t-103 -34q-35 0 -55 15t-20 35q0 16 11.5 28t28.5 12q11 0 19.5 -2.5t15.5 -2.5q50 0 50 40t-55 40q-40 0 -40 40v75q-64 13 -104.5 53t-40.5 77q0 22 16 38.5t39 16.5q29 0 55 -35q31 -40 95 -40q29 0 44.5 12.5t15.5 32.5q0 23 -25 38.5
t-61 27.5t-72.5 28t-61.5 49t-25 82q0 69 48 112t132 43q82 0 131 -38t49 -87q0 -22 -16 -38.5t-39 -16.5t-50 25q-2 2 -10 9.5t-12.5 11.5t-13 9t-18.5 7.5t-21 2.5q-28 0 -44 -12t-16 -28q0 -23 25 -38.5t61 -27.5t72.5 -28t61.5 -49t25 -82q0 -72 -40.5 -114t-119.5 -46
v-35q42 0 73.5 -33.5t31.5 -81.5z" />
    <glyph glyph-name="Scaron" unicode="&#x160;" horiz-adv-x="535" 
d="M260 100q51 0 83 28t32 67q0 38 -34 63t-82.5 41.5t-97 37.5t-82.5 64.5t-34 108.5q0 91 63.5 150.5t166.5 59.5q92 0 153.5 -48.5t61.5 -101.5q0 -28 -17.5 -46.5t-42.5 -18.5q-33 0 -55 35q-39 60 -100 60q-48 0 -74 -23.5t-26 -61.5q0 -35 34 -58.5t82.5 -40t97 -37.5
t82.5 -65t34 -109q0 -103 -65 -164t-180 -61q-91 0 -160.5 55.5t-69.5 109.5q0 30 17.5 47.5t47.5 17.5q35 0 55 -40q35 -70 110 -70zM272 895l53 95q17 30 45 30q19 0 32 -13t13 -32q0 -13 -10 -30l-65 -115q-23 -40 -70 -40t-70 40l-65 115q-10 17 -10 30q0 19 13 32
t32 13q28 0 45 -30l53 -95h4z" />
    <glyph glyph-name="scaron" unicode="&#x161;" horiz-adv-x="425" 
d="M225 100q29 0 44.5 12.5t15.5 32.5q0 23 -25 38.5t-61 27.5t-72.5 28t-61.5 49t-25 82q0 69 48 112t132 43q82 0 131 -38t49 -87q0 -22 -16 -38.5t-39 -16.5t-50 25q-2 2 -10 9.5t-12.5 11.5t-13 9t-18.5 7.5t-21 2.5q-28 0 -44 -12t-16 -28q0 -23 25 -38.5t61 -27.5
t72.5 -28t61.5 -49t25 -82q0 -76 -45.5 -118t-134.5 -42q-87 0 -146 44.5t-59 90.5q0 22 16 38.5t39 16.5q29 0 55 -35q31 -40 95 -40zM214 715l53 95q17 30 45 30q19 0 32 -13t13 -32q0 -13 -10 -30l-65 -115q-23 -40 -70 -40t-70 40l-65 115q-10 17 -10 30q0 19 13 32
t32 13q28 0 45 -30l53 -95h4z" />
    <glyph glyph-name="Tcommaaccent" unicode="&#x162;" horiz-adv-x="500" 
d="M250 -5q-30 0 -47.5 17.5t-17.5 47.5v520h-125q-26 0 -43 17t-17 43t17 43t43 17h380q26 0 43 -17t17 -43t-17 -43t-43 -17h-125v-520q0 -30 -17.5 -47.5t-47.5 -17.5zM315 -150q0 -60 -39 -107.5t-76 -47.5q-8 0 -14 6t-6 14q0 14 20 25q40 23 40 55q-20 0 -37.5 18.5
t-17.5 46.5q0 30 17.5 47.5t47.5 17.5q65 0 65 -75z" />
    <glyph glyph-name="tcommaaccent" unicode="&#x163;" horiz-adv-x="375" 
d="M365 70q0 -33 -34 -59t-91 -26q-69 0 -114.5 50.5t-45.5 134.5v225h-5q-23 0 -39 16.5t-16 38.5t16 38.5t39 16.5h5v70q0 30 16.5 47.5t43.5 17.5t43.5 -17.5t16.5 -47.5v-70h75q23 0 39 -16.5t16 -38.5t-16 -38.5t-39 -16.5h-75v-225q0 -70 45 -70q12 0 30.5 12.5
t34.5 12.5q22 0 38.5 -16.5t16.5 -38.5zM280 -150q0 -60 -39 -107.5t-76 -47.5q-8 0 -14 6t-6 14q0 14 20 25q40 23 40 55q-20 0 -37.5 18.5t-17.5 46.5q0 30 17.5 47.5t47.5 17.5q65 0 65 -75z" />
    <glyph glyph-name="Tcaron" unicode="&#x164;" horiz-adv-x="500" 
d="M250 -5q-30 0 -47.5 17.5t-17.5 47.5v520h-125q-26 0 -43 17t-17 43t17 43t43 17h380q26 0 43 -17t17 -43t-17 -43t-43 -17h-125v-520q0 -30 -17.5 -47.5t-47.5 -17.5zM252 895l53 95q17 30 45 30q19 0 32 -13t13 -32q0 -13 -10 -30l-65 -115q-23 -40 -70 -40t-70 40
l-65 115q-10 17 -10 30q0 19 13 32t32 13q28 0 45 -30l53 -95h4z" />
    <glyph glyph-name="tcaron" unicode="&#x165;" horiz-adv-x="440" 
d="M365 70q0 -33 -34 -59t-91 -26q-69 0 -114.5 50.5t-45.5 134.5v225h-5q-23 0 -39 16.5t-16 38.5t16 38.5t39 16.5h5v70q0 30 16.5 47.5t43.5 17.5t43.5 -17.5t16.5 -47.5v-70h75q23 0 39 -16.5t16 -38.5t-16 -38.5t-39 -16.5h-75v-225q0 -70 45 -70q12 0 30.5 12.5
t34.5 12.5q22 0 38.5 -16.5t16.5 -38.5zM480 645q0 -60 -39 -107.5t-76 -47.5q-8 0 -14 6t-6 14q0 14 20 25q40 23 40 55q-20 0 -37.5 18.5t-17.5 46.5q0 30 17.5 47.5t47.5 17.5q65 0 65 -75z" />
    <glyph glyph-name="Umacron" unicode="&#x16a;" horiz-adv-x="640" 
d="M565 640v-380q0 -129 -69 -204.5t-176 -75.5t-176 75.5t-69 204.5v380q0 30 17.5 47.5t47.5 17.5t47.5 -17.5t17.5 -47.5v-380q0 -79 32 -119.5t83 -40.5t83 40.5t32 119.5v380q0 30 17.5 47.5t47.5 17.5t47.5 -17.5t17.5 -47.5zM410 820h-180q-22 0 -36 14t-14 36t14 36
t36 14h180q22 0 36 -14t14 -36t-14 -36t-36 -14z" />
    <glyph glyph-name="umacron" unicode="&#x16b;" horiz-adv-x="530" 
d="M185 450v-250q0 -47 22.5 -73.5t57.5 -26.5t57.5 26.5t22.5 73.5v250q0 30 16.5 47.5t43.5 17.5t43.5 -17.5t16.5 -47.5v-390q0 -30 -16.5 -47.5t-43.5 -17.5q-22 0 -37 10t-19 20l-4 10h-5q-4 -6 -13 -14t-37.5 -22t-59.5 -14q-74 0 -119.5 55t-45.5 160v250
q0 30 16.5 47.5t43.5 17.5t43.5 -17.5t16.5 -47.5zM355 630h-180q-23 0 -36.5 14t-13.5 36t13.5 36t36.5 14h180q23 0 36.5 -14t13.5 -36t-13.5 -36t-36.5 -14z" />
    <glyph glyph-name="Uring" unicode="&#x16e;" horiz-adv-x="630" 
d="M560 640v-380q0 -129 -69 -204.5t-176 -75.5t-176 75.5t-69 204.5v380q0 30 17.5 47.5t47.5 17.5t47.5 -17.5t17.5 -47.5v-380q0 -79 32 -119.5t83 -40.5t83 40.5t32 119.5v380q0 30 17.5 47.5t47.5 17.5t47.5 -17.5t17.5 -47.5zM255 875q0 -33 16.5 -51.5t43.5 -18.5
t43.5 18.5t16.5 51.5t-16.5 51.5t-43.5 18.5t-43.5 -18.5t-16.5 -51.5zM445 875q0 -56 -38.5 -95.5t-91.5 -39.5t-91.5 39.5t-38.5 95.5t38.5 95.5t91.5 39.5t91.5 -39.5t38.5 -95.5z" />
    <glyph glyph-name="uring" unicode="&#x16f;" horiz-adv-x="530" 
d="M185 450v-250q0 -47 22.5 -73.5t57.5 -26.5t57.5 26.5t22.5 73.5v250q0 30 16.5 47.5t43.5 17.5t43.5 -17.5t16.5 -47.5v-390q0 -30 -16.5 -47.5t-43.5 -17.5q-22 0 -37 10t-19 20l-4 10h-5q-4 -6 -13 -14t-37.5 -22t-59.5 -14q-74 0 -119.5 55t-45.5 160v250
q0 30 16.5 47.5t43.5 17.5t43.5 -17.5t16.5 -47.5zM205 695q0 -33 16.5 -51.5t43.5 -18.5t43.5 18.5t16.5 51.5t-16.5 51.5t-43.5 18.5t-43.5 -18.5t-16.5 -51.5zM395 695q0 -56 -38.5 -95.5t-91.5 -39.5t-91.5 39.5t-38.5 95.5t38.5 95.5t91.5 39.5t91.5 -39.5t38.5 -95.5z
" />
    <glyph glyph-name="Uhungarumlaut" unicode="&#x170;" horiz-adv-x="630" 
d="M560 640v-380q0 -129 -69 -204.5t-176 -75.5t-176 75.5t-69 204.5v380q0 30 17.5 47.5t47.5 17.5t47.5 -17.5t17.5 -47.5v-380q0 -79 32 -119.5t83 -40.5t83 40.5t32 119.5v380q0 30 17.5 47.5t47.5 17.5t47.5 -17.5t17.5 -47.5zM195 815q0 17 10 40l40 105q16 40 55 40
q23 0 39 -17t16 -43q0 -18 -15 -45l-55 -95q-17 -30 -45 -30q-19 0 -32 13t-13 32zM355 815q0 17 10 40l40 105q16 40 55 40q23 0 39 -17t16 -43q0 -18 -15 -45l-55 -95q-17 -30 -45 -30q-19 0 -32 13t-13 32z" />
    <glyph glyph-name="uhungarumlaut" unicode="&#x171;" horiz-adv-x="530" 
d="M185 450v-250q0 -47 22.5 -73.5t57.5 -26.5t57.5 26.5t22.5 73.5v250q0 30 16.5 47.5t43.5 17.5t43.5 -17.5t16.5 -47.5v-390q0 -30 -16.5 -47.5t-43.5 -17.5q-22 0 -37 10t-19 20l-4 10h-5q-4 -6 -13 -14t-37.5 -22t-59.5 -14q-74 0 -119.5 55t-45.5 160v250
q0 30 16.5 47.5t43.5 17.5t43.5 -17.5t16.5 -47.5zM144 655q0 17 10 40l40 105q16 40 55 40q23 0 39 -17t16 -43q0 -18 -15 -45l-55 -95q-17 -30 -45 -30q-19 0 -32 13t-13 32zM304 655q0 17 10 40l40 105q16 40 55 40q23 0 39 -17t16 -43q0 -18 -15 -45l-55 -95
q-17 -30 -45 -30q-19 0 -32 13t-13 32z" />
    <glyph glyph-name="Uogonek" unicode="&#x172;" horiz-adv-x="640" 
d="M245 -125q0 29 13.5 55t27.5 38l14 12q-9 0 -24 2.5t-54 19t-68.5 43t-54 83t-24.5 132.5v380q0 30 17.5 47.5t47.5 17.5t47.5 -17.5t17.5 -47.5v-380q0 -79 32 -119.5t83 -40.5t83 40.5t32 119.5v380q0 30 17.5 47.5t47.5 17.5t47.5 -17.5t17.5 -47.5v-380
q0 -59 -15 -107.5t-36 -75.5t-42.5 -45.5t-36.5 -25.5l-15 -6q-10 -7 -25 -18.5t-40 -43t-25 -58.5q0 -45 40 -45q7 0 15.5 2.5t19.5 2.5q17 0 28.5 -12t11.5 -28q0 -20 -20 -35t-55 -15q-59 0 -92 32.5t-33 92.5z" />
    <glyph glyph-name="uogonek" unicode="&#x173;" horiz-adv-x="530" 
d="M345 35h-5q-4 -6 -13 -14t-37.5 -22t-59.5 -14q-74 0 -119.5 55t-45.5 160v250q0 30 16.5 47.5t43.5 17.5t43.5 -17.5t16.5 -47.5v-250q0 -47 22.5 -73.5t57.5 -26.5t57.5 26.5t22.5 73.5v250q0 30 16.5 47.5t43.5 17.5t43.5 -17.5t16.5 -47.5v-390q0 -21 -8.5 -36
t-17.5 -20l-9 -4q-10 -7 -25 -18.5t-40 -43t-25 -58.5q0 -45 40 -45q7 0 15.5 2.5t19.5 2.5q17 0 28.5 -12t11.5 -28q0 -20 -20 -35t-55 -15q-59 0 -92 32.5t-33 92.5q0 22 10.5 45t25 39t29 29.5t24.5 19.5l11 7q-10 10 -10 20z" />
    <glyph glyph-name="Ydieresis" unicode="&#x178;" horiz-adv-x="530" 
d="M330 260v-200q0 -30 -17.5 -47.5t-47.5 -17.5t-47.5 17.5t-17.5 47.5v200l-180 320q-20 33 -20 60q0 26 19.5 45.5t45.5 19.5q40 0 65 -45l133 -235h4l133 235q25 45 65 45q26 0 45.5 -19.5t19.5 -45.5q0 -27 -20 -60zM110 875q0 26 19.5 45.5t45.5 19.5t45.5 -19.5
t19.5 -45.5t-19.5 -45.5t-45.5 -19.5t-45.5 19.5t-19.5 45.5zM290 875q0 26 19.5 45.5t45.5 19.5t45.5 -19.5t19.5 -45.5t-19.5 -45.5t-45.5 -19.5t-45.5 19.5t-19.5 45.5z" />
    <glyph glyph-name="Zacute" unicode="&#x179;" horiz-adv-x="515" 
d="M50 145l265 430v5h-230q-26 0 -43 17t-17 43t17 43t43 17h340q30 0 47.5 -17.5t17.5 -47.5q0 -25 -35 -80l-265 -430v-5h250q26 0 43 -17t17 -43t-17 -43t-43 -17h-360q-30 0 -47.5 17.5t-17.5 47.5q0 22 35 80zM225 835q0 17 10 40l40 105q16 40 55 40q23 0 39 -17
t16 -43q0 -18 -15 -45l-55 -95q-17 -30 -45 -30q-19 0 -32 13t-13 32z" />
    <glyph glyph-name="zacute" unicode="&#x17a;" horiz-adv-x="410" 
d="M75 510h260q27 0 43.5 -17.5t16.5 -47.5q0 -22 -25 -55l-200 -275v-5h175q23 0 39 -16t16 -39t-16 -39t-39 -16h-275q-27 0 -43.5 17.5t-16.5 47.5q0 22 25 55l200 275v5h-160q-23 0 -39 16t-16 39t16 39t39 16zM175 655q0 17 10 40l40 105q16 40 55 40q23 0 39 -17
t16 -43q0 -18 -15 -45l-55 -95q-17 -30 -45 -30q-19 0 -32 13t-13 32z" />
    <glyph glyph-name="Zdotaccent" unicode="&#x17b;" horiz-adv-x="515" 
d="M50 145l265 430v5h-230q-26 0 -43 17t-17 43t17 43t43 17h340q30 0 47.5 -17.5t17.5 -47.5q0 -25 -35 -80l-265 -430v-5h250q26 0 43 -17t17 -43t-17 -43t-43 -17h-360q-30 0 -47.5 17.5t-17.5 47.5q0 22 35 80zM192 865q0 30 19 50t46 20t46 -20t19 -50t-19 -50t-46 -20
t-46 20t-19 50z" />
    <glyph glyph-name="zdotaccent" unicode="&#x17c;" horiz-adv-x="410" 
d="M75 510h260q27 0 43.5 -17.5t16.5 -47.5q0 -22 -25 -55l-200 -275v-5h175q23 0 39 -16t16 -39t-16 -39t-39 -16h-275q-27 0 -43.5 17.5t-16.5 47.5q0 22 25 55l200 275v5h-160q-23 0 -39 16t-16 39t16 39t39 16zM140 690q0 30 19 50t46 20t46 -20t19 -50t-19 -50t-46 -20
t-46 20t-19 50z" />
    <glyph glyph-name="Zcaron" unicode="&#x17d;" horiz-adv-x="515" 
d="M50 145l265 430v5h-230q-26 0 -43 17t-17 43t17 43t43 17h340q30 0 47.5 -17.5t17.5 -47.5q0 -25 -35 -80l-265 -430v-5h250q26 0 43 -17t17 -43t-17 -43t-43 -17h-360q-30 0 -47.5 17.5t-17.5 47.5q0 22 35 80zM259 895l53 95q17 30 45 30q19 0 32 -13t13 -32
q0 -13 -10 -30l-65 -115q-23 -40 -70 -40t-70 40l-65 115q-10 17 -10 30q0 19 13 32t32 13q28 0 45 -30l53 -95h4z" />
    <glyph glyph-name="zcaron" unicode="&#x17e;" horiz-adv-x="410" 
d="M75 510h260q27 0 43.5 -17.5t16.5 -47.5q0 -22 -25 -55l-200 -275v-5h175q23 0 39 -16t16 -39t-16 -39t-39 -16h-275q-27 0 -43.5 17.5t-16.5 47.5q0 22 25 55l200 275v5h-160q-23 0 -39 16t-16 39t16 39t39 16zM207 715l53 95q17 30 45 30q19 0 32 -13t13 -32
q0 -13 -10 -30l-65 -115q-23 -40 -70 -40t-70 40l-65 115q-10 17 -10 30q0 19 13 32t32 13q28 0 45 -30l53 -95h4z" />
    <glyph glyph-name="florin" unicode="&#x192;" horiz-adv-x="335" 
d="M90 60v335h-5q-23 0 -39 16.5t-16 38.5t16 38.5t39 16.5h5v30q0 84 45.5 134.5t114.5 50.5q57 0 91 -26t34 -59q0 -23 -16.5 -39t-38.5 -16q-16 0 -34.5 12.5t-30.5 12.5q-45 0 -45 -70v-30h75q23 0 39 -16.5t16 -38.5t-16 -38.5t-39 -16.5h-75v-335q0 -131 -56.5 -205.5
t-133.5 -74.5q-25 0 -42.5 18.5t-17.5 41.5q0 43 45 60q49 18 67 51.5t18 108.5z" />
    <glyph glyph-name="Scommaaccent" unicode="&#x218;" horiz-adv-x="535" 
d="M260 100q51 0 83 28t32 67q0 38 -34 63t-82.5 41.5t-97 37.5t-82.5 64.5t-34 108.5q0 91 63.5 150.5t166.5 59.5q92 0 153.5 -48.5t61.5 -101.5q0 -28 -17.5 -46.5t-42.5 -18.5q-33 0 -55 35q-39 60 -100 60q-48 0 -74 -23.5t-26 -61.5q0 -35 34 -58.5t82.5 -40t97 -37.5
t82.5 -65t34 -109q0 -103 -65 -164t-180 -61q-91 0 -160.5 55.5t-69.5 109.5q0 30 17.5 47.5t47.5 17.5q35 0 55 -40q35 -70 110 -70zM333 -150q0 -60 -39 -107.5t-76 -47.5q-8 0 -14 6t-6 14q0 14 20 25q40 23 40 55q-20 0 -37.5 18.5t-17.5 46.5q0 30 17.5 47.5t47.5 17.5
q65 0 65 -75z" />
    <glyph glyph-name="scommaaccent" unicode="&#x219;" horiz-adv-x="425" 
d="M225 100q29 0 44.5 12.5t15.5 32.5q0 23 -25 38.5t-61 27.5t-72.5 28t-61.5 49t-25 82q0 69 48 112t132 43q82 0 131 -38t49 -87q0 -22 -16 -38.5t-39 -16.5t-50 25q-2 2 -10 9.5t-12.5 11.5t-13 9t-18.5 7.5t-21 2.5q-28 0 -44 -12t-16 -28q0 -23 25 -38.5t61 -27.5
t72.5 -28t61.5 -49t25 -82q0 -76 -45.5 -118t-134.5 -42q-87 0 -146 44.5t-59 90.5q0 22 16 38.5t39 16.5q29 0 55 -35q31 -40 95 -40zM277 -150q0 -60 -39 -107.5t-76 -47.5q-8 0 -14 6t-6 14q0 14 20 25q40 23 40 55q-20 0 -37.5 18.5t-17.5 46.5q0 30 17.5 47.5
t47.5 17.5q65 0 65 -75z" />
    <glyph glyph-name="afii57929" unicode="&#x2bc;" horiz-adv-x="215" 
d="M175 745q0 -60 -39 -107.5t-76 -47.5q-8 0 -14 6t-6 14q0 14 20 25q40 23 40 55q-20 0 -37.5 18.5t-17.5 46.5q0 30 17.5 47.5t47.5 17.5q65 0 65 -75z" />
    <glyph glyph-name="circumflex" unicode="&#x2c6;" horiz-adv-x="370" 
d="M183 715l-53 -95q-17 -30 -45 -30q-19 0 -32 13t-13 32q0 13 10 30l65 115q23 40 70 40t70 -40l65 -115q10 -17 10 -30q0 -19 -13 -32t-32 -13q-28 0 -45 30l-53 95h-4z" />
    <glyph glyph-name="caron" unicode="&#x2c7;" horiz-adv-x="370" 
d="M187 695l53 95q17 30 45 30q19 0 32 -13t13 -32q0 -13 -10 -30l-65 -115q-23 -40 -70 -40t-70 40l-65 115q-10 17 -10 30q0 19 13 32t32 13q28 0 45 -30l53 -95h4z" />
    <glyph glyph-name="breve" unicode="&#x2d8;" horiz-adv-x="370" 
d="M185 610q-60 0 -102.5 41t-42.5 94q0 19 13 32t32 13q30 0 45 -30l3 -6q9 -18 14 -26t15 -15.5t23 -7.5t23 7.5t15 15.5t14 26l3 6q15 30 45 30q19 0 32 -13t13 -32q0 -53 -42.5 -94t-102.5 -41z" />
    <glyph glyph-name="dotaccent" unicode="&#x2d9;" horiz-adv-x="210" 
d="M40 695q0 30 19 50t46 20t46 -20t19 -50t-19 -50t-46 -20t-46 20t-19 50z" />
    <glyph glyph-name="ring" unicode="&#x2da;" horiz-adv-x="340" 
d="M110 695q0 -33 16.5 -51.5t43.5 -18.5t43.5 18.5t16.5 51.5t-16.5 51.5t-43.5 18.5t-43.5 -18.5t-16.5 -51.5zM300 695q0 -56 -38.5 -95.5t-91.5 -39.5t-91.5 39.5t-38.5 95.5t38.5 95.5t91.5 39.5t91.5 -39.5t38.5 -95.5z" />
    <glyph glyph-name="ogonek" unicode="&#x2db;" horiz-adv-x="280" 
d="M40 -125q0 33 20 64.5t40 46.5l20 14h95q-10 -7 -25 -18.5t-40 -43t-25 -58.5q0 -45 40 -45q7 0 15.5 2.5t19.5 2.5q16 0 28 -12t12 -28q0 -20 -20 -35t-55 -15q-59 0 -92 32.5t-33 92.5z" />
    <glyph glyph-name="tilde" unicode="&#x2dc;" horiz-adv-x="410" 
d="M145 785q25 0 44 -11t28 -24t18.5 -24t19.5 -11q11 0 18.5 10t11.5 22.5t15 22.5t30 10q16 0 28 -12t12 -28q0 -54 -33 -92t-72 -38q-25 0 -44 11t-28 24t-18.5 24t-19.5 11q-11 0 -18.5 -10t-11.5 -22.5t-15 -22.5t-30 -10q-16 0 -28 11.5t-12 28.5q0 54 33 92t72 38z
" />
    <glyph glyph-name="hungarumlaut" unicode="&#x2dd;" horiz-adv-x="400" 
d="M40 635q0 17 10 40l40 105q16 40 55 40q23 0 39 -17t16 -43q0 -18 -15 -45l-55 -95q-17 -30 -45 -30q-19 0 -32 13t-13 32zM200 635q0 17 10 40l40 105q16 40 55 40q23 0 39 -17t16 -43q0 -18 -15 -45l-55 -95q-17 -30 -45 -30q-19 0 -32 13t-13 32z" />
    <glyph glyph-name="afii10023" unicode="&#x401;" horiz-adv-x="555" 
d="M485 0h-340q-30 0 -47.5 17.5t-17.5 47.5v570q0 30 17.5 47.5t47.5 17.5h330q26 0 43 -17t17 -43t-17 -43t-43 -17h-265v-170h185q26 0 43 -17t17 -43t-17 -43t-43 -17h-185v-170h275q26 0 43 -17t17 -43t-17 -43t-43 -17zM157 865q0 26 19.5 45.5t45.5 19.5t45.5 -19.5
t19.5 -45.5t-19.5 -45.5t-45.5 -19.5t-45.5 19.5t-19.5 45.5zM337 865q0 26 19.5 45.5t45.5 19.5t45.5 -19.5t19.5 -45.5t-19.5 -45.5t-45.5 -19.5t-45.5 19.5t-19.5 45.5z" />
    <glyph glyph-name="afii10051" unicode="&#x402;" horiz-adv-x="630" 
d="M470 210q0 55 -29.5 87.5t-75.5 32.5q-29 0 -57.5 -10t-43.5 -20l-14 -10v-230q0 -30 -17.5 -47.5t-47.5 -17.5t-47.5 17.5t-17.5 47.5v520h-80q-26 0 -43 17t-17 43t17 43t43 17h325q26 0 43 -17t17 -43t-17 -43t-43 -17h-115v-170q60 40 140 40q92 0 151 -65t59 -175
q0 -106 -56.5 -178t-118.5 -72q-26 0 -43 17t-17 43q0 36 30 55q38 23 56.5 50t18.5 85z" />
    <glyph glyph-name="afii10052" unicode="&#x403;" 
d="M210 580v-520q0 -30 -17.5 -47.5t-47.5 -17.5t-47.5 17.5t-17.5 47.5v575q0 30 17.5 47.5t47.5 17.5h295q26 0 43 -17t17 -43t-17 -43t-43 -17h-230zM260 825q0 17 10 40l40 105q16 40 55 40q23 0 39 -17t16 -43q0 -18 -15 -45l-55 -95q-17 -30 -45 -30q-19 0 -32 13
t-13 32z" />
    <glyph glyph-name="afii10053" unicode="&#x404;" horiz-adv-x="555" 
d="M310 100q75 0 110 70q20 40 55 40q30 0 47.5 -17.5t17.5 -47.5q0 -54 -69.5 -109.5t-160.5 -55.5q-111 0 -183 79t-72 211v160q0 132 72 211t183 79q92 0 153.5 -48.5t61.5 -101.5q0 -28 -17.5 -46.5t-42.5 -18.5q-33 0 -55 35q-39 60 -100 60q-55 0 -90 -43.5
t-35 -126.5v-20h150q26 0 43 -17t17 -43t-17 -43t-43 -17h-150v-20q0 -83 35 -126.5t90 -43.5z" />
    <glyph glyph-name="afii10054" unicode="&#x405;" horiz-adv-x="535" 
d="M260 100q51 0 83 28t32 67q0 38 -34 63t-82.5 41.5t-97 37.5t-82.5 64.5t-34 108.5q0 91 63.5 150.5t166.5 59.5q92 0 153.5 -48.5t61.5 -101.5q0 -28 -17.5 -46.5t-42.5 -18.5q-33 0 -55 35q-39 60 -100 60q-48 0 -74 -23.5t-26 -61.5q0 -35 34 -58.5t82.5 -40t97 -37.5
t82.5 -65t34 -109q0 -103 -65 -164t-180 -61q-91 0 -160.5 55.5t-69.5 109.5q0 30 17.5 47.5t47.5 17.5q35 0 55 -40q35 -70 110 -70z" />
    <glyph glyph-name="afii10055" unicode="&#x406;" horiz-adv-x="290" 
d="M210 640v-580q0 -30 -17.5 -47.5t-47.5 -17.5t-47.5 17.5t-17.5 47.5v580q0 30 17.5 47.5t47.5 17.5t47.5 -17.5t17.5 -47.5z" />
    <glyph glyph-name="afii10056" unicode="&#x407;" horiz-adv-x="290" 
d="M210 640v-580q0 -30 -17.5 -47.5t-47.5 -17.5t-47.5 17.5t-17.5 47.5v580q0 30 17.5 47.5t47.5 17.5t47.5 -17.5t17.5 -47.5zM-10 845q0 26 19.5 45.5t45.5 19.5t45.5 -19.5t19.5 -45.5t-19.5 -45.5t-45.5 -19.5t-45.5 19.5t-19.5 45.5zM170 845q0 26 19.5 45.5
t45.5 19.5t45.5 -19.5t19.5 -45.5t-19.5 -45.5t-45.5 -19.5t-45.5 19.5t-19.5 45.5z" />
    <glyph glyph-name="afii10057" unicode="&#x408;" horiz-adv-x="375" 
d="M60 100q48 0 79 42.5t31 127.5v365q0 30 18.5 50t46.5 20t46.5 -20t18.5 -50v-365q0 -135 -67.5 -212.5t-172.5 -77.5q-26 0 -43 17t-17 43t17 43t43 17z" />
    <glyph glyph-name="afii10058" unicode="&#x409;" horiz-adv-x="865" 
d="M520 120h65q53 0 84 31t31 84t-31 84t-84 31h-65v-230zM585 0h-130q-30 0 -47.5 17.5t-17.5 47.5v515h-145v-250q0 -84 -19 -153t-48.5 -110.5t-63 -64t-64.5 -22.5q-26 0 -43 17t-17 43q0 36 30 55q50 30 72.5 83.5t22.5 151.5v305q0 30 17.5 47.5t47.5 17.5h275
q30 0 47.5 -17.5t17.5 -47.5v-165h65q108 0 179 -68t71 -167t-71 -167t-179 -68z" />
    <glyph glyph-name="afii10059" unicode="&#x40a;" horiz-adv-x="885" 
d="M625 0h-160q-30 0 -47.5 17.5t-17.5 47.5v245h-190v-250q0 -30 -17.5 -47.5t-47.5 -17.5t-47.5 17.5t-17.5 47.5v580q0 30 17.5 47.5t47.5 17.5t47.5 -17.5t17.5 -47.5v-210h190v210q0 30 17.5 47.5t47.5 17.5t47.5 -17.5t17.5 -47.5v-210h95q100 0 165 -62t65 -153
t-65 -153t-165 -62zM530 120h95q45 0 70 25t25 70t-25 70t-70 25h-95v-190z" />
    <glyph glyph-name="afii10060" unicode="&#x40b;" horiz-adv-x="640" 
d="M600 190v-130q0 -30 -17.5 -47.5t-47.5 -17.5t-47.5 17.5t-17.5 47.5v130q0 69 -29 104.5t-76 35.5q-29 0 -57.5 -10t-43.5 -20l-14 -10v-230q0 -30 -17.5 -47.5t-47.5 -17.5t-47.5 17.5t-17.5 47.5v520h-80q-26 0 -43 17t-17 43t17 43t43 17h325q26 0 43 -17t17 -43
t-17 -43t-43 -17h-115v-170q60 40 140 40q93 0 151.5 -68t58.5 -192z" />
    <glyph glyph-name="afii10061" unicode="&#x40c;" horiz-adv-x="580" 
d="M210 640v-240l220 275q24 30 55 30q26 0 45.5 -19.5t19.5 -45.5q0 -25 -20 -50l-144 -180l164 -285q25 -42 25 -65q0 -27 -19 -46t-46 -19q-39 0 -60 35l-155 270l-85 -110v-130q0 -30 -17.5 -47.5t-47.5 -17.5t-47.5 17.5t-17.5 47.5v580q0 30 17.5 47.5t47.5 17.5
t47.5 -17.5t17.5 -47.5zM290 825q0 17 10 40l40 105q16 40 55 40q23 0 39 -17t16 -43q0 -18 -15 -45l-55 -95q-17 -30 -45 -30q-19 0 -32 13t-13 32z" />
    <glyph glyph-name="afii10062" unicode="&#x40e;" horiz-adv-x="520" 
d="M275 750q-70 0 -117.5 45.5t-47.5 109.5q0 19 13 32t32 13q32 0 50 -40q12 -28 27.5 -44t42.5 -16t42.5 16t27.5 44q18 40 50 40q19 0 32 -13t13 -32q0 -64 -47.5 -109.5t-117.5 -45.5zM140 650l140 -300h5l105 290q13 37 28.5 51t41.5 14q27 0 43.5 -17.5t16.5 -47.5
q0 -25 -10 -50l-150 -415q-35 -99 -85 -147t-127 -48q-53 0 -83 25.5t-30 64.5q0 22 16.5 38.5t38.5 16.5q18 0 34.5 -12.5t30.5 -12.5q22 0 38.5 17.5t21.5 34.5l5 18l-195 420q-15 30 -15 50q0 30 16.5 47.5t43.5 17.5q26 0 41 -12t29 -43z" />
    <glyph glyph-name="afii10145" unicode="&#x40f;" horiz-adv-x="650" 
d="M260 -95v95h-115q-30 0 -47.5 17.5t-17.5 47.5v575q0 30 17.5 47.5t47.5 17.5t47.5 -17.5t17.5 -47.5v-520h230v520q0 30 17.5 47.5t47.5 17.5t47.5 -17.5t17.5 -47.5v-575q0 -30 -17.5 -47.5t-47.5 -17.5h-115v-95q0 -30 -17.5 -47.5t-47.5 -17.5t-47.5 17.5t-17.5 47.5
z" />
    <glyph glyph-name="afii10017" unicode="&#x410;" horiz-adv-x="580" 
d="M287 555l-72 -255h150l-72 255h-6zM435 60l-35 115h-220l-35 -115q-19 -65 -70 -65q-26 0 -45.5 19.5t-19.5 45.5q0 17 10 50l175 540q23 70 95 70t95 -70l175 -540q10 -33 10 -50q0 -26 -19.5 -45.5t-45.5 -19.5q-51 0 -70 65z" />
    <glyph glyph-name="afii10018" unicode="&#x411;" horiz-adv-x="600" 
d="M210 580v-140h125q104 0 169.5 -62.5t65.5 -157.5t-65.5 -157.5t-169.5 -62.5h-190q-30 0 -47.5 17.5t-17.5 47.5v570q0 30 17.5 47.5t47.5 17.5h315q26 0 43 -17t17 -43t-17 -43t-43 -17h-250zM335 320h-125v-200h125q45 0 72.5 27.5t27.5 72.5t-27.5 72.5t-72.5 27.5z
" />
    <glyph glyph-name="afii10019" unicode="&#x412;" horiz-adv-x="600" 
d="M145 700h180q93 0 154 -58t61 -142q0 -27 -8 -49.5t-20 -36t-24 -23t-20 -13.5l-8 -3v-5q4 -1 11.5 -4t26.5 -15t33.5 -28t26.5 -46t12 -67q0 -87 -64.5 -148.5t-160.5 -61.5h-200q-30 0 -47.5 17.5t-17.5 47.5v570q0 30 17.5 47.5t47.5 17.5zM340 305h-130v-185h135
q41 0 65.5 24.5t24.5 65.5q0 45 -25 70t-70 25zM325 580h-115v-165h110q85 0 85 85q0 38 -21.5 59t-58.5 21z" />
    <glyph glyph-name="afii10020" unicode="&#x413;" 
d="M210 580v-520q0 -30 -17.5 -47.5t-47.5 -17.5t-47.5 17.5t-17.5 47.5v575q0 30 17.5 47.5t47.5 17.5h295q26 0 43 -17t17 -43t-17 -43t-43 -17h-230z" />
    <glyph glyph-name="afii10021" unicode="&#x414;" horiz-adv-x="655" 
d="M500 -95v95h-380v-95q0 -30 -17.5 -47.5t-47.5 -17.5t-47.5 17.5t-17.5 47.5v150q0 30 17.5 47.5t47.5 17.5q7 7 18 22t29 69.5t18 118.5v305q0 30 17.5 47.5t47.5 17.5h300q30 0 47.5 -17.5t17.5 -47.5v-515h15q30 0 47.5 -17.5t17.5 -47.5v-150q0 -30 -17.5 -47.5
t-47.5 -17.5t-47.5 17.5t-17.5 47.5zM195 120h225v460h-170v-250q0 -64 -14 -114.5t-28 -69.5l-13 -18v-8z" />
    <glyph glyph-name="afii10022" unicode="&#x415;" horiz-adv-x="555" 
d="M485 0h-340q-30 0 -47.5 17.5t-17.5 47.5v570q0 30 17.5 47.5t47.5 17.5h330q26 0 43 -17t17 -43t-17 -43t-43 -17h-265v-170h185q26 0 43 -17t17 -43t-17 -43t-43 -17h-185v-170h275q26 0 43 -17t17 -43t-17 -43t-43 -17z" />
    <glyph glyph-name="afii10024" unicode="&#x416;" horiz-adv-x="820" 
d="M475 640v-210l195 245q24 30 55 30q26 0 45.5 -19.5t19.5 -45.5q0 -25 -20 -50l-144 -180l164 -285q25 -42 25 -65q0 -27 -19 -46t-46 -19q-39 0 -60 35l-155 270l-60 -75v-165q0 -30 -17.5 -47.5t-47.5 -17.5t-47.5 17.5t-17.5 47.5v165l-60 75l-155 -270
q-21 -35 -60 -35q-27 0 -46 19t-19 46q0 23 25 65l164 285l-144 180q-20 25 -20 50q0 26 19.5 45.5t45.5 19.5q31 0 55 -30l195 -245v210q0 30 17.5 47.5t47.5 17.5t47.5 -17.5t17.5 -47.5z" />
    <glyph glyph-name="afii10025" unicode="&#x417;" horiz-adv-x="525" 
d="M205 425h35q48 0 74 24t26 66q0 38 -26 61.5t-74 23.5q-61 0 -100 -60q-22 -35 -55 -35q-25 0 -42.5 18.5t-17.5 46.5q0 53 61.5 101.5t153.5 48.5q103 0 166.5 -58.5t63.5 -146.5q0 -32 -10 -59.5t-24 -43.5t-27.5 -27t-23.5 -15l-10 -5v-5q4 -1 11.5 -4t26.5 -15
t33.5 -27.5t26.5 -44.5t12 -64q0 -103 -65 -164t-180 -61q-91 0 -160.5 55.5t-69.5 109.5q0 30 17.5 47.5t47.5 17.5q35 0 55 -40q35 -70 110 -70q52 0 83.5 29.5t31.5 75.5q0 42 -32 71t-83 29h-35q-26 0 -43 17t-17 43t17 43t43 17z" />
    <glyph glyph-name="afii10026" unicode="&#x418;" horiz-adv-x="660" 
d="M210 640v-365h5l220 365q21 36 37 50.5t43 14.5q30 0 47.5 -17.5t17.5 -47.5v-580q0 -30 -17.5 -47.5t-47.5 -17.5t-47.5 17.5t-17.5 47.5v365h-5l-220 -365q-15 -25 -23 -35.5t-23 -20t-34 -9.5q-30 0 -47.5 17.5t-17.5 47.5v580q0 30 17.5 47.5t47.5 17.5t47.5 -17.5
t17.5 -47.5z" />
    <glyph glyph-name="afii10027" unicode="&#x419;" horiz-adv-x="660" 
d="M330 750q-70 0 -117.5 45.5t-47.5 109.5q0 19 13 32t32 13q32 0 50 -40q12 -28 27.5 -44t42.5 -16t42.5 16t27.5 44q18 40 50 40q19 0 32 -13t13 -32q0 -64 -47.5 -109.5t-117.5 -45.5zM210 275v365q0 30 -17.5 47.5t-47.5 17.5t-47.5 -17.5t-17.5 -47.5v-580
q0 -30 17.5 -47.5t47.5 -17.5q19 0 34 9.5t23 20t23 35.5l220 365h5v-365q0 -30 17.5 -47.5t47.5 -17.5t47.5 17.5t17.5 47.5v580q0 30 -17.5 47.5t-47.5 17.5q-27 0 -43 -14.5t-37 -50.5l-220 -365h-5z" />
    <glyph glyph-name="afii10028" unicode="&#x41a;" horiz-adv-x="580" 
d="M210 640v-240l220 275q24 30 55 30q26 0 45.5 -19.5t19.5 -45.5q0 -25 -20 -50l-144 -180l164 -285q25 -42 25 -65q0 -27 -19 -46t-46 -19q-39 0 -60 35l-155 270l-85 -110v-130q0 -30 -17.5 -47.5t-47.5 -17.5t-47.5 17.5t-17.5 47.5v580q0 30 17.5 47.5t47.5 17.5
t47.5 -17.5t17.5 -47.5z" />
    <glyph glyph-name="afii10029" unicode="&#x41b;" horiz-adv-x="630" 
d="M115 330v305q0 30 17.5 47.5t47.5 17.5h305q30 0 47.5 -17.5t17.5 -47.5v-575q0 -30 -17.5 -47.5t-47.5 -17.5t-47.5 17.5t-17.5 47.5v520h-175v-250q0 -84 -19 -153t-48.5 -110.5t-63 -64t-64.5 -22.5q-26 0 -43 17t-17 43q0 36 30 55q50 30 72.5 83.5t22.5 151.5z" />
    <glyph glyph-name="afii10030" unicode="&#x41c;" horiz-adv-x="790" 
d="M395 75q-51 0 -70 55l-110 330h-5l-55 -410q-3 -23 -20.5 -39t-44.5 -16t-43.5 17.5t-16.5 47.5q0 20 5 60l70 520q5 37 28 58.5t57 21.5q66 0 90 -80l113 -335h4l113 335q28 80 90 80q34 0 57 -21.5t28 -58.5l70 -520q5 -40 5 -60q0 -30 -16.5 -47.5t-43.5 -17.5
t-44.5 16t-20.5 39l-55 410h-5l-110 -330q-19 -55 -70 -55z" />
    <glyph glyph-name="afii10031" unicode="&#x41d;" horiz-adv-x="645" 
d="M210 300v-240q0 -30 -17.5 -47.5t-47.5 -17.5t-47.5 17.5t-17.5 47.5v580q0 30 17.5 47.5t47.5 17.5t47.5 -17.5t17.5 -47.5v-230h225v230q0 30 17.5 47.5t47.5 17.5t47.5 -17.5t17.5 -47.5v-580q0 -30 -17.5 -47.5t-47.5 -17.5t-47.5 17.5t-17.5 47.5v240h-225z" />
    <glyph glyph-name="afii10032" unicode="&#x41e;" horiz-adv-x="620" 
d="M310 720q111 0 183 -79t72 -211v-160q0 -132 -72 -211t-183 -79t-183 79t-72 211v160q0 132 72 211t183 79zM310 600q-55 0 -90 -43.5t-35 -126.5v-160q0 -83 35 -126.5t90 -43.5t90 43.5t35 126.5v160q0 83 -35 126.5t-90 43.5z" />
    <glyph glyph-name="afii10033" unicode="&#x41f;" horiz-adv-x="650" 
d="M210 580v-520q0 -30 -17.5 -47.5t-47.5 -17.5t-47.5 17.5t-17.5 47.5v575q0 30 17.5 47.5t47.5 17.5h360q30 0 47.5 -17.5t17.5 -47.5v-575q0 -30 -17.5 -47.5t-47.5 -17.5t-47.5 17.5t-17.5 47.5v520h-230z" />
    <glyph glyph-name="afii10034" unicode="&#x420;" horiz-adv-x="580" 
d="M145 700h155q111 0 183 -69t72 -171t-72 -171t-183 -69h-90v-160q0 -30 -17.5 -47.5t-47.5 -17.5t-47.5 17.5t-17.5 47.5v575q0 30 17.5 47.5t47.5 17.5zM300 580h-90v-240h90q56 0 88 32t32 88t-32 88t-88 32z" />
    <glyph glyph-name="afii10035" unicode="&#x421;" horiz-adv-x="555" 
d="M310 100q75 0 110 70q20 40 55 40q30 0 47.5 -17.5t17.5 -47.5q0 -54 -69.5 -109.5t-160.5 -55.5q-111 0 -183 79t-72 211v160q0 132 72 211t183 79q92 0 153.5 -48.5t61.5 -101.5q0 -28 -17.5 -46.5t-42.5 -18.5q-33 0 -55 35q-39 60 -100 60q-55 0 -90 -43.5
t-35 -126.5v-160q0 -83 35 -126.5t90 -43.5z" />
    <glyph glyph-name="afii10036" unicode="&#x422;" horiz-adv-x="500" 
d="M250 -5q-30 0 -47.5 17.5t-17.5 47.5v520h-125q-26 0 -43 17t-17 43t17 43t43 17h380q26 0 43 -17t17 -43t-17 -43t-43 -17h-125v-520q0 -30 -17.5 -47.5t-47.5 -17.5z" />
    <glyph glyph-name="afii10037" unicode="&#x423;" horiz-adv-x="520" 
d="M140 650l140 -300h5l105 290q13 37 28.5 51t41.5 14q27 0 43.5 -17.5t16.5 -47.5q0 -25 -10 -50l-150 -415q-35 -99 -85 -147t-127 -48q-53 0 -83 25.5t-30 64.5q0 22 16.5 38.5t38.5 16.5q18 0 34.5 -12.5t30.5 -12.5q22 0 38.5 17.5t21.5 34.5l5 18l-195 420
q-15 30 -15 50q0 30 16.5 47.5t43.5 17.5q26 0 41 -12t29 -43z" />
    <glyph glyph-name="afii10038" unicode="&#x424;" horiz-adv-x="800" 
d="M400 -70q-30 0 -47.5 17.5t-17.5 47.5v75h-5q-35 -30 -100 -30q-83 0 -139 69t-56 191v100q0 122 56 191t139 69q29 0 54 -7.5t36 -14.5l10 -8h5v75q0 30 17.5 47.5t47.5 17.5t47.5 -17.5t17.5 -47.5v-75h5q35 30 100 30q83 0 139 -69t56 -191v-100q0 -122 -56 -191
t-139 -69q-29 0 -54 7.5t-36 14.5l-10 8h-5v-75q0 -30 -17.5 -47.5t-47.5 -17.5zM465 505v-310q25 -35 75 -35q44 0 69.5 34t25.5 106v100q0 72 -25.5 106t-69.5 34q-22 0 -41 -8.5t-27 -17.5zM335 195v310q-25 35 -75 35q-44 0 -69.5 -34t-25.5 -106v-100q0 -72 25.5 -106
t69.5 -34q22 0 41 9t27 17z" />
    <glyph glyph-name="afii10039" unicode="&#x425;" horiz-adv-x="540" 
d="M272 240h-4l-128 -210q-21 -35 -60 -35q-26 0 -45.5 19.5t-19.5 45.5q0 23 22 60l153 240l-138 220q-22 37 -22 60q0 26 19.5 45.5t45.5 19.5q39 0 60 -35l113 -190h4l113 190q21 35 60 35q26 0 45.5 -19.5t19.5 -45.5q0 -23 -22 -60l-138 -220l153 -240q22 -37 22 -60
q0 -26 -19.5 -45.5t-45.5 -19.5q-39 0 -60 35z" />
    <glyph glyph-name="afii10040" unicode="&#x426;" horiz-adv-x="665" 
d="M510 -95v95h-365q-30 0 -47.5 17.5t-17.5 47.5v575q0 30 17.5 47.5t47.5 17.5t47.5 -17.5t17.5 -47.5v-520h220v520q0 30 17.5 47.5t47.5 17.5t47.5 -17.5t17.5 -47.5v-520h15q30 0 47.5 -17.5t17.5 -47.5v-150q0 -30 -17.5 -47.5t-47.5 -17.5t-47.5 17.5t-17.5 47.5z
" />
    <glyph glyph-name="afii10041" unicode="&#x427;" horiz-adv-x="620" 
d="M60 480v160q0 30 17.5 47.5t47.5 17.5t47.5 -17.5t17.5 -47.5v-160q0 -69 29 -104.5t76 -35.5q29 0 57.5 10t43.5 20l14 10v260q0 30 17.5 47.5t47.5 17.5t47.5 -17.5t17.5 -47.5v-580q0 -30 -17.5 -47.5t-47.5 -17.5t-47.5 17.5t-17.5 47.5v200q-60 -40 -140 -40
q-93 0 -151.5 68t-58.5 192z" />
    <glyph glyph-name="afii10042" unicode="&#x428;" horiz-adv-x="910" 
d="M700 120v520q0 30 17.5 47.5t47.5 17.5t47.5 -17.5t17.5 -47.5v-575q0 -30 -17.5 -47.5t-47.5 -17.5h-620q-30 0 -47.5 17.5t-17.5 47.5v575q0 30 17.5 47.5t47.5 17.5t47.5 -17.5t17.5 -47.5v-520h180v520q0 30 17.5 47.5t47.5 17.5t47.5 -17.5t17.5 -47.5v-520h180z
" />
    <glyph glyph-name="afii10043" unicode="&#x429;" horiz-adv-x="935" 
d="M780 -95v95h-635q-30 0 -47.5 17.5t-17.5 47.5v575q0 30 17.5 47.5t47.5 17.5t47.5 -17.5t17.5 -47.5v-520h180v520q0 30 17.5 47.5t47.5 17.5t47.5 -17.5t17.5 -47.5v-520h180v520q0 30 17.5 47.5t47.5 17.5t47.5 -17.5t17.5 -47.5v-520h15q30 0 47.5 -17.5t17.5 -47.5
v-150q0 -30 -17.5 -47.5t-47.5 -17.5t-47.5 17.5t-17.5 47.5z" />
    <glyph glyph-name="afii10044" unicode="&#x42a;" horiz-adv-x="630" 
d="M125 65v515h-85q-26 0 -43 17t-17 43t17 43t43 17h150q30 0 47.5 -17.5t17.5 -47.5v-165h95q108 0 179 -68t71 -167t-71 -167t-179 -68h-160q-30 0 -47.5 17.5t-17.5 47.5zM255 120h95q52 0 83.5 31t31.5 84t-31.5 84t-83.5 31h-95v-230z" />
    <glyph glyph-name="afii10045" unicode="&#x42b;" horiz-adv-x="850" 
d="M295 0h-150q-30 0 -47.5 17.5t-17.5 47.5v575q0 30 17.5 47.5t47.5 17.5t47.5 -17.5t17.5 -47.5v-170h85q108 0 179 -68t71 -167t-71 -167t-179 -68zM210 120h85q53 0 84 31t31 84t-31 84t-84 31h-85v-230zM770 640v-580q0 -30 -17.5 -47.5t-47.5 -17.5t-47.5 17.5
t-17.5 47.5v580q0 30 17.5 47.5t47.5 17.5t47.5 -17.5t17.5 -47.5z" />
    <glyph glyph-name="afii10046" unicode="&#x42c;" horiz-adv-x="585" 
d="M305 0h-160q-30 0 -47.5 17.5t-17.5 47.5v575q0 30 17.5 47.5t47.5 17.5t47.5 -17.5t17.5 -47.5v-170h95q108 0 179 -68t71 -167t-71 -167t-179 -68zM210 120h95q53 0 84 31t31 84t-31 84t-84 31h-95v-230z" />
    <glyph glyph-name="afii10047" unicode="&#x42d;" horiz-adv-x="555" 
d="M245 100q55 0 90 43.5t35 126.5v20h-150q-26 0 -43 17t-17 43t17 43t43 17h150v20q0 83 -35 126.5t-90 43.5q-61 0 -100 -60q-22 -35 -55 -35q-25 0 -42.5 18.5t-17.5 46.5q0 53 61.5 101.5t153.5 48.5q111 0 183 -79t72 -211v-160q0 -132 -72 -211t-183 -79
q-91 0 -160.5 55.5t-69.5 109.5q0 30 17.5 47.5t47.5 17.5q35 0 55 -40q35 -70 110 -70z" />
    <glyph glyph-name="afii10048" unicode="&#x42e;" horiz-adv-x="845" 
d="M210 300v-240q0 -30 -17.5 -47.5t-47.5 -17.5t-47.5 17.5t-17.5 47.5v580q0 30 17.5 47.5t47.5 17.5t47.5 -17.5t17.5 -47.5v-230h100v35q0 125 68 200t172 75t172 -75t68 -200v-190q0 -125 -68 -200t-172 -75t-172 75t-68 200v45h-100zM550 600q-48 0 -79 -40t-31 -115
v-190q0 -75 31 -115t79 -40t79 40t31 115v190q0 75 -31 115t-79 40z" />
    <glyph glyph-name="afii10049" unicode="&#x42f;" horiz-adv-x="605" 
d="M460 700q30 0 47.5 -17.5t17.5 -47.5v-575q0 -30 -17.5 -47.5t-47.5 -17.5t-47.5 17.5t-17.5 47.5v180h-111l-124 -195q-30 -50 -70 -50q-27 0 -43.5 17.5t-16.5 47.5q0 17 20 50l105 165v5q-4 2 -11 6.5t-24 21.5t-30 37t-24 53.5t-11 71.5q0 99 68.5 164.5t176.5 65.5
h160zM190 470q0 -49 30.5 -79.5t79.5 -30.5h95v220h-95q-49 0 -79.5 -30.5t-30.5 -79.5z" />
    <glyph glyph-name="afii10065" unicode="&#x430;" 
d="M225 100q39 0 62 28t23 82v10h-65q-40 0 -60 -16.5t-20 -43.5q0 -26 17 -43t43 -17zM235 410q-8 0 -15.5 -1t-14 -3t-10.5 -3.5t-9.5 -5.5t-7 -5.5t-7.5 -6.5l-6 -5q-2 -1 -9 -7t-11.5 -9t-12.5 -6t-17 -3q-23 0 -39 16.5t-16 38.5q0 37 54 76t121 39q83 0 139 -59
t56 -146v-260q0 -30 -16.5 -47.5t-43.5 -17.5q-24 0 -39 12.5t-18 24.5l-3 13h-4q-1 -2 -3.5 -6.5t-11 -14.5t-19 -18t-29 -14.5t-38.5 -6.5q-72 0 -118.5 48.5t-46.5 126.5q0 73 50 119t135 46h85q0 41 -20.5 63t-54.5 22z" />
    <glyph glyph-name="afii10066" unicode="&#x431;" horiz-adv-x="480" 
d="M245 100q38 0 61.5 26t23.5 74v50q0 48 -23.5 74t-61.5 26t-61.5 -26t-23.5 -74v-50q0 -48 23.5 -74t61.5 -26zM160 415h5q4 6 13 14t39 22t63 14q78 0 124 -55t46 -160v-50q0 -93 -59 -154t-146 -61t-146 61t-59 154v215q0 226 170 270l115 30q37 10 55 10
q22 0 38.5 -16.5t16.5 -38.5q0 -42 -60 -60l-120 -30q-46 -11 -70.5 -47.5t-24.5 -117.5z" />
    <glyph glyph-name="afii10067" unicode="&#x432;" 
d="M275 0h-150q-27 0 -43.5 17.5t-16.5 47.5v380q0 30 16.5 47.5t43.5 17.5h140q80 0 125 -39t45 -101q0 -29 -12.5 -52.5t-24.5 -33.5l-13 -9v-5q3 -1 8 -3.5t18 -12.5t23 -22.5t18 -34.5t8 -47q0 -66 -49 -108t-136 -42zM275 220h-90v-120h90q26 0 43 17t17 43t-17 43
t-43 17zM260 410h-75v-100h75q22 0 36 14t14 36t-14 36t-36 14z" />
    <glyph glyph-name="afii10068" unicode="&#x433;" horiz-adv-x="400" 
d="M355 400h-170v-340q0 -30 -16.5 -47.5t-43.5 -17.5t-43.5 17.5t-16.5 47.5v385q0 30 16.5 47.5t43.5 17.5h230q23 0 39 -16t16 -39t-16 -39t-39 -16z" />
    <glyph glyph-name="afii10069" unicode="&#x434;" horiz-adv-x="525" 
d="M50 110q5 5 12.5 15.5t20 50.5t12.5 89v180q0 30 16.5 47.5t43.5 17.5h225q27 0 43.5 -17.5t16.5 -47.5v-335h5q27 0 43.5 -17.5t16.5 -47.5v-110q0 -30 -16.5 -47.5t-43.5 -17.5t-43.5 17.5t-16.5 47.5v65h-275v-65q0 -30 -16.5 -47.5t-43.5 -17.5t-43.5 17.5
t-16.5 47.5v110q0 30 16.5 47.5t43.5 17.5zM170 110h150v290h-105v-135q0 -47 -11 -84.5t-22 -51.5l-12 -14v-5z" />
    <glyph glyph-name="afii10070" unicode="&#x435;" horiz-adv-x="475" 
d="M380 205h-220q0 -51 23 -78t62 -27q54 0 80 30q11 13 17 19t16 11t22 5q22 0 38.5 -16.5t16.5 -38.5q0 -46 -53 -85.5t-137 -39.5q-87 0 -146 61t-59 154v110q0 93 59 154t146 61q80 0 137.5 -61.5t57.5 -153.5v-40q0 -30 -16.5 -47.5t-43.5 -17.5zM320 305
q0 50 -21.5 77.5t-53.5 27.5q-39 0 -62 -27t-23 -78h160z" />
    <glyph glyph-name="afii10072" unicode="&#x436;" horiz-adv-x="640" 
d="M380 450v-120l135 160q21 25 50 25q23 0 39 -16.5t16 -38.5q0 -7 -2 -14t-6 -13l-7 -10.5t-7 -8.5l-3 -4l-95 -109l110 -196q20 -33 20 -50q0 -26 -17 -43t-43 -17q-35 0 -55 35l-100 175l-35 -40v-105q0 -30 -16.5 -47.5t-43.5 -17.5t-43.5 17.5t-16.5 47.5v105l-35 40
l-100 -175q-20 -35 -55 -35q-26 0 -43 17t-17 43q0 17 20 50l110 196l-95 109l-3 4q-4 4 -7 8.5l-7 10.5t-6 13t-2 14q0 22 16 38.5t39 16.5q29 0 50 -25l135 -160v120q0 30 16.5 47.5t43.5 17.5t43.5 -17.5t16.5 -47.5z" />
    <glyph glyph-name="afii10073" unicode="&#x437;" horiz-adv-x="425" 
d="M205 210h-31q-22 0 -38.5 16t-16.5 39t16.5 39t38.5 16h31q29 0 44.5 12.5t15.5 32.5t-15.5 32.5t-44.5 12.5q-11 0 -21 -2.5t-18.5 -7.5t-13 -9t-12.5 -11.5t-10 -9.5q-27 -25 -50 -25q-22 0 -38.5 16.5t-16.5 38.5q0 49 49 87t131 38q84 0 132 -41.5t48 -103.5
q0 -36 -20 -62t-40 -34l-20 -9v-5q4 -1 10 -3.5t21.5 -12t27.5 -22t21.5 -36t9.5 -51.5q0 -69 -49.5 -114.5t-130.5 -45.5q-87 0 -146 44.5t-59 90.5q0 22 16 38.5t39 16.5q29 0 55 -35q31 -40 85 -40q33 0 51.5 16t18.5 39t-18.5 39t-51.5 16z" />
    <glyph glyph-name="afii10074" unicode="&#x438;" horiz-adv-x="530" 
d="M465 450v-390q0 -30 -16.5 -47.5t-43.5 -17.5t-43.5 17.5t-16.5 47.5v220h-5l-140 -230q-33 -55 -75 -55q-27 0 -43.5 17.5t-16.5 47.5v390q0 30 16.5 47.5t43.5 17.5t43.5 -17.5t16.5 -47.5v-220h5l140 230q33 55 75 55q27 0 43.5 -17.5t16.5 -47.5z" />
    <glyph glyph-name="afii10075" unicode="&#x439;" horiz-adv-x="530" 
d="M265 570q-60 0 -102.5 41t-42.5 94q0 19 13 32t32 13q30 0 45 -30l3 -6q9 -18 14 -26t15 -15.5t23 -7.5t23 7.5t15 15.5t14 26l3 6q15 30 45 30q19 0 32 -13t13 -32q0 -53 -42.5 -94t-102.5 -41zM465 450v-390q0 -30 -16.5 -47.5t-43.5 -17.5t-43.5 17.5t-16.5 47.5v220
h-5l-140 -230q-33 -55 -75 -55q-27 0 -43.5 17.5t-16.5 47.5v390q0 30 16.5 47.5t43.5 17.5t43.5 -17.5t16.5 -47.5v-220h5l140 230q33 55 75 55q27 0 43.5 -17.5t16.5 -47.5z" />
    <glyph glyph-name="afii10076" unicode="&#x43a;" horiz-adv-x="465" 
d="M185 450v-140l155 180q21 25 50 25q22 0 38.5 -16.5t16.5 -38.5q0 -7 -2 -14t-6 -13l-7 -10.5t-6 -8.5l-4 -4l-95 -109l110 -196q20 -33 20 -50q0 -26 -17 -43t-43 -17q-35 0 -55 35l-100 175l-55 -65v-80q0 -30 -16.5 -47.5t-43.5 -17.5t-43.5 17.5t-16.5 47.5v390
q0 30 16.5 47.5t43.5 17.5t43.5 -17.5t16.5 -47.5z" />
    <glyph glyph-name="afii10077" unicode="&#x43b;" horiz-adv-x="505" 
d="M205 400v-135q0 -131 -49.5 -205.5t-105.5 -74.5q-25 0 -42.5 18.5t-17.5 41.5q0 36 45 65q50 33 50 155v180q0 30 16.5 47.5t43.5 17.5h235q27 0 43.5 -17.5t16.5 -47.5v-385q0 -30 -16.5 -47.5t-43.5 -17.5t-43.5 17.5t-16.5 47.5v340h-115z" />
    <glyph glyph-name="afii10078" unicode="&#x43c;" horiz-adv-x="640" 
d="M320 55q-45 0 -65 50l-70 175h-5l-25 -220q-8 -65 -65 -65q-26 0 -43 17t-17 43q0 5 5 55l40 320q10 85 75 85q33 0 52 -19t38 -66l78 -195h4l78 195q19 47 38 66t52 19q65 0 75 -85l40 -320q5 -50 5 -55q0 -26 -17 -43t-43 -17q-57 0 -65 65l-25 220h-5l-70 -175
q-20 -50 -65 -50z" />
    <glyph glyph-name="afii10079" unicode="&#x43d;" horiz-adv-x="525" 
d="M185 450v-145h155v145q0 30 16.5 47.5t43.5 17.5t43.5 -17.5t16.5 -47.5v-390q0 -30 -16.5 -47.5t-43.5 -17.5t-43.5 17.5t-16.5 47.5v140h-155v-140q0 -30 -16.5 -47.5t-43.5 -17.5t-43.5 17.5t-16.5 47.5v390q0 30 16.5 47.5t43.5 17.5t43.5 -17.5t16.5 -47.5z" />
    <glyph glyph-name="afii10080" unicode="&#x43e;" 
d="M245 100q38 0 61.5 26t23.5 74v110q0 48 -23.5 74t-61.5 26t-61.5 -26t-23.5 -74v-110q0 -48 23.5 -74t61.5 -26zM245 -15q-87 0 -146 61t-59 154v110q0 93 59 154t146 61t146 -61t59 -154v-110q0 -93 -59 -154t-146 -61z" />
    <glyph glyph-name="afii10081" unicode="&#x43f;" horiz-adv-x="535" 
d="M125 510h285q27 0 43.5 -17.5t16.5 -47.5v-385q0 -30 -16.5 -47.5t-43.5 -17.5t-43.5 17.5t-16.5 47.5v340h-165v-340q0 -30 -16.5 -47.5t-43.5 -17.5t-43.5 17.5t-16.5 47.5v385q0 30 16.5 47.5t43.5 17.5z" />
    <glyph glyph-name="afii10082" unicode="&#x440;" horiz-adv-x="515" 
d="M270 410q-38 0 -61.5 -26t-23.5 -74v-110q0 -48 23.5 -74t61.5 -26t61.5 26t23.5 74v110q0 48 -23.5 74t-61.5 26zM190 35h-5v-190q0 -30 -16.5 -47.5t-43.5 -17.5t-43.5 17.5t-16.5 47.5v605q0 30 16.5 47.5t43.5 17.5q22 0 37 -10t19 -20l4 -10h5q4 6 13 14t39 22
t63 14q78 0 124 -55t46 -160v-110q0 -105 -46 -160t-124 -55q-33 0 -62 12.5t-41 24.5z" />
    <glyph glyph-name="afii10083" unicode="&#x441;" horiz-adv-x="450" 
d="M245 410q-38 0 -61.5 -26t-23.5 -74v-110q0 -48 23.5 -74t61.5 -26q49 0 80 40q26 35 55 35q22 0 38.5 -16.5t16.5 -38.5q0 -45 -56.5 -90t-133.5 -45q-87 0 -146 61t-59 154v110q0 93 59 154t146 61q71 0 128 -42t57 -83q0 -22 -16 -38.5t-39 -16.5t-50 25l-10 10
t-13 11t-14 8.5t-19.5 8t-23.5 2.5z" />
    <glyph glyph-name="afii10084" unicode="&#x442;" horiz-adv-x="420" 
d="M55 510h310q23 0 39 -16t16 -39t-16 -39t-39 -16h-95v-340q0 -30 -16.5 -47.5t-43.5 -17.5t-43.5 17.5t-16.5 47.5v340h-95q-23 0 -39 16t-16 39t16 39t39 16z" />
    <glyph glyph-name="afii10085" unicode="&#x443;" horiz-adv-x="440" 
d="M415 390l-195 -555q-11 -30 -24.5 -42.5t-35.5 -12.5q-26 0 -43 17t-17 43q0 15 20 65l41 114l-136 371q-20 50 -20 65q0 26 17 43t43 17q23 0 36.5 -12.5t23.5 -42.5l95 -260h4l91 260q10 30 23.5 42.5t36.5 12.5q26 0 43 -17t17 -43q0 -15 -20 -65z" />
    <glyph glyph-name="afii10086" unicode="&#x444;" horiz-adv-x="700" 
d="M160 315v-120q0 -43 22 -69t53 -26q16 0 29.5 6t19.5 12l6 7v260q-20 25 -55 25q-31 0 -53 -26t-22 -69zM350 -220q-27 0 -43.5 17.5t-16.5 47.5v165h-5q-25 -25 -70 -25q-74 0 -124.5 57.5t-50.5 152.5v120q0 95 50.5 152.5t124.5 57.5q20 0 37.5 -6.5t25.5 -12.5l7 -6
h5v155q0 30 16.5 47.5t43.5 17.5t43.5 -17.5t16.5 -47.5v-155h5q25 25 70 25q74 0 124.5 -57.5t50.5 -152.5v-120q0 -95 -50.5 -152.5t-124.5 -57.5q-20 0 -37.5 6.5t-25.5 12.5l-7 6h-5v-165q0 -30 -16.5 -47.5t-43.5 -17.5zM540 195v120q0 43 -22 69t-53 26
q-16 0 -29.5 -6t-19.5 -12l-6 -7v-260q20 -25 55 -25q31 0 53 26t22 69z" />
    <glyph glyph-name="afii10087" unicode="&#x445;" horiz-adv-x="425" 
d="M210 375h5l50 75q3 5 13 20t13.5 19.5t11.5 12.5t16.5 10.5t20.5 2.5q26 0 43 -17t17 -43q0 -29 -25 -65l-85 -125l100 -145q25 -36 25 -65q0 -26 -17 -43t-43 -17q-10 0 -18 2.5t-13.5 5.5t-12.5 11t-9.5 12t-10.5 16.5t-11 17.5l-65 100h-5l-65 -100q-3 -5 -11 -17.5
t-10.5 -16.5t-9.5 -12t-12.5 -11t-13.5 -5.5t-18 -2.5q-26 0 -43 17t-17 43q0 29 25 65l100 145l-85 125q-25 36 -25 65q0 26 17 43t43 17q12 0 20.5 -2.5t16.5 -10.5t11.5 -12.5t13.5 -19.5t13 -20z" />
    <glyph glyph-name="afii10088" unicode="&#x446;" horiz-adv-x="540" 
d="M455 450v-340h5q27 0 43.5 -17.5t16.5 -47.5v-110q0 -30 -16.5 -47.5t-43.5 -17.5t-43.5 17.5t-16.5 47.5v65h-275q-27 0 -43.5 17.5t-16.5 47.5v385q0 30 16.5 47.5t43.5 17.5t43.5 -17.5t16.5 -47.5v-340h150v340q0 30 16.5 47.5t43.5 17.5t43.5 -17.5t16.5 -47.5z" />
    <glyph glyph-name="afii10089" unicode="&#x447;" horiz-adv-x="495" 
d="M370 -5q-27 0 -43.5 17.5t-16.5 47.5v110q-30 -15 -80 -15q-76 0 -130.5 58.5t-54.5 146.5v90q0 30 16.5 47.5t43.5 17.5t43.5 -17.5t16.5 -47.5v-90q0 -44 20 -67t55 -23q16 0 33.5 4t26.5 8l10 3v165q0 30 16.5 47.5t43.5 17.5t43.5 -17.5t16.5 -47.5v-390
q0 -30 -16.5 -47.5t-43.5 -17.5z" />
    <glyph glyph-name="afii10090" unicode="&#x448;" horiz-adv-x="730" 
d="M605 0h-480q-27 0 -43.5 17.5t-16.5 47.5v385q0 30 16.5 47.5t43.5 17.5t43.5 -17.5t16.5 -47.5v-340h120v340q0 30 16.5 47.5t43.5 17.5t43.5 -17.5t16.5 -47.5v-340h120v340q0 30 16.5 47.5t43.5 17.5t43.5 -17.5t16.5 -47.5v-385q0 -30 -16.5 -47.5t-43.5 -17.5z" />
    <glyph glyph-name="afii10091" unicode="&#x449;" horiz-adv-x="750" 
d="M610 0h-485q-27 0 -43.5 17.5t-16.5 47.5v385q0 30 16.5 47.5t43.5 17.5t43.5 -17.5t16.5 -47.5v-340h120v340q0 30 16.5 47.5t43.5 17.5t43.5 -17.5t16.5 -47.5v-340h120v340q0 30 16.5 47.5t43.5 17.5t43.5 -17.5t16.5 -47.5v-340h5q27 0 43.5 -17.5t16.5 -47.5v-110
q0 -30 -16.5 -47.5t-43.5 -17.5t-43.5 17.5t-16.5 47.5v65z" />
    <glyph glyph-name="afii10092" unicode="&#x44a;" 
d="M225 445v-95h60q86 0 135.5 -48t49.5 -127t-49.5 -127t-135.5 -48h-120q-27 0 -43.5 17.5t-16.5 47.5v335h-60q-23 0 -39 16t-16 39t16 39t39 16h120q27 0 43.5 -17.5t16.5 -47.5zM285 235h-60v-120h60q26 0 43 17t17 43t-17 43t-43 17z" />
    <glyph glyph-name="afii10093" unicode="&#x44b;" horiz-adv-x="675" 
d="M185 450v-100h60q86 0 135.5 -48t49.5 -127t-49.5 -127t-135.5 -48h-120q-27 0 -43.5 17.5t-16.5 47.5v385q0 30 16.5 47.5t43.5 17.5t43.5 -17.5t16.5 -47.5zM610 450v-390q0 -30 -16.5 -47.5t-43.5 -17.5t-43.5 17.5t-16.5 47.5v390q0 30 16.5 47.5t43.5 17.5
t43.5 -17.5t16.5 -47.5zM245 235h-60v-120h60q26 0 43 17t17 43t-17 43t-43 17z" />
    <glyph glyph-name="afii10094" unicode="&#x44c;" horiz-adv-x="460" 
d="M185 450v-100h70q86 0 135.5 -48t49.5 -127t-49.5 -127t-135.5 -48h-130q-27 0 -43.5 17.5t-16.5 47.5v385q0 30 16.5 47.5t43.5 17.5t43.5 -17.5t16.5 -47.5zM255 235h-70v-120h70q26 0 43 17t17 43t-17 43t-43 17z" />
    <glyph glyph-name="afii10095" unicode="&#x44d;" horiz-adv-x="450" 
d="M205 410q-13 0 -23.5 -2.5t-19.5 -8t-14 -8.5t-13 -11l-10 -10q-28 -25 -50 -25q-23 0 -39 16.5t-16 38.5q0 41 57 83t128 42q87 0 146 -61t59 -154v-110q0 -93 -59 -154t-146 -61q-77 0 -133.5 45t-56.5 90q0 22 16.5 38.5t38.5 16.5q29 0 55 -35q31 -40 80 -40
q38 0 61.5 26t23.5 74h-100q-22 0 -38.5 16t-16.5 39t16.5 39t38.5 16h100q0 48 -23.5 74t-61.5 26z" />
    <glyph glyph-name="afii10096" unicode="&#x44e;" horiz-adv-x="675" 
d="M185 450v-145h60v15q0 89 56 147t139 58t139 -58t56 -147v-130q0 -89 -56 -147t-139 -58t-139 58t-56 147v10h-60v-140q0 -30 -16.5 -47.5t-43.5 -17.5t-43.5 17.5t-16.5 47.5v390q0 30 16.5 47.5t43.5 17.5t43.5 -17.5t16.5 -47.5zM440 100q35 0 55 23t20 67v130
q0 44 -20 67t-55 23t-55 -23t-20 -67v-130q0 -44 20 -67t55 -23z" />
    <glyph glyph-name="afii10097" unicode="&#x44f;" horiz-adv-x="480" 
d="M225 510h135q27 0 43.5 -17.5t16.5 -47.5v-385q0 -30 -16.5 -47.5t-43.5 -17.5t-43.5 17.5t-16.5 47.5v100h-75l-85 -130q-22 -35 -55 -35q-26 0 -43 17t-17 43q0 20 20 50l60 90v5q-7 5 -18 14t-29 44t-18 77q0 79 49.5 127t135.5 48zM165 335q0 -26 17 -43t43 -17h75
v120h-75q-26 0 -43 -17t-17 -43z" />
    <glyph glyph-name="afii10071" unicode="&#x451;" horiz-adv-x="475" 
d="M380 205h-220q0 -51 23 -78t62 -27q54 0 80 30q11 13 17 19t16 11t22 5q22 0 38.5 -16.5t16.5 -38.5q0 -46 -53 -85.5t-137 -39.5q-87 0 -146 61t-59 154v110q0 93 59 154t146 61q80 0 137.5 -61.5t57.5 -153.5v-40q0 -30 -16.5 -47.5t-43.5 -17.5zM320 305
q0 50 -21.5 77.5t-53.5 27.5q-39 0 -62 -27t-23 -78h160zM85 665q0 26 19.5 45.5t45.5 19.5t45.5 -19.5t19.5 -45.5t-19.5 -45.5t-45.5 -19.5t-45.5 19.5t-19.5 45.5zM265 665q0 26 19.5 45.5t45.5 19.5t45.5 -19.5t19.5 -45.5t-19.5 -45.5t-45.5 -19.5t-45.5 19.5
t-19.5 45.5z" />
    <glyph glyph-name="afii10099" unicode="&#x452;" 
d="M340 245q0 47 -22.5 73.5t-57.5 26.5t-57.5 -26.5t-22.5 -73.5v-185q-2 -30 -18 -47.5t-42 -17.5q-27 0 -43.5 17.5t-16.5 47.5v450h-5q-23 0 -39 16t-16 39t16 39t39 16h5v35q0 30 16.5 47.5t43.5 17.5t43.5 -17.5t16.5 -47.5v-35h75q23 0 39 -16t16 -39t-16 -39
t-39 -16h-75v-100h5q4 6 13 14t37.5 22t59.5 14q74 0 119.5 -55t45.5 -160q0 -142 -45 -213.5t-105 -71.5q-25 0 -42.5 18.5t-17.5 41.5q0 20 9.5 33t22.5 23.5t26 26t22.5 52t9.5 90.5z" />
    <glyph glyph-name="afii10100" unicode="&#x453;" horiz-adv-x="400" 
d="M355 400h-170v-340q0 -30 -16.5 -47.5t-43.5 -17.5t-43.5 17.5t-16.5 47.5v385q0 30 16.5 47.5t43.5 17.5h230q23 0 39 -16t16 -39t-16 -39t-39 -16zM195 655q0 17 10 40l40 105q16 40 55 40q23 0 39 -17t16 -43q0 -18 -15 -45l-55 -95q-17 -30 -45 -30q-19 0 -32 13
t-13 32z" />
    <glyph glyph-name="afii10101" unicode="&#x454;" horiz-adv-x="450" 
d="M245 410q-38 0 -61.5 -26t-23.5 -74h95q23 0 39 -16t16 -39t-16 -39t-39 -16h-95q0 -48 23.5 -74t61.5 -26q49 0 80 40q26 35 55 35q22 0 38.5 -16.5t16.5 -38.5q0 -45 -56.5 -90t-133.5 -45q-87 0 -146 61t-59 154v110q0 93 59 154t146 61q71 0 128 -42t57 -83
q0 -22 -16 -38.5t-39 -16.5t-50 25l-10 10t-13 11t-14 8.5t-19.5 8t-23.5 2.5z" />
    <glyph glyph-name="afii10102" unicode="&#x455;" horiz-adv-x="425" 
d="M225 100q29 0 44.5 12.5t15.5 32.5q0 23 -25 38.5t-61 27.5t-72.5 28t-61.5 49t-25 82q0 69 48 112t132 43q82 0 131 -38t49 -87q0 -22 -16 -38.5t-39 -16.5t-50 25q-2 2 -10 9.5t-12.5 11.5t-13 9t-18.5 7.5t-21 2.5q-28 0 -44 -12t-16 -28q0 -23 25 -38.5t61 -27.5
t72.5 -28t61.5 -49t25 -82q0 -76 -45.5 -118t-134.5 -42q-87 0 -146 44.5t-59 90.5q0 22 16 38.5t39 16.5q29 0 55 -35q31 -40 95 -40z" />
    <glyph glyph-name="afii10103" unicode="&#x456;" horiz-adv-x="250" 
d="M185 450v-390q0 -30 -16.5 -47.5t-43.5 -17.5t-43.5 17.5t-16.5 47.5v390q0 30 16.5 47.5t43.5 17.5t43.5 -17.5t16.5 -47.5zM60 645q0 30 19 50t46 20t46 -20t19 -50t-19 -50t-46 -20t-46 20t-19 50z" />
    <glyph glyph-name="afii10104" unicode="&#x457;" horiz-adv-x="250" 
d="M-30 695q0 26 19.5 45.5t45.5 19.5t45.5 -19.5t19.5 -45.5t-19.5 -45.5t-45.5 -19.5t-45.5 19.5t-19.5 45.5zM150 695q0 26 19.5 45.5t45.5 19.5t45.5 -19.5t19.5 -45.5t-19.5 -45.5t-45.5 -19.5t-45.5 19.5t-19.5 45.5zM185 450v-390q0 -30 -16.5 -47.5t-43.5 -17.5
t-43.5 17.5t-16.5 47.5v390q0 30 16.5 47.5t43.5 17.5t43.5 -17.5t16.5 -47.5z" />
    <glyph glyph-name="afii10105" unicode="&#x458;" horiz-adv-x="255" 
d="M70 60v390q0 30 16.5 47.5t43.5 17.5t43.5 -17.5t16.5 -47.5v-390q0 -131 -56.5 -205.5t-133.5 -74.5q-25 0 -42.5 18.5t-17.5 41.5q0 43 45 60q49 18 67 51.5t18 108.5zM65 645q0 30 19 50t46 20t46 -20t19 -50t-19 -50t-46 -20t-46 20t-19 50z" />
    <glyph glyph-name="afii10106" unicode="&#x459;" horiz-adv-x="690" 
d="M145 510h220q27 0 43.5 -17.5t16.5 -47.5v-95h60q86 0 135.5 -48t49.5 -127t-49.5 -127t-135.5 -48h-120q-27 0 -43.5 17.5t-16.5 47.5v335h-100v-135q0 -131 -49.5 -205.5t-105.5 -74.5q-25 0 -42.5 18.5t-17.5 41.5q0 36 45 65q50 33 50 155v180q0 30 16.5 47.5
t43.5 17.5zM485 235h-60v-120h60q26 0 43 17t17 43t-17 43t-43 17z" />
    <glyph glyph-name="afii10107" unicode="&#x45a;" horiz-adv-x="715" 
d="M320 65v170h-135v-175q0 -30 -16.5 -47.5t-43.5 -17.5t-43.5 17.5t-16.5 47.5v390q0 30 16.5 47.5t43.5 17.5t43.5 -17.5t16.5 -47.5v-100h135v100q0 30 16.5 47.5t43.5 17.5t43.5 -17.5t16.5 -47.5v-100h70q86 0 135.5 -48t49.5 -127t-49.5 -127t-135.5 -48h-130
q-27 0 -43.5 17.5t-16.5 47.5zM510 235h-70v-120h70q26 0 43 17t17 43t-17 43t-43 17z" />
    <glyph glyph-name="afii10108" unicode="&#x45b;" horiz-adv-x="520" 
d="M180 410h5q4 6 13 14t37.5 22t59.5 14q74 0 119.5 -55t45.5 -160v-185q0 -30 -16.5 -47.5t-43.5 -17.5t-43.5 17.5t-16.5 47.5v185q0 47 -22.5 73.5t-57.5 26.5t-57.5 -26.5t-22.5 -73.5v-185q-2 -30 -18 -47.5t-42 -17.5q-27 0 -43.5 17.5t-16.5 47.5v450h-5
q-23 0 -39 16t-16 39t16 39t39 16h5v35q0 30 16.5 47.5t43.5 17.5t43.5 -17.5t16.5 -47.5v-35h75q23 0 39 -16t16 -39t-16 -39t-39 -16h-75v-100z" />
    <glyph glyph-name="afii10109" unicode="&#x45c;" horiz-adv-x="465" 
d="M220 655q0 17 10 40l40 105q16 40 55 40q23 0 39 -17t16 -43q0 -18 -15 -45l-55 -95q-17 -30 -45 -30q-19 0 -32 13t-13 32zM185 450v-140l155 180q21 25 50 25q22 0 38.5 -16.5t16.5 -38.5q0 -7 -2 -14t-6 -13l-7 -10.5t-6 -8.5l-4 -4l-95 -109l110 -196q20 -33 20 -50
q0 -26 -17 -43t-43 -17q-35 0 -55 35l-100 175l-55 -65v-80q0 -30 -16.5 -47.5t-43.5 -17.5t-43.5 17.5t-16.5 47.5v390q0 30 16.5 47.5t43.5 17.5t43.5 -17.5t16.5 -47.5z" />
    <glyph glyph-name="afii10110" unicode="&#x45e;" horiz-adv-x="440" 
d="M220 -165l195 555q20 50 20 65q0 26 -17 43t-43 17q-23 0 -36.5 -12.5t-23.5 -42.5l-91 -260h-4l-95 260q-10 30 -23.5 42.5t-36.5 12.5q-26 0 -43 -17t-17 -43q0 -15 20 -65l136 -371l-41 -114q-20 -50 -20 -65q0 -26 17 -43t43 -17q22 0 35.5 12.5t24.5 42.5zM222 570
q-60 0 -102.5 41t-42.5 94q0 19 13 32t32 13q30 0 45 -30l3 -6q9 -18 14 -26t15 -15.5t23 -7.5t23 7.5t15 15.5t14 26l3 6q15 30 45 30q19 0 32 -13t13 -32q0 -53 -42.5 -94t-102.5 -41z" />
    <glyph glyph-name="afii10193" unicode="&#x45f;" horiz-adv-x="530" 
d="M405 0h-80v-65q0 -30 -16.5 -47.5t-43.5 -17.5t-43.5 17.5t-16.5 47.5v65h-80q-27 0 -43.5 17.5t-16.5 47.5v385q0 30 16.5 47.5t43.5 17.5t43.5 -17.5t16.5 -47.5v-340h160v340q0 30 16.5 47.5t43.5 17.5t43.5 -17.5t16.5 -47.5v-385q0 -30 -16.5 -47.5t-43.5 -17.5z
" />
    <glyph glyph-name="afii10050" unicode="&#x490;" 
d="M210 580v-520q0 -30 -17.5 -47.5t-47.5 -17.5t-47.5 17.5t-17.5 47.5v575q0 30 17.5 47.5t47.5 17.5h225v45q0 30 17.5 47.5t47.5 17.5t47.5 -17.5t17.5 -47.5v-100q0 -29 -17 -47t-43 -18h-230z" />
    <glyph glyph-name="afii10098" unicode="&#x491;" horiz-adv-x="400" 
d="M350 400h-165v-340q0 -30 -16.5 -47.5t-43.5 -17.5t-43.5 17.5t-16.5 47.5v385q0 30 16.5 47.5t43.5 17.5h165v45q0 30 16.5 47.5t43.5 17.5t43.5 -17.5t16.5 -47.5v-90q0 -30 -16.5 -47.5t-43.5 -17.5z" />
    <glyph glyph-name="uni1E9E" unicode="&#x1e9e;" horiz-adv-x="585" 
d="M400 415v-5q6 -1 16.5 -4t37.5 -18t47 -35t37 -59.5t17 -88.5q0 -94 -60.5 -154.5t-154.5 -60.5q-26 0 -43 17t-17 43t17 43t43 17q32 0 58.5 31t26.5 74q0 45 -29 75t-71 30q-23 0 -39 16t-16 39q0 13 15 50l70 150v5h-45q-51 0 -83 -40.5t-32 -119.5v-360
q0 -30 -17.5 -47.5t-47.5 -17.5t-47.5 17.5t-17.5 47.5v360q0 129 69 204.5t176 75.5h110q30 0 47.5 -17.5t17.5 -47.5q0 -33 -10 -55z" />
    <glyph glyph-name="endash" unicode="&#x2013;" horiz-adv-x="530" 
d="M450 265h-370q-26 0 -43 16t-17 39t17 39t43 16h370q26 0 43 -16t17 -39t-17 -39t-43 -16z" />
    <glyph glyph-name="emdash" unicode="&#x2014;" horiz-adv-x="730" 
d="M650 265h-570q-26 0 -43 16t-17 39t17 39t43 16h570q26 0 43 -16t17 -39t-17 -39t-43 -16z" />
    <glyph glyph-name="quoteleft" unicode="&#x2018;" horiz-adv-x="210" 
d="M30 535q0 75 41 125t89 50q10 0 17.5 -7t7.5 -18q0 -9 -5 -15t-9 -8t-6 -2q-50 -20 -50 -60q27 0 46 -21t19 -54q0 -34 -20.5 -54.5t-54.5 -20.5t-54.5 22t-20.5 63z" />
    <glyph glyph-name="quoteright" unicode="&#x2019;" horiz-adv-x="210" 
d="M180 625q0 -75 -41 -125t-89 -50q-10 0 -17.5 7t-7.5 18q0 9 5 15t9 8t6 2q50 20 50 60q-27 0 -46 21t-19 54q0 34 20.5 54.5t54.5 20.5t54.5 -22t20.5 -63z" />
    <glyph glyph-name="quotesinglbase" unicode="&#x201a;" horiz-adv-x="210" 
d="M180 55q0 -75 -41 -125t-89 -50q-10 0 -17.5 7t-7.5 18q0 9 5 15t9 8t6 2q50 20 50 60q-27 0 -46 21t-19 54q0 34 20.5 54.5t54.5 20.5t54.5 -22t20.5 -63z" />
    <glyph glyph-name="quotedblleft" unicode="&#x201c;" horiz-adv-x="395" 
d="M215 535q0 75 41 125t89 50q11 0 18 -7t7 -18q0 -9 -5 -15t-9 -8t-6 -2q-50 -20 -50 -60q27 0 46 -21t19 -54q0 -34 -20.5 -54.5t-54.5 -20.5t-54.5 22t-20.5 63zM30 535q0 75 41 125t89 50q10 0 17.5 -7t7.5 -18q0 -9 -5 -15t-9 -8t-6 -2q-50 -20 -50 -60q27 0 46 -21
t19 -54q0 -34 -20.5 -54.5t-54.5 -20.5t-54.5 22t-20.5 63z" />
    <glyph glyph-name="quotedblright" unicode="&#x201d;" horiz-adv-x="395" 
d="M180 625q0 -75 -41 -125t-89 -50q-10 0 -17.5 7t-7.5 18q0 9 5 15t9 8t6 2q50 20 50 60q-27 0 -46 21t-19 54q0 34 20.5 54.5t54.5 20.5t54.5 -22t20.5 -63zM365 625q0 -75 -41 -125t-89 -50q-11 0 -18 7t-7 18q0 9 5 15t9 8t6 2q50 20 50 60q-27 0 -46 21t-19 54
q0 34 20.5 54.5t54.5 20.5t54.5 -22t20.5 -63z" />
    <glyph glyph-name="quotedblbase" unicode="&#x201e;" horiz-adv-x="395" 
d="M180 55q0 -75 -41 -125t-89 -50q-10 0 -17.5 7t-7.5 18q0 9 5 15t9 8t6 2q50 20 50 60q-27 0 -46 21t-19 54q0 34 20.5 54.5t54.5 20.5t54.5 -22t20.5 -63zM365 55q0 -75 -41 -125t-89 -50q-11 0 -18 7t-7 18q0 9 5 15t9 8t6 2q50 20 50 60q-27 0 -46 21t-19 54
q0 34 20.5 54.5t54.5 20.5t54.5 -22t20.5 -63z" />
    <glyph glyph-name="dagger" unicode="&#x2020;" 
d="M410 400h-100v-395q0 -30 -17.5 -47.5t-47.5 -17.5t-47.5 17.5t-17.5 47.5v395h-100q-26 0 -43 17t-17 43t17 43t43 17h100v170q0 30 17.5 47.5t47.5 17.5t47.5 -17.5t17.5 -47.5v-170h100q26 0 43 -17t17 -43t-17 -43t-43 -17z" />
    <glyph glyph-name="daggerdbl" unicode="&#x2021;" horiz-adv-x="510" 
d="M320 255h100q26 0 43 -17t17 -43t-17 -43t-43 -17h-100v-130q0 -30 -17.5 -47.5t-47.5 -17.5t-47.5 17.5t-17.5 47.5v130h-100q-26 0 -43 17t-17 43t17 43t43 17h100v185h-100q-26 0 -43 17t-17 43t17 43t43 17h100v130q0 30 17.5 47.5t47.5 17.5t47.5 -17.5t17.5 -47.5
v-130h100q26 0 43 -17t17 -43t-17 -43t-43 -17h-100v-185z" />
    <glyph glyph-name="bullet" unicode="&#x2022;" horiz-adv-x="340" 
d="M270 320q0 -48 -29 -79t-71 -31t-71 31t-29 79t29 79t71 31t71 -31t29 -79z" />
    <glyph glyph-name="ellipsis" unicode="&#x2026;" horiz-adv-x="670" 
d="M490 65q0 34 20.5 54.5t54.5 20.5t54.5 -20.5t20.5 -54.5t-20.5 -54.5t-54.5 -20.5t-54.5 20.5t-20.5 54.5zM30 65q0 34 20.5 54.5t54.5 20.5t54.5 -20.5t20.5 -54.5t-20.5 -54.5t-54.5 -20.5t-54.5 20.5t-20.5 54.5zM260 65q0 34 20.5 54.5t54.5 20.5t54.5 -20.5
t20.5 -54.5t-20.5 -54.5t-54.5 -20.5t-54.5 20.5t-20.5 54.5z" />
    <glyph glyph-name="perthousand" unicode="&#x2030;" horiz-adv-x="1040" 
d="M165 415q45 0 45 70v65q0 70 -45 70t-45 -70v-65q0 -70 45 -70zM165 340q-57 0 -96 41t-39 104v65q0 63 39 104t96 41t96 -41t39 -104v-65q0 -63 -39 -104t-96 -41zM560 65q45 0 45 70v65q0 70 -45 70t-45 -70v-65q0 -70 45 -70zM560 -10q-57 0 -96 41t-39 104v65
q0 63 39 104t96 41t96 -41t39 -104v-65q0 -63 -39 -104t-96 -41zM565 595l-315 -575q-21 -40 -55 -40q-23 0 -39 16t-16 39q0 17 20 55l315 575q21 40 55 40q22 0 38.5 -16.5t16.5 -38.5q0 -18 -20 -55zM875 65q45 0 45 70v65q0 70 -45 70t-45 -70v-65q0 -70 45 -70z
M875 -10q-57 0 -96 41t-39 104v65q0 63 39 104t96 41t96 -41t39 -104v-65q0 -63 -39 -104t-96 -41z" />
    <glyph glyph-name="guilsinglleft" unicode="&#x2039;" horiz-adv-x="340" 
d="M150 250l135 -140q25 -25 25 -50q0 -22 -16 -38.5t-39 -16.5q-7 0 -13.5 1.5t-10.5 2.5t-8.5 4.5t-6.5 5t-6 6t-5 5.5l-115 120q-1 1 -7.5 7t-8.5 8.5t-8.5 9.5t-9 11t-8 11t-8 13t-5.5 13.5t-4 15.5t-1 16t1 16t4 15.5t5.5 13.5t8 13t8 11t9 11t8.5 9.5t8.5 8.5t7.5 7
l115 120q1 1 5 5.5t6 6t6.5 5t8.5 4.5t10.5 2.5t13.5 1.5q23 0 39 -16.5t16 -38.5q0 -25 -25 -50l-135 -140v-10z" />
    <glyph glyph-name="guilsinglright" unicode="&#x203a;" horiz-adv-x="340" 
d="M190 260l-135 140q-25 25 -25 50q0 22 16 38.5t39 16.5q7 0 13.5 -1.5t10.5 -2.5t8.5 -4.5t6.5 -5t6 -6t5 -5.5l115 -120q1 -1 7.5 -7t8.5 -8.5t8.5 -9.5t9 -11t8 -11t8 -13t5.5 -13.5t4 -15.5t1 -16t-1 -16t-4 -15.5t-5.5 -13.5t-8 -13t-8 -11t-9 -11t-8.5 -9.5
t-8.5 -8.5t-7.5 -7l-115 -120q-1 -1 -5 -5.5t-6 -6t-6.5 -5t-8.5 -4.5t-10.5 -2.5t-13.5 -1.5q-23 0 -39 16.5t-16 38.5q0 25 25 50l135 140v10z" />
    <glyph glyph-name="fraction" unicode="&#x2044;" horiz-adv-x="485" 
d="M445 595l-315 -575q-21 -40 -55 -40q-23 0 -39 16t-16 39q0 17 20 55l315 575q21 40 55 40q22 0 38.5 -16.5t16.5 -38.5q0 -18 -20 -55z" />
    <glyph glyph-name="foursuperior" unicode="&#x2074;" horiz-adv-x="330" 
d="M40 520l130 160q20 25 50 25q19 0 32 -13t13 -32v-150h10q17 0 28.5 -12t11.5 -28t-11.5 -28t-28.5 -12h-10v-25q0 -19 -13 -32t-32 -13t-32 13t-13 32v25h-120q-17 0 -28.5 12t-11.5 28q0 19 25 50zM125 510v-5h55v80h-4z" />
    <glyph glyph-name="Euro" unicode="&#x20ac;" horiz-adv-x="565" 
d="M320 100q75 0 110 70q20 40 55 40q30 0 47.5 -17.5t17.5 -47.5q0 -54 -69.5 -109.5t-160.5 -55.5q-102 0 -171 65.5t-82 179.5h-7q-22 0 -36 13.5t-14 36.5t14 36.5t36 13.5h5v50h-5q-22 0 -36 13.5t-14 36.5t14 36.5t36 13.5h7q13 114 82 179.5t171 65.5
q92 0 153.5 -48.5t61.5 -101.5q0 -28 -17.5 -46.5t-42.5 -18.5q-33 0 -55 35q-39 60 -100 60q-47 0 -80 -32t-42 -93h127q23 0 36.5 -13.5t13.5 -36.5t-13.5 -36.5t-36.5 -13.5h-130v-50h130q23 0 36.5 -13.5t13.5 -36.5t-13.5 -36.5t-36.5 -13.5h-127q9 -61 42 -93t80 -32z
" />
    <glyph glyph-name="uni20B4" unicode="&#x20b4;" horiz-adv-x="570" 
d="M490 370h-410q-22 0 -36 14t-14 36t14 36t36 14h255q25 25 25 65q0 27 -20 46t-50 19q-65 0 -100 -50q-13 -19 -24 -27t-31 -8q-25 0 -42.5 18.5t-17.5 46.5q0 50 60.5 95t154.5 45q82 0 141 -57t59 -133q0 -16 -2.5 -31t-5.5 -22l-2 -7h10q22 0 36 -14t14 -36t-14 -36
t-36 -14zM80 330h410q22 0 36 -14t14 -36t-14 -36t-36 -14h-255q-25 -25 -25 -65q0 -27 20 -46t50 -19q65 0 100 50q13 19 24 27t31 8q25 0 42.5 -18.5t17.5 -46.5q0 -50 -60.5 -95t-154.5 -45q-82 0 -141 57t-59 133q0 16 2.5 31t5.5 22l2 7h-10q-22 0 -36 14t-14 36t14 36
t36 14z" />
    <glyph glyph-name="uni20BD" unicode="&#x20bd;" horiz-adv-x="555" 
d="M145 700h165q96 0 160.5 -61.5t64.5 -148.5t-64.5 -148.5t-160.5 -61.5h-100v-50h210q26 0 43 -17t17 -43t-17 -43t-43 -17h-210v-50q0 -30 -17.5 -47.5t-47.5 -17.5t-47.5 17.5t-17.5 47.5v50q-26 0 -43 17t-17 43t17 43t43 17v50q-26 0 -43 17t-17 43t17 43t43 17v235
q0 30 17.5 47.5t47.5 17.5zM310 580h-100v-180h100q41 0 65.5 24.5t24.5 65.5t-24.5 65.5t-65.5 24.5z" />
    <glyph glyph-name="afii61352" unicode="&#x2116;" horiz-adv-x="950" 
d="M850 175h-150q-26 0 -43 16t-17 39t17 39t43 16h150q26 0 43 -16t17 -39t-17 -39t-43 -16zM450 275v365q0 30 17.5 47.5t47.5 17.5t47.5 -17.5t17.5 -47.5v-580q0 -30 -17.5 -47.5t-47.5 -17.5q-19 0 -34 9.5t-23 20t-23 35.5l-220 365h-5v-365q0 -30 -17.5 -47.5
t-47.5 -17.5t-47.5 17.5t-17.5 47.5v580q0 30 17.5 47.5t47.5 17.5q27 0 43 -14.5t37 -50.5l220 -365h5zM775 440q16 0 28 16.5t12 48.5v55q0 32 -12 48.5t-28 16.5t-28 -16.5t-12 -48.5v-55q0 -32 12 -48.5t28 -16.5zM775 355q-57 0 -96 41t-39 104v65q0 63 39 104t96 41
t96 -41t39 -104v-65q0 -63 -39 -104t-96 -41z" />
    <glyph glyph-name="trademark" unicode="&#x2122;" horiz-adv-x="736" 
d="M45 700h220q19 0 32 -13t13 -32t-13 -32t-32 -13h-60v-220q0 -22 -13.5 -36t-36.5 -14t-36.5 14t-13.5 36v220h-60q-19 0 -32 13t-13 32t13 32t32 13zM503 527h4l43 113q13 34 27.5 49.5t42.5 15.5q22 0 36.5 -17.5t18.5 -47.5l30 -245q4 -22 -10.5 -38.5t-34.5 -16.5
q-52 0 -55 65l-10 120h-5l-45 -105q-14 -30 -40 -30t-40 30l-45 105h-5l-10 -120q-3 -65 -55 -65q-20 0 -34.5 16.5t-10.5 38.5l30 245q4 30 18.5 47.5t36.5 17.5q28 0 42.5 -15.5t27.5 -49.5z" />
    <glyph glyph-name="minus" unicode="&#x2212;" horiz-adv-x="460" 
d="M385 290h-310q-23 0 -39 16t-16 39t16 39t39 16h310q23 0 39 -16t16 -39t-16 -39t-39 -16z" />
    <glyph glyph-name="cyrBreve" horiz-adv-x="410" 
d="M205 750q-70 0 -117.5 45.5t-47.5 109.5q0 19 13 32t32 13q32 0 50 -40q12 -28 27.5 -44t42.5 -16t42.5 16t27.5 44q18 40 50 40q19 0 32 -13t13 -32q0 -64 -47.5 -109.5t-117.5 -45.5z" />
    <glyph glyph-name="cyrbreve" horiz-adv-x="370" 
d="M185 570q-60 0 -102.5 41t-42.5 94q0 19 13 32t32 13q30 0 45 -30l3 -6q9 -18 14 -26t15 -15.5t23 -7.5t23 7.5t15 15.5t14 26l3 6q15 30 45 30q19 0 32 -13t13 -32q0 -53 -42.5 -94t-102.5 -41z" />
    <glyph glyph-name="foundryicon" horiz-adv-x="1230" 
d="M100 -110v920h1030v-920h-1030zM1110 -90v880h-990v-880h990zM635 610h110q36 0 58 -19t22 -46t-22 -46t-58 -19h-55v-80h-55v210zM635 300h110q36 0 58 -19t22 -46t-22 -46t-58 -19h-55v-80h-55v210zM495 170l-75 130h60l40 -75h5l40 75h65l-80 -130v-80h-55v80z
M495 480l-75 130h60l40 -75h5l40 75h65l-80 -130v-80h-55v80zM300 255h-65v45h165l25 -45h-70v-165h-55v165zM300 565h-65v45h165l25 -45h-70v-165h-55v165zM790 400v65q20 4 38 21t22 39h80v-45h-85v-35h120v-45h-175zM790 90v65q20 4 38 21t22 39h80v-45h-85v-35h120v-45
h-175zM810 300h155v-45h-115q-9 37 -40 45zM810 610h155v-45h-115q-9 37 -40 45zM765 545q0 7 -6.5 13.5t-13.5 6.5h-55v-40h55q8 0 14 6t6 14zM765 235q0 7 -6.5 13.5t-13.5 6.5h-55v-40h55q8 0 14 6t6 14z" />
    <glyph glyph-name="commaaccent" horiz-adv-x="215" 
d="M175 -120q0 -60 -39 -107.5t-76 -47.5q-8 0 -14 6t-6 14q0 14 20 25q40 23 40 55q-20 0 -37.5 18.5t-17.5 46.5q0 30 17.5 47.5t47.5 17.5q65 0 65 -75z" />
    <glyph glyph-name="Germandbls" horiz-adv-x="585" 
d="M400 415v-5q6 -1 16.5 -4t37.5 -18t47 -35t37 -59.5t17 -88.5q0 -94 -60.5 -154.5t-154.5 -60.5q-26 0 -43 17t-17 43t17 43t43 17q32 0 58.5 31t26.5 74q0 45 -29 75t-71 30q-23 0 -39 16t-16 39q0 13 15 50l70 150v5h-45q-51 0 -83 -40.5t-32 -119.5v-360
q0 -30 -17.5 -47.5t-47.5 -17.5t-47.5 17.5t-17.5 47.5v360q0 129 69 204.5t176 75.5h110q30 0 47.5 -17.5t17.5 -47.5q0 -33 -10 -55z" />
    <glyph glyph-name="CR" horiz-adv-x="0" 
 />
    </font>
</defs>
</svg>
